<?xml version="1.0" encoding="UTF-8"?>
<svg width="113px" height="140px" viewBox="0 0 113 140" version="1.1" xmlns="http://www.w3.org/2000/svg" xmlns:xlink="http://www.w3.org/1999/xlink">
    <!-- Generator: Sketch 51.2 (57519) - http://www.bohemiancoding.com/sketch -->
    <title>uEA04-patient</title>
    <desc>Created with Sketch.</desc>
    <defs></defs>
    <g id="DESKTOP" stroke="none" stroke-width="1" fill="none" fill-rule="evenodd">
        <g id="JJMDC-Desktop-Homepage-Custom-Homepage" transform="translate(-178.000000, -1220.000000)" fill="#FFFFFF">
            <g id="uEA04-patient" transform="translate(178.000000, 1220.000000)">
                <path d="M56.5,67.2 C39.975146,67.2 26.5061728,52.1132463 26.5061728,33.6 C26.5061728,15.0867537 39.975146,0 56.5,0 C73.024854,0 86.4938272,15.0598737 86.4938272,33.6 C86.4938272,52.1401263 73.0256848,67.2 56.5,67.2 Z M56.5,7.79237053 L56.500277,7.79228564 C44.8431193,7.79228564 35.2417573,18.1539597 34.2140048,31.3066267 C40.2446197,29.1788625 50.9282935,24.2608128 58.0955165,14.3962772 C59.3665846,12.6555001 61.8278509,12.2962843 63.5046526,13.6502299 C63.5857993,13.7054046 69.0760822,18.0159663 76.1621584,21.3594139 C72.4025444,13.2910282 64.9924351,7.79237053 56.5,7.79237053 Z M61.8821333,22.0500884 L61.8802778,22.0486737 C52.7394997,32.7426695 40.6226028,37.5780985 34.7265863,39.4018358 C37.026667,50.8418223 45.8971406,59.4076295 56.4991138,59.4076295 C68.8053069,59.4076295 78.8393914,47.8308379 78.8393914,33.6 C78.8393914,32.6882021 78.785289,31.7487178 78.7041561,30.8368775 C71.6997804,28.4053693 65.4251715,24.5093255 61.8821333,22.0500884 Z" id="Fill-1"></path>
                <path d="M72.3995856,70.0609438 C81.1456741,71.2402228 89.8114028,73.406962 98.1487173,76.5075194 C107.032505,79.7976489 113.027154,88.4099807 112.999908,97.9544456 L112.999908,136.132869 C112.999908,138.272085 111.283196,140 109.157851,140 L3.84205522,140 C1.71670969,140 0,138.272085 0,136.132869 L0,97.9544456 C0,88.4099807 5.96740075,79.7706875 14.8776963,76.4794346 C23.2164059,73.3802815 31.8808791,71.2135985 40.6276651,70.0342633 C42.2624818,69.8147809 43.8429722,70.6650469 44.5786816,72.1460967 C47.1521506,79.2157558 51.1259234,82.7505853 56.5,82.7505853 C61.8740766,82.7505853 65.856933,79.2246493 68.4485692,72.1727772 C69.1842228,70.6917556 70.7646294,69.8415316 72.3995856,70.0609438 Z M105.343278,132.264193 L105.343278,97.9243809 C105.343278,91.616544 101.392262,85.9118273 95.506475,83.7177055 C93.9804786,83.1417714 92.4546217,82.6206587 90.9014202,82.1269848 C87.834622,81.2376582 84.86457,80.4241363 81.9912642,79.6864192 C79.3753899,79.0830462 76.732171,78.5070981 74.0890916,78.0956985 C70.3286968,86.0448706 64.4701848,90.0194567 56.5135556,90.0194567 C48.5569264,90.0194567 42.6800916,86.0631257 38.8830513,78.1504637 C38.3925086,78.232738 37.9292826,78.3424512 37.4388097,78.4247255 C33.3097969,79.2658546 29.2771651,80.1892347 25.3409144,81.1948657 C22.6432853,81.990226 19.9456563,82.840464 17.3025769,83.8278118 C11.4713397,86.0224953 7.68383281,91.6998294 7.68383281,97.9530414 L7.68383281,132.264193 L105.343278,132.264193 Z" id="Fill-2"></path>
                <path d="M70.4103239,99.7405874 L70.4103239,99.7405874 C71.763986,97.4409081 74.721018,96.6665891 77.0280439,98.0076924 L94.7344967,108.300677 C97.0702753,109.658495 97.8630693,112.652746 96.5052517,114.988525 C96.4874525,115.019144 96.4693214,115.049568 96.4508615,115.079793 L96.4508615,115.079793 C95.0074532,117.443142 91.9301107,118.203376 89.552221,116.784051 L72.1054919,106.370372 C69.8136862,105.002429 69.0564038,102.040705 70.4103239,99.7405874 Z M75.2803066,111.588828 L83.9737719,116.777821 L82.7941092,118.813536 C81.3937042,121.230181 78.3122861,122.074498 75.8756237,120.709221 C73.4676754,119.360032 72.6093809,116.314271 73.9585694,113.906323 C73.9647997,113.895204 73.9710726,113.884108 73.9773878,113.873036 L75.2803066,111.588828 Z M82.8624183,98.2962709 L83.9038583,96.4704734 C85.3216271,93.9849162 88.4612355,93.0809529 90.9836599,94.4320406 C93.4044306,95.7286794 94.3157196,98.7422353 93.0190807,101.163006 C92.9929002,101.211884 92.9659039,101.260321 92.9381032,101.308296 L91.7048509,103.436489 L82.8624183,98.2962709 Z" id="Combined-Shape" fill-rule="nonzero"></path>
            </g>
        </g>
    </g>
</svg>