<?xml version="1.0" encoding="UTF-8"?>
<svg width="36px" height="35px" viewBox="0 0 36 35" version="1.1" xmlns="http://www.w3.org/2000/svg" xmlns:xlink="http://www.w3.org/1999/xlink">
    <!-- Generator: Sketch 51.2 (57519) - http://www.bohemiancoding.com/sketch -->
    <title>uEA09-linkedin</title>
    <desc>Created with Sketch.</desc>
    <defs></defs>
    <g id="Page-1" stroke="none" stroke-width="1" fill="none" fill-rule="evenodd">
        <g id="SocialMediaIcons" transform="translate(-242.000000, -105.000000)" fill="#1A1A1A" fill-rule="nonzero">
            <path d="M269.07109,115.80305 C274.11838,115.80305 277.89195,119.09956 277.89195,126.18889 L277.89195,139.42016 L270.22349,139.42016 L270.22349,127.07097 C270.22349,123.9682 269.11544,121.84961 266.33947,121.84961 C264.22019,121.84961 262.95314,123.28833 262.39854,124.66658 C262.19597,125.1597 262.15669,125.84053 262.15669,126.53034 L262.15669,139.42016 L254.47403,139.42016 C254.47403,139.42016 254.57471,118.50942 254.47403,116.34369 L262.15669,116.34369 L262.15669,119.6017 C263.17647,118.0291 265.0033,115.80305 269.07109,115.80305 Z M242.56589,116.34369 L250.23431,116.34369 L250.23431,139.42016 L242.56589,139.42016 L242.56589,116.34369 Z M246.44991,105.21805 C249.07436,105.21805 250.68242,106.93688 250.73226,109.20165 C250.73226,111.41655 249.06821,113.18526 246.39299,113.18526 L246.35039,113.18526 C243.77591,113.18526 242.11071,111.41655 242.11071,109.20165 C242.11071,106.93688 243.82578,105.21805 246.44998,105.21805 L246.44991,105.21805 Z" id="uEA09-linkedin"></path>
        </g>
    </g>
</svg>