<?xml version="1.0" encoding="UTF-8"?>
<svg width="52px" height="42px" viewBox="0 0 52 42" version="1.1" xmlns="http://www.w3.org/2000/svg" xmlns:xlink="http://www.w3.org/1999/xlink">
    <!-- Generator: Sketch 51.2 (57519) - http://www.bohemiancoding.com/sketch -->
    <title>uEA07-twitter</title>
    <desc>Created with Sketch.</desc>
    <defs></defs>
    <g id="Page-1" stroke="none" stroke-width="1" fill="none" fill-rule="evenodd">
        <g id="SocialMediaIcons" transform="translate(-149.000000, -10.000000)" fill="#1A1A1A" fill-rule="nonzero">
            <path d="M200.57815,15.26515 C198.71036,16.09405 196.70174,16.65428 194.59429,16.90667 C196.74521,15.61653 198.39676,13.57462 199.17479,11.14204 C197.16173,12.33658 194.93241,13.20304 192.55781,13.67008 C190.65807,11.64549 187.94982,10.37998 184.95288,10.37998 C179.1979,10.37998 174.53343,15.04483 174.53343,20.79943 C174.53343,21.6164 174.62473,22.41189 174.8031,23.17402 C166.14295,22.74005 158.46519,18.59055 153.32588,12.28716 C152.42891,13.82539 151.91513,15.61504 151.91513,17.52494 C151.91513,21.14044 153.75391,24.32918 156.55062,26.19845 C154.84262,26.14505 153.2357,25.67613 151.83079,24.89513 C151.82879,24.93903 151.82879,24.98233 151.82879,25.02591 C151.82879,30.07531 155.42095,34.28574 160.18723,35.24361 C159.31364,35.48178 158.39334,35.60773 157.44294,35.60773 C156.77084,35.60773 156.11917,35.54413 155.48185,35.42195 C156.8087,39.56142 160.6561,42.57434 165.21653,42.65868 C161.64747,45.45387 157.15532,47.1188 152.27312,47.1188 C151.43264,47.1188 150.60259,47.0693 149.78677,46.97352 C154.39997,49.92989 159.87628,51.65434 165.7613,51.65434 C184.92672,51.65434 195.40599,35.77752 195.40599,22.00705 C195.40599,21.5555 195.39559,21.10703 195.37669,20.66017 C197.41168,19.1899 199.17804,17.35521 200.57583,15.26523" id="uEA07-twitter"></path>
        </g>
    </g>
</svg>