<?xml version="1.0" encoding="UTF-8"?>
<svg width="117px" height="116px" viewBox="0 0 117 116" version="1.1" xmlns="http://www.w3.org/2000/svg" xmlns:xlink="http://www.w3.org/1999/xlink">
    <!-- Generator: Sketch 51.2 (57519) - http://www.bohemiancoding.com/sketch -->
    <title>uEA04-patient</title>
    <desc>Created with Sketch.</desc>
    <defs></defs>
    <g id="DESKTOP" stroke="none" stroke-width="1" fill="none" fill-rule="evenodd">
        <g id="JJMDC-Desktop-Homepage-Custom-Homepage" transform="translate(-183.000000, -1234.000000)" fill="#FFFFFF">
            <g id="uEA04-patient" transform="translate(183.000000, 1234.000000)">
                <path d="M58.5,0 C50.1468772,0 42.1348137,3.31647594 36.2277947,9.2284976 C30.3210218,15.1357204 27,23.1438415 27,31.5023994 C27,39.8561585 30.3210218,47.8688323 36.2277947,53.7763012 C42.1345676,59.6835241 50.1457699,63 58.5,63 C66.8542301,63 74.8651863,59.6835241 80.7722053,53.7763012 C86.6789782,47.8690784 90,39.8572659 90,31.5023994 C90,23.1438415 86.6789782,15.1359665 80.7722053,9.2284976 C74.8654324,3.31647594 66.8542301,0 58.5,0 Z M58.5,53.8956565 C52.5211273,53.8956565 46.7874678,51.5164267 42.5629834,47.2866987 C38.3431744,43.0521718 35.9737228,37.3131537 35.9833197,31.3337025 C35.9977396,25.3543743 38.381562,19.6250769 42.6253633,15.4102375 C46.8643661,11.1949059 52.602947,8.83979328 58.5820659,8.85898856 C64.5609386,8.88301956 70.2850012,11.2815307 74.4957054,15.5256552 C78.7011191,19.7745786 81.0512538,25.5231943 81.0176646,31.5020303 C80.9840262,37.4524425 78.595307,43.1481481 74.3804195,47.3442845 C70.1606105,51.5404208 64.4509433,53.8955334 58.5012304,53.8955334 L58.5,53.8956565 Z" id="Fill-1"></path>
                <path d="M85.4708714,64.0008729 L76.6044243,64.0008729 C74.2182229,63.9577765 72.0965665,65.5143367 71.4327407,67.7988774 C69.6671364,73.4312087 64.428085,77.2674666 58.5010685,77.2674666 C52.5740521,77.2674666 47.3350007,73.4312087 45.5693964,67.7988774 C44.9054967,65.5143367 42.7839142,63.9578378 40.3977128,64.0008729 L31.5312657,64.0008729 C23.1650896,64.0008729 15.1499161,67.3055059 9.23706661,73.1916342 C3.31965659,79.0777625 0.000157927921,87.0609651 0.000157927921,95.3859966 L0.000157927921,111.324938 C-0.0190856318,113.676545 1.72241034,115.673694 4.06538302,115.984995 C5.31618361,116.085571 6.55257463,115.668901 7.48587189,114.835552 C8.41437826,114.002203 8.96279201,112.819275 8.99173432,111.569173 L8.99173432,95.3862418 C8.99173432,89.437829 11.3635225,83.7289908 15.5923024,79.5233172 C19.8210824,75.3134751 25.5507984,72.9475232 31.5302805,72.9475232 L36.2112995,72.9475232 L36.2064963,72.9475232 C37.2023459,72.9762623 38.0972299,73.5413959 38.5493458,74.4226109 C41.1039052,79.2693976 45.351898,83.0194627 50.4947624,84.9640135 C52.5730669,85.7734174 53.9441936,87.7706158 53.9441936,89.992872 L53.9441936,111.44914 C53.9441936,112.651267 54.4252764,113.805529 55.2767716,114.658017 C56.1331069,115.505735 57.2925114,115.984627 58.5000833,115.984627 C61.0162172,115.984627 63.055973,113.954006 63.055973,111.44914 L63.055973,89.992872 C63.055973,87.7706158 64.4270997,85.7734665 66.5054041,84.9640135 C71.6482686,83.0195853 75.8962613,79.2695202 78.4508208,74.4226109 C78.9030475,73.5413713 79.7979315,72.9762133 80.7936703,72.9475232 L85.4746893,72.9475232 L85.4698738,72.9475232 C91.4498485,72.9475232 97.1795645,75.3134751 101.407852,79.5233172 C105.636632,83.7283777 108.008424,89.437216 108.008424,95.3862418 L108.008424,111.325183 C107.989174,113.67679 109.730676,115.673939 112.073649,115.985239 C113.324449,116.085815 114.56084,115.669145 115.494138,114.835796 C116.422644,114.002447 116.971058,112.81952 117,111.569417 L117,95.386487 C117,87.062559 113.680501,79.0784982 107.763091,73.1921246 C101.850484,67.3059963 93.8350646,64.0013634 85.4688885,64.0013634 L85.4708714,64.0008729 Z" id="Fill-2"></path>
            </g>
        </g>
    </g>
</svg>