<?xml version="1.0" encoding="UTF-8"?>
<svg width="113px" height="140px" viewBox="0 0 113 140" version="1.1" xmlns="http://www.w3.org/2000/svg" xmlns:xlink="http://www.w3.org/1999/xlink">
    <!-- Generator: Sketch 51.2 (57519) - http://www.bohemiancoding.com/sketch -->
    <title>uEA05-hcp</title>
    <desc>Created with Sketch.</desc>
    <defs></defs>
    <g id="DESKTOP" stroke="none" stroke-width="1" fill="none" fill-rule="evenodd">
        <g id="JJMDC-Desktop-Homepage-Custom-Homepage" transform="translate(-1068.000000, -1210.000000)" fill="#FFFFFF">
            <g id="uEA05-hcp" transform="translate(1068.000000, 1210.000000)">
                <path d="M56.5,67.2 C73.0256848,67.2 86.4938272,52.1401263 86.4938272,33.6 C86.4938272,15.0598737 73.024854,0 56.5,0 C39.975146,0 26.5061728,15.0867537 26.5061728,33.6 C26.5061728,52.1132463 39.975146,67.2 56.5,67.2 Z M56.5,7.79237053 C64.9924351,7.79237053 72.4025444,13.2910282 76.1621584,21.3594139 C69.0760822,18.0159663 63.5857993,13.7054046 63.5046526,13.6502299 C61.8278509,12.2962843 59.3665846,12.6555001 58.0955165,14.3962772 C50.9282935,24.2608128 40.2446197,29.1788625 34.2140048,31.3066267 C35.2417573,18.1539597 44.8431193,7.79228564 56.500277,7.79228564 L56.5,7.79237053 Z M61.8821333,22.0500884 C65.4251715,24.5093255 71.6997804,28.4053693 78.7041561,30.8368775 C78.785289,31.7487178 78.8393914,32.6882021 78.8393914,33.6 C78.8393914,47.8308379 68.8053069,59.4076295 56.4991138,59.4076295 C45.8971406,59.4076295 37.026667,50.8418223 34.7265863,39.4018358 C40.6226028,37.5780985 52.7394997,32.7426695 61.8802778,22.0486737 L61.8821333,22.0500884 Z" id="Fill-1"></path>
                <path d="M98.1495544,76.5061151 C89.8114028,73.406962 81.1456741,71.2402228 72.3995856,70.0609438 C70.7646294,69.8415316 69.1842228,70.6917556 68.4485692,72.1727772 L56.5136254,96.1712039 L44.5786816,72.1460967 C43.8429722,70.6650469 42.2624818,69.8147809 40.6276651,70.0342633 C31.8808791,71.2135985 23.2164059,73.3802815 14.8776963,76.4794346 C5.96740075,79.7706875 0,88.4099807 0,97.9544456 L0,136.132869 C0,138.272085 1.71670969,140 3.84205522,140 L109.157851,140 C111.283196,140 112.999908,138.272085 112.999908,136.132869 L112.999908,97.9544456 C113.027154,88.4099807 107.032505,79.7976489 98.1487173,76.5075194 L98.1495544,76.5061151 Z M105.343278,132.264193 L7.68383281,132.264193 L7.68383281,97.9530414 C7.68383281,91.6998294 11.4713397,86.0224953 17.3025769,83.8278118 C19.9456563,82.840464 22.6432853,81.990226 25.3409144,81.1948657 C22.4797757,86.8995824 22.1527566,92.8511641 22.7522452,97.2396885 C15.8311302,101.051914 13.2970107,109.499388 16.4578239,116.43843 L21.1172889,127.162175 C21.962,129.109432 24.2236919,130.014463 26.1855279,129.164338 C28.1201587,128.314114 29.0193219,126.03766 28.1747084,124.063021 L23.4606937,113.202083 C21.4715132,109.444623 23.8149319,104.425595 28.1201587,103.355987 C32.2892345,102.560613 36.1584962,104.837037 36.7307797,109.993258 L37.4392422,121.841516 C37.5754909,123.980732 39.4010781,125.598976 41.4993581,125.461782 C43.6247036,125.324644 45.2324548,123.487143 45.0961503,121.375169 L44.3876879,109.691488 C43.869968,101.436113 37.5483276,95.7313965 30.2996354,95.4567276 C29.8636563,91.3976374 30.3268823,84.0199116 37.4388097,78.4247255 C37.9292826,78.3424512 38.3925086,78.232738 38.8830513,78.1504637 L53.0799242,106.537134 C54.4968212,109.389422 58.5295925,109.389422 59.946629,106.537134 L74.0890916,78.0956985 C76.732171,78.5070981 79.3753899,79.0830462 81.9912642,79.6864192 C83.3536952,83.2243967 86.0785851,91.6169653 84.8524028,98.5832494 C78.6397363,99.6803103 73.898377,105.165615 73.898377,111.720598 C73.898377,119.098323 79.8657791,125.077288 87.168463,125.077288 C94.498352,125.077288 100.438549,119.070941 100.438549,111.720598 C100.438549,106.235363 97.1414313,101.545349 92.4546217,99.4608981 C93.4083206,93.3722627 92.2366322,86.926951 90.9014202,82.1269848 C92.4546217,82.6206587 93.9804786,83.1417714 95.506475,83.7177055 C101.392262,85.9118273 105.343278,91.616544 105.343278,97.9243809 L105.343278,132.264193 Z M87.1408394,106.153791 C90.2198978,106.153791 92.7268122,108.677066 92.7268122,111.776219 C92.7268122,114.875373 90.2198978,117.398648 87.1408394,117.398648 C84.061781,117.398648 81.5548666,114.875373 81.5548666,111.776219 C81.5821135,108.677066 84.061781,106.153791 87.1408394,106.153791 Z" id="Fill-2"></path>
            </g>
        </g>
    </g>
</svg>