<?xml version="1.0" encoding="UTF-8"?>
<svg width="40px" height="40px" viewBox="0 0 40 40" version="1.1" xmlns="http://www.w3.org/2000/svg" xmlns:xlink="http://www.w3.org/1999/xlink">
    <!-- Generator: Sketch 51.2 (57519) - http://www.bohemiancoding.com/sketch -->
    <title>uEA14-close-lg</title>
    <desc>Created with Sketch.</desc>
    <defs>
        <path d="M20.1421356,17.7279221 L32.7236111,5.14644661 C33.3093975,4.56066017 34.259145,4.56066017 34.8449314,5.14644661 C35.4307179,5.73223305 35.4307179,6.68198052 34.8449314,7.26776695 L22.263456,19.8492424 L35.1378246,32.7236111 C35.7236111,33.3093975 35.7236111,34.259145 35.1378246,34.8449314 C34.5520382,35.4307179 33.6022907,35.4307179 33.0165043,34.8449314 L20.1421356,21.9705627 L6.56066017,35.5520382 C5.97487373,36.1378246 5.02512627,36.1378246 4.43933983,35.5520382 C3.85355339,34.9662518 3.85355339,34.0165043 4.43933983,33.4307179 L18.0208153,19.8492424 L4.73223305,6.56066017 C4.14644661,5.97487373 4.14644661,5.02512627 4.73223305,4.43933983 C5.31801948,3.85355339 6.26776695,3.85355339 6.85355339,4.43933983 L20.1421356,17.7279221 Z" id="path-1"></path>
    </defs>
    <g id="uEA14-close-lg" stroke="none" stroke-width="1" fill="none" fill-rule="evenodd">
        <mask id="mask-2" fill="white">
            <use xlink:href="#path-1"></use>
        </mask>
        <use fill="#2B2D2F" fill-rule="nonzero" xlink:href="#path-1"></use>
    </g>
</svg>