<?xml version="1.0" encoding="UTF-8"?>
<svg width="40px" height="40px" viewBox="0 0 40 40" version="1.1" xmlns="http://www.w3.org/2000/svg" xmlns:xlink="http://www.w3.org/1999/xlink">
    <!-- Generator: Sketch 51.3 (57544) - http://www.bohemiancoding.com/sketch -->
    <title>uEA56-yammer-logo</title>
    <desc>Created with Sketch.</desc>
    <defs></defs>
    <g id="uEA56-yammer-logo" stroke="none" stroke-width="1" fill="none" fill-rule="evenodd">
        <path d="M1.82188211,34.2128268 C1.6304138,34.9192371 2.04575063,35.6494431 2.70419504,35.8405036 C3.31823231,35.9487794 3.98844016,36 4.66922801,36 C8.6683662,36 10.3332872,34.3392982 12.2501457,29.4737999 L21.6742941,6.03255689 C21.9319815,5.22647002 21.4836447,4.36088693 20.6784257,4.1041751 C19.8904799,3.85394146 19.0502415,4.26633175 18.7639302,5.04138593 L12.0148841,22.8310056 L11.2427252,22.8310056 L11.1209991,22.5237236 L4.15866109,4.9453426 C3.79172434,4.17184854 2.88632953,3.80304887 2.07741767,4.10545823 C1.24652209,4.41598975 0.813205136,5.32403858 1.07705971,6.1328881 L9.93175915,27.6739113 L9.8696916,27.8487159 C8.46593992,31.8021853 7.1226581,33.2735939 4.41093089,33.2735939 C4.19905417,33.2735939 3.35673706,33.230002 3.18405688,33.2159218 C2.55745204,33.1873959 1.98627251,33.598811 1.82188211,34.2128268 Z M32.7013018,8.0689925 C32.6566994,8.09186782 32.5986168,8.12261463 32.4862135,8.18202886 C31.7365537,8.59376743 29.088361,10.4292128 27.0868931,11.9612435 C25.8665394,12.8953676 24.8800815,13.7142529 24.2332546,14.3423434 C23.9468009,14.6204994 23.7329588,14.8558902 23.6005252,15.0368684 C24.8647729,15.0469424 29.6852063,13.0386026 33.9715061,10.7037798 C34.5680747,10.2292437 34.7123014,9.3758372 34.2982777,8.73097175 C33.9354463,8.16910648 33.2495985,7.91955785 32.7013018,8.0689925 Z M23.3615533,14.9940222 C23.3559637,14.9894668 23.3501704,14.9850843 23.3441744,14.9808943 C23.3461414,14.9822652 23.348155,14.9836102 23.3502151,14.9849295 L23.3615533,14.9940222 Z M24.2338597,26.471969 C24.8806519,27.1000538 25.8671653,27.9189324 27.0875142,28.8529297 C29.0898803,30.385446 31.7381955,32.220445 32.4831933,32.6290603 C32.5681894,32.6747854 32.6188363,32.7019842 32.6607811,32.7243025 C33.281923,32.8843876 33.9439876,32.63281 34.298906,32.0839797 C34.7133346,31.4381662 34.5694832,30.5851777 34.04328,30.1568082 C29.6909337,27.7790036 24.8652986,25.7673378 23.6012518,25.7774829 C23.7336223,25.9584373 23.9474259,26.1938197 24.2338597,26.471969 Z M31.116616,19.5725413 C29.5958096,19.8059435 28.3359522,20.0505346 27.4658828,20.290889 C27.0804476,20.3973645 26.7793585,20.5011989 26.5759537,20.5963936 C27.6804795,21.2116233 32.8796204,21.7641697 37.7587307,21.7728446 C38.5105324,21.6430676 39.0476759,20.9647434 38.9966487,20.2005884 C38.9490607,19.5346569 38.4668057,18.9849908 37.906184,18.8543252 C37.8381075,18.8510534 37.76551,18.8497413 37.6728715,18.8497366 C36.8150115,18.8516366 33.6079999,19.190182 31.116616,19.5725413 Z M26.3869065,20.4441908 C26.3842138,20.43755 26.3812628,20.4309601 26.378045,20.4244382 C26.379086,20.4265344 26.380178,20.4286303 26.3813208,20.430726 L26.3869065,20.4441908 Z" id="Shape" fill="#000000" fill-rule="nonzero"></path>
    </g>
</svg>