<?xml version="1.0" encoding="UTF-8"?>
<svg width="40px" height="40px" viewBox="0 0 40 40" version="1.1" xmlns="http://www.w3.org/2000/svg" xmlns:xlink="http://www.w3.org/1999/xlink">
    <!-- Generator: Sketch 51.3 (57544) - http://www.bohemiancoding.com/sketch -->
    <title>uEA57-jnjlogo</title>
    <desc>Created with Sketch.</desc>
    <defs></defs>
    <g id="uEA57-jnjlogo" stroke="none" stroke-width="1" fill="none" fill-rule="evenodd">
        <path d="M14.513077,18.6156234 C14.513077,18.5512445 14.5572225,18.5146864 14.6147037,18.5146864 C14.7087429,18.5146864 14.8540553,18.6156234 14.9340691,18.818187 C14.9053285,18.818187 14.8618727,18.8253147 14.8322125,18.8253147 C14.6586193,18.8253147 14.513077,18.745071 14.513077,18.6156234 Z M4.02552164,18.6156234 C4.02552164,18.5512445 4.06874749,18.5146864 4.12691843,18.5146864 C4.22095764,18.5146864 4.35845261,18.6156234 4.43869633,18.818187 C4.17060413,18.818187 4.02575157,18.7600161 4.02575157,18.6156234 L4.02552164,18.6156234 Z M6.04862907,17.5752141 C6.04862907,16.4991665 6.2583204,16.3331609 6.32407886,16.3331609 C6.44019084,16.3331609 6.45513594,16.4046675 6.45513594,16.8171524 C6.45513594,17.2429729 6.27372535,17.7987009 6.04862907,18.1028913 L6.04862907,17.5752141 Z M13.4112778,18.6376962 C13.2875783,18.8110594 13.1861815,19.056619 13.1861815,19.374145 C13.1861815,19.9811462 13.5338277,20.5589469 14.2079669,20.5589469 C14.8618727,20.5589469 15.3182733,20.0462149 15.3182733,19.3306892 C15.3182733,19.1216876 15.3111456,19.0924872 15.2973501,19.0060355 C15.4488705,18.9409668 15.5796976,18.8400299 15.6810944,18.7600161 C15.7686958,18.6949474 15.8333046,18.6588492 15.884118,18.6588492 C15.9501063,18.6588492 15.978617,18.7096626 15.978617,18.8034719 L15.978617,20.2191182 C15.978617,20.4504225 16.0512732,20.558717 16.231994,20.558717 C16.3989194,20.558717 16.5154912,20.442605 16.5805599,20.3060298 C16.8196816,19.8070932 17.1675576,19.1430706 17.3199977,18.8906133 C17.3565557,18.8315227 17.3855262,18.7885268 17.4066793,18.7885268 C17.4356498,18.7885268 17.450365,18.8108295 17.450365,18.9044088 L17.450365,20.0314997 C17.450365,20.3494855 17.5954475,20.558717 17.914353,20.558717 C18.2484336,20.558717 18.4148991,20.2409611 18.7055239,19.7498419 C18.7200092,19.7201816 18.7269069,19.6990286 18.7269069,19.6774156 C18.7269069,19.612347 18.6689659,19.5760189 18.6114847,19.5760189 C18.5461861,19.5760189 18.5089383,19.6417773 18.2921193,19.8797494 C18.2486636,19.9234351 18.2054377,19.987814 18.1247341,19.987814 C18.0962235,19.987814 18.0739208,19.9519457 18.0739208,19.90826 L18.0739208,18.6439041 C18.0739208,18.3040754 17.9214807,18.1675001 17.7260447,18.1675001 C17.5667069,18.1675001 17.4354199,18.2325688 17.297695,18.4346726 C17.0514457,18.7956544 16.7973789,19.3088464 16.6598839,19.5691211 C16.6447089,19.5976318 16.6235558,19.6417773 16.6088406,19.6417773 C16.5948152,19.6417773 16.5879175,19.6194746 16.5879175,19.5691211 L16.5879175,18.6439041 C16.5879175,18.3765017 16.5154912,18.1675001 16.2317641,18.1675001 C15.9342415,18.1675001 15.7820314,18.3700638 15.5647525,18.5208944 C15.4272576,18.6225211 15.3035581,18.6944876 15.2099787,18.7379433 C15.0644364,18.3698339 14.7965741,18.1817555 14.571018,18.1891131 C14.3452319,18.1964707 14.186354,18.3332759 14.186354,18.5645801 C14.186354,18.8032419 14.3318963,18.9687877 14.5273323,19.0421337 C14.6363166,19.0851296 14.7377134,19.0924872 14.882566,19.0924872 C14.9264816,19.0924872 14.9699373,19.0924872 14.9989079,19.0851296 C15.0131632,19.1575559 15.0064954,19.2584928 15.0064954,19.3382767 C15.0064954,19.6923608 14.7963442,20.0462149 14.4040927,20.0462149 C13.9978157,20.0462149 13.7582342,19.6558027 13.7582342,19.2081393 C13.7582342,18.8687705 13.859401,18.5868828 14.0260965,18.3916767 C14.0918549,18.3199402 14.1424384,18.2762545 14.1424384,18.2102661 C14.1424384,18.1748577 14.0920848,18.1677301 14.0483991,18.1677301 C13.7727194,18.1677301 13.4680692,18.29005 13.258148,18.3983445 C12.9820084,18.543427 12.6557452,18.7818589 12.3871932,19.0200609 C12.2570558,18.7312755 12.0974881,18.4778985 12.0177042,18.2829223 C11.9887337,18.2033684 11.9666609,18.110019 11.9091797,18.110019 C11.8579065,18.110019 11.8358338,18.1606024 11.8001954,18.2608496 C11.6693683,18.6439041 10.9729264,19.7640973 10.8207162,19.9158476 C10.806001,19.9374605 10.784848,19.9588435 10.7781801,19.9588435 C10.7623153,19.9588435 10.7551877,19.9521757 10.7551877,19.90849 L10.7551877,18.644134 C10.7551877,18.3043053 10.6170029,18.1677301 10.4289245,18.1677301 C10.2698166,18.1677301 10.1316319,18.2327988 10.0017244,18.4349026 C9.76191297,18.7958843 9.47151808,19.3240214 9.33356326,19.5836064 C9.31172041,19.6268322 9.28987757,19.6420072 9.28297982,19.6420072 C9.27539231,19.6420072 9.26849457,19.612347 9.26849457,19.569351 L9.26849457,18.644134 C9.26849457,18.3043053 9.13076967,18.1677301 8.94154165,18.1677301 C8.78243375,18.1677301 8.6302236,18.2256711 8.50698396,18.4349026 C8.20187389,18.9480945 7.69466,19.7358165 7.60039087,19.8654941 C7.58521584,19.886877 7.57096051,19.9018222 7.5569351,19.90849 C7.54199,19.90849 7.53509226,19.8942346 7.53509226,19.8581365 L7.53509226,18.6439041 C7.53509226,18.3040754 7.39713744,18.1675001 7.20905903,18.1675001 C6.94786457,18.1675001 6.80324194,18.4059321 6.70828304,18.5574524 C6.57745588,18.7669138 6.40386273,19.0488015 6.26590792,19.3088464 C6.17140886,19.4828994 6.09162499,19.6417773 6.06242456,19.6417773 C6.04816922,19.6417773 6.04816922,19.5760189 6.04816922,19.4530091 L6.04816922,18.485486 C6.5050296,17.9794217 6.78852676,17.3583951 6.78852676,16.6794275 C6.78852676,16.2883256 6.61424384,16.0717365 6.34615164,16.0717365 C5.84468587,16.0717365 5.46140139,16.8525608 5.46140139,17.777088 L5.46140139,18.5287118 C5.22894752,18.6733345 5.01120883,18.7448411 4.7428867,18.7956544 C4.60470196,18.3914468 4.31476691,18.1817555 4.08300282,18.1891131 C3.85859631,18.1964707 3.69902857,18.3332759 3.69902857,18.5645801 C3.69902857,18.9478646 4.07587515,19.1067425 4.40926597,19.1067425 L4.50376502,19.1067425 C4.51802035,19.1789389 4.51802035,19.2582629 4.51802035,19.3380468 C4.51802035,19.6921308 4.30786917,20.0459849 3.91722711,20.0459849 C3.51026039,20.0459849 3.2711387,19.6555728 3.2711387,19.2079094 C3.2711387,18.8685406 3.37207565,18.5866529 3.53900098,18.3914468 C3.60475944,18.3197103 3.65580272,18.2541818 3.65580272,18.2100362 C3.65580272,18.1746278 3.60475944,18.1675001 3.56130367,18.1675001 C3.28539403,18.1675001 2.6763235,18.5362994 1.95091108,19.2582629 C1.88561246,18.6802322 1.81341611,18.1171466 1.81341611,17.5680865 C1.81341611,16.9539576 1.9361959,16.4334081 1.96562626,16.2818877 C1.97965166,16.1883083 1.98792895,16.1303673 1.98792895,16.0866816 C1.98792895,16.0282807 1.95757889,16 1.87894465,16 C1.29125711,16 0,16.9318848 0,18.3256883 C0,19.315974 0.362591251,19.7926079 0.993964477,20.4069667 C0.609760304,21.0210956 0.305110076,21.7508766 0.305110076,22.4008737 C0.305110076,22.87015 0.414094384,23.224464 0.761510605,23.224464 C1.48738288,23.224464 2.03092487,21.7216762 2.03092487,20.6093005 C2.03092487,20.2775191 2.01666954,19.9445881 1.98815888,19.612347 C2.25602115,19.3306892 2.66942576,18.9480945 2.77105248,18.9124562 C2.72736679,19.0635167 2.69839628,19.2226246 2.69839628,19.374145 C2.69839628,19.9811462 3.04696212,20.5589469 3.72133126,20.5589469 C4.35201472,20.5589469 4.83071794,20.0462149 4.83071794,19.3306892 C4.83071794,19.2371098 4.82336035,19.1577858 4.81600276,19.0708743 C5.04799678,19.0276484 5.25906766,18.9687877 5.46209117,18.8462379 L5.46209117,20.2984423 C5.46209117,20.4867506 5.59268839,20.558717 5.71592803,20.558717 C5.88308329,20.558717 5.96953498,20.442605 6.09277462,20.1761223 C6.19440133,19.9588435 6.46939127,19.4608266 6.63654653,19.1646836 C6.76760361,18.9331494 6.84002989,18.7818589 6.89820084,18.7818589 C6.91222625,18.7818589 6.9267115,18.8179571 6.9267115,18.9046387 L6.9267115,20.1400241 C6.9267115,20.4715756 7.1007645,20.5589469 7.25228488,20.5589469 C7.39805714,20.5589469 7.49232626,20.4796229 7.58636547,20.3497155 C7.96390182,19.8146807 8.36328103,19.1791688 8.52215899,18.9046387 C8.55135943,18.8542852 8.58768753,18.8179571 8.61665804,18.8179571 C8.64562856,18.8179571 8.65988389,18.8317526 8.65988389,18.9260217 L8.65988389,20.2191182 C8.65988389,20.4504225 8.73299994,20.558717 8.91464046,20.558717 C9.08064609,20.558717 9.18917055,20.442605 9.25446916,20.3060298 C9.49428062,19.8070932 9.84928436,19.1497385 10.0026441,18.8906133 C10.0387423,18.8315227 10.0748405,18.781629 10.0966833,18.781629 C10.1256538,18.781629 10.1327815,18.8177272 10.1327815,18.9122262 L10.1327815,20.1397942 C10.1327815,20.4713456 10.3068345,20.558717 10.4597344,20.558717 C10.6613784,20.558717 10.7926654,20.4140944 10.9230327,20.2480888 C11.1623843,19.9374605 11.5102604,19.3817325 11.7211013,19.0276484 C11.7937575,19.1430706 11.8735414,19.2801058 11.93884,19.432086 C11.7645571,19.6417773 11.5902742,19.8797494 11.5902742,20.1322067 C11.5902742,20.3993792 11.7788124,20.558717 11.9744784,20.558717 C12.3087889,20.558717 12.6132092,20.2409611 12.6132092,19.8004254 C12.6132092,19.6268322 12.5623958,19.4456515 12.4973271,19.2727482 C12.7948497,18.9839628 13.1496235,18.7020751 13.4115077,18.6376962 L13.4112778,18.6376962 Z M1.46439041,20.2124504 C1.52256136,20.5950451 1.57360464,20.9707421 1.57360464,21.2668851 C1.57360464,21.9605679 1.34161062,22.769443 0.942691269,22.7618555 C0.790021268,22.7618555 0.659883888,22.6101052 0.652526298,22.3431626 C0.638270966,21.4763465 1.05121573,20.7394378 1.46439041,20.2126803 L1.46439041,20.2124504 Z M12.0542622,19.7201816 C12.0979479,19.8434213 12.1197908,19.9445881 12.1197908,20.0462149 C12.1197908,20.161867 12.0765649,20.2775191 11.9963212,20.2775191 C11.9386101,20.2775191 11.8804392,20.2124504 11.8804392,20.1105938 C11.8804392,20.0025292 11.9742484,19.8291659 12.0544922,19.7201816 L12.0542622,19.7201816 Z M1.72558487,16.27476 C1.72558487,16.3184457 1.62418808,16.5207794 1.4940507,16.8815313 C1.35586595,17.2572283 1.22526872,17.7913433 1.22526872,18.4346726 C1.22526872,18.8177272 1.3199977,19.3237915 1.39978157,19.8362936 L1.1673277,20.1469219 C0.797608783,19.6987986 0.565614761,19.1929643 0.565614761,18.3254584 C0.565614761,17.0983503 1.31218026,16.2464793 1.69684428,16.2464793 C1.71868713,16.2464793 1.72558487,16.2529172 1.72558487,16.2745301 L1.72558487,16.27476 Z M35.7864,18.6156234 C35.7864,18.5512445 35.8293959,18.5146864 35.8875668,18.5146864 C35.9822958,18.5146864 36.1271484,18.6156234 36.2069322,18.818187 C36.1784216,18.818187 36.1347359,18.8253147 36.1048457,18.8253147 C35.9312525,18.8253147 35.7864,18.745071 35.7864,18.6156234 Z M25.2979249,18.6156234 C25.2979249,18.5512445 25.3420705,18.5146864 25.3993217,18.5146864 C25.4940507,18.5146864 25.6320055,18.6156234 25.7115595,18.818187 C25.4432373,18.818187 25.2979249,18.7600161 25.2979249,18.6156234 Z M27.3224119,17.5752141 C27.3224119,16.4991665 27.5321032,16.3331609 27.5974019,16.3331609 C27.7137437,16.3331609 27.7277692,16.4046675 27.7277692,16.8171524 C27.7277692,17.2429729 27.5468184,17.7987009 27.3224119,18.1028913 L27.3224119,17.5752141 Z M22.7381732,20.2124504 C22.7956544,20.5950451 22.8473875,20.9707421 22.8473875,21.2668851 C22.8473875,21.9605679 22.6153935,22.769443 22.2157843,22.7618555 C22.0633443,22.7618555 21.9334368,22.6101052 21.9253894,22.3431626 C21.9111341,21.4763465 22.3247686,20.7394378 22.7379433,20.2126803 L22.7381732,20.2124504 Z M33.3280451,19.7201816 C33.3712709,19.8434213 33.3928838,19.9445881 33.3928838,20.0462149 C33.3928838,20.161867 33.3489682,20.2775191 33.2698741,20.2775191 C33.2119331,20.2775191 33.1533023,20.2124504 33.1533023,20.1105938 C33.1533023,20.0025292 33.2478013,19.8291659 33.3280451,19.7201816 Z M22.998448,16.27476 C22.998448,16.3184457 22.8975111,16.5207794 22.7666839,16.8815313 C22.6287291,17.2572283 22.4985917,17.7913433 22.4985917,18.4346726 C22.4985917,18.8177272 22.5940105,19.3237915 22.6733345,19.8362936 L22.4411105,20.1469219 C22.0711617,19.6987986 21.8384779,19.1929643 21.8384779,18.3254584 C21.8384779,17.0983503 22.5864229,16.2464793 22.9697074,16.2464793 C22.9913203,16.2464793 22.998448,16.2529172 22.998448,16.2745301 L22.998448,16.27476 Z M21.7888142,19.886877 C21.9187216,20.0607001 22.0780594,20.2264758 22.2670575,20.4071966 C21.8830833,21.0213255 21.578663,21.7511065 21.578663,22.4011036 C21.578663,22.87038 21.6867276,23.2246939 22.0348336,23.2246939 C22.7595562,23.2246939 23.3042479,21.7219061 23.3042479,20.6095304 C23.3042479,20.277749 23.2893028,19.9448181 23.2601023,19.6125769 C23.5286544,19.3309191 23.9418291,18.9483244 24.0429959,18.9126861 C24,19.0637466 23.9703397,19.2228545 23.9703397,19.3743749 C23.9703397,19.9813761 24.3191355,20.5591769 24.9935046,20.5591769 C25.6246479,20.5591769 26.1031212,20.0464448 26.1031212,19.3309191 C26.1031212,19.2373398 26.0966833,19.1580157 26.088636,19.0711042 C26.3208599,19.0278784 26.5321607,18.9690176 26.7340346,18.8464678 L26.7340346,20.2986722 C26.7340346,20.4869805 26.8646318,20.5589469 26.9876415,20.5589469 C27.1557165,20.5589469 27.2421682,20.442835 27.3654078,20.1763522 C27.4668046,19.9590734 27.7424843,19.4610565 27.9103294,19.1649135 C28.0404667,18.9333793 28.1126631,18.7820889 28.171064,18.7820889 C28.1853193,18.7820889 28.1991148,18.818187 28.1991148,18.9048687 L28.1991148,20.1402541 C28.1991148,20.4718055 28.3731678,20.5591769 28.5256079,20.5591769 C28.6709203,20.5591769 28.7651894,20.4798528 28.8596885,20.3499454 C29.2369949,19.8149106 29.6359142,19.1793987 29.7952521,18.9048687 C29.8246824,18.8545151 29.8605507,18.818187 29.889981,18.818187 C29.9184917,18.818187 29.9334368,18.8319825 29.9334368,18.9262517 L29.9334368,20.2193482 C29.9334368,20.4506524 30.0063229,20.5589469 30.186124,20.5589469 C30.3535092,20.5589469 30.4622636,20.442835 30.5280221,20.3062597 C30.7669138,19.8073231 31.1223774,19.1499684 31.2743576,18.8908432 C31.3106858,18.8317526 31.3474737,18.7818589 31.3702362,18.7818589 C31.3987469,18.7818589 31.4061045,18.8179571 31.4061045,18.9124562 L31.4061045,20.1400241 C31.4061045,20.4715756 31.5799276,20.5589469 31.731448,20.5589469 C31.9351612,20.5589469 32.0655285,20.4143243 32.1963557,20.2483187 C32.4345577,19.9376904 32.7833535,19.3819624 32.9939645,19.0278784 C33.0666207,19.1433006 33.1459447,19.2803357 33.2117032,19.4323159 C33.0376502,19.6420072 32.864057,19.8799793 32.864057,20.1324366 C32.864057,20.3996091 33.0512157,20.5589469 33.2478013,20.5589469 C33.5814221,20.5589469 33.8858424,20.241191 33.8858424,19.8006553 C33.8858424,19.6270621 33.835259,19.4458815 33.7697304,19.2729781 C34.0667931,18.9841927 34.4227166,18.702305 34.6841409,18.6379261 C34.5599816,18.8112893 34.4595045,19.0568489 34.4595045,19.3743749 C34.4595045,19.9813761 34.8069207,20.5591769 35.4815198,20.5591769 C36.1347359,20.5591769 36.5906766,20.0464448 36.5906766,19.3309191 C36.5906766,19.1219176 36.5835489,19.0927171 36.5697534,19.0062654 C36.7217336,18.9411968 36.8527907,18.8402598 36.9537277,18.760246 C37.0401793,18.6951773 37.1075473,18.6590792 37.1574409,18.6590792 C37.2225096,18.6590792 37.2521699,18.7098925 37.2521699,18.8037018 L37.2521699,20.2193482 C37.2521699,20.4506524 37.3243663,20.5589469 37.5055469,20.5589469 C37.6722423,20.5589469 37.7878945,20.442835 37.853423,20.3062597 C38.0918549,19.8073231 38.4408806,19.1433006 38.5930908,18.8908432 C38.628959,18.8317526 38.6583894,18.7887567 38.6795424,18.7887567 C38.7087429,18.7887567 38.7239179,18.8110594 38.7239179,18.9046387 L38.7239179,20.0317296 C38.7239179,20.3497155 38.8680807,20.5589469 39.1872162,20.5589469 C39.5212968,20.5589469 39.6882221,20.241191 39.9788469,19.7500719 C39.9931023,19.7204116 40,19.6992585 40,19.6776456 C40,19.6125769 39.9411393,19.5762488 39.8843479,19.5762488 C39.8185894,19.5762488 39.7827212,19.6420072 39.5645226,19.8799793 C39.5215267,19.923665 39.4780709,19.9880439 39.3980571,19.9880439 C39.3690866,19.9880439 39.3477036,19.9521757 39.3477036,19.90849 L39.3477036,18.644134 C39.3477036,18.3043053 39.1954935,18.1677301 38.9998276,18.1677301 C38.8391102,18.1677301 38.7087429,18.2327988 38.5712479,18.4349026 C38.3243088,18.7958843 38.0707018,19.3090763 37.9332069,19.569351 C37.9187216,19.5978617 37.8973386,19.6420072 37.8821636,19.6420072 C37.8665287,19.6420072 37.8605507,19.6197045 37.8605507,19.569351 L37.8605507,18.644134 C37.8605507,18.3767316 37.7878945,18.1677301 37.505317,18.1677301 C37.2075645,18.1677301 37.0551244,18.3702937 36.8380755,18.5211243 C36.6994309,18.622751 36.5764212,18.6947175 36.4826119,18.7381732 C36.3372995,18.3700638 36.0687475,18.1819854 35.844341,18.189343 C35.6187848,18.1967006 35.459447,18.3335058 35.459447,18.56481 C35.459447,18.8034719 35.6045295,18.9690176 35.8001954,19.0423636 C35.9087199,19.0853595 36.0108065,19.0927171 36.1561189,19.0927171 C36.1993447,19.0927171 36.2428005,19.0927171 36.2722308,19.0853595 C36.2864862,19.1577858 36.2791286,19.2587228 36.2791286,19.3385066 C36.2791286,19.6925907 36.0685176,20.0464448 35.6769558,20.0464448 C35.2706789,20.0464448 35.0310973,19.6560326 35.0310973,19.2083693 C35.0310973,18.8690004 35.132724,18.5871127 35.2994194,18.3919067 C35.3651779,18.3201701 35.4157613,18.2764845 35.4157613,18.2104961 C35.4157613,18.1750877 35.3654078,18.16796 35.3212623,18.16796 C35.0465023,18.16796 34.7411623,18.2902799 34.5307812,18.3985745 C34.2553314,18.543657 33.9292982,18.7820889 33.6607461,19.0202909 C33.5301489,18.7315054 33.3708111,18.4781284 33.2903374,18.2831523 C33.261137,18.2035983 33.2399839,18.1102489 33.1811232,18.1102489 C33.1314594,18.1102489 33.1096166,18.1608323 33.0730586,18.2610795 C32.9426913,18.644134 32.2460194,19.7643272 32.0938093,19.9160775 C32.0795539,19.9376904 32.0574812,19.9590734 32.0498937,19.9590734 C32.0360982,19.9590734 32.0280508,19.9524056 32.0280508,19.9087199 L32.0280508,18.644364 C32.0280508,18.3045353 31.8907858,18.16796 31.7022475,18.16796 C31.54199,18.16796 31.4054147,18.2330287 31.2736679,18.4351325 C31.035236,18.7961143 30.7448411,19.3242513 30.6066563,19.5838363 C30.5852733,19.6270621 30.5636604,19.6422372 30.5565327,19.6422372 C30.5491751,19.6422372 30.5413577,19.6125769 30.5413577,19.569581 L30.5413577,18.644364 C30.5413577,18.3045353 30.4038627,18.16796 30.2148646,18.16796 C30.0562166,18.16796 29.9030867,18.225901 29.780077,18.4351325 C29.4749669,18.9483244 28.9672932,19.7360464 28.8734839,19.865724 C28.8592286,19.887107 28.8445134,19.9020521 28.8297982,19.9087199 C28.8157728,19.9087199 28.8079554,19.8944646 28.8079554,19.8583664 L28.8079554,18.644134 C28.8079554,18.3043053 28.6704604,18.1677301 28.4816922,18.1677301 C28.2204978,18.1677301 28.0751854,18.406162 27.9811462,18.5576824 C27.8505489,18.7671438 27.6767259,19.0490314 27.5392309,19.3090763 C27.444272,19.4831293 27.364948,19.6420072 27.3364373,19.6420072 C27.3219521,19.6420072 27.3219521,19.5762488 27.3219521,19.4532391 L27.3219521,18.4857159 C27.7781227,17.9796517 28.0620797,17.3586251 28.0620797,16.6796574 C28.0620797,16.2885555 27.8873369,16.0719664 27.618325,16.0719664 C27.1173191,16.0719664 26.7335748,16.8527907 26.7335748,17.7773179 L26.7335748,18.5289418 C26.5013508,18.6735644 26.2836121,18.745071 26.0150601,18.7958843 C25.8782549,18.3916767 25.5876301,18.1819854 25.3563258,18.189343 C25.1309996,18.1967006 24.9716618,18.3335058 24.9716618,18.56481 C24.9716618,18.9480945 25.3487383,19.1069725 25.6814393,19.1069725 L25.7766282,19.1069725 C25.7906536,19.1791688 25.7906536,19.2584928 25.7906536,19.3382767 C25.7906536,19.6923608 25.5809622,20.0462149 25.1889406,20.0462149 C24.7831235,20.0462149 24.5437719,19.6558027 24.5437719,19.2081393 C24.5437719,18.8687705 24.6458585,18.5868828 24.812094,18.3916767 C24.8771627,18.3199402 24.9275162,18.2544117 24.9275162,18.2102661 C24.9275162,18.1748577 24.8769328,18.1677301 24.833707,18.1677301 C24.5577973,18.1677301 23.9487268,18.5365293 23.2230844,19.2584928 C23.1580157,18.6804621 23.0851296,18.1173766 23.0851296,17.5683164 C23.0851296,16.9541875 23.2083693,16.433638 23.2371098,16.2821176 C23.2515951,16.1885383 23.2594125,16.1305972 23.2594125,16.0869115 C23.2594125,16.0285107 23.2302121,16.0002299 23.1501983,16.0002299 C22.5634305,16.0002299 21.2724033,16.9321147 21.2724033,18.3259183 C21.2724033,18.8970512 21.3956429,19.3024085 21.6133816,19.6558027 C21.532908,19.6420072 21.4682991,19.6420072 21.410588,19.6420072 C21.178594,19.6420072 20.9603955,19.6992585 20.8231304,19.7279991 L20.8231304,19.5836064 C20.8231304,19.2727482 20.7502443,18.8464678 20.6194171,18.7020751 C20.604702,18.6875898 20.5826292,18.6804621 20.5614761,18.6804621 C20.5035351,18.6804621 20.4308789,18.7094327 20.3517848,18.7528884 C20.2644134,18.7958843 20.177042,18.8398 20.177042,18.8687705 C20.177042,18.882566 20.177042,18.8970512 20.1986549,18.9333793 C20.2492384,19.0060355 20.3881129,19.1499684 20.4384664,19.490027 C20.1906076,19.2442375 19.90849,19.135943 19.539001,19.135943 C19.1035236,19.135943 18.9726964,19.3309191 18.9726964,19.5263551 C18.9726964,19.9020521 19.4734724,20.0892108 20.1048457,20.0892108 C20.2211876,20.0892108 20.3517848,20.0680577 20.4816922,20.0388573 C20.4816922,20.1547393 20.4968673,20.2556763 20.4968673,20.3425878 C20.4968673,20.4658274 20.5180203,20.5591769 20.5978042,20.5591769 C20.7215037,20.5591769 20.7941599,20.3136173 20.8077255,19.9593033 C21.0323619,19.9020521 21.2650457,19.8512387 21.4611715,19.8512387 C21.5552107,19.8512387 21.6715526,19.865724 21.7878945,19.887107 L21.7888142,19.886877 Z M20.3589125,19.8149106 C20.2365925,19.8293959 20.1634765,19.8293959 20.0326493,19.8293959 C19.7505317,19.8293959 19.5399207,19.7204116 19.5399207,19.5624533 C19.5399207,19.4610565 19.5905041,19.4028856 19.7351267,19.4028856 C19.9682704,19.4028856 20.1561189,19.5624533 20.3591424,19.8149106 L20.3589125,19.8149106 Z" id="Shape" fill="#000000" fill-rule="nonzero"></path>
    </g>
</svg>