<?xml version="1.0" encoding="UTF-8"?>
<svg width="40px" height="40px" viewBox="0 0 40 40" version="1.1" xmlns="http://www.w3.org/2000/svg" xmlns:xlink="http://www.w3.org/1999/xlink">
    <!-- Generator: Sketch 51.3 (57544) - http://www.bohemiancoding.com/sketch -->
    <title>uEA55-link-alt-thin</title>
    <desc>Created with Sketch.</desc>
    <defs></defs>
    <g id="uEA55-link-alt-thin" stroke="none" stroke-width="1" fill="none" fill-rule="evenodd">
        <path d="M14.056,30.718 C14.398,30.376 14.954,30.376 15.296,30.718 C15.638,31.06 15.638,31.616 15.296,31.958 L10.62,36.633 C8.663,38.592 5.488,38.592 3.531,36.633 L1.469,34.572 C-0.488,32.613 -0.488,29.44 1.469,27.482 L13.857,15.094 C15.816,13.137 18.99,13.137 20.948,15.094 L22.927,17.074 C24.934,19.08 24.89,22.365 22.846,24.411 C22.504,24.754 21.949,24.754 21.606,24.411 C21.263,24.068 21.263,23.514 21.606,23.171 C22.973,21.803 23.002,19.628 21.688,18.314 L19.709,16.334 C18.436,15.061 16.372,15.061 15.098,16.334 L2.71,28.722 C1.437,29.996 1.437,32.059 2.71,33.333 L4.772,35.394 C6.044,36.667 8.109,36.667 9.381,35.394 L14.057,30.719 L14.056,30.718 Z M25.425,13.829 C25.083,14.171 24.528,14.171 24.185,13.829 C23.842,13.487 23.843,12.932 24.185,12.589 L29.021,7.753 C30.98,5.796 34.153,5.796 36.112,7.753 L38.422,10.064 C40.381,12.021 40.381,15.196 38.422,17.154 L26.034,29.542 C24.075,31.499 20.902,31.499 18.944,29.542 L16.715,27.313 C14.708,25.306 14.752,22.02 16.798,19.976 C17.141,19.634 17.696,19.634 18.038,19.976 C18.38,20.318 18.38,20.874 18.038,21.216 C16.67,22.583 16.641,24.758 17.955,26.073 L20.184,28.302 C21.458,29.575 23.521,29.575 24.795,28.302 L37.183,15.914 C38.456,14.642 38.456,12.577 37.183,11.305 L34.873,8.994 C33.599,7.721 31.536,7.721 30.262,8.994 L25.427,13.829 L25.425,13.829 Z" id="Shape" fill="#000000" fill-rule="nonzero"></path>
    </g>
</svg>