<?xml version="1.0" encoding="UTF-8"?>
<svg width="40px" height="40px" viewBox="0 0 40 40" version="1.1" xmlns="http://www.w3.org/2000/svg" xmlns:xlink="http://www.w3.org/1999/xlink">
    <!-- Generator: Sketch 51.3 (57544) - http://www.bohemiancoding.com/sketch -->
    <title>uEA53-like</title>
    <desc>Created with Sketch.</desc>
    <defs></defs>
    <g id="uEA53-like" stroke="none" stroke-width="1" fill="none" fill-rule="evenodd">
        <path d="M16.328,35.804 C15.716,35.804 14.852,35.666 14.008,35.258 C13.512,35.762 12.842,35.8 12.646,35.8 L6.276,35.8 C5.022,35.8 4,34.804 4,33.58 L4,21.22 C4,19.996 5.02,19 6.276,19 L12.646,19 C12.678,19 12.724,19.002 12.78,19.006 C14.752,15.836 16.696,12.392 16.828,11.576 L16.874,10.992 C17.016,9.046 17.31,5 20.326,5 C24.132,5 24.938,9.492 25.22,13.886 L25.222,15.698 L31.578,15.728 C31.748,15.75 33.628,15.748 35.01,17.12 C35.626,17.73 36.358,18.842 36.358,20.678 C36.358,23.47 35.984,26.786 35.638,28.96 L35.526,29.724 C35.256,31.646 34.89,34.276 32.19,35.268 C30.988,35.708 30.022,35.798 28.94,35.798 L16.566,35.798 C16.492,35.8 16.412,35.804 16.328,35.804 Z M6.802,33 L11.774,33 L11.778,21.8 L6.802,21.8 L6.802,33 Z M14.58,32.234 C15.254,33.05 16.468,32.998 16.478,33 L28.94,32.996 C29.916,32.996 30.494,32.906 31.228,32.638 C32.244,32.264 32.472,31.346 32.754,29.336 L32.874,28.516 C33.298,25.88 33.56,22.876 33.56,20.678 C33.56,19.968 33.39,19.454 33.04,19.106 C32.488,18.558 31.596,18.528 31.584,18.528 L23.818,18.492 C23.046,18.488 22.424,17.862 22.424,17.092 L22.424,13.976 C22.022,7.8 20.744,7.8 20.326,7.8 C20.058,8.026 19.814,9.178 19.668,11.194 L19.614,11.866 C19.442,13.572 16.196,18.858 14.58,21.404 L14.58,32.234 Z" id="Shape" fill="#000000" fill-rule="nonzero"></path>
    </g>
</svg>