<?xml version="1.0" encoding="UTF-8"?>
<svg width="40px" height="40px" viewBox="0 0 40 40" version="1.1" xmlns="http://www.w3.org/2000/svg" xmlns:xlink="http://www.w3.org/1999/xlink">
    <!-- Generator: Sketch 51.3 (57544) - http://www.bohemiancoding.com/sketch -->
    <title>uEA53-like-outline</title>
    <desc>Created with Sketch.</desc>
    <defs></defs>
    <g id="uEA53-like-outline" stroke="none" stroke-width="1" fill="none" fill-rule="evenodd">
        <path d="M15.7089877,35.7559748 C15.0780743,35.7559748 14.187373,35.61371 13.3172898,35.1931011 C12.8059613,35.7126768 12.1152555,35.7518512 11.9131982,35.7518512 L5.34633809,35.7518512 C4.05358415,35.7518512 3,34.7250705 3,33.4632437 L3,20.7212671 C3,19.4594403 4.05152234,18.4326596 5.34633809,18.4326596 L11.9131982,18.4326596 C11.9461872,18.4326596 11.9936088,18.4347214 12.0513394,18.438845 C14.0842826,15.1708785 16.0883605,11.6204443 16.2244398,10.7792264 L16.2718614,10.1771783 C16.4182498,8.17103863 16.7213357,4 19.8305429,4 C23.7541645,4 24.5850734,8.63082193 24.8757884,13.1606152 L24.8778502,15.0286138 L31.4302776,15.0595409 C31.6055314,15.0822208 33.5436314,15.080159 34.9683411,16.4945596 C35.6033781,17.1234112 36.358,18.2697767 36.358,20.162517 C36.358,23.0408017 35.9724418,26.4592802 35.6157489,28.700466 L35.5002877,29.4880769 C35.2219435,31.4694749 34.8446325,34.1807531 32.0611911,35.2034101 C30.8220441,35.657008 29.8261906,35.7497894 28.7107522,35.7497894 L15.9543429,35.7497894 C15.878056,35.7518512 15.7955837,35.7559748 15.7089877,35.7559748 Z M5.88859373,32.8653192 L11.0142497,32.8653192 L11.0183733,21.3191915 L5.88859373,21.3191915 L5.88859373,32.8653192 Z M13.9069671,32.0756466 C14.6017965,32.9168645 15.8533143,32.8632574 15.8636233,32.8653192 L28.7107522,32.8611956 C29.7169148,32.8611956 30.3127774,32.7684142 31.0694612,32.4921319 C32.1168599,32.1065737 32.3519061,31.1602036 32.6426211,29.088086 L32.7663296,28.2427445 C33.203433,25.5252809 33.4735299,22.4284445 33.4735299,20.162517 C33.4735299,19.4305749 33.2982762,18.9006902 32.9374597,18.5419355 C32.3684005,17.9769999 31.4488339,17.9460728 31.4364631,17.9460728 L23.4304606,17.9089603 C22.6346025,17.9048366 21.9933801,17.2594906 21.9933801,16.4656943 L21.9933801,13.2533966 C21.5789565,6.88653192 20.2614609,6.88653192 19.8305429,6.88653192 C19.5542606,7.11951629 19.3027199,8.30711799 19.1522079,10.385421 L19.0965391,11.0781886 C18.9192236,12.8369113 15.5729083,18.2862712 13.9069671,20.9109535 L13.9069671,32.0756466 Z" id="Shape" fill="#000000" fill-rule="nonzero"></path>
    </g>
</svg>