<?xml version="1.0" encoding="UTF-8"?>
<svg width="40px" height="40px" viewBox="0 0 40 40" version="1.1" xmlns="http://www.w3.org/2000/svg" xmlns:xlink="http://www.w3.org/1999/xlink">
    <!-- Generator: Sketch 51.3 (57544) - http://www.bohemiancoding.com/sketch -->
    <title>uEA58-external-link</title>
    <desc>Created with Sketch.</desc>
    <defs></defs>
    <g id="uEA58-external-link" stroke="none" stroke-width="1" fill="none" fill-rule="evenodd">
        <path d="M29.143,22.573 L29.143,28.287 C29.143,31.126 26.839,33.43 24,33.43 L9.143,33.43 C6.304,33.43 4,31.126 4,28.287 L4,13.43 C4,10.591 6.304,8.287 9.143,8.287 L21.714,8.287 C22.035,8.287 22.285,8.537 22.285,8.858 L22.285,10.001 C22.285,10.322 22.035,10.572 21.714,10.572 L9.143,10.572 C7.572,10.572 6.286,11.858 6.286,13.429 L6.286,28.286 C6.286,29.857 7.572,31.143 9.143,31.143 L24,31.143 C25.571,31.143 26.857,29.857 26.857,28.286 L26.857,22.572 C26.857,22.251 27.107,22.001 27.428,22.001 L28.571,22.001 C28.892,22.001 29.142,22.251 29.142,22.572 L29.143,22.573 Z M36,7.144 L36,16.287 C36,16.912 35.482,17.43 34.857,17.43 C34.553,17.43 34.268,17.305 34.053,17.091 L30.91,13.948 L19.267,25.591 C19.16,25.698 18.999,25.77 18.856,25.77 C18.713,25.77 18.552,25.699 18.445,25.591 L16.409,23.555 C16.302,23.448 16.23,23.287 16.23,23.144 C16.23,23.001 16.301,22.84 16.409,22.733 L28.052,11.09 L24.909,7.947 C24.695,7.733 24.57,7.447 24.57,7.143 C24.57,6.518 25.088,6 25.713,6 L34.856,6 C35.481,6 35.999,6.518 35.999,7.143 L36,7.144 Z" id="Shape" fill="#000000" fill-rule="nonzero"></path>
    </g>
</svg>