<?xml version="1.0" encoding="UTF-8"?>
<svg width="40px" height="40px" viewBox="0 0 40 40" version="1.1" xmlns="http://www.w3.org/2000/svg" xmlns:xlink="http://www.w3.org/1999/xlink">
    <!-- Generator: Sketch 51.3 (57544) - http://www.bohemiancoding.com/sketch -->
    <title>uEA59-view</title>
    <desc>Created with Sketch.</desc>
    <defs></defs>
    <g id="uEA59-view" stroke="none" stroke-width="1" fill="none" fill-rule="evenodd">
        <path d="M20.001029,33.8064815 C5.59609899,33.8064815 0.339566338,21.0790321 0.122792676,20.5375552 C-0.040930892,20.130533 -0.040930892,19.6768632 0.122792676,19.2689263 C0.339566338,18.7274494 5.59609899,6 20.001029,6 C34.405959,6 39.6652356,18.7274494 39.8792653,19.2689263 C40.0402449,19.6759485 40.0402449,20.1296183 39.8792653,20.5375552 C39.664321,21.0790321 34.405959,33.8064815 20.001029,33.8064815 Z M3.58568333,19.9082714 C4.75918801,22.3010136 9.50534217,30.391153 20.001029,30.391153 C30.4207993,30.391153 35.24287,22.2497928 36.4163746,19.8982101 C35.24287,17.5054679 30.4994598,9.4153285 20.001029,9.4153285 C9.58125868,9.4153285 4.75918801,17.5566887 3.58568333,19.9082714 Z M20.001029,27.7084646 C15.6957394,27.7084646 12.1962625,24.2062437 12.1962625,19.9036981 C12.1962625,15.6011525 15.6984834,12.0989316 20.001029,12.0989316 C24.3035746,12.0989316 27.8057955,15.5993232 27.8057955,19.9036981 C27.8057955,24.208073 24.3054039,27.7084646 20.001029,27.7084646 Z M20.001029,15.5133454 C17.5790178,15.5133454 15.6106763,17.4816869 15.6106763,19.9036981 C15.6106763,22.3229653 17.5790178,24.2940507 20.001029,24.2940507 C22.4202962,24.2940507 24.3913816,22.3229653 24.3913816,19.9036981 C24.3913816,17.4816869 22.4202962,15.5133454 20.001029,15.5133454 Z" id="Shape" fill="#000000" fill-rule="nonzero"></path>
    </g>
</svg>