<?xml version="1.0" encoding="UTF-8"?>
<svg width="40px" height="40px" viewBox="0 0 40 40" version="1.1" xmlns="http://www.w3.org/2000/svg" xmlns:xlink="http://www.w3.org/1999/xlink">
    <!-- Generator: Sketch 51.3 (57544) - http://www.bohemiancoding.com/sketch -->
    <title>uEA56-yammer-logo</title>
    <desc>Created with Sketch.</desc>
    <defs></defs>
    <g id="uEA56-yammer-logo" stroke="none" stroke-width="1" fill="none" fill-rule="evenodd">
        <path d="M2.76879099,34.0738295 C1.90019479,34.0292861 1.08780811,34.594563 0.854485563,35.468462 C0.586164636,36.4611434 1.16841044,37.4835203 2.15578903,37.7666891 C2.86954391,37.8928953 3.60238881,37.9384993 4.25993417,37.9384993 C9.22440159,37.9384993 10.8661439,35.0802981 12.505765,30.9070062 L22.1918323,6.74433556 C22.5407556,5.64984071 21.9330564,4.47898576 20.8449249,4.13112306 C19.7758834,3.79068425 18.6432085,4.35596115 18.2603474,5.39530703 L11.454753,23.3834147 L11.3476368,23.3834147 L4.18781629,5.25955573 C3.70314173,4.23505764 2.50471229,3.73553529 1.42400468,4.14066807 C0.314662038,4.55640642 -0.254857083,5.76968366 0.109974533,6.88538965 L9.12683035,28.8813423 C7.86052526,32.4575406 6.68754919,34.1321601 3.99479491,34.1321601 C3.73389788,34.1321601 2.82712163,34.0791323 2.76879099,34.0738295 Z M35.0945691,9.09983271 C34.5929256,8.3203233 33.6532721,7.99791396 32.805887,8.24396319 C32.731648,8.28214325 32.6552879,8.32350497 32.5725645,8.36698781 C31.2245965,9.10937772 22.1154722,15.4928704 23.143152,16.2129887 C24.1644684,16.9267435 30.3941803,14.1236913 34.6501957,11.7915264 C35.4572796,11.1477683 35.6619671,9.98539783 35.0945691,9.09983271 Z M23.1442125,26.5640252 C22.1154722,27.2841434 31.225657,33.6676362 32.573625,34.4089655 C32.6563485,34.4535089 32.7327086,34.4948706 32.8069476,34.5341112 C33.6543326,34.781221 34.5929256,34.4566906 35.0956296,33.6771812 C35.6630276,32.7905555 35.4583401,31.6292456 34.6523168,30.9854874 C30.3952409,28.6533226 24.1655289,25.8502703 23.1442125,26.5640252 Z M38.1373072,19.2854224 C36.5994995,19.288604 25.5410714,20.5008207 26.0957427,21.6281928 C26.6482929,22.7438988 33.4581296,23.2847829 38.3112385,23.286904 C39.3283127,23.1108515 40.0653998,22.1913486 39.9954031,21.1403366 C39.9296485,20.217652 39.2604371,19.4805649 38.4013859,19.2907251 C38.3133596,19.2864829 38.2253334,19.2854224 38.1373072,19.2854224 Z" id="Shape" fill="#000000" fill-rule="nonzero"></path>
    </g>
</svg>