<?xml version="1.0" encoding="UTF-8"?>
<svg width="40px" height="40px" viewBox="0 0 40 40" version="1.1" xmlns="http://www.w3.org/2000/svg" xmlns:xlink="http://www.w3.org/1999/xlink">
    <!-- Generator: Sketch 51.3 (57544) - http://www.bohemiancoding.com/sketch -->
    <title>uEA54-link-alt</title>
    <desc>Created with Sketch.</desc>
    <defs></defs>
    <g id="uEA54-link-alt" stroke="none" stroke-width="1" fill="none" fill-rule="evenodd">
        <path d="M21.3178574,12.7628715 L21.7067554,13.1517694 L23.25557,14.7005043 C25.4083375,16.8534039 25.3608349,20.370309 23.1749159,22.5562279 C22.6536694,23.0774744 21.808562,23.0774744 21.2873155,22.5562279 C20.766069,22.0349814 20.766069,21.189874 21.2873155,20.6686275 C22.4419934,19.5139496 22.4666716,17.6868742 21.3679649,16.5881 L19.8174449,15.0376598 L19.430247,14.6504819 C18.3700852,13.59032 16.6513339,13.59032 15.591172,14.6504819 L3.46451676,26.7771371 C2.4044496,27.8372043 2.4044496,29.5560781 3.46449346,30.6161888 L5.48263616,32.6342318 C6.542798,33.6943937 8.26154932,33.6943937 9.32171114,32.6342318 L13.8986066,28.0573363 C14.4198531,27.5360899 15.2649606,27.5360899 15.7862071,28.0573363 C16.3074535,28.5785829 16.3074535,29.4236903 15.7862071,29.9449368 L11.2093116,34.5218323 C9.10665676,36.624487 5.69769055,36.624487 3.59505906,34.5218556 L1.57688661,32.5037827 C-0.525633827,30.4011298 -0.525633827,26.9920869 1.57691635,24.8895367 L13.7035716,12.7628814 C15.8062264,10.6602267 19.2151926,10.6602267 21.3178232,12.7628572 Z M17.5244427,17.1516207 C17.8660445,17.1516106 18.2076494,17.2819222 18.4682828,17.5425555 C18.9895292,18.0638021 18.9895292,18.9089095 18.4682828,19.430156 C17.3136103,20.5848285 17.2889314,22.4119814 18.3876577,23.5107077 L20.5697181,25.6927681 C21.6298697,26.7528752 23.3487038,26.7528575 24.4087532,25.692808 L36.5354085,13.5661527 C37.5955704,12.5059909 37.5955704,10.7872396 36.5354085,9.72707779 L34.2729222,7.46459153 C33.2127604,6.40442964 31.4940091,6.40442964 30.4338473,7.46459153 L25.7004852,12.1979536 C25.1792387,12.7192 24.3341313,12.7192 23.8128848,12.1979536 C23.2916383,11.676707 23.2916383,10.8315996 23.8128848,10.3103531 L28.5462468,5.5769911 C30.6489016,3.4743363 34.0578678,3.4743363 36.1605227,5.5769911 L38.4230089,7.83947732 C40.5256637,9.94213217 40.5256637,13.3510984 38.4230089,15.4537532 L26.2963537,27.5804085 C24.1938035,29.6829586 20.7847605,29.6829586 18.6820778,27.5804085 L16.4999884,25.3983191 C14.3472209,23.2454195 14.3947235,19.7285143 16.5806425,17.5425954 C16.8412657,17.2819722 17.1828542,17.1516606 17.5244427,17.1516606 Z" id="path-1" fill="#231F20" fill-rule="nonzero"></path>
    </g>
</svg>