<?xml version="1.0" encoding="UTF-8"?>
<svg width="40px" height="41px" viewBox="0 0 40 41" version="1.1" xmlns="http://www.w3.org/2000/svg" xmlns:xlink="http://www.w3.org/1999/xlink">
    <!-- Generator: Sketch 53.2 (72643) - https://sketchapp.com -->
    <title>uEA67-volume-muted</title>
    <desc>Created with Sketch.</desc>
    <g id="uEA67-volume-muted" stroke="none" stroke-width="1" fill="none" fill-rule="evenodd">
        <path d="M2.66666667,15.5582286 L2.66666667,26.2248952 L11.1111111,26.2248952 C11.4647331,26.2248952 11.8038716,26.365371 12.0539202,26.6154195 L17.7777778,32.3392771 L17.7777778,8.55495776 L11.1650313,15.1677043 C10.9149828,15.4177528 10.5758442,15.5582286 10.2222222,15.5582286 L2.66666667,15.5582286 Z M31.595766,18.4744457 L35.4137931,14.4655172 C35.9851222,13.8656217 36.9345873,13.8424641 37.5344828,14.4137931 C38.1343783,14.9851222 38.1575359,15.9345873 37.5862069,16.5344828 L33.7177172,20.5963969 L37.6692759,24.5479556 C38.2550623,25.133742 38.2550623,26.0834895 37.6692759,26.6692759 C37.0834895,27.2550623 36.133742,27.2550623 35.5479556,26.6692759 L31.6481364,22.7694568 L27.5862069,27.0344828 C27.0148778,27.6343783 26.0654127,27.6575359 25.4655172,27.0862069 C24.8656217,26.5148778 24.8424641,25.5654127 25.4137931,24.9655172 L29.5261852,20.6475055 L25.4393398,16.5606602 C24.8535534,15.9748737 24.8535534,15.0251263 25.4393398,14.4393398 C26.0251263,13.8535534 26.9748737,13.8535534 27.5606602,14.4393398 L31.595766,18.4744457 Z M10.5588264,28.8915619 L1.33333333,28.8915619 C0.596953667,28.8915619 0,28.2946082 0,27.5582286 L0,14.2248952 C0,13.4885156 0.596953667,12.8915619 1.33333333,12.8915619 L9.66993747,12.8915619 L18.1683021,4.3931973 C19.0082552,3.55324415 20.4444444,4.14813321 20.4444444,5.33600634 L20.4444444,35.5582286 C20.4444444,36.7461017 19.0082552,37.3409908 18.1683021,36.5010376 L10.5588264,28.8915619 Z" id="Combined-Shape" fill="#000000" fill-rule="nonzero"></path>
    </g>
</svg>