<?xml version="1.0" encoding="UTF-8"?>
<svg width="40px" height="41px" viewBox="0 0 40 41" version="1.1" xmlns="http://www.w3.org/2000/svg" xmlns:xlink="http://www.w3.org/1999/xlink">
    <!-- Generator: Sketch 53.2 (72643) - https://sketchapp.com -->
    <title>uEA68-expand</title>
    <desc>Created with Sketch.</desc>
    <g id="uEA68-expand" stroke="none" stroke-width="1" fill="none" fill-rule="evenodd">
        <path d="M7.35114979,36.4384847 C6.76906789,37.0279524 5.81933929,37.0339398 5.2298716,36.4518579 C4.6404039,35.869776 4.63441653,34.9200474 5.21649843,34.3305797 L16.4084661,22.9966017 C16.990548,22.407134 17.9402766,22.4011466 18.5297443,22.9832285 C19.119212,23.5653104 19.1251994,24.515039 18.5431175,25.1045067 L7.35114979,36.4384847 Z" id="Path-5" fill="#000000" fill-rule="nonzero"></path>
        <path d="M13.0294497,34.4782949 C13.8578768,34.4782949 14.5294497,35.1498678 14.5294497,35.9782949 C14.5294497,36.806722 13.8578768,37.4782949 13.0294497,37.4782949 L5.70151256,37.4782949 C4.87308543,37.4782949 4.20151256,36.806722 4.20151256,35.9782949 L4.20151256,28.5456685 C4.20151256,27.7172414 4.87308543,27.0456685 5.70151256,27.0456685 C6.52993968,27.0456685 7.20151256,27.7172414 7.20151256,28.5456685 L7.20151256,34.4782949 L13.0294497,34.4782949 Z" id="Path-6" fill="#000000" fill-rule="nonzero"></path>
        <path d="M25.3511498,18.4384847 C24.7690679,19.0279524 23.8193393,19.0339398 23.2298716,18.4518579 C22.6404039,17.869776 22.6344165,16.9200474 23.2164984,16.3305797 L34.4084661,4.99660171 C34.990548,4.40713401 35.9402766,4.40114664 36.5297443,4.98322854 C37.119212,5.56531044 37.1251994,6.51503903 36.5431175,7.10450673 L25.3511498,18.4384847 Z" id="Path-5" fill="#000000" fill-rule="nonzero"></path>
        <path d="M34.8279371,7.5 L29,7.5 C28.1715729,7.5 27.5,6.82842712 27.5,6 C27.5,5.17157288 28.1715729,4.5 29,4.5 L36.3279371,4.5 C37.1563643,4.5 37.8279371,5.17157288 37.8279371,6 L37.8279371,13.4326264 C37.8279371,14.2610535 37.1563643,14.9326264 36.3279371,14.9326264 C35.49951,14.9326264 34.8279371,14.2610535 34.8279371,13.4326264 L34.8279371,7.5 Z" id="Path-6" fill="#000000" fill-rule="nonzero"></path>
    </g>
</svg>