<?xml version="1.0" encoding="UTF-8"?>
<svg width="40px" height="41px" viewBox="0 0 40 41" version="1.1" xmlns="http://www.w3.org/2000/svg" xmlns:xlink="http://www.w3.org/1999/xlink">
    <!-- Generator: Sketch 53.2 (72643) - https://sketchapp.com -->
    <title>uEA69-collapse</title>
    <desc>Created with Sketch.</desc>
    <g id="uEA69-collapse" stroke="none" stroke-width="1" fill="none" fill-rule="evenodd">
        <path d="M26.1496372,17.8879307 C25.5675553,18.4773984 24.6178267,18.4833858 24.028359,17.9013039 C23.4388913,17.319222 23.432904,16.3694934 24.0149859,15.7800257 L35.2069536,4.44604768 C35.7890355,3.85657998 36.7387641,3.85059261 37.3282318,4.43267451 C37.9176995,5.01475641 37.9236868,5.964485 37.3416049,6.5539527 L26.1496372,17.8879307 Z" id="Path-5" fill="#000000" fill-rule="nonzero"></path>
        <path d="M31.8279371,15.9277409 C32.6563643,15.9277409 33.3279371,16.5993137 33.3279371,17.4277409 C33.3279371,18.256168 32.6563643,18.9277409 31.8279371,18.9277409 L24.5,18.9277409 C23.6715729,18.9277409 23,18.256168 23,17.4277409 L23,9.99511446 C23,9.16668733 23.6715729,8.49511446 24.5,8.49511446 C25.3284271,8.49511446 26,9.16668733 26,9.99511446 L26,15.9277409 L31.8279371,15.9277409 Z" id="Path-6" fill="#000000" fill-rule="nonzero"></path>
        <path d="M6.56732587,35.9384847 C5.98524397,36.5279524 5.03551537,36.5339398 4.44604768,35.9518579 C3.85657998,35.369776 3.85059261,34.4200474 4.43267451,33.8305797 L15.6246422,22.4966017 C16.2067241,21.907134 17.1564527,21.9011466 17.7459204,22.4832285 C18.3353881,23.0653104 18.3413755,24.015039 17.7592936,24.6045067 L6.56732587,35.9384847 Z" id="Path-5" fill="#000000" fill-rule="nonzero"></path>
        <path d="M16.0441132,25 L10.2161761,25 C9.38774896,25 8.71617608,24.3284271 8.71617608,23.5 C8.71617608,22.6715729 9.38774896,22 10.2161761,22 L17.5441132,22 C18.3725404,22 19.0441132,22.6715729 19.0441132,23.5 L19.0441132,30.9326264 C19.0441132,31.7610535 18.3725404,32.4326264 17.5441132,32.4326264 C16.7156861,32.4326264 16.0441132,31.7610535 16.0441132,30.9326264 L16.0441132,25 Z" id="Path-6" fill="#000000" fill-rule="nonzero"></path>
    </g>
</svg>