<?xml version="1.0" encoding="UTF-8"?>
<svg width="40px" height="40px" viewBox="0 0 40 40" version="1.1" xmlns="http://www.w3.org/2000/svg" xmlns:xlink="http://www.w3.org/1999/xlink">
    <!-- Generator: Sketch 53.2 (72643) - https://sketchapp.com -->
    <title>uEA63-replay</title>
    <desc>Created with Sketch.</desc>
    <g id="uEA63-replay" stroke="none" stroke-width="1" fill="none" fill-rule="evenodd">
        <g id="fills" transform="translate(3.500000, 2.285956)" fill="#000000" fill-rule="nonzero">
            <path d="M0,19.7140442 L3,19.7140442 C3,27.1698884 9.04415588,33.2140442 16.5,33.2140442 C23.9558441,33.2140442 30,27.1698884 30,19.7140442 C30,12.2582001 23.9558441,6.21404424 16.5,6.21404424 L16.5,3.21404424 C25.6126984,3.21404424 33,10.6013459 33,19.7140442 C33,28.8267426 25.6126984,36.2140442 16.5,36.2140442 C7.38730163,36.2140442 0,28.8267426 0,19.7140442 Z" id="Path"></path>
            <path d="M0,19.7140442 L0,18.2140442 L3,18.2140442 L3,19.7140442 C3,27.1698884 9.04415588,33.2140442 16.5,33.2140442 C23.9558441,33.2140442 30,27.1698884 30,19.7140442 C30,12.2582001 23.9558441,6.21404424 16.5,6.21404424 C12.7707621,6.21404424 9.40816653,7.66715159 6.91195039,10.2180804 L5.86284976,11.2901755 L3.7186596,9.19197421 L4.76776023,8.11987913 C7.82111794,4.99959718 11.9530167,3.21404424 16.5,3.21404424 C25.6126984,3.21404424 33,10.6013459 33,19.7140442 C33,28.8267426 25.6126984,36.2140442 16.5,36.2140442 C7.38730163,36.2140442 8.8817842e-16,28.8267426 0,19.7140442 Z" id="Shape"></path>
            <polygon id="Shape" points="14.592399 10.7987713 14.592399 13.7987713 2.43225429 13.7987713 2.43225429 -8.8817842e-16 5.43225429 -8.8817842e-16 5.43225429 10.7987713"></polygon>
        </g>
    </g>
</svg>