<?xml version="1.0" encoding="UTF-8"?>
<svg width="40px" height="40px" viewBox="0 0 40 40" version="1.1" xmlns="http://www.w3.org/2000/svg" xmlns:xlink="http://www.w3.org/1999/xlink">
    <!-- Generator: Sketch 51.3 (57544) - http://www.bohemiancoding.com/sketch -->
    <title>uEA60-like-fill</title>
    <desc>Created with Sketch.</desc>
    <defs></defs>
    <g id="uEA60-like-fill" stroke="none" stroke-width="1" fill="none" fill-rule="evenodd">
        <path d="M4,19.8796879 L11.450452,19.8796879 L11.4454173,33.976725 L4,33.976725 L4,19.8796879 Z M14.4447128,33.7134407 C13.9895866,33.5149475 13.588484,33.2292804 13.2690418,32.8425373 L13.0244818,32.5464528 L13.0244818,20.2861368 L13.1907745,20.0241435 C16.0637098,15.4978481 18.2827815,11.5249593 18.4040105,10.3247297 L18.4610384,9.61546447 C18.6406239,7.13570919 18.9087824,5.78421378 19.5404499,5.25153899 L19.8387351,5 L20.2289221,5 C21.0401166,5 21.7183121,5.34843467 22.2761957,6.35024821 C22.909872,7.48816574 23.3322432,9.47625131 23.5374539,12.6636619 L23.5374539,15.991417 C23.5374539,16.2265202 23.7273812,16.4173895 23.9631797,16.4186115 L32.2519859,16.4570465 C32.9347792,16.4570465 33.8688816,16.6989265 34.5599248,17.3849626 C35.1588149,17.9804304 35.430227,18.8009603 35.430227,19.8211121 C35.430227,22.2322327 35.1447343,25.4973295 34.6863531,28.3464012 L34.5590954,29.2158665 C34.1624894,32.0427387 33.7473737,33.0414779 32.2380767,33.5970616 C31.3302524,33.9285287 30.5904703,34.0441681 29.4286495,34.044168 L16.1209892,34.0484395 C15.60806,34.0524754 15.0468749,33.9760604 14.4447128,33.7134407 Z" id="Combined-Shape" fill="#000000" fill-rule="nonzero"></path>
    </g>
</svg>