<?xml version="1.0" encoding="UTF-8"?>
<svg width="300px" height="72px" viewBox="0 0 300 72" version="1.1" xmlns="http://www.w3.org/2000/svg" xmlns:xlink="http://www.w3.org/1999/xlink">
    <!-- Generator: Sketch 50.2 (55047) - http://www.bohemiancoding.com/sketch -->
    <title>Atom/Logo/JnJ_MDC-Horizontal</title>
    <desc>Created with Sketch.</desc>
    <defs></defs>
    <g id="Atom/Logo/JnJ_MDC-Horizontal" stroke="none" stroke-width="1" fill="none" fill-rule="evenodd">
        <path d="M107.498754,19.5525798 C107.498754,19.0634108 107.832195,18.7975581 108.252259,18.7975581 C108.964232,18.7975581 110.041684,19.5525798 110.644488,21.0567152 C110.428523,21.0567152 110.102202,21.1240646 109.883864,21.1240646 C108.588073,21.1240646 107.498754,20.5072863 107.498754,19.5525798 Z M29.1010324,19.5525798 C29.1010324,19.0634108 29.4202336,18.7975581 29.8604702,18.7975581 C30.5522707,18.7975581 31.5846316,19.5525798 32.1850621,21.0567152 C30.1832313,21.0567152 29.1010324,20.6242615 29.1010324,19.5525798 Z M44.2221525,11.7766837 C44.2221525,3.72666404 45.7956129,2.49074439 46.2856876,2.49074439 C47.1554813,2.49074439 47.2575308,3.02953919 47.2575308,6.11579362 C47.2575308,9.28830248 45.9024088,13.4391493 44.2221525,15.7183931 L44.2221525,11.7766837 Z M99.2671594,19.7109098 C98.3309149,21.0070894 97.5774101,22.8444269 97.5774101,25.2134699 C97.5774101,29.7495077 100.173738,34.0775896 105.22044,34.0775896 C110.102202,34.0775896 113.517299,30.2363135 113.517299,24.8873572 C113.517299,23.3312328 113.463901,23.1150059 113.360665,22.4734147 C114.491516,21.9807011 115.475225,21.2256794 116.233476,20.6242615 C116.883745,20.1386373 117.365513,19.8656952 117.754725,19.8656952 C118.238867,19.8656952 118.453645,20.2461599 118.453645,20.948011 L118.453645,31.5395825 C118.453645,33.2658527 119.001865,34.0775896 120.351054,34.0775896 C121.594633,34.0775896 122.47036,33.210319 122.954502,32.1859 C124.74986,28.4604175 127.343815,23.491926 128.479412,21.603781 C128.751148,21.1725089 128.974233,20.8416699 129.132054,20.8416699 C129.349206,20.8416699 129.461935,21.0070894 129.461935,21.7018511 L129.461935,30.139425 C129.461935,32.5084679 130.54532,34.0775896 132.925684,34.0775896 C135.423522,34.0775896 136.662355,31.6943679 138.846926,28.0267822 C138.951349,27.8046475 139,27.6486806 139,27.4903505 C139,27.0035447 138.576376,26.729421 138.139699,26.729421 C137.646065,26.729421 137.373142,27.21859 135.752216,28.994486 C135.423522,29.3324143 135.104321,29.8003151 134.50389,29.8003151 C134.287925,29.8003151 134.122985,29.5415518 134.122985,29.2154391 L134.122985,19.7569909 C134.122985,17.2178023 132.983828,16.1945648 131.517164,16.1945648 C130.329355,16.1945648 129.349206,16.6790075 128.318032,18.1949586 C126.475208,20.8995668 124.580173,24.7361166 123.547812,26.6691611 C123.435083,26.8972036 123.276076,27.21859 123.175213,27.21859 C123.060111,27.21859 123.011459,27.0543521 123.011459,26.6691611 L123.011459,19.7569909 C123.011459,17.7648681 122.47036,16.1945648 120.351054,16.1945648 C118.126138,16.1945648 116.989354,17.7069712 115.362496,18.8400945 C114.336068,19.6033872 113.41169,20.1386373 112.713956,20.4612052 C111.622264,17.7069712 109.616874,16.3150847 107.938991,16.3576211 C106.249241,16.4155179 105.060246,17.4446633 105.060246,19.1732966 C105.060246,20.948011 106.146005,22.1839307 107.607923,22.7333596 C108.414826,23.0559275 109.176637,23.1150059 110.268329,23.1150059 C110.593463,23.1150059 110.917411,23.1150059 111.126257,23.0559275 C111.241359,23.5911776 111.190334,24.3591965 111.190334,24.9511619 C111.190334,27.6002363 109.616874,30.2363135 106.690665,30.2363135 C103.64698,30.2363135 101.864674,27.3237495 101.864674,23.9775502 C101.864674,21.4348169 102.620552,19.3316266 103.862945,17.8806617 C104.358953,17.335959 104.733926,17.0086648 104.733926,16.513588 C104.733926,16.259551 104.358953,16.1945648 104.031445,16.1945648 C101.966724,16.1945648 99.6955298,17.117369 98.126816,17.920835 C96.0537879,19.0019693 93.6212134,20.7932257 91.6110763,22.5726664 C90.6380465,20.4080347 89.4443051,18.5175266 88.8438745,17.0582907 C88.6338425,16.4615991 88.4724619,15.7692005 88.0357851,15.7692005 C87.6501331,15.7692005 87.484006,16.1496652 87.2182028,16.8928712 C86.2463596,19.7569909 81.038277,28.1343048 79.9003068,29.2686097 C79.7935109,29.4245766 79.6356902,29.5935408 79.5822922,29.5935408 C79.4660033,29.5935408 79.4031123,29.5415518 79.4031123,29.2154391 L79.4031123,19.7569909 C79.4031123,17.2178023 78.375498,16.1945648 76.9776576,16.1945648 C75.7779831,16.1945648 74.7503687,16.6790075 73.7773389,18.1949586 C71.9867268,20.8995668 69.8104626,24.8400945 68.7828482,26.7802284 C68.6179078,27.1146121 68.4565273,27.21859 68.3983828,27.21859 C68.3449848,27.21859 68.2998932,27.0035447 68.2998932,26.6691611 L68.2998932,19.7569909 C68.2998932,17.2178023 67.2675323,16.1945648 65.8518927,16.1945648 C64.6581512,16.1945648 63.5261142,16.6364711 62.6017359,18.1949586 C60.3305419,22.0315085 56.5345392,27.918078 55.8284993,28.8857818 C55.7181434,29.0523828 55.6101609,29.1622686 55.5033649,29.2154391 C55.3953823,29.2154391 55.3324914,29.1043718 55.3324914,28.8337928 L55.3324914,19.7569909 C55.3324914,17.2178023 54.304877,16.1945648 52.8999169,16.1945648 C50.9479243,16.1945648 49.8680985,17.9858212 49.1549389,19.1153998 C48.1771626,20.6809768 46.8801851,22.7900748 45.8525707,24.7361166 C45.1405977,26.0358409 44.5472869,27.21859 44.3277619,27.21859 C44.2221525,27.21859 44.2221525,26.729421 44.2221525,25.8101615 L44.2221525,18.5777865 C47.6360631,14.7908625 49.750623,10.1555731 49.750623,5.07719575 C49.750623,2.15636077 48.4500856,0.543521071 46.4506281,0.543521071 C42.7009035,0.543521071 39.8363988,6.37455691 39.8363988,13.2808192 L39.8363988,18.8979913 C38.097998,19.9791256 36.469953,20.5072863 34.4586293,20.8995668 C33.4298283,17.8806617 31.2594972,16.3150847 29.5329627,16.3576211 C27.853893,16.4155179 26.6554051,17.4446633 26.6554051,19.1732966 C26.6554051,22.0315085 29.4783781,23.2201654 31.9667237,23.2201654 L32.6703904,23.2201654 C32.7771864,23.7672312 32.7771864,24.3591965 32.7771864,24.9511619 C32.7771864,27.6002363 31.2049126,30.2363135 28.2846366,30.2363135 C25.2516316,30.2363135 23.4550864,27.3237495 23.4550864,23.9775502 C23.4550864,21.4348169 24.2097778,19.3316266 25.4569172,17.8806617 C25.9481785,17.335959 26.3338306,16.8515163 26.3338306,16.513588 C26.3338306,16.259551 25.9481785,16.1945648 25.6218576,16.1945648 C23.5606957,16.1945648 19.0123748,18.9606144 13.5847672,24.3591965 C13.1065586,20.0393856 12.5607127,15.8200079 12.5607127,11.7164238 C12.5607127,7.12839701 13.4732247,3.23158724 13.6868166,2.11027964 C13.7959858,1.41197322 13.8624366,0.974793226 13.8624366,0.656951556 C13.8624366,0.220953131 13.6346053,0 13.0484142,0 C8.65435405,0 -1,6.97361166 -1,17.3926743 C-1,24.7798346 1.71855029,28.3493501 6.4246919,32.9361954 C3.56730688,37.5289484 1.2759404,42.9759748 1.2759404,47.8428515 C1.2759404,51.3461993 2.09826923,54 4.69103762,54 C10.1150854,54 14.1804513,42.7727452 14.1804513,34.4509649 C14.1804513,31.9732178 14.0784018,29.4848365 13.8624366,27.0035447 C15.8618942,24.8873572 18.9542303,22.0315085 19.7101083,21.7632926 C19.3861606,22.8999606 19.1725687,24.0909807 19.1725687,25.2134699 C19.1725687,29.7495077 21.7783899,34.0775896 26.815599,34.0775896 C31.5371667,34.0775896 35.1112712,30.2363135 35.1112712,24.8873572 C35.1112712,24.1973218 35.0578732,23.5911776 35.0044753,22.9460417 C36.7345697,22.6270185 38.3222695,22.1839307 39.8363988,21.2800315 L39.8363988,32.1303663 C39.8363988,33.5281607 40.8058687,34.0775896 41.7266871,34.0775896 C42.9821329,34.0775896 43.6324016,33.210319 44.5472869,31.2217408 C45.3114712,29.5935408 47.3667,25.871603 48.6114662,23.650256 C49.5928023,21.9204411 50.1374616,20.7932257 50.5729518,20.7932257 C50.6750013,20.7932257 50.7912902,21.0567152 50.7912902,21.7018511 L50.7912902,30.9405278 C50.7912902,33.4277275 52.0930142,34.0775896 53.2179315,34.0775896 C54.304877,34.0775896 55.0121035,33.4832611 55.7181434,32.5084679 C58.5411164,28.5100433 61.5278432,23.7672312 62.7097184,21.7018511 C62.9339899,21.3379283 63.1997932,21.0567152 63.4193182,21.0567152 C63.6305369,21.0567152 63.7397061,21.1725089 63.7397061,21.8649074 L63.7397061,31.5395825 C63.7397061,33.2658527 64.2819922,34.0775896 65.6454205,34.0775896 C66.8854402,34.0775896 67.6935295,33.210319 68.1800444,32.1859 C69.9813361,28.4604175 72.632249,23.5415518 73.7773389,21.603781 C74.0443288,21.1725089 74.3172518,20.7932257 74.4774457,20.7932257 C74.7005306,20.7932257 74.7503687,21.0567152 74.7503687,21.7632926 L74.7503687,30.9405278 C74.7503687,33.4277275 76.0509061,34.0775896 77.1983692,34.0775896 C78.7053788,34.0775896 79.6902748,32.9940922 80.6656778,31.7569909 C82.4432371,29.4245766 85.0490583,25.2831824 86.6225187,22.6270185 C87.1707379,23.491926 87.7616755,24.5198897 88.2576834,25.6494683 C86.9523995,27.21859 85.6483023,28.994486 85.6483023,30.8849941 C85.6483023,32.8853879 87.0603821,34.0775896 88.5234866,34.0775896 C91.0130189,34.0775896 93.2925192,31.6943679 93.2925192,28.4048838 C93.2925192,27.1146121 92.9151735,25.7593541 92.4298452,24.4690823 C94.6405214,22.303269 97.3033005,20.1977156 99.2671594,19.7109098 Z M9.94777169,31.4828673 C10.3856351,34.3422607 10.7689139,37.1555731 10.7689139,39.3662859 C10.7689139,44.5427334 9.03407299,50.5935408 6.05209269,50.5450965 C4.89988303,50.5450965 3.93397298,49.3954313 3.88176162,47.4115794 C3.77377905,40.9377708 6.86255531,35.4269397 9.94777169,31.4828673 Z M89.1156109,27.8046475 C89.4443051,28.7333596 89.6116187,29.4848365 89.6116187,30.2363135 C89.6116187,31.1035841 89.2817379,31.9732178 88.6848672,31.9732178 C88.2576834,31.9732178 87.81982,31.4828673 87.81982,30.726664 C87.81982,29.9137456 88.5234866,28.6163844 89.1156109,27.8046475 Z M11.9068841,2.05120126 C11.9068841,2.38085861 11.1438864,3.88972036 10.1720432,6.59196534 C9.14086895,9.39582513 8.15834619,13.3859787 8.15834619,18.1949586 C8.15834619,21.0567152 8.8703192,24.8400945 9.47312302,28.6742812 L7.732349,31.0043324 C4.96752047,27.6486806 3.23149294,23.8735723 3.23149294,17.3926743 C3.23149294,8.21425758 8.81929447,1.84797164 11.6861725,1.84797164 C11.857046,1.84797164 11.9068841,1.89641591 11.9068841,2.05120126 Z" id="Fill-1" fill="#CA001B"></path>
        <path d="M267.33893,19.5525798 C267.33893,19.0634108 267.656208,18.7975581 268.098729,18.7975581 C268.797696,18.7975581 269.893858,19.5525798 270.490246,21.0567152 C270.277932,21.0567152 269.952304,21.1240646 269.723291,21.1240646 C268.426742,21.1240646 267.33893,20.5072863 267.33893,19.5525798 Z M188.516654,19.5525798 C188.516654,19.0634108 188.851824,18.7975581 189.280031,18.7975581 C189.990926,18.7975581 191.036991,19.5525798 191.628609,21.0567152 C189.609237,21.0567152 188.516654,20.6242615 188.516654,19.5525798 Z M203.72933,11.7766837 C203.72933,3.72666404 205.299025,2.49074439 205.797605,2.49074439 C206.665947,2.49074439 206.778068,3.02953919 206.778068,6.11579362 C206.778068,9.28830248 205.40876,13.4391493 203.72933,15.7183931 L203.72933,11.7766837 Z M169.285512,31.4828673 C169.707755,34.3422607 170.104949,37.1555731 170.104949,39.3662859 C170.104949,44.5427334 168.364688,50.5935408 165.35889,50.5450965 C164.213824,50.5450965 163.234554,49.3954313 163.178494,47.4115794 C163.067566,40.9377708 166.177135,35.4269397 169.285512,31.4828673 Z M248.864008,27.8046475 C249.194408,28.7333596 249.348276,29.4848365 249.348276,30.2363135 C249.348276,31.1035841 249.022648,31.9732178 248.421488,31.9732178 C247.992088,31.9732178 247.541219,31.4828673 247.541219,30.726664 C247.541219,29.9137456 248.261656,28.6163844 248.864008,27.8046475 Z M171.236895,2.05120126 C171.236895,2.38085861 170.480674,3.88972036 169.496633,6.59196534 C168.464881,9.39582513 167.479647,13.3859787 167.479647,18.1949586 C167.479647,21.0567152 168.203663,24.8400945 168.797666,28.6742812 L167.050248,31.0043324 C164.275849,27.6486806 162.522466,23.8735723 162.522466,17.3926743 C162.522466,8.21425758 168.14641,1.84797164 171.03293,1.84797164 C171.191569,1.84797164 171.236895,1.89641591 171.236895,2.05120126 Z M162.15032,29.0523828 C163.122433,30.3485624 164.322367,31.5880268 165.74535,32.9361954 C162.851673,37.5289484 160.563927,42.9759748 160.563927,47.8428515 C160.563927,51.3461993 161.389328,54 164.006281,54 C169.446536,54 173.534183,42.7727452 173.534183,34.4509649 C173.534183,31.9732178 173.430411,29.4848365 173.208555,27.0035447 C175.225541,24.8873572 178.32676,22.0315085 179.094909,21.7632926 C178.769281,22.8999606 178.546231,24.0909807 178.546231,25.2134699 C178.546231,29.7495077 181.164377,34.0775896 186.236064,34.0775896 C190.973774,34.0775896 194.573575,30.2363135 194.573575,24.8873572 C194.573575,24.1973218 194.5199,23.5911776 194.460261,22.9460417 C196.211257,22.6270185 197.797651,22.1839307 199.31367,21.2800315 L199.31367,32.1303663 C199.31367,33.5281607 200.29294,34.0775896 201.212571,34.0775896 C202.478107,34.0775896 203.135327,33.210319 204.057344,31.2217408 C204.81595,29.5935408 206.892575,25.871603 208.150954,23.650256 C209.126646,21.9204411 209.669359,20.7932257 210.121422,20.7932257 C210.221615,20.7932257 210.326579,21.0567152 210.326579,21.7018511 L210.326579,30.9405278 C210.326579,33.4277275 211.626706,34.0775896 212.774158,34.0775896 C213.870319,34.0775896 214.57048,33.4832611 215.290917,32.5084679 C218.121376,28.5100433 221.122403,23.7672312 222.313987,21.7018511 C222.531073,21.3379283 222.813761,21.0567152 223.020111,21.0567152 C223.232425,21.0567152 223.354089,21.1725089 223.354089,21.8649074 L223.354089,31.5395825 C223.354089,33.2658527 223.894417,34.0775896 225.251797,34.0775896 C226.510176,34.0775896 227.32365,33.210319 227.81746,32.1859 C229.619746,28.4604175 232.287988,23.5415518 233.431861,21.603781 C233.706199,21.1725089 233.981731,20.7932257 234.147527,20.7932257 C234.362227,20.7932257 234.421866,21.0567152 234.421866,21.7632926 L234.421866,30.9405278 C234.421866,33.4277275 235.714836,34.0775896 236.862287,34.0775896 C238.398584,34.0775896 239.381432,32.9940922 240.352352,31.7569909 C242.153445,29.4245766 244.775169,25.2831824 246.353213,22.6270185 C246.894734,23.491926 247.500664,24.5198897 247.992088,25.6494683 C246.671684,27.21859 245.376329,28.994486 245.376329,30.8849941 C245.376329,32.8853879 246.776649,34.0775896 248.261656,34.0775896 C250.764102,34.0775896 253.053041,31.6943679 253.053041,28.4048838 C253.053041,27.1146121 252.667774,25.7593541 252.183506,24.4690823 C254.412806,22.303269 257.084627,20.1977156 259.047938,19.7109098 C258.118764,21.0070894 257.357773,22.8444269 257.357773,25.2134699 C257.357773,29.7495077 259.978304,34.0775896 265.04522,34.0775896 C269.952304,34.0775896 273.375574,30.2363135 273.375574,24.8873572 C273.375574,23.3312328 273.32667,23.1150059 273.222898,22.4734147 C274.354844,21.9807011 275.346041,21.2256794 276.116575,20.6242615 C276.753518,20.1386373 277.253291,19.8656952 277.631402,19.8656952 C278.121633,19.8656952 278.35661,20.2461599 278.35661,20.948011 L278.35661,31.5395825 C278.35661,33.2658527 278.894552,34.0775896 280.25074,34.0775896 C281.504348,34.0775896 282.379847,33.210319 282.871271,32.1859 C284.661629,28.4604175 287.279774,23.491926 288.421262,21.603781 C288.693215,21.1725089 288.917457,20.8416699 289.079674,20.8416699 C289.300338,20.8416699 289.411266,21.0070894 289.411266,21.7018511 L289.411266,30.139425 C289.411266,32.5084679 290.491922,34.0775896 292.890597,34.0775896 C295.409742,34.0775896 296.657386,31.6943679 298.841361,28.0267822 C298.946325,27.8046475 299,27.6486806 299,27.4903505 C299,27.0035447 298.561058,26.729421 298.126887,26.729421 C297.637849,26.729421 297.361125,27.21859 295.729406,28.994486 C295.409742,29.3324143 295.07815,29.8003151 294.479376,29.8003151 C294.253941,29.8003151 294.09888,29.5415518 294.09888,29.2154391 L294.09888,19.7569909 C294.09888,17.2178023 292.943079,16.1945648 291.469999,16.1945648 C290.283186,16.1945648 289.300338,16.6790075 288.26143,18.1949586 C286.405469,20.8995668 284.506568,24.7361166 283.471237,26.6691611 C283.357924,26.8972036 283.198092,27.21859 283.081199,27.21859 C282.963115,27.21859 282.924946,27.0543521 282.924946,26.6691611 L282.924946,19.7569909 C282.924946,17.7648681 282.379847,16.1945648 280.25074,16.1945648 C278.014283,16.1945648 276.873988,17.7069712 275.24227,18.8400945 C274.192626,19.6033872 273.274188,20.1386373 272.5621,20.4612052 C271.480251,17.7069712 269.456109,16.3150847 267.774293,16.3576211 C266.074586,16.4155179 264.888966,17.4446633 264.888966,19.1732966 C264.888966,20.948011 265.974393,22.1839307 267.439123,22.7333596 C268.254982,23.0559275 269.021938,23.1150059 270.122871,23.1150059 C270.441343,23.1150059 270.758621,23.1150059 270.988827,23.0559275 C271.099755,23.5911776 271.043695,24.3591965 271.043695,24.9511619 C271.043695,27.6002363 269.456109,30.2363135 266.50995,30.2363135 C263.460019,30.2363135 261.669661,27.3237495 261.669661,23.9775502 C261.669661,21.4348169 262.427075,19.3316266 263.674719,17.8806617 C264.170914,17.335959 264.556181,17.0086648 264.556181,16.513588 C264.556181,16.259551 264.170914,16.1945648 263.845286,16.1945648 C261.782975,16.1945648 259.489265,17.117369 257.90645,17.920835 C255.833404,19.0019693 253.382247,20.7932257 251.367647,22.5726664 C250.38957,20.4080347 249.194408,18.5175266 248.582513,17.0582907 C248.361849,16.4615991 248.215138,15.7692005 247.761882,15.7692005 C247.383772,15.7692005 247.217976,16.1496652 246.948409,16.8928712 C245.96556,19.7569909 240.738812,28.1343048 239.593746,29.2686097 C239.485204,29.4245766 239.318215,29.5935408 239.263347,29.5935408 C239.161961,29.5935408 239.099937,29.5415518 239.099937,29.2154391 L239.099937,19.7569909 C239.099937,17.2178023 238.072956,16.1945648 236.641623,16.1945648 C235.442883,16.1945648 234.421866,16.6790075 233.431861,18.1949586 C231.630768,20.8995668 229.450371,24.8400945 228.413848,26.7802284 C228.255209,27.1146121 228.098955,27.21859 228.04528,27.21859 C227.983256,27.21859 227.929581,27.0035447 227.929581,26.6691611 L227.929581,19.7569909 C227.929581,17.2178023 226.899022,16.1945648 225.48081,16.1945648 C224.276105,16.1945648 223.125075,16.6364711 222.210216,18.1949586 C219.912927,22.0315085 216.104391,27.918078 215.388724,28.8857818 C215.290917,29.0523828 215.174025,29.1622686 215.058325,29.2154391 C214.964096,29.2154391 214.899686,29.1043718 214.899686,28.8337928 L214.899686,19.7569909 C214.899686,17.2178023 213.870319,16.1945648 212.446144,16.1945648 C210.478062,16.1945648 209.395021,17.9858212 208.680547,19.1153998 C207.70247,20.6809768 206.403536,22.7900748 205.359856,24.7361166 C204.656118,26.0358409 204.057344,27.21859 203.837873,27.21859 C203.72933,27.21859 203.72933,26.729421 203.72933,25.8101615 L203.72933,18.5777865 C207.166913,14.7908625 209.284092,10.1555731 209.284092,5.07719575 C209.284092,2.15636077 207.979194,0.543521071 205.95863,0.543521071 C202.197805,0.543521071 199.31367,6.37455691 199.31367,13.2808192 L199.31367,18.8979913 C197.565059,19.9791256 195.928569,20.5072863 193.913969,20.8995668 C192.884603,17.8806617 190.699435,16.3150847 188.96633,16.3576211 C187.267816,16.4155179 186.067883,17.4446633 186.067883,19.1732966 C186.067883,22.0315085 188.898342,23.2201654 191.409138,23.2201654 L192.122418,23.2201654 C192.222611,23.7672312 192.222611,24.3591965 192.222611,24.9511619 C192.222611,27.6002363 190.650531,30.2363135 187.70318,30.2363135 C184.648478,30.2363135 182.859313,27.3237495 182.859313,23.9775502 C182.859313,21.4348169 183.621497,19.3316266 184.865563,17.8806617 C185.354602,17.335959 185.739869,16.8515163 185.739869,16.513588 C185.739869,16.259551 185.354602,16.1945648 185.033745,16.1945648 C182.958313,16.1945648 178.382821,18.9606144 172.928252,24.3591965 C172.448756,20.0393856 171.892922,15.8200079 171.892922,11.7164238 C171.892922,7.12839701 172.822095,3.23158724 173.042759,2.11027964 C173.148916,1.41197322 173.208555,0.974793226 173.208555,0.656951556 C173.208555,0.220953131 172.984313,0 172.399852,0 C167.984192,0 158.274988,6.97361166 158.274988,17.3926743 C158.274988,21.6486806 159.205354,24.6841276 160.840651,27.3237495 C160.228756,27.21859 159.751646,27.21859 159.303162,27.21859 C157.564093,27.21859 155.92641,27.6486806 154.906586,27.866089 L154.906586,26.7802284 C154.906586,24.4690823 154.35433,21.2800315 153.371482,20.1977156 C153.25459,20.0866483 153.092372,20.0393856 152.937311,20.0393856 C152.492405,20.0393856 151.95327,20.2461599 151.354496,20.5746357 C150.698469,20.8995668 150.042442,21.2256794 150.042442,21.4348169 C150.042442,21.5423395 150.042442,21.6486806 150.205852,21.9204411 C150.592312,22.4734147 151.627642,23.5415518 152.002174,26.0842852 C150.147406,24.2493108 148.032613,23.4340291 145.261792,23.4340291 C141.986427,23.4340291 141,24.8873572 141,26.3536826 C141,29.1622686 144.760826,30.5636077 149.50927,30.5636077 C150.376419,30.5636077 151.354496,30.401733 152.333766,30.1807798 C152.333766,31.0445057 152.445887,31.8125246 152.445887,32.4564789 C152.445887,33.3745569 152.602141,34.0775896 153.209264,34.0775896 C154.131281,34.0775896 154.679958,32.2378889 154.786115,29.5935408 C156.475088,29.1622686 158.221313,28.7877117 159.699164,28.7877117 C160.401709,28.7877117 161.283171,28.8857818 162.15032,29.0523828 Z M151.41175,28.5100433 C150.49689,28.6163844 149.935092,28.6163844 148.964171,28.6163844 C146.833872,28.6163844 145.261792,27.8046475 145.261792,26.6266247 C145.261792,25.871603 145.638709,25.4320599 146.727715,25.4320599 C148.475133,25.4320599 149.886188,26.6266247 151.41175,28.5100433 Z" id="Fill-2" fill="#CA001B"></path>
        <path d="M34.6023548,72 C34.6023548,72 34.6023548,65.9228247 34.6589492,63.774049 L32.5856337,72 L30.4285149,72 L28.369348,63.774049 C28.4117938,65.3155881 28.4259424,72 28.4259424,72 L26,72 L26,61 L29.6383694,61 L31.5146928,68.6968736 L33.3616306,61 L37,61 L37,72 L34.6023548,72" id="Fill-3" fill="#888B8D"></path>
        <polyline id="Fill-4" fill="#888B8D" points="41 61 49.4963015 61 49.4963015 63.1343463 43.8639218 63.1343463 43.8639218 65.1280061 49.1219819 65.1280061 49.1219819 67.2166594 43.8639218 67.2166594 43.8639218 69.83439 50 69.83439 50 72 41 72 41 61"></polyline>
        <path d="M53.8171938,69.7874945 L54.7184027,69.7874945 C57.1240689,69.7874945 58.1999023,68.9614123 58.1999023,66.4687363 C58.1999023,64.7540446 57.6296251,63.3219283 55.1934302,63.3219283 L53.8171938,63.3219283 L53.8171938,69.7874945 Z M51,61 L54.8295274,61 C59.1487361,61 61,62.8854394 61,66.4987976 C61,69.1177307 59.8447918,72 55.3985835,72 L51,72 L51,61 Z" id="Fill-5" fill="#888B8D"></path>
        <polygon id="Fill-6" fill="#888B8D" points="64 72 67 72 67 61 64 61"></polygon>
        <path d="M78,69.3276324 C77.1283962,70.765815 75.5547006,72 73.2656889,72 C70.352729,72 68,70.0019576 68,66.4943334 C68,63.4241706 70.2120702,61 73.3282039,61 C75.352729,61 77.1909113,62.131053 77.9699447,63.6882341 L75.789132,64.716155 C75.5547006,63.9386977 74.5736956,63.1306408 73.4520317,63.1306408 C71.6763645,63.1306408 70.7422457,64.687822 70.7422457,66.4206676 C70.7422457,68.6963734 71.9733109,69.826293 73.4520317,69.826293 C74.8850685,69.826293 75.4621303,68.8867711 75.8360183,68.2849784 L78,69.3276324" id="Fill-7" fill="#888B8D"></path>
        <path d="M83.4693342,63.6177307 L82.1128239,68.2603848 L84.9016071,68.2603848 L83.4693342,63.6177307 Z M86.0705149,72 L85.5257461,70.2384128 L81.4742539,70.2384128 L80.9282825,72 L78,72 L82.0815568,61 L84.9485077,61 L89,72 L86.0705149,72 Z" id="Fill-8" fill="#888B8D"></path>
        <polyline id="Fill-9" fill="#888B8D" points="90 72 90 61 92.7254098 61 92.7254098 69.6768693 97 69.6768693 97 72 90 72"></polyline>
        <path d="M105.815973,69.7874945 L106.719624,69.7874945 C109.122848,69.7874945 110.198681,68.9614123 110.198681,66.4687363 C110.198681,64.7540446 109.629625,63.3219283 107.19343,63.3219283 L105.815973,63.3219283 L105.815973,69.7874945 Z M103,61 L106.829527,61 C111.148736,61 113,62.8854394 113,66.4987976 C113,69.1177307 111.844792,72 107.398583,72 L103,72 L103,61 Z" id="Fill-10" fill="#888B8D"></path>
        <polyline id="Fill-11" fill="#888B8D" points="116 61 124.495116 61 124.495116 63.1343463 118.864778 63.1343463 118.864778 65.1280061 124.119593 65.1280061 124.119593 67.2166594 118.864778 67.2166594 118.864778 69.83439 125 69.83439 125 72 116 72 116 61"></polyline>
        <polyline id="Fill-12" fill="#888B8D" points="131.959963 72 128.991669 72 125 61 128.100671 61 130.507637 68.8219283 132.899329 61 136 61 131.959963 72"></polyline>
        <polygon id="Fill-13" fill="#888B8D" points="136 72 139 72 139 61 136 61"></polygon>
        <path d="M150,69.3276324 C149.128396,70.765815 147.553498,72 145.264487,72 C142.351527,72 140,70.0019576 140,66.4943334 C140,63.4241706 142.21207,61 145.328204,61 C147.351527,61 149.190911,62.131053 149.969945,63.6882341 L147.789132,64.716155 C147.553498,63.9386977 146.573696,63.1306408 145.45083,63.1306408 C143.676365,63.1306408 142.741044,64.687822 142.741044,66.4206676 C142.741044,68.6963734 143.972109,69.826293 145.45083,69.826293 C146.885069,69.826293 147.460928,68.8867711 147.834816,68.2849784 L150,69.3276324" id="Fill-14" fill="#888B8D"></path>
        <polyline id="Fill-15" fill="#888B8D" points="153 61 161.49386 61 161.49386 63.1343463 155.862266 63.1343463 155.862266 65.1280061 161.120848 65.1280061 161.120848 67.2166594 155.862266 67.2166594 155.862266 69.83439 162 69.83439 162 72 153 72 153 61"></polyline>
        <path d="M169.854742,64.3786945 C169.060024,63.5894517 168.159664,63.0690339 166.977191,63.0690339 C165.857143,63.0690339 165.343337,63.6939948 165.343337,64.1845431 C165.343337,64.749765 165.810324,65.0185901 166.743097,65.1530026 L167.957983,65.3161358 C170.818727,65.7032898 172,66.5373368 172,68.3375457 C172,70.5570757 170.15006,72 167.008403,72 C164.440576,72 163.117647,71.1222977 162,69.8712272 L164.084034,68.6063708 C164.813926,69.4553525 166.07443,69.9309661 167.256903,69.9309661 C168.066026,69.9309661 169.277311,69.5886162 169.277311,68.709765 C169.277311,67.9664752 168.344538,67.757389 167.364946,67.6379112 L166.105642,67.4747781 C164.177671,67.2220366 162.605042,66.3592689 162.605042,64.5119582 C162.605042,62.4429243 164.208884,61 167.038415,61 C169.357743,61 170.801921,62.0121149 171.87515,62.9955091 L169.854742,64.3786945" id="Fill-16" fill="#888B8D"></path>
        <path d="M187,69.3276324 C186.128291,70.765815 184.555609,72 182.262715,72 C179.35181,72 177,70.0019576 177,66.4943334 C177,63.4241706 179.209931,61 182.328845,61 C184.353613,61 186.192016,62.131053 186.968739,63.6882341 L184.790069,64.716155 C184.555609,63.9386977 183.573284,63.1306408 182.451485,63.1306408 C180.675604,63.1306408 179.741373,64.687822 179.741373,66.4206676 C179.741373,68.6963734 180.971384,69.826293 182.451485,69.826293 C183.885896,69.826293 184.461825,68.8867711 184.834556,68.2849784 L187,69.3276324" id="Fill-17" fill="#888B8D"></path>
        <path d="M193.477183,69.7968267 C195.515066,69.7968267 196.246397,68.0061817 196.246397,66.5521327 C196.246397,64.6719555 195.374563,63.173707 193.430349,63.173707 C191.344432,63.173707 190.706769,65.039151 190.706769,66.4342675 C190.706769,68.0945807 191.499345,69.7968267 193.477183,69.7968267 Z M193.430349,61 C197.429258,61 199,64.1143623 199,66.581599 C199,69.3570987 196.99214,72 193.460371,72 C189.833734,72 188,69.3117659 188,66.4626005 C188,64.0984958 189.463865,61 193.430349,61 Z" id="Fill-18" fill="#888B8D"></path>
        <path d="M210.602355,72 C210.602355,72 210.602355,65.9228247 210.657861,63.774049 L208.584545,72 L206.429603,72 L204.369348,63.774049 C204.411794,65.3155881 204.427031,72 204.427031,72 L202,72 L202,61 L205.638369,61 L207.515781,68.6968736 L209.360542,61 L213,61 L213,72 L210.602355,72" id="Fill-19" fill="#888B8D"></path>
        <path d="M218.633278,66.360516 L220.358173,66.360516 C221.549062,66.360516 222.3828,66.0635111 222.3828,64.6301924 C222.3828,63.0405553 221.131045,63.0261259 220.314534,63.0261259 L218.633278,63.0261259 L218.633278,66.360516 Z M221.207988,61 C223.693122,61 225,62.2313074 225,64.7540446 C225,67.5437254 222.665306,68.4010713 220.761261,68.4010713 L218.633278,68.4010713 L218.633278,72 L216,72 L216,61 L221.207988,61 Z" id="Fill-20" fill="#888B8D"></path>
        <path d="M230.468729,63.6177307 L229.113274,68.2603848 L231.903564,68.2603848 L230.468729,63.6177307 Z M233.071397,72 L232.526569,70.2384128 L228.474634,70.2384128 L227.929805,72 L225,72 L229.082003,61 L231.95047,61 L236,72 L233.071397,72 Z" id="Fill-21" fill="#888B8D"></path>
        <polyline id="Fill-22" fill="#888B8D" points="244.376025 72 240.580633 65.4262134 240.580633 72 238 72 238 61 240.626318 61 244.433424 67.7000437 244.433424 61 247 61 247 72 244.376025 72"></polyline>
        <polygon id="Fill-23" fill="#888B8D" points="249 72 252 72 252 61 249 61"></polygon>
        <polyline id="Fill-24" fill="#888B8D" points="254 61 262.495116 61 262.495116 63.1343463 256.862266 63.1343463 256.862266 65.1280061 262.119593 65.1280061 262.119593 67.2166594 256.862266 67.2166594 256.862266 69.83439 263 69.83439 263 72 254 72 254 61"></polyline>
        <path d="M271.852341,64.3786945 C271.060024,63.5894517 270.157263,63.0690339 268.97599,63.0690339 C267.854742,63.0690339 267.343337,63.6939948 267.343337,64.1845431 C267.343337,64.749765 267.807923,65.0185901 268.743097,65.1530026 L269.955582,65.3161358 C272.816327,65.7032898 274,66.5373368 274,68.3375457 C274,70.5570757 272.147659,72 269.008403,72 C266.440576,72 265.118848,71.1222977 264,69.8712272 L266.081633,68.6063708 C266.813926,69.4553525 268.073229,69.9309661 269.254502,69.9309661 C270.063625,69.9309661 271.278511,69.5886162 271.278511,68.709765 C271.278511,67.9664752 270.344538,67.757389 269.364946,67.6379112 L268.105642,67.4747781 C266.176471,67.2220366 264.605042,66.3592689 264.605042,64.5119582 C264.605042,62.4429243 266.206483,61 269.038415,61 C271.355342,61 272.801921,62.0121149 273.876351,62.9955091 L271.852341,64.3786945" id="Fill-25" fill="#888B8D"></path>
    </g>
</svg>