<?xml version="1.0" encoding="UTF-8"?>
<svg width="252px" height="241px" viewBox="0 0 252 241" version="1.1" xmlns="http://www.w3.org/2000/svg" xmlns:xlink="http://www.w3.org/1999/xlink">
    <!-- Generator: Sketch 51.3 (57544) - http://www.bohemiancoding.com/sketch -->
    <title>SIDE IMAGE</title>
    <desc>Created with Sketch.</desc>
    <defs></defs>
    <g id="All-Artboards" stroke="none" stroke-width="1" fill="none" fill-rule="evenodd">
        <g id="2a---Tablet---News-Article-Page-" transform="translate(-488.000000, -890.000000)">
            <g id="SIDE-IMAGE" transform="translate(488.000000, 890.000000)">
                <rect id="Rectangle-4" fill="#F3F3F3" fill-rule="nonzero" x="0" y="0" width="252" height="241"></rect>
                <g id="Group-5" transform="translate(27.000000, 49.000000)">
                    <path d="M11.531633,29.2789691 L8.81961949,33.2625906 L11.4978735,37.2574652 L10.1812528,37.2574652 L8.16693574,34.1403377 L6.107606,37.2574652 L4.81349168,37.2574652 L7.53675834,33.2625906 L4.83599802,29.2789691 L6.16387184,29.2789691 L8.17818891,32.4073498 L10.2262655,29.2789691 L11.531633,29.2789691 Z M13.1971018,31.6533875 C13.1971018,32.1710333 13.5797096,32.5423878 14.0635958,32.5423878 C14.5587352,32.5423878 14.9300897,32.1710333 14.9300897,31.6533875 C14.9300897,31.146995 14.5587352,30.7756404 14.0635958,30.7756404 C13.5797096,30.7756404 13.1971018,31.146995 13.1971018,31.6533875 Z M12.2630889,31.6533875 C12.2630889,30.6631087 13.0958233,29.8866402 14.0635958,29.8866402 C15.0313682,29.8866402 15.8753558,30.6631087 15.8753558,31.6533875 C15.8753558,32.6549195 15.0313682,33.4313881 14.0635958,33.4313881 C13.0958233,33.4313881 12.2630889,32.6549195 12.2630889,31.6533875 Z M17.6533564,35.56949 C17.6533564,36.0871357 18.0359641,36.4584903 18.5198503,36.4584903 C19.0149897,36.4584903 19.3863442,36.0871357 19.3863442,35.56949 C19.3863442,35.0630974 19.0149897,34.6917429 18.5198503,34.6917429 C18.0359641,34.6917429 17.6533564,35.0630974 17.6533564,35.56949 Z M16.7193434,35.56949 C16.7193434,34.5792112 17.5520779,33.8027426 18.5198503,33.8027426 C19.4876228,33.8027426 20.3316104,34.5792112 20.3316104,35.56949 C20.3316104,36.5710219 19.4876228,37.3474905 18.5198503,37.3474905 C17.5520779,37.3474905 16.7193434,36.5710219 16.7193434,35.56949 Z M14.1986338,37.2574652 L13.1633423,37.2574652 L18.4073186,29.9654123 L19.4201037,29.9654123 L14.1986338,37.2574652 Z" id="X%" fill="#63666A"></path>
                    <path d="M156.674994,29.2789691 L153.96298,33.2625906 L156.641234,37.2574652 L155.324614,37.2574652 L153.310297,34.1403377 L151.250967,37.2574652 L149.956853,37.2574652 L152.680119,33.2625906 L149.979359,29.2789691 L151.307233,29.2789691 L153.32155,32.4073498 L155.369626,29.2789691 L156.674994,29.2789691 Z M158.340463,31.6533875 C158.340463,32.1710333 158.72307,32.5423878 159.206957,32.5423878 C159.702096,32.5423878 160.073451,32.1710333 160.073451,31.6533875 C160.073451,31.146995 159.702096,30.7756404 159.206957,30.7756404 C158.72307,30.7756404 158.340463,31.146995 158.340463,31.6533875 Z M157.40645,31.6533875 C157.40645,30.6631087 158.239184,29.8866402 159.206957,29.8866402 C160.174729,29.8866402 161.018717,30.6631087 161.018717,31.6533875 C161.018717,32.6549195 160.174729,33.4313881 159.206957,33.4313881 C158.239184,33.4313881 157.40645,32.6549195 157.40645,31.6533875 Z M162.796717,35.56949 C162.796717,36.0871357 163.179325,36.4584903 163.663211,36.4584903 C164.158351,36.4584903 164.529705,36.0871357 164.529705,35.56949 C164.529705,35.0630974 164.158351,34.6917429 163.663211,34.6917429 C163.179325,34.6917429 162.796717,35.0630974 162.796717,35.56949 Z M161.862704,35.56949 C161.862704,34.5792112 162.695439,33.8027426 163.663211,33.8027426 C164.630984,33.8027426 165.474971,34.5792112 165.474971,35.56949 C165.474971,36.5710219 164.630984,37.3474905 163.663211,37.3474905 C162.695439,37.3474905 161.862704,36.5710219 161.862704,35.56949 Z M159.341995,37.2574652 L158.306703,37.2574652 L163.550679,29.9654123 L164.563465,29.9654123 L159.341995,37.2574652 Z" id="X%" fill="#63666A"></path>
                    <path d="M7.00785944,92.3304694 L4.29584595,96.3140909 L6.97409994,100.308965 L5.65747928,100.308965 L3.64316221,97.191838 L1.58383246,100.308965 L0.289718144,100.308965 L3.0129848,96.3140909 L0.31222448,92.3304694 L1.6400983,92.3304694 L3.65441538,95.4588501 L5.70249195,92.3304694 L7.00785944,92.3304694 Z M8.6733283,94.7048878 C8.6733283,95.2225336 9.05593602,95.5938881 9.53982224,95.5938881 C10.0349616,95.5938881 10.4063162,95.2225336 10.4063162,94.7048878 C10.4063162,94.1984953 10.0349616,93.8271407 9.53982224,93.8271407 C9.05593602,93.8271407 8.6733283,94.1984953 8.6733283,94.7048878 Z M7.73931536,94.7048878 C7.73931536,93.7146091 8.57204979,92.9381405 9.53982224,92.9381405 C10.5075947,92.9381405 11.3515823,93.7146091 11.3515823,94.7048878 C11.3515823,95.7064198 10.5075947,96.4828884 9.53982224,96.4828884 C8.57204979,96.4828884 7.73931536,95.7064198 7.73931536,94.7048878 Z M13.1295828,98.6209903 C13.1295828,99.138636 13.5121905,99.5099906 13.9960768,99.5099906 C14.4912162,99.5099906 14.8625707,99.138636 14.8625707,98.6209903 C14.8625707,98.1145977 14.4912162,97.7432432 13.9960768,97.7432432 C13.5121905,97.7432432 13.1295828,98.1145977 13.1295828,98.6209903 Z M12.1955699,98.6209903 C12.1955699,97.6307115 13.0283043,96.8542429 13.9960768,96.8542429 C14.9638492,96.8542429 15.8078368,97.6307115 15.8078368,98.6209903 C15.8078368,99.6225223 14.9638492,100.398991 13.9960768,100.398991 C13.0283043,100.398991 12.1955699,99.6225223 12.1955699,98.6209903 Z M9.67486026,100.308965 L8.6395688,100.308965 L13.8835451,93.0169126 L14.8963302,93.0169126 L9.67486026,100.308965 Z" id="X%" fill="#63666A"></path>
                    <path d="M67.1135868,3.04783447 L64.4015733,7.03145595 L67.0798272,11.0263306 L65.7632066,11.0263306 L63.7488895,7.90920305 L61.6895598,11.0263306 L60.3954455,11.0263306 L63.1187121,7.03145595 L60.4179518,3.04783447 L61.7458256,3.04783447 L63.7601427,6.17621518 L65.8082193,3.04783447 L67.1135868,3.04783447 Z M68.7790556,5.42225292 C68.7790556,5.93989865 69.1616633,6.31125319 69.6455496,6.31125319 C70.1406889,6.31125319 70.5120435,5.93989865 70.5120435,5.42225292 C70.5120435,4.91586036 70.1406889,4.54450582 69.6455496,4.54450582 C69.1616633,4.54450582 68.7790556,4.91586036 68.7790556,5.42225292 Z M67.8450427,5.42225292 C67.8450427,4.43197414 68.6777771,3.65550555 69.6455496,3.65550555 C70.613322,3.65550555 71.4573096,4.43197414 71.4573096,5.42225292 C71.4573096,6.42378487 70.613322,7.20025347 69.6455496,7.20025347 C68.6777771,7.20025347 67.8450427,6.42378487 67.8450427,5.42225292 Z M73.2353101,9.33835539 C73.2353101,9.85600111 73.6179179,10.2273557 74.1018041,10.2273557 C74.5969435,10.2273557 74.968298,9.85600111 74.968298,9.33835539 C74.968298,8.83196283 74.5969435,8.46060828 74.1018041,8.46060828 C73.6179179,8.46060828 73.2353101,8.83196283 73.2353101,9.33835539 Z M72.3012972,9.33835539 C72.3012972,8.3480766 73.1340316,7.57160801 74.1018041,7.57160801 C75.0695765,7.57160801 75.9135641,8.3480766 75.9135641,9.33835539 C75.9135641,10.3398873 75.0695765,11.1163559 74.1018041,11.1163559 C73.1340316,11.1163559 72.3012972,10.3398873 72.3012972,9.33835539 Z M69.7805876,11.0263306 L68.7452961,11.0263306 L73.9892724,3.73427772 L75.0020575,3.73427772 L69.7805876,11.0263306 Z" id="X%" fill="#63666A"></path>
                    <g id="Group-39" transform="translate(23.280000, 10.279200)">
                        <path d="M85.4352,94.012992 C82.28592,97.162272 77.93424,99.110592 73.13184,99.110592 C66.6936,99.110592 61.08336,95.607072 58.07376,90.408672 L17.64432,113.746752 C28.72512,132.897312 49.41504,145.795392 73.13328,145.795392 C90.83376,145.795392 106.848,138.624192 118.44432,127.023552 L85.4352,94.012992 Z" id="Fill-17" fill="#CA001B"></path>
                        <path d="M55.731168,81.712656 C55.731168,80.154576 55.954368,78.649776 56.340288,77.214096 L18.664128,67.119696 C17.425728,71.776656 16.747488,76.662576 16.747488,81.712656 C16.747488,91.989936 19.506528,101.606256 24.310368,109.906416 L58.074048,90.408816 C56.592288,87.844176 55.731168,84.883536 55.731168,81.712656" id="Fill-19" fill="#F27D00"></path>
                        <path d="M97.093872,40.209408 L81.822672,66.653568 C87.025392,69.661728 90.530352,75.271968 90.530352,81.713088 L121.062672,81.714528 L121.062672,81.713088 C121.062672,63.973728 111.417552,48.496608 97.093872,40.209408" id="Fill-21" fill="#CC0099"></path>
                        <path d="M90.530352,81.712656 C90.530352,86.519376 88.586352,90.868176 85.435632,94.013136 L124.291152,132.875856 C137.389392,119.790576 145.489392,101.692656 145.489392,81.715536 L90.530352,81.712656 Z" id="Fill-23" fill="#000099"></path>
                        <path d="M64.43712,66.65328 L53.03664,46.91088 C49.98816,48.67488 47.18592,50.81904 44.70912,53.29296 L60.8256,69.40944 C61.89696,68.33808 63.1152,67.41792 64.43712,66.65328" id="Fill-25" fill="#00B3E3"></path>
                        <path d="M60.825168,69.409872 L27.818928,36.405072 C19.983888,44.240112 14.180688,54.101232 11.233008,65.128752 L56.339568,77.213232 C57.141648,74.220912 58.699728,71.536752 60.825168,69.409872" id="Fill-27" fill="#00A1AF"></path>
                        <path d="M68.632272,64.9224 L58.537872,27.24768 C53.719632,28.53504 49.162032,30.4488 44.942832,32.89104 L64.437552,66.65472 C65.739312,65.9016 67.146192,65.3184 68.632272,64.9224" id="Fill-29" fill="#FF66CC"></path>
                        <path d="M73.131264,64.311552 C76.300704,64.311552 79.262784,65.174112 81.823104,66.652992 L105.169824,26.223552 C95.737824,20.770272 84.809664,17.633952 73.134144,17.633952 C67.397184,17.633952 61.837344,18.400032 56.542464,19.812672 L68.632704,64.922112 C70.069824,64.534752 71.570304,64.311552 73.131264,64.311552" id="Fill-31" fill="#6633CC"></path>
                        <path d="M30.200976,101.597472 C30.153456,101.597472 30.104496,101.577312 30.081456,101.531232 L23.699376,89.855712 L0.295056,89.855712 C0.223056,89.855712 0.162576,89.800992 0.162576,89.724672 C0.162576,89.654112 0.223056,89.597952 0.295056,89.597952 L23.852016,89.597952 L30.308976,101.405952 C30.344976,101.467872 30.321936,101.551392 30.261456,101.581632 C30.239856,101.593152 30.219696,101.597472 30.200976,101.597472" id="Fill-33" fill="#63666A"></path>
                        <path d="M40.341888,131.272128 C40.294368,131.272128 40.245408,131.292288 40.222368,131.338368 L33.840288,143.013888 L0.358848,143.013888 C0.288288,143.013888 0.226368,143.068608 0.226368,143.144928 C0.226368,143.215488 0.288288,143.271648 0.358848,143.271648 L33.992928,143.271648 L40.449888,131.463648 C40.485888,131.403168 40.462848,131.318208 40.402368,131.287968 C40.380768,131.276448 40.360608,131.272128 40.341888,131.272128" id="Fill-35" fill="#63666A"></path>
                        <path d="M73.959408,13.836384 C73.907568,13.836384 73.855728,13.810464 73.829808,13.761504 L66.582288,0.509184 L59.665968,0.509184 C59.585328,0.509184 59.517648,0.445824 59.517648,0.363744 C59.517648,0.281664 59.585328,0.219744 59.665968,0.219744 L66.762288,0.219744 L66.796848,0.293184 L74.087568,13.614624 C74.126448,13.688064 74.103408,13.778784 74.031408,13.817664 C74.006928,13.830624 73.981008,13.836384 73.959408,13.836384" id="Fill-37" fill="#63666A"></path>
                    </g>
                    <path d="M6.14461373,152.935881 L5.00804376,152.935881 L4.04027131,151.259159 C3.64641043,150.617729 3.39884074,150.201361 3.16252421,149.762488 L3.14001787,149.762488 C2.92620768,150.201361 2.71239749,150.606475 2.31853661,151.270412 L1.40703,152.935881 L0.2817132,152.935881 L2.59986581,149.098551 L0.371738544,145.351246 L1.50830851,145.351246 L2.50984046,147.129247 C2.79116966,147.624386 3.00497986,148.006994 3.20753688,148.412108 L3.24129638,148.412108 C3.45510658,147.961981 3.64641043,147.613133 3.92773963,147.129247 L4.96303109,145.351246 L6.08834789,145.351246 L3.78144845,149.042285 L6.14461373,152.935881 Z M8.53028534,145.497537 C9.55432363,145.497537 10.2295137,146.285259 10.2295137,147.680652 C10.2295137,149.222336 9.41928562,149.987551 8.4740195,149.987551 C7.5625129,149.987551 6.77479114,149.256095 6.76353797,147.78193 C6.76353797,146.319018 7.5625129,145.497537 8.53028534,145.497537 Z M8.49652584,146.093955 C7.8776016,146.093955 7.55125973,146.825411 7.55125973,147.748171 C7.52875339,148.682184 7.8776016,149.391133 8.49652584,149.391133 C9.14920958,149.391133 9.44179195,148.693437 9.44179195,147.725664 C9.44179195,146.836664 9.18296909,146.093955 8.49652584,146.093955 Z M9.0366779,153.059666 L8.4065005,153.059666 L12.7052107,145.497537 L13.3353881,145.497537 L9.0366779,153.059666 Z M13.3016286,148.524639 C14.3256669,148.524639 14.9896038,149.312361 14.9896038,150.707754 C14.9896038,152.249438 14.1793757,153.014653 13.2453627,153.014653 C12.3338561,153.014653 11.5461344,152.283197 11.5348812,150.820286 C11.5348812,149.346121 12.3338561,148.524639 13.3016286,148.524639 Z M13.2678691,149.121057 C12.6489448,149.121057 12.3113498,149.852513 12.3113498,150.775273 C12.3000966,151.709286 12.660198,152.418235 13.2678691,152.418235 C13.9205528,152.418235 14.2131352,151.720539 14.2131352,150.752767 C14.2131352,149.863766 13.9543123,149.121057 13.2678691,149.121057 Z" id="X%" fill="#63666A"></path>
                    <path d="M124.827216,74.390736 C124.864656,74.390736 124.893456,74.376336 124.912176,74.344656 L144.477456,44.054256 L185.109936,44.054256 C185.171856,44.054256 185.212176,44.012496 185.212176,43.953456 C185.212176,43.898736 185.171856,43.852656 185.109936,43.852656 L144.415536,43.852656 C144.380976,43.852656 144.352176,43.868496 144.333456,43.900176 L124.740816,74.232336 C124.710576,74.281296 124.724976,74.343216 124.769616,74.376336 C124.788336,74.386416 124.808496,74.390736 124.827216,74.390736" id="Fill-40" fill="#63666A"></path>
                    <path d="M194.594385,144.521065 L191.882371,148.504687 L194.560625,152.499561 L193.244005,152.499561 L191.229688,149.382434 L189.170358,152.499561 L187.876244,152.499561 L190.59951,148.504687 L187.89875,144.521065 L189.226624,144.521065 L191.240941,147.649446 L193.289017,144.521065 L194.594385,144.521065 Z M196.259854,146.895484 C196.259854,147.413129 196.642462,147.784484 197.126348,147.784484 C197.621487,147.784484 197.992842,147.413129 197.992842,146.895484 C197.992842,146.389091 197.621487,146.017736 197.126348,146.017736 C196.642462,146.017736 196.259854,146.389091 196.259854,146.895484 Z M195.325841,146.895484 C195.325841,145.905205 196.158575,145.128736 197.126348,145.128736 C198.09412,145.128736 198.938108,145.905205 198.938108,146.895484 C198.938108,147.897015 198.09412,148.673484 197.126348,148.673484 C196.158575,148.673484 195.325841,147.897015 195.325841,146.895484 Z M200.716108,150.811586 C200.716108,151.329232 201.098716,151.700586 201.582602,151.700586 C202.077742,151.700586 202.449096,151.329232 202.449096,150.811586 C202.449096,150.305193 202.077742,149.933839 201.582602,149.933839 C201.098716,149.933839 200.716108,150.305193 200.716108,150.811586 Z M199.782095,150.811586 C199.782095,149.821307 200.61483,149.044839 201.582602,149.044839 C202.550375,149.044839 203.394362,149.821307 203.394362,150.811586 C203.394362,151.813118 202.550375,152.589587 201.582602,152.589587 C200.61483,152.589587 199.782095,151.813118 199.782095,150.811586 Z M197.261386,152.499561 L196.226094,152.499561 L201.470071,145.207508 L202.482856,145.207508 L197.261386,152.499561 Z" id="X%" fill="#63666A"></path>
                    <g id="Group-46" transform="translate(27.600000, 36.199200)" fill="#63666A">
                        <path d="M126.418752,84.439152 C126.454752,84.439152 126.484992,84.453552 126.503712,84.485232 L141.340032,116.088912 L154.053792,116.088912 C154.115712,116.088912 154.157472,116.130672 154.157472,116.189712 C154.157472,116.244432 154.115712,116.290512 154.053792,116.290512 L141.278112,116.290512 C141.244992,116.290512 141.214752,116.274672 141.196032,116.242992 L126.332352,84.597552 C126.302112,84.548592 126.316512,84.486672 126.361152,84.453552 C126.379872,84.443472 126.400032,84.439152 126.418752,84.439152" id="Fill-42"></path>
                        <path d="M22.429152,26.390016 C22.447872,26.390016 22.466592,26.384256 22.485312,26.377056 C22.535712,26.345376 22.555872,26.279136 22.525632,26.224416 L8.517312,1.002816 C8.501472,0.969696 8.464032,0.948096 8.420832,0.948096 L0.479232,0.948096 C0.414432,0.948096 0.369792,0.997056 0.369792,1.058976 C0.369792,1.120896 0.414432,1.169856 0.479232,1.169856 L8.356032,1.169856 L22.332672,26.333856 C22.354272,26.369856 22.387392,26.390016 22.429152,26.390016" id="Fill-44"></path>
                    </g>
                </g>
                <path d="M33.442,28.908 L30.306,28.908 L30.306,37 L28.36,37 L28.36,28.908 L25.224,28.908 L25.224,27.074 L33.442,27.074 L33.442,28.908 Z M36.41,37 L34.548,37 L34.548,30.112 L36.41,30.112 L36.41,37 Z M34.324,27.858 C34.324,27.214 34.842,26.696 35.472,26.696 C36.116,26.696 36.62,27.214 36.62,27.858 C36.62,28.474 36.116,28.992 35.472,28.992 C34.842,28.992 34.324,28.474 34.324,27.858 Z M40.694,28.054 L40.694,30.112 L42.08,30.112 L42.08,31.764 L40.694,31.764 L40.694,34.648 C40.694,35.25 40.974,35.446 41.506,35.446 C41.73,35.446 41.982,35.418 42.08,35.39 L42.08,36.93 C41.912,37 41.576,37.098 41.03,37.098 C39.686,37.098 38.846,36.3 38.846,34.97 L38.846,31.764 L37.6,31.764 L37.6,30.112 L37.95,30.112 C38.678,30.112 39.014,29.636 39.014,29.02 L39.014,28.054 L40.694,28.054 Z M45.188,37 L43.326,37 L43.326,26.864 L45.188,26.864 L45.188,37 Z M48.534,32.772 L51.614,32.772 C51.586,32.086 51.138,31.414 50.074,31.414 C49.108,31.414 48.576,32.142 48.534,32.772 Z M51.796,34.564 L53.35,35.026 C53,36.216 51.908,37.21 50.214,37.21 C48.324,37.21 46.658,35.852 46.658,33.528 C46.658,31.33 48.282,29.902 50.046,29.902 C52.174,29.902 53.448,31.26 53.448,33.472 C53.448,33.738 53.42,34.018 53.42,34.046 L48.492,34.046 C48.534,34.956 49.304,35.614 50.228,35.614 C51.096,35.614 51.572,35.18 51.796,34.564 Z" id="Title" fill="#212121"></path>
            </g>
        </g>
    </g>
</svg>