<?xml version="1.0" encoding="UTF-8"?>
<svg width="300px" height="73px" viewBox="0 0 300 73" version="1.1" xmlns="http://www.w3.org/2000/svg" xmlns:xlink="http://www.w3.org/1999/xlink">
    <!-- Generator: Sketch 50.2 (55047) - http://www.bohemiancoding.com/sketch -->
    <title>Group 20</title>
    <desc>Created with Sketch.</desc>
    <defs></defs>
    <g id="DESKTOP" stroke="none" stroke-width="1" fill="none" fill-rule="evenodd">
        <g id="Group-20">
            <g id="Group-21" fill="#CA001B" fill-rule="nonzero">
                <path d="M108.498754,19.5525798 C108.498754,19.0634108 108.832195,18.7975581 109.252259,18.7975581 C109.964232,18.7975581 111.041684,19.5525798 111.644488,21.0567152 C111.428523,21.0567152 111.102202,21.1240646 110.883864,21.1240646 C109.588073,21.1240646 108.498754,20.5072863 108.498754,19.5525798 Z M30.1010324,19.5525798 C30.1010324,19.0634108 30.4202336,18.7975581 30.8604702,18.7975581 C31.5522707,18.7975581 32.5846316,19.5525798 33.1850621,21.0567152 C31.1832313,21.0567152 30.1010324,20.6242615 30.1010324,19.5525798 Z M45.2221525,11.7766837 C45.2221525,3.72666404 46.7956129,2.49074439 47.2856876,2.49074439 C48.1554813,2.49074439 48.2575308,3.02953919 48.2575308,6.11579362 C48.2575308,9.28830248 46.9024088,13.4391493 45.2221525,15.7183931 L45.2221525,11.7766837 Z M100.267159,19.7109098 C99.3309149,21.0070894 98.5774101,22.8444269 98.5774101,25.2134699 C98.5774101,29.7495077 101.173738,34.0775896 106.22044,34.0775896 C111.102202,34.0775896 114.517299,30.2363135 114.517299,24.8873572 C114.517299,23.3312328 114.463901,23.1150059 114.360665,22.4734147 C115.491516,21.9807011 116.475225,21.2256794 117.233476,20.6242615 C117.883745,20.1386373 118.365513,19.8656952 118.754725,19.8656952 C119.238867,19.8656952 119.453645,20.2461599 119.453645,20.948011 L119.453645,31.5395825 C119.453645,33.2658527 120.001865,34.0775896 121.351054,34.0775896 C122.594633,34.0775896 123.47036,33.210319 123.954502,32.1859 C125.74986,28.4604175 128.343815,23.491926 129.479412,21.603781 C129.751148,21.1725089 129.974233,20.8416699 130.132054,20.8416699 C130.349206,20.8416699 130.461935,21.0070894 130.461935,21.7018511 L130.461935,30.139425 C130.461935,32.5084679 131.54532,34.0775896 133.925684,34.0775896 C136.423522,34.0775896 137.662355,31.6943679 139.846926,28.0267822 C139.951349,27.8046475 140,27.6486806 140,27.4903505 C140,27.0035447 139.576376,26.729421 139.139699,26.729421 C138.646065,26.729421 138.373142,27.21859 136.752216,28.994486 C136.423522,29.3324143 136.104321,29.8003151 135.50389,29.8003151 C135.287925,29.8003151 135.122985,29.5415518 135.122985,29.2154391 L135.122985,19.7569909 C135.122985,17.2178023 133.983828,16.1945648 132.517164,16.1945648 C131.329355,16.1945648 130.349206,16.6790075 129.318032,18.1949586 C127.475208,20.8995668 125.580173,24.7361166 124.547812,26.6691611 C124.435083,26.8972036 124.276076,27.21859 124.175213,27.21859 C124.060111,27.21859 124.011459,27.0543521 124.011459,26.6691611 L124.011459,19.7569909 C124.011459,17.7648681 123.47036,16.1945648 121.351054,16.1945648 C119.126138,16.1945648 117.989354,17.7069712 116.362496,18.8400945 C115.336068,19.6033872 114.41169,20.1386373 113.713956,20.4612052 C112.622264,17.7069712 110.616874,16.3150847 108.938991,16.3576211 C107.249241,16.4155179 106.060246,17.4446633 106.060246,19.1732966 C106.060246,20.948011 107.146005,22.1839307 108.607923,22.7333596 C109.414826,23.0559275 110.176637,23.1150059 111.268329,23.1150059 C111.593463,23.1150059 111.917411,23.1150059 112.126257,23.0559275 C112.241359,23.5911776 112.190334,24.3591965 112.190334,24.9511619 C112.190334,27.6002363 110.616874,30.2363135 107.690665,30.2363135 C104.64698,30.2363135 102.864674,27.3237495 102.864674,23.9775502 C102.864674,21.4348169 103.620552,19.3316266 104.862945,17.8806617 C105.358953,17.335959 105.733926,17.0086648 105.733926,16.513588 C105.733926,16.259551 105.358953,16.1945648 105.031445,16.1945648 C102.966724,16.1945648 100.69553,17.117369 99.126816,17.920835 C97.0537879,19.0019693 94.6212134,20.7932257 92.6110763,22.5726664 C91.6380465,20.4080347 90.4443051,18.5175266 89.8438745,17.0582907 C89.6338425,16.4615991 89.4724619,15.7692005 89.0357851,15.7692005 C88.6501331,15.7692005 88.484006,16.1496652 88.2182028,16.8928712 C87.2463596,19.7569909 82.038277,28.1343048 80.9003068,29.2686097 C80.7935109,29.4245766 80.6356902,29.5935408 80.5822922,29.5935408 C80.4660033,29.5935408 80.4031123,29.5415518 80.4031123,29.2154391 L80.4031123,19.7569909 C80.4031123,17.2178023 79.375498,16.1945648 77.9776576,16.1945648 C76.7779831,16.1945648 75.7503687,16.6790075 74.7773389,18.1949586 C72.9867268,20.8995668 70.8104626,24.8400945 69.7828482,26.7802284 C69.6179078,27.1146121 69.4565273,27.21859 69.3983828,27.21859 C69.3449848,27.21859 69.2998932,27.0035447 69.2998932,26.6691611 L69.2998932,19.7569909 C69.2998932,17.2178023 68.2675323,16.1945648 66.8518927,16.1945648 C65.6581512,16.1945648 64.5261142,16.6364711 63.6017359,18.1949586 C61.3305419,22.0315085 57.5345392,27.918078 56.8284993,28.8857818 C56.7181434,29.0523828 56.6101609,29.1622686 56.5033649,29.2154391 C56.3953823,29.2154391 56.3324914,29.1043718 56.3324914,28.8337928 L56.3324914,19.7569909 C56.3324914,17.2178023 55.304877,16.1945648 53.8999169,16.1945648 C51.9479243,16.1945648 50.8680985,17.9858212 50.1549389,19.1153998 C49.1771626,20.6809768 47.8801851,22.7900748 46.8525707,24.7361166 C46.1405977,26.0358409 45.5472869,27.21859 45.3277619,27.21859 C45.2221525,27.21859 45.2221525,26.729421 45.2221525,25.8101615 L45.2221525,18.5777865 C48.6360631,14.7908625 50.750623,10.1555731 50.750623,5.07719575 C50.750623,2.15636077 49.4500856,0.543521071 47.4506281,0.543521071 C43.7009035,0.543521071 40.8363988,6.37455691 40.8363988,13.2808192 L40.8363988,18.8979913 C39.097998,19.9791256 37.469953,20.5072863 35.4586293,20.8995668 C34.4298283,17.8806617 32.2594972,16.3150847 30.5329627,16.3576211 C28.853893,16.4155179 27.6554051,17.4446633 27.6554051,19.1732966 C27.6554051,22.0315085 30.4783781,23.2201654 32.9667237,23.2201654 L33.6703904,23.2201654 C33.7771864,23.7672312 33.7771864,24.3591965 33.7771864,24.9511619 C33.7771864,27.6002363 32.2049126,30.2363135 29.2846366,30.2363135 C26.2516316,30.2363135 24.4550864,27.3237495 24.4550864,23.9775502 C24.4550864,21.4348169 25.2097778,19.3316266 26.4569172,17.8806617 C26.9481785,17.335959 27.3338306,16.8515163 27.3338306,16.513588 C27.3338306,16.259551 26.9481785,16.1945648 26.6218576,16.1945648 C24.5606957,16.1945648 20.0123748,18.9606144 14.5847672,24.3591965 C14.1065586,20.0393856 13.5607127,15.8200079 13.5607127,11.7164238 C13.5607127,7.12839701 14.4732247,3.23158724 14.6868166,2.11027964 C14.7959858,1.41197322 14.8624366,0.974793226 14.8624366,0.656951556 C14.8624366,0.220953131 14.6346053,0 14.0484142,0 C9.65435405,0 0,6.97361166 0,17.3926743 C0,24.7798346 2.71855029,28.3493501 7.4246919,32.9361954 C4.56730688,37.5289484 2.2759404,42.9759748 2.2759404,47.8428515 C2.2759404,51.3461993 3.09826923,54 5.69103762,54 C11.1150854,54 15.1804513,42.7727452 15.1804513,34.4509649 C15.1804513,31.9732178 15.0784018,29.4848365 14.8624366,27.0035447 C16.8618942,24.8873572 19.9542303,22.0315085 20.7101083,21.7632926 C20.3861606,22.8999606 20.1725687,24.0909807 20.1725687,25.2134699 C20.1725687,29.7495077 22.7783899,34.0775896 27.815599,34.0775896 C32.5371667,34.0775896 36.1112712,30.2363135 36.1112712,24.8873572 C36.1112712,24.1973218 36.0578732,23.5911776 36.0044753,22.9460417 C37.7345697,22.6270185 39.3222695,22.1839307 40.8363988,21.2800315 L40.8363988,32.1303663 C40.8363988,33.5281607 41.8058687,34.0775896 42.7266871,34.0775896 C43.9821329,34.0775896 44.6324016,33.210319 45.5472869,31.2217408 C46.3114712,29.5935408 48.3667,25.871603 49.6114662,23.650256 C50.5928023,21.9204411 51.1374616,20.7932257 51.5729518,20.7932257 C51.6750013,20.7932257 51.7912902,21.0567152 51.7912902,21.7018511 L51.7912902,30.9405278 C51.7912902,33.4277275 53.0930142,34.0775896 54.2179315,34.0775896 C55.304877,34.0775896 56.0121035,33.4832611 56.7181434,32.5084679 C59.5411164,28.5100433 62.5278432,23.7672312 63.7097184,21.7018511 C63.9339899,21.3379283 64.1997932,21.0567152 64.4193182,21.0567152 C64.6305369,21.0567152 64.7397061,21.1725089 64.7397061,21.8649074 L64.7397061,31.5395825 C64.7397061,33.2658527 65.2819922,34.0775896 66.6454205,34.0775896 C67.8854402,34.0775896 68.6935295,33.210319 69.1800444,32.1859 C70.9813361,28.4604175 73.632249,23.5415518 74.7773389,21.603781 C75.0443288,21.1725089 75.3172518,20.7932257 75.4774457,20.7932257 C75.7005306,20.7932257 75.7503687,21.0567152 75.7503687,21.7632926 L75.7503687,30.9405278 C75.7503687,33.4277275 77.0509061,34.0775896 78.1983692,34.0775896 C79.7053788,34.0775896 80.6902748,32.9940922 81.6656778,31.7569909 C83.4432371,29.4245766 86.0490583,25.2831824 87.6225187,22.6270185 C88.1707379,23.491926 88.7616755,24.5198897 89.2576834,25.6494683 C87.9523995,27.21859 86.6483023,28.994486 86.6483023,30.8849941 C86.6483023,32.8853879 88.0603821,34.0775896 89.5234866,34.0775896 C92.0130189,34.0775896 94.2925192,31.6943679 94.2925192,28.4048838 C94.2925192,27.1146121 93.9151735,25.7593541 93.4298452,24.4690823 C95.6405214,22.303269 98.3033005,20.1977156 100.267159,19.7109098 Z M10.9477717,31.4828673 C11.3856351,34.3422607 11.7689139,37.1555731 11.7689139,39.3662859 C11.7689139,44.5427334 10.034073,50.5935408 7.05209269,50.5450965 C5.89988303,50.5450965 4.93397298,49.3954313 4.88176162,47.4115794 C4.77377905,40.9377708 7.86255531,35.4269397 10.9477717,31.4828673 Z M90.1156109,27.8046475 C90.4443051,28.7333596 90.6116187,29.4848365 90.6116187,30.2363135 C90.6116187,31.1035841 90.2817379,31.9732178 89.6848672,31.9732178 C89.2576834,31.9732178 88.81982,31.4828673 88.81982,30.726664 C88.81982,29.9137456 89.5234866,28.6163844 90.1156109,27.8046475 Z M12.9068841,2.05120126 C12.9068841,2.38085861 12.1438864,3.88972036 11.1720432,6.59196534 C10.140869,9.39582513 9.15834619,13.3859787 9.15834619,18.1949586 C9.15834619,21.0567152 9.8703192,24.8400945 10.473123,28.6742812 L8.732349,31.0043324 C5.96752047,27.6486806 4.23149294,23.8735723 4.23149294,17.3926743 C4.23149294,8.21425758 9.81929447,1.84797164 12.6861725,1.84797164 C12.857046,1.84797164 12.9068841,1.89641591 12.9068841,2.05120126 Z" id="Fill-1"></path>
                <path d="M268.33893,19.5525798 C268.33893,19.0634108 268.656208,18.7975581 269.098729,18.7975581 C269.797696,18.7975581 270.893858,19.5525798 271.490246,21.0567152 C271.277932,21.0567152 270.952304,21.1240646 270.723291,21.1240646 C269.426742,21.1240646 268.33893,20.5072863 268.33893,19.5525798 Z M189.516654,19.5525798 C189.516654,19.0634108 189.851824,18.7975581 190.280031,18.7975581 C190.990926,18.7975581 192.036991,19.5525798 192.628609,21.0567152 C190.609237,21.0567152 189.516654,20.6242615 189.516654,19.5525798 Z M204.72933,11.7766837 C204.72933,3.72666404 206.299025,2.49074439 206.797605,2.49074439 C207.665947,2.49074439 207.778068,3.02953919 207.778068,6.11579362 C207.778068,9.28830248 206.40876,13.4391493 204.72933,15.7183931 L204.72933,11.7766837 Z M170.285512,31.4828673 C170.707755,34.3422607 171.104949,37.1555731 171.104949,39.3662859 C171.104949,44.5427334 169.364688,50.5935408 166.35889,50.5450965 C165.213824,50.5450965 164.234554,49.3954313 164.178494,47.4115794 C164.067566,40.9377708 167.177135,35.4269397 170.285512,31.4828673 Z M249.864008,27.8046475 C250.194408,28.7333596 250.348276,29.4848365 250.348276,30.2363135 C250.348276,31.1035841 250.022648,31.9732178 249.421488,31.9732178 C248.992088,31.9732178 248.541219,31.4828673 248.541219,30.726664 C248.541219,29.9137456 249.261656,28.6163844 249.864008,27.8046475 Z M172.236895,2.05120126 C172.236895,2.38085861 171.480674,3.88972036 170.496633,6.59196534 C169.464881,9.39582513 168.479647,13.3859787 168.479647,18.1949586 C168.479647,21.0567152 169.203663,24.8400945 169.797666,28.6742812 L168.050248,31.0043324 C165.275849,27.6486806 163.522466,23.8735723 163.522466,17.3926743 C163.522466,8.21425758 169.14641,1.84797164 172.03293,1.84797164 C172.191569,1.84797164 172.236895,1.89641591 172.236895,2.05120126 Z M163.15032,29.0523828 C164.122433,30.3485624 165.322367,31.5880268 166.74535,32.9361954 C163.851673,37.5289484 161.563927,42.9759748 161.563927,47.8428515 C161.563927,51.3461993 162.389328,54 165.006281,54 C170.446536,54 174.534183,42.7727452 174.534183,34.4509649 C174.534183,31.9732178 174.430411,29.4848365 174.208555,27.0035447 C176.225541,24.8873572 179.32676,22.0315085 180.094909,21.7632926 C179.769281,22.8999606 179.546231,24.0909807 179.546231,25.2134699 C179.546231,29.7495077 182.164377,34.0775896 187.236064,34.0775896 C191.973774,34.0775896 195.573575,30.2363135 195.573575,24.8873572 C195.573575,24.1973218 195.5199,23.5911776 195.460261,22.9460417 C197.211257,22.6270185 198.797651,22.1839307 200.31367,21.2800315 L200.31367,32.1303663 C200.31367,33.5281607 201.29294,34.0775896 202.212571,34.0775896 C203.478107,34.0775896 204.135327,33.210319 205.057344,31.2217408 C205.81595,29.5935408 207.892575,25.871603 209.150954,23.650256 C210.126646,21.9204411 210.669359,20.7932257 211.121422,20.7932257 C211.221615,20.7932257 211.326579,21.0567152 211.326579,21.7018511 L211.326579,30.9405278 C211.326579,33.4277275 212.626706,34.0775896 213.774158,34.0775896 C214.870319,34.0775896 215.57048,33.4832611 216.290917,32.5084679 C219.121376,28.5100433 222.122403,23.7672312 223.313987,21.7018511 C223.531073,21.3379283 223.813761,21.0567152 224.020111,21.0567152 C224.232425,21.0567152 224.354089,21.1725089 224.354089,21.8649074 L224.354089,31.5395825 C224.354089,33.2658527 224.894417,34.0775896 226.251797,34.0775896 C227.510176,34.0775896 228.32365,33.210319 228.81746,32.1859 C230.619746,28.4604175 233.287988,23.5415518 234.431861,21.603781 C234.706199,21.1725089 234.981731,20.7932257 235.147527,20.7932257 C235.362227,20.7932257 235.421866,21.0567152 235.421866,21.7632926 L235.421866,30.9405278 C235.421866,33.4277275 236.714836,34.0775896 237.862287,34.0775896 C239.398584,34.0775896 240.381432,32.9940922 241.352352,31.7569909 C243.153445,29.4245766 245.775169,25.2831824 247.353213,22.6270185 C247.894734,23.491926 248.500664,24.5198897 248.992088,25.6494683 C247.671684,27.21859 246.376329,28.994486 246.376329,30.8849941 C246.376329,32.8853879 247.776649,34.0775896 249.261656,34.0775896 C251.764102,34.0775896 254.053041,31.6943679 254.053041,28.4048838 C254.053041,27.1146121 253.667774,25.7593541 253.183506,24.4690823 C255.412806,22.303269 258.084627,20.1977156 260.047938,19.7109098 C259.118764,21.0070894 258.357773,22.8444269 258.357773,25.2134699 C258.357773,29.7495077 260.978304,34.0775896 266.04522,34.0775896 C270.952304,34.0775896 274.375574,30.2363135 274.375574,24.8873572 C274.375574,23.3312328 274.32667,23.1150059 274.222898,22.4734147 C275.354844,21.9807011 276.346041,21.2256794 277.116575,20.6242615 C277.753518,20.1386373 278.253291,19.8656952 278.631402,19.8656952 C279.121633,19.8656952 279.35661,20.2461599 279.35661,20.948011 L279.35661,31.5395825 C279.35661,33.2658527 279.894552,34.0775896 281.25074,34.0775896 C282.504348,34.0775896 283.379847,33.210319 283.871271,32.1859 C285.661629,28.4604175 288.279774,23.491926 289.421262,21.603781 C289.693215,21.1725089 289.917457,20.8416699 290.079674,20.8416699 C290.300338,20.8416699 290.411266,21.0070894 290.411266,21.7018511 L290.411266,30.139425 C290.411266,32.5084679 291.491922,34.0775896 293.890597,34.0775896 C296.409742,34.0775896 297.657386,31.6943679 299.841361,28.0267822 C299.946325,27.8046475 300,27.6486806 300,27.4903505 C300,27.0035447 299.561058,26.729421 299.126887,26.729421 C298.637849,26.729421 298.361125,27.21859 296.729406,28.994486 C296.409742,29.3324143 296.07815,29.8003151 295.479376,29.8003151 C295.253941,29.8003151 295.09888,29.5415518 295.09888,29.2154391 L295.09888,19.7569909 C295.09888,17.2178023 293.943079,16.1945648 292.469999,16.1945648 C291.283186,16.1945648 290.300338,16.6790075 289.26143,18.1949586 C287.405469,20.8995668 285.506568,24.7361166 284.471237,26.6691611 C284.357924,26.8972036 284.198092,27.21859 284.081199,27.21859 C283.963115,27.21859 283.924946,27.0543521 283.924946,26.6691611 L283.924946,19.7569909 C283.924946,17.7648681 283.379847,16.1945648 281.25074,16.1945648 C279.014283,16.1945648 277.873988,17.7069712 276.24227,18.8400945 C275.192626,19.6033872 274.274188,20.1386373 273.5621,20.4612052 C272.480251,17.7069712 270.456109,16.3150847 268.774293,16.3576211 C267.074586,16.4155179 265.888966,17.4446633 265.888966,19.1732966 C265.888966,20.948011 266.974393,22.1839307 268.439123,22.7333596 C269.254982,23.0559275 270.021938,23.1150059 271.122871,23.1150059 C271.441343,23.1150059 271.758621,23.1150059 271.988827,23.0559275 C272.099755,23.5911776 272.043695,24.3591965 272.043695,24.9511619 C272.043695,27.6002363 270.456109,30.2363135 267.50995,30.2363135 C264.460019,30.2363135 262.669661,27.3237495 262.669661,23.9775502 C262.669661,21.4348169 263.427075,19.3316266 264.674719,17.8806617 C265.170914,17.335959 265.556181,17.0086648 265.556181,16.513588 C265.556181,16.259551 265.170914,16.1945648 264.845286,16.1945648 C262.782975,16.1945648 260.489265,17.117369 258.90645,17.920835 C256.833404,19.0019693 254.382247,20.7932257 252.367647,22.5726664 C251.38957,20.4080347 250.194408,18.5175266 249.582513,17.0582907 C249.361849,16.4615991 249.215138,15.7692005 248.761882,15.7692005 C248.383772,15.7692005 248.217976,16.1496652 247.948409,16.8928712 C246.96556,19.7569909 241.738812,28.1343048 240.593746,29.2686097 C240.485204,29.4245766 240.318215,29.5935408 240.263347,29.5935408 C240.161961,29.5935408 240.099937,29.5415518 240.099937,29.2154391 L240.099937,19.7569909 C240.099937,17.2178023 239.072956,16.1945648 237.641623,16.1945648 C236.442883,16.1945648 235.421866,16.6790075 234.431861,18.1949586 C232.630768,20.8995668 230.450371,24.8400945 229.413848,26.7802284 C229.255209,27.1146121 229.098955,27.21859 229.04528,27.21859 C228.983256,27.21859 228.929581,27.0035447 228.929581,26.6691611 L228.929581,19.7569909 C228.929581,17.2178023 227.899022,16.1945648 226.48081,16.1945648 C225.276105,16.1945648 224.125075,16.6364711 223.210216,18.1949586 C220.912927,22.0315085 217.104391,27.918078 216.388724,28.8857818 C216.290917,29.0523828 216.174025,29.1622686 216.058325,29.2154391 C215.964096,29.2154391 215.899686,29.1043718 215.899686,28.8337928 L215.899686,19.7569909 C215.899686,17.2178023 214.870319,16.1945648 213.446144,16.1945648 C211.478062,16.1945648 210.395021,17.9858212 209.680547,19.1153998 C208.70247,20.6809768 207.403536,22.7900748 206.359856,24.7361166 C205.656118,26.0358409 205.057344,27.21859 204.837873,27.21859 C204.72933,27.21859 204.72933,26.729421 204.72933,25.8101615 L204.72933,18.5777865 C208.166913,14.7908625 210.284092,10.1555731 210.284092,5.07719575 C210.284092,2.15636077 208.979194,0.543521071 206.95863,0.543521071 C203.197805,0.543521071 200.31367,6.37455691 200.31367,13.2808192 L200.31367,18.8979913 C198.565059,19.9791256 196.928569,20.5072863 194.913969,20.8995668 C193.884603,17.8806617 191.699435,16.3150847 189.96633,16.3576211 C188.267816,16.4155179 187.067883,17.4446633 187.067883,19.1732966 C187.067883,22.0315085 189.898342,23.2201654 192.409138,23.2201654 L193.122418,23.2201654 C193.222611,23.7672312 193.222611,24.3591965 193.222611,24.9511619 C193.222611,27.6002363 191.650531,30.2363135 188.70318,30.2363135 C185.648478,30.2363135 183.859313,27.3237495 183.859313,23.9775502 C183.859313,21.4348169 184.621497,19.3316266 185.865563,17.8806617 C186.354602,17.335959 186.739869,16.8515163 186.739869,16.513588 C186.739869,16.259551 186.354602,16.1945648 186.033745,16.1945648 C183.958313,16.1945648 179.382821,18.9606144 173.928252,24.3591965 C173.448756,20.0393856 172.892922,15.8200079 172.892922,11.7164238 C172.892922,7.12839701 173.822095,3.23158724 174.042759,2.11027964 C174.148916,1.41197322 174.208555,0.974793226 174.208555,0.656951556 C174.208555,0.220953131 173.984313,0 173.399852,0 C168.984192,0 159.274988,6.97361166 159.274988,17.3926743 C159.274988,21.6486806 160.205354,24.6841276 161.840651,27.3237495 C161.228756,27.21859 160.751646,27.21859 160.303162,27.21859 C158.564093,27.21859 156.92641,27.6486806 155.906586,27.866089 L155.906586,26.7802284 C155.906586,24.4690823 155.35433,21.2800315 154.371482,20.1977156 C154.25459,20.0866483 154.092372,20.0393856 153.937311,20.0393856 C153.492405,20.0393856 152.95327,20.2461599 152.354496,20.5746357 C151.698469,20.8995668 151.042442,21.2256794 151.042442,21.4348169 C151.042442,21.5423395 151.042442,21.6486806 151.205852,21.9204411 C151.592312,22.4734147 152.627642,23.5415518 153.002174,26.0842852 C151.147406,24.2493108 149.032613,23.4340291 146.261792,23.4340291 C142.986427,23.4340291 142,24.8873572 142,26.3536826 C142,29.1622686 145.760826,30.5636077 150.50927,30.5636077 C151.376419,30.5636077 152.354496,30.401733 153.333766,30.1807798 C153.333766,31.0445057 153.445887,31.8125246 153.445887,32.4564789 C153.445887,33.3745569 153.602141,34.0775896 154.209264,34.0775896 C155.131281,34.0775896 155.679958,32.2378889 155.786115,29.5935408 C157.475088,29.1622686 159.221313,28.7877117 160.699164,28.7877117 C161.401709,28.7877117 162.283171,28.8857818 163.15032,29.0523828 Z M152.41175,28.5100433 C151.49689,28.6163844 150.935092,28.6163844 149.964171,28.6163844 C147.833872,28.6163844 146.261792,27.8046475 146.261792,26.6266247 C146.261792,25.871603 146.638709,25.4320599 147.727715,25.4320599 C149.475133,25.4320599 150.886188,26.6266247 152.41175,28.5100433 Z" id="Fill-2"></path>
            </g>
            <path d="M31.4575,72 L29.1325,72 L29.1325,64.95 L26.3575,72 L24.4375,72 L21.6625,65.04 L21.6625,72 L19.4125,72 L19.4125,61.365 L22.5025,61.365 L25.4275,68.55 L28.2025,61.365 L31.4575,61.365 L31.4575,72 Z M41.5175,72 L34.7675,72 L34.7675,61.365 L41.5025,61.365 L41.5025,63.6 L37.1375,63.6 L37.1375,65.625 L41.0975,65.625 L41.0975,67.71 L37.1375,67.71 L37.1375,69.75 L41.5175,69.75 L41.5175,72 Z M46.8825,69.765 L48.2625,69.765 C49.1325043,69.765 49.8449972,69.5050026 50.4,68.985 C50.9550028,68.4649974 51.2325,67.700005 51.2325,66.69 C51.2325,65.6699949 50.9550028,64.9000026 50.4,64.38 C49.8449972,63.8599974 49.1325043,63.6 48.2625,63.6 L46.8825,63.6 L46.8825,69.765 Z M48.3525,72 L44.5125,72 L44.5125,61.365 L48.3675,61.365 C49.977508,61.365 51.2699951,61.8449952 52.245,62.805 C53.2200049,63.7650048 53.7075,65.0599919 53.7075,66.69 C53.7075,68.3200081 53.2200049,69.6124952 52.245,70.5675 C51.2699951,71.5225048 49.9725081,72 48.3525,72 Z M58.8025,72 L56.4025,72 L56.4025,61.365 L58.8025,61.365 L58.8025,72 Z M67.0025,72.225 C65.4424922,72.225 64.1325053,71.7125051 63.0725,70.6875 C62.0124947,69.6624949 61.4825,68.3350081 61.4825,66.705 C61.4825,65.0849919 62.0174946,63.7525052 63.0875,62.7075 C64.1575053,61.6624948 65.4524924,61.14 66.9725,61.14 C67.7325038,61.14 68.4199969,61.2524989 69.035,61.4775 C69.6500031,61.7025011 70.1474981,61.9999982 70.5275,62.37 C70.9075019,62.7400019 71.2124988,63.119998 71.4425,63.51 C71.6725012,63.900002 71.8324996,64.3049979 71.9225,64.725 L69.6875,65.43 C69.6374998,65.219999 69.5575005,65.012501 69.4475,64.8075 C69.3374994,64.602499 69.182501,64.3925011 68.9825,64.1775 C68.782499,63.9624989 68.5075017,63.7875007 68.1575,63.6525 C67.8074982,63.5174993 67.4125022,63.45 66.9725,63.45 C66.172496,63.45 65.4675031,63.7324972 64.8575,64.2975 C64.247497,64.8625028 63.9425,65.6649948 63.9425,66.705 C63.9425,67.6650048 64.242497,68.4299972 64.8425,69 C65.442503,69.5700028 66.1624958,69.855 67.0025,69.855 C67.8225041,69.855 68.4574978,69.650002 68.9075,69.24 C69.3575023,68.829998 69.6524993,68.3700026 69.7925,67.86 L72.0575,68.505 C71.9574995,68.915002 71.7950011,69.319998 71.57,69.72 C71.3449989,70.120002 71.0400019,70.514998 70.655,70.905 C70.2699981,71.2950019 69.7600032,71.6124988 69.125,71.8575 C68.4899968,72.1025012 67.7825039,72.225 67.0025,72.225 Z M81.2925,72 L80.5275,69.84 L76.4175,69.84 L75.6525,72 L73.1625,72 L77.1675,61.365 L79.9125,61.365 L83.8725,72 L81.2925,72 Z M78.5025,64.005 L77.1975,67.68 L79.7775,67.68 L78.5025,64.005 Z M93.1375,72 L86.1775,72 L86.1775,61.365 L88.5475,61.365 L88.5475,69.735 L93.1375,69.735 L93.1375,72 Z M102.7275,69.765 L104.1075,69.765 C104.977504,69.765 105.689997,69.5050026 106.245,68.985 C106.800003,68.4649974 107.0775,67.700005 107.0775,66.69 C107.0775,65.6699949 106.800003,64.9000026 106.245,64.38 C105.689997,63.8599974 104.977504,63.6 104.1075,63.6 L102.7275,63.6 L102.7275,69.765 Z M104.1975,72 L100.3575,72 L100.3575,61.365 L104.2125,61.365 C105.822508,61.365 107.114995,61.8449952 108.09,62.805 C109.065005,63.7650048 109.5525,65.0599919 109.5525,66.69 C109.5525,68.3200081 109.065005,69.6124952 108.09,70.5675 C107.114995,71.5225048 105.817508,72 104.1975,72 Z M118.9975,72 L112.2475,72 L112.2475,61.365 L118.9825,61.365 L118.9825,63.6 L114.6175,63.6 L114.6175,65.625 L118.5775,65.625 L118.5775,67.71 L114.6175,67.71 L114.6175,69.75 L118.9975,69.75 L118.9975,72 Z M126.2375,68.85 L128.7725,61.365 L131.2925,61.365 L127.4075,72 L124.9625,72 L121.0625,61.365 L123.6725,61.365 L126.2375,68.85 Z M135.9975,72 L133.5975,72 L133.5975,61.365 L135.9975,61.365 L135.9975,72 Z M144.1975,72.225 C142.637492,72.225 141.327505,71.7125051 140.2675,70.6875 C139.207495,69.6624949 138.6775,68.3350081 138.6775,66.705 C138.6775,65.0849919 139.212495,63.7525052 140.2825,62.7075 C141.352505,61.6624948 142.647492,61.14 144.1675,61.14 C144.927504,61.14 145.614997,61.2524989 146.23,61.4775 C146.845003,61.7025011 147.342498,61.9999982 147.7225,62.37 C148.102502,62.7400019 148.407499,63.119998 148.6375,63.51 C148.867501,63.900002 149.0275,64.3049979 149.1175,64.725 L146.8825,65.43 C146.8325,65.219999 146.752501,65.012501 146.6425,64.8075 C146.532499,64.602499 146.377501,64.3925011 146.1775,64.1775 C145.977499,63.9624989 145.702502,63.7875007 145.3525,63.6525 C145.002498,63.5174993 144.607502,63.45 144.1675,63.45 C143.367496,63.45 142.662503,63.7324972 142.0525,64.2975 C141.442497,64.8625028 141.1375,65.6649948 141.1375,66.705 C141.1375,67.6650048 141.437497,68.4299972 142.0375,69 C142.637503,69.5700028 143.357496,69.855 144.1975,69.855 C145.017504,69.855 145.652498,69.650002 146.1025,69.24 C146.552502,68.829998 146.847499,68.3700026 146.9875,67.86 L149.2525,68.505 C149.152499,68.915002 148.990001,69.319998 148.765,69.72 C148.539999,70.120002 148.235002,70.514998 147.85,70.905 C147.464998,71.2950019 146.955003,71.6124988 146.32,71.8575 C145.684997,72.1025012 144.977504,72.225 144.1975,72.225 Z M158.6225,72 L151.8725,72 L151.8725,61.365 L158.6075,61.365 L158.6075,63.6 L154.2425,63.6 L154.2425,65.625 L158.2025,65.625 L158.2025,67.71 L154.2425,67.71 L154.2425,69.75 L158.6225,69.75 L158.6225,72 Z M168.9375,63.975 L166.8075,64.575 C166.7575,64.2449984 166.592501,63.9400014 166.3125,63.66 C166.032499,63.3799986 165.607503,63.24 165.0375,63.24 C164.607498,63.24 164.257501,63.3524989 163.9875,63.5775 C163.717499,63.8025011 163.5825,64.0699984 163.5825,64.38 C163.5825,64.9300027 163.932496,65.2699993 164.6325,65.4 L166.0575,65.67 C167.037505,65.8500009 167.794997,66.2324971 168.33,66.8175 C168.865003,67.4025029 169.1325,68.0849961 169.1325,68.865 C169.1325,69.7550044 168.777504,70.5374966 168.0675,71.2125 C167.357496,71.8875034 166.402506,72.225 165.2025,72.225 C163.862493,72.225 162.825004,71.8775035 162.09,71.1825 C161.354996,70.4874965 160.9425,69.7000044 160.8525,68.82 L163.0275,68.295 C163.0775,68.8250026 163.284998,69.2624983 163.65,69.6075 C164.015002,69.9525017 164.542497,70.125 165.2325,70.125 C165.692502,70.125 166.057499,70.022501 166.3275,69.8175 C166.597501,69.612499 166.7325,69.3450016 166.7325,69.015 C166.7325,68.7449986 166.632501,68.5175009 166.4325,68.3325 C166.232499,68.1474991 165.952502,68.0200003 165.5925,67.95 L164.1375,67.68 C163.237495,67.5099991 162.530003,67.1450028 162.015,66.585 C161.499997,66.0249972 161.2425,65.3500039 161.2425,64.56 C161.2425,63.5799951 161.617496,62.7650032 162.3675,62.115 C163.117504,61.4649968 164.012495,61.14 165.0525,61.14 C165.682503,61.14 166.244998,61.2274991 166.74,61.4025 C167.235002,61.5775009 167.627499,61.8099986 167.9175,62.1 C168.207501,62.3900014 168.434999,62.6899985 168.6,63 C168.765001,63.3100015 168.8775,63.6349983 168.9375,63.975 Z M181.3475,72.225 C179.787492,72.225 178.477505,71.7125051 177.4175,70.6875 C176.357495,69.6624949 175.8275,68.3350081 175.8275,66.705 C175.8275,65.0849919 176.362495,63.7525052 177.4325,62.7075 C178.502505,61.6624948 179.797492,61.14 181.3175,61.14 C182.077504,61.14 182.764997,61.2524989 183.38,61.4775 C183.995003,61.7025011 184.492498,61.9999982 184.8725,62.37 C185.252502,62.7400019 185.557499,63.119998 185.7875,63.51 C186.017501,63.900002 186.1775,64.3049979 186.2675,64.725 L184.0325,65.43 C183.9825,65.219999 183.902501,65.012501 183.7925,64.8075 C183.682499,64.602499 183.527501,64.3925011 183.3275,64.1775 C183.127499,63.9624989 182.852502,63.7875007 182.5025,63.6525 C182.152498,63.5174993 181.757502,63.45 181.3175,63.45 C180.517496,63.45 179.812503,63.7324972 179.2025,64.2975 C178.592497,64.8625028 178.2875,65.6649948 178.2875,66.705 C178.2875,67.6650048 178.587497,68.4299972 179.1875,69 C179.787503,69.5700028 180.507496,69.855 181.3475,69.855 C182.167504,69.855 182.802498,69.650002 183.2525,69.24 C183.702502,68.829998 183.997499,68.3700026 184.1375,67.86 L186.4025,68.505 C186.3025,68.915002 186.140001,69.319998 185.915,69.72 C185.689999,70.120002 185.385002,70.514998 185,70.905 C184.614998,71.2950019 184.105003,71.6124988 183.47,71.8575 C182.834997,72.1025012 182.127504,72.225 181.3475,72.225 Z M190.7775,66.675 C190.7775,67.7150052 191.084997,68.5099972 191.7,69.06 C192.315003,69.6100027 193.032496,69.885 193.8525,69.885 C194.672504,69.885 195.387497,69.6100027 195.9975,69.06 C196.607503,68.5099972 196.9125,67.7150052 196.9125,66.675 C196.9125,65.6349948 196.607503,64.8375028 195.9975,64.2825 C195.387497,63.7274972 194.672504,63.45 193.8525,63.45 C193.032496,63.45 192.315003,63.7274972 191.7,64.2825 C191.084997,64.8375028 190.7775,65.6349948 190.7775,66.675 Z M188.3175,66.69 C188.3175,65.0399917 188.854995,63.7025051 189.93,62.6775 C191.005005,61.6524949 192.312492,61.14 193.8525,61.14 C195.392508,61.14 196.697495,61.6549948 197.7675,62.685 C198.837505,63.7150051 199.3725,65.0499918 199.3725,66.69 C199.3725,68.3300082 198.837505,69.6624949 197.7675,70.6875 C196.697495,71.7125051 195.392508,72.225 193.8525,72.225 C192.312492,72.225 191.005005,71.7125051 189.93,70.6875 C188.854995,69.6624949 188.3175,68.3300082 188.3175,66.69 Z M214.1125,72 L211.7875,72 L211.7875,64.95 L209.0125,72 L207.0925,72 L204.3175,65.04 L204.3175,72 L202.0675,72 L202.0675,61.365 L205.1575,61.365 L208.0825,68.55 L210.8575,61.365 L214.1125,61.365 L214.1125,72 Z M219.8075,66.135 L221.1875,66.135 C221.637502,66.135 222.002499,66.0125012 222.2825,65.7675 C222.562501,65.5224988 222.7025,65.1950021 222.7025,64.785 C222.7025,64.3649979 222.565001,64.0325012 222.29,63.7875 C222.014999,63.5424988 221.647502,63.42 221.1875,63.42 L219.8075,63.42 L219.8075,66.135 Z M221.4275,68.175 L219.7925,68.175 L219.7925,72 L217.4225,72 L217.4225,61.365 L221.4275,61.365 C222.507505,61.365 223.384997,61.6849968 224.06,62.325 C224.735003,62.9650032 225.0725,63.7799951 225.0725,64.77 C225.0725,65.7800051 224.735003,66.5999969 224.06,67.23 C223.384997,67.8600031 222.507505,68.175 221.4275,68.175 Z M233.9025,72 L233.1375,69.84 L229.0275,69.84 L228.2625,72 L225.7725,72 L229.7775,61.365 L232.5225,61.365 L236.4825,72 L233.9025,72 Z M231.1125,64.005 L229.8075,67.68 L232.3875,67.68 L231.1125,64.005 Z M248.0275,72 L245.5225,72 L241.1425,65.01 L241.1425,72 L238.7875,72 L238.7875,61.365 L241.6675,61.365 L245.6575,67.83 L245.6575,61.365 L248.0275,61.365 L248.0275,72 Z M253.7225,72 L251.3225,72 L251.3225,61.365 L253.7225,61.365 L253.7225,72 Z M263.7675,72 L257.0175,72 L257.0175,61.365 L263.7525,61.365 L263.7525,63.6 L259.3875,63.6 L259.3875,65.625 L263.3475,65.625 L263.3475,67.71 L259.3875,67.71 L259.3875,69.75 L263.7675,69.75 L263.7675,72 Z M274.0825,63.975 L271.9525,64.575 C271.9025,64.2449984 271.737501,63.9400014 271.4575,63.66 C271.177499,63.3799986 270.752503,63.24 270.1825,63.24 C269.752498,63.24 269.402501,63.3524989 269.1325,63.5775 C268.862499,63.8025011 268.7275,64.0699984 268.7275,64.38 C268.7275,64.9300027 269.077497,65.2699993 269.7775,65.4 L271.2025,65.67 C272.182505,65.8500009 272.939997,66.2324971 273.475,66.8175 C274.010003,67.4025029 274.2775,68.0849961 274.2775,68.865 C274.2775,69.7550044 273.922504,70.5374966 273.2125,71.2125 C272.502496,71.8875034 271.547506,72.225 270.3475,72.225 C269.007493,72.225 267.970004,71.8775035 267.235,71.1825 C266.499996,70.4874965 266.0875,69.7000044 265.9975,68.82 L268.1725,68.295 C268.2225,68.8250026 268.429998,69.2624983 268.795,69.6075 C269.160002,69.9525017 269.687497,70.125 270.3775,70.125 C270.837502,70.125 271.202499,70.022501 271.4725,69.8175 C271.742501,69.612499 271.8775,69.3450016 271.8775,69.015 C271.8775,68.7449986 271.777501,68.5175009 271.5775,68.3325 C271.377499,68.1474991 271.097502,68.0200003 270.7375,67.95 L269.2825,67.68 C268.382496,67.5099991 267.675003,67.1450028 267.16,66.585 C266.644997,66.0249972 266.3875,65.3500039 266.3875,64.56 C266.3875,63.5799951 266.762496,62.7650032 267.5125,62.115 C268.262504,61.4649968 269.157495,61.14 270.1975,61.14 C270.827503,61.14 271.389998,61.2274991 271.885,61.4025 C272.380002,61.5775009 272.772499,61.8099986 273.0625,62.1 C273.352501,62.3900014 273.579999,62.6899985 273.745,63 C273.910001,63.3100015 274.0225,63.6349983 274.0825,63.975 Z" id="MEDICAL-DEVICES-COMP-Copy" fill="#888B8D"></path>
        </g>
    </g>
</svg>