<?xml version="1.0" encoding="UTF-8"?>
<svg width="720px" height="720px" viewBox="0 0 720 720" version="1.1" xmlns="http://www.w3.org/2000/svg" xmlns:xlink="http://www.w3.org/1999/xlink">
    <!-- Generator: Sketch 55.2 (78181) - https://sketchapp.com -->
    <title>JJMDC-Company-BWI-Icon5</title>
    <desc>Created with Sketch.</desc>
    <defs>
        <rect id="path-1" x="200" y="201" width="321" height="321"></rect>
        <filter x="-5.3%" y="-5.3%" width="111.8%" height="111.8%" filterUnits="objectBoundingBox" id="filter-2">
            <feOffset dx="2" dy="2" in="SourceAlpha" result="shadowOffsetOuter1"></feOffset>
            <feGaussianBlur stdDeviation="6" in="shadowOffsetOuter1" result="shadowBlurOuter1"></feGaussianBlur>
            <feColorMatrix values="0 0 0 0 0   0 0 0 0 0   0 0 0 0 0  0 0 0 0.12 0" type="matrix" in="shadowBlurOuter1"></feColorMatrix>
        </filter>
    </defs>
    <g id="JJMDC-Company-BWI-Icon5" stroke="none" stroke-width="1" fill="none" fill-rule="evenodd">
        <rect id="bg" fill="#F4F4F4" fill-rule="nonzero" x="0" y="0" width="720" height="720"></rect>
        <g id="card">
            <use fill="black" fill-opacity="1" filter="url(#filter-2)" xlink:href="#path-1"></use>
            <use fill="#FFFFFF" fill-rule="evenodd" xlink:href="#path-1"></use>
        </g>
        <g id="brain" transform="translate(265.000000, 252.000000)" fill-rule="nonzero">
            <path d="M48.3420765,11.2277622 C51.1097776,8.36174825 54.3883217,6.35706294 58.3683217,5.8920979 C60.1619713,5.72146683 61.8446573,4.94754135 63.1412719,3.69685315 C64.6280535,2.28671329 66.5723064,1.57020979 68.4784366,0.792727273 C70.8776193,0.264242424 72.6770062,-7.81597009e-14 73.8765975,-7.81597009e-14 C75.0761889,-7.81597009e-14 76.8755758,0.264242424 79.2747585,0.792727273 C81.4696489,1.60528354 83.5113019,2.78302742 85.3133792,4.27615385 C89.3847894,7.71717568 91.6363785,12.8465419 91.412996,18.1717483 C91.412996,19.2083916 91.4892412,20.2374126 91.4892412,21.2740559 C91.4892412,36.6356876 91.4892412,51.9922378 91.4892412,67.3437063 C90.9985849,67.7810848 90.251224,67.7576316 89.788973,67.2903497 C89.6167312,66.7701252 89.5645967,66.2176545 89.6364826,65.6744056 C89.6364826,49.6979021 89.6364826,33.7213986 89.6364826,17.7448951 C89.7485812,9.62776983 83.6332702,2.77273527 75.5539922,1.95895105 C70.8742883,1.34764271 66.1797272,2.97418123 62.8820382,6.34944056 C62.1903163,7.07598936 61.2320165,7.48893349 60.2287048,7.4927972 C56.6897378,7.6447074 53.324497,9.06837519 50.7514251,11.5021678 C50.4460466,11.8448303 50.0914493,12.140245 49.6992412,12.3787413 C49.3615291,12.432017 49.0173617,12.3354938 48.7566449,12.114386 C48.495928,11.8932783 48.3445579,11.5695481 48.3420765,11.2277622 Z" id="Path" fill="#767884"></path>
            <path d="M107.386368,67.3132168 C107.386368,51.6263636 107.386368,35.9395105 107.386368,20.2526573 C107.386368,17.7982517 107.233877,15.3286014 107.958207,12.9123077 C109.456468,7.43696399 113.513796,3.0257185 118.846023,1.07475524 C119.067134,0.983286713 119.341617,1.00615385 119.486483,0.762237762 C121.885665,0.254079254 123.685052,1.0658141e-13 124.884644,1.0658141e-13 C126.084235,1.0658141e-13 127.883622,0.254079254 130.282804,0.762237762 C132.310927,1.58545455 134.369548,2.41629371 135.963073,3.95601399 C137.091086,5.03014426 138.557134,5.67944225 140.110812,5.79300699 C144.071674,6.33977526 147.713282,8.26396827 150.396291,11.2277622 C150.383489,11.5535297 150.235744,11.8593006 149.988449,12.0718277 C149.741154,12.2843548 149.416587,12.3844921 149.092498,12.3482517 C147.810046,11.183384 146.41852,10.1445004 144.937134,9.24594406 C142.966396,8.1282964 140.751652,7.51064553 138.486789,7.44706294 C137.538249,7.48531268 136.621825,7.0998524 135.985946,6.39517483 C133.21513,3.48101448 129.371491,1.82830143 125.349739,1.82174825 C117.431747,1.56104029 110.562541,7.24452756 109.338245,15.0694406 C109.185437,16.0632089 109.108968,17.0672159 109.109509,18.0726573 C109.109509,33.9424476 109.109509,49.8147786 109.109509,65.6896503 C109.183886,66.2364686 109.126374,66.7931402 108.94177,67.3132168 C108.506103,67.7274874 107.822035,67.7274874 107.386368,67.3132168 Z" id="Path" fill="#767884"></path>
            <path d="M89.8728428,125.182308 C89.8728428,125.182308 90.3811442,124.99683 91.397747,124.625874 C91.397747,148.890443 91.397747,173.14993 91.397747,197.404336 C91.5129107,199.624699 91.3438017,201.850675 90.8945286,204.028182 C89.247632,210.385245 85.2828811,214.623287 79.09177,216.78042 C78.0928275,217.128475 75.3431292,217.502622 74.1474069,217.395258 C70.7163724,217.662042 65.6802374,215.85049 63.0650267,213.906783 C61.1765318,212.493751 59.6159732,210.689212 58.490314,208.616853 C58.4242218,208.403377 58.2677537,208.229648 58.0622966,208.14162 C57.8568395,208.053592 57.6230917,208.060132 57.4228811,208.15951 C49.6493404,209.979755 41.623368,206.34484 37.8659845,199.302308 L39.2460228,198.631538 C39.7034941,198.768741 39.8864826,199.18035 40.1228428,199.530979 C43.0932829,204.302848 48.4143626,207.093879 54.0299692,206.825594 C55.3206833,206.77132 56.6003901,206.564066 57.8422297,206.208182 C59.0392795,205.910909 59.1536474,205.956643 59.7178619,207.023776 C62.3330726,211.985944 66.3969424,214.966294 71.9857163,215.629441 C77.5744903,216.292587 82.355065,214.295524 86.0072106,209.950769 C88.4175726,207.063282 89.6940993,203.397347 89.59836,199.637692 C89.59836,175.378205 89.59836,151.113636 89.59836,126.843986 C89.59836,126.287552 89.4382451,125.700629 89.8728428,125.182308 Z" id="Path" fill="#767884"></path>
            <path d="M107.409241,124.648741 L108.934145,125.182308 C109.201374,125.642714 109.29087,126.184957 109.185755,126.706783 L109.185755,199.957832 C109.144757,204.223737 110.841753,208.322694 113.886393,211.311842 C116.931032,214.30099 121.061204,215.922995 125.326866,215.804755 C131.373111,215.614196 135.917326,212.702448 138.87564,207.42014 C138.974758,207.237203 139.073877,207.046643 139.165371,206.848462 C139.264609,206.556364 139.483006,206.319984 139.766404,206.197939 C140.049801,206.075895 140.371656,206.079617 140.652153,206.208182 C142.198811,206.680552 143.807898,206.916965 145.425103,206.909441 C150.755006,206.895702 155.705569,204.150639 158.53928,199.637692 C158.790889,199.264196 158.958628,198.806853 159.446598,198.654406 L160.857134,199.325175 C158.385125,203.970441 153.962279,207.264968 148.802766,208.304336 C146.351163,208.83446 143.810594,208.795345 141.376483,208.19 C141.149956,208.088253 140.891258,208.085511 140.662625,208.182436 C140.433993,208.27936 140.256123,208.467177 140.171808,208.700699 C138.019422,212.554174 134.472553,215.437241 130.259931,216.757552 C129.741017,216.928688 127.047598,217.342627 124.872815,217.342627 C122.698033,217.342627 118.349444,216.591346 116.551042,215.484615 C110.664912,212.054545 107.401617,206.962797 107.401617,200.095035 C107.35587,175.322308 107.35587,150.54704 107.401617,125.769231 C107.401617,125.38049 107.401617,125.014615 107.409241,124.648741 Z" id="Path" fill="#767883"></path>
            <path d="M5.59138682,74.5011189 C5.03486151,74.3676353 4.50591425,74.1380593 4.02836,73.8227273 C4.11222973,66.8482517 7.11629103,61.5583217 13.1777853,58.0367832 C13.802996,57.6709091 13.6352566,57.3431469 13.4827661,56.8781818 C11.8852598,52.2029416 12.3351213,47.0708574 14.7216648,42.7446494 C17.1082082,38.4184414 21.2098769,35.2997365 26.0174788,34.1558741 C26.8135546,33.956529 27.6243611,33.8214326 28.4420765,33.7518881 C28.975793,33.7061538 29.1359079,33.5537063 29.2045286,32.9896503 C29.6471686,28.6118642 31.7244801,24.5618373 35.0220382,21.6475524 C36.0812967,20.7307334 37.2308604,19.9237112 38.4530726,19.2388811 C38.9216292,19.5384707 39.3112642,19.946296 39.5891263,20.427972 C39.3985133,20.9005594 38.925793,21.0301399 38.5521914,21.2664336 C34.2138389,24.040979 31.5910037,27.9055245 31.0115401,33.0658741 C30.7599309,35.2916084 30.7751799,35.3525874 28.5411952,35.5279021 C21.1659683,36.2527023 15.2934492,42.018847 14.4358313,49.3777622 C14.0861106,52.0821524 14.4706076,54.8307967 15.5490113,57.3355245 C16.0522297,58.4788811 15.96836,58.5474825 14.8399309,59.1344056 C9.91449027,61.6802797 6.8875554,65.6515385 6.02598452,71.1625175 C5.83634203,72.0872958 5.77985798,73.0344209 5.85824506,73.9751748 C5.85062054,74.180979 5.89636766,74.4325175 5.59138682,74.5011189 Z" id="Path" fill="#767884"></path>
            <path d="M194.725257,73.8227273 C194.24734,74.1424845 193.715073,74.3723799 193.154605,74.5011189 C192.907856,73.6841401 192.807194,72.8300517 192.857249,71.9781119 C192.567608,68.4818199 191.090586,65.1897124 188.671387,62.6483217 C187.271996,61.1576516 185.613436,59.9334516 183.776444,59.0353147 C182.80813,58.5551049 182.777632,58.4331469 183.21223,57.3888811 C184.604966,54.0708519 184.830753,50.3786624 183.85269,46.9157343 C182.097166,40.7277002 176.748952,36.2323577 170.349663,35.566014 C168.062306,35.3678322 168.062306,35.3678322 167.787824,33.1802098 C167.193111,27.8445455 164.471157,23.8656643 159.942191,21.0682517 C159.667709,20.8929371 159.301732,20.8167133 159.179739,20.4432168 C159.466868,19.9519253 159.870009,19.5384299 160.353916,19.2388811 C163.101697,20.7844039 165.420828,22.9902336 167.101617,25.6569231 C168.448207,27.8782462 169.28902,30.3687484 169.564337,32.9515385 C169.625333,33.507972 169.785448,33.6756643 170.326789,33.7518881 C178.294414,34.8037762 184.050927,39.9412587 185.789318,47.4721678 C186.498074,50.6092028 186.307808,53.8824478 185.240352,56.9162937 C185.080237,57.3736364 184.96587,57.6785315 185.545333,58.0062937 C191.622076,61.5430769 194.618513,66.8406294 194.725257,73.8227273 Z" id="Path" fill="#767884"></path>
            <path d="M2.00023739,133.406853 C2.51296084,133.339629 3.03425186,133.389138 3.52514161,133.551678 C3.7543172,133.916938 3.83608152,134.355617 3.75387724,134.778881 C3.75387724,140.701469 6.39958605,145.160559 11.271655,148.384825 C12.3924596,149.147063 12.4077087,149.147063 11.9273638,150.351399 C8.99901055,157.917375 12.2993107,166.469348 19.5518849,170.108601 C20.0093562,170.344895 20.474452,170.573566 20.9471723,170.786993 C21.8544903,171.183357 21.9917316,171.412028 21.8468657,172.410559 C21.5609377,174.152055 21.5609377,175.928505 21.8468657,177.67 C22.5745812,182.180928 25.2518982,186.142801 29.166406,188.501399 C29.5171339,188.722448 29.9746052,188.813916 30.1347202,189.263636 L28.8233025,190.368881 C24.1574596,187.792619 20.916927,183.23471 20.0169807,177.982517 C19.6932379,176.396716 19.646804,174.766826 19.8797393,173.165175 C19.9578849,172.925645 19.9354675,172.664668 19.8176171,172.441964 C19.6997667,172.219261 19.4965706,172.053894 19.2545286,171.983706 C12.6135707,168.667972 9.20540981,163.271329 9.03767035,155.87 C8.99467091,154.098388 9.28699148,152.334613 9.89924123,150.671538 C10.1356014,150.016014 9.96023739,149.718741 9.43414544,149.337622 C4.50799934,145.954662 1.65910548,140.284368 1.88586958,134.313916 C1.91636766,134.009021 1.96973931,133.711748 2.00023739,133.406853 Z" id="Path" fill="#767884"></path>
            <path d="M195.258973,133.551678 C195.750025,133.38991 196.27114,133.340418 196.783877,133.406853 C197.299899,138.737367 195.307858,144.00479 191.393341,147.660699 C190.728285,148.330903 189.991961,148.926442 189.197479,149.436713 C189.005122,149.516772 188.853919,149.672043 188.779026,149.866424 C188.704132,150.060804 188.712074,150.277358 188.801004,150.465734 C191.515333,159.475385 187.83269,167.905734 179.392345,172.044685 C179.005262,172.149259 178.76534,172.535692 178.843379,172.928881 C179.529586,180.368322 176.639893,186.054615 170.39541,190.094476 L169.945563,190.399371 L168.626521,189.271259 C168.740889,188.867273 169.137364,188.768182 169.43472,188.585245 C173.459325,186.254332 176.232891,182.248886 176.998245,177.662378 C177.304455,175.951825 177.317347,174.201659 177.036368,172.486783 C176.861004,171.320559 176.914375,171.198601 177.981808,170.748881 C182.134078,169.118602 185.389532,165.78915 186.925371,161.602028 C188.335569,158.010625 188.335569,154.019025 186.925371,150.427622 C186.414529,149.101329 186.422153,149.139441 187.642076,148.339091 C192.384529,145.183427 195.014988,140.838671 195.06836,135.053287 C195.030237,134.542587 194.885371,134.001399 195.258973,133.551678 Z" id="Path" fill="#767884"></path>
            <path d="M2.8694328,120.563147 L1.1691646,120.563147 C-0.354417097,116.575217 -0.386906002,112.171501 1.07767035,108.161538 C1.79106279,106.183896 2.86667199,104.356391 4.24947111,102.772517 C4.59635639,102.479675 4.64069562,101.961393 4.34858989,101.613916 C1.75566769,97.3051229 1.17631653,92.0785054 2.7626895,87.3067133 C3.26933384,87.4052282 3.75957578,87.5745835 4.21897303,87.8097902 C4.34488118,88.0910829 4.34488118,88.4126934 4.21897303,88.693986 C3.06318067,93.0618046 3.83483044,97.7153761 6.33858989,101.476713 C6.89517992,102.338042 6.8494328,102.62007 5.98023739,103.534755 C4.60990361,104.976755 3.54414945,106.679927 2.84655923,108.542657 C1.47575994,112.040915 1.42696958,115.918658 2.70931785,119.45028 C2.83893471,119.793287 3.09054391,120.151538 2.8694328,120.563147 Z" id="Path" fill="#767884"></path>
            <path d="M197.592076,120.547902 L195.922306,120.547902 C195.701195,120.128671 195.960429,119.785664 196.074797,119.412168 C197.904682,113.68014 196.959241,108.474056 193.07836,103.83965 C191.858437,102.383776 191.835563,102.391399 192.796253,100.790699 C194.964846,97.2086946 195.620386,92.911864 194.618513,88.8464336 C194.542268,88.5034266 194.328781,88.1604196 194.549893,87.7869231 L196.006176,87.2914685 C197.573106,92.01538 197.016948,97.1861958 194.481272,101.469091 C194.145639,101.895615 194.199027,102.509403 194.603264,102.871608 C198.603292,107.529528 199.830999,113.959398 197.828437,119.762797 C197.744567,120.02958 197.668322,120.288741 197.592076,120.547902 Z" id="Path" fill="#767884"></path>
            <path d="M89.8880918,81.2774126 L91.412996,81.2774126 L91.412996,107.30021 C90.9523845,107.700703 90.439371,108.036633 89.8880918,108.298741 C89.4992412,107.986224 89.5526129,107.536503 89.5526129,107.117273 C89.5526129,98.8901865 89.5526129,90.665641 89.5526129,82.4436364 C89.4981888,82.0252332 89.6196518,81.602992 89.8880918,81.2774126 Z" id="Path" fill="#787A85"></path>
            <path d="M107.393992,81.3155245 L108.918896,81.3155245 C109.177514,81.6599348 109.28486,82.094702 109.216253,82.5198601 C109.216253,90.7418648 109.216253,98.9613287 109.216253,107.178252 C109.216253,107.597483 109.269624,108.047203 108.903647,108.374965 C108.362039,108.136619 107.862541,107.812294 107.42449,107.414545 C107.399075,98.699627 107.388909,89.9999534 107.393992,81.3155245 Z" id="Path" fill="#767883"></path>
            <path d="M89.8880918,81.2774126 C89.8880918,90.2972261 89.8880918,99.3144988 89.8880918,108.329231 C85.8853676,111.012063 81.4964728,113.068377 76.8730343,114.427133 C75.7674788,114.73965 74.7915401,114.152727 73.8232259,113.718252 C72.7144496,113.187611 71.7456102,112.404404 70.9945286,111.431538 C70.1753267,110.368583 69.1545009,109.477554 67.9904673,108.809441 C66.5545043,107.949459 64.7922336,107.833142 63.2556397,108.496923 C61.6404093,109.165797 60.2399424,110.26529 59.207019,111.675455 C57.9844203,113.230964 57.80458,115.364469 58.7495477,117.102587 C59.7407355,119.183497 61.5019998,120.563147 63.202268,121.988531 C64.3466773,122.948569 65.5681824,123.812815 66.8544136,124.572517 C67.1288964,124.74021 67.4643753,124.824056 67.1975171,125.334755 C66.0004673,127.514755 65.6726129,129.908182 65.3295094,132.347343 C65.0779002,133.970909 64.9482834,135.602098 64.5670573,137.21042 C64.1248423,139.090775 64.703983,141.065089 66.0919615,142.408881 C67.2572322,143.671935 68.7731739,144.558418 70.4455631,144.954755 C72.6185516,145.457832 74.2578236,144.466923 75.5463677,142.866224 C76.9727393,140.994222 77.9013346,138.791395 78.2454481,136.463427 C78.8020382,133.627902 79.5034941,130.822867 80.3116933,128.078811 C80.3559169,127.613642 80.7689582,127.272381 81.2342604,127.316573 C83.8952182,127.156503 86.4036857,126.249441 88.9274021,125.456713 C89.2095094,125.365245 89.5068657,125.289021 89.7965975,125.205175 C89.7965975,139.047413 89.7965975,152.884569 89.7965975,166.716643 C89.7965975,178.089231 89.7965975,189.454196 89.7584749,200.819161 C89.7127278,208.197622 83.2852566,215.027273 75.9733408,215.964825 C69.0183502,216.851119 62.2765711,213.187939 59.2375171,206.871329 C59.0621531,206.474965 58.9630343,206.109091 58.3301991,206.345385 C50.9395262,208.767645 42.8766031,205.529878 39.2155248,198.66965 C44.6899309,194.858462 48.8224213,189.720979 53.1912719,184.804545 C54.304452,183.554476 55.4786282,182.334895 56.5308121,181.054336 C57.9642221,179.354545 59.8093562,179.224965 61.7841071,179.590839 C64.4679114,180.151603 67.0812836,181.007996 69.5763677,182.144336 C71.1698926,182.807483 72.7481684,183.531608 74.3493179,184.202378 C77.1246435,185.360979 79.3357546,184.408182 80.2811952,181.557413 C81.1189451,179.10425 80.943311,176.418354 79.7932259,174.095105 C79.6471528,173.800097 79.4390924,173.540095 79.1832642,173.332867 C75.1041454,169.918042 70.6209271,167.318811 65.2837623,166.472727 C61.8073288,165.948978 58.2585093,166.188274 54.8839156,167.173986 L54.1214634,167.37979 C52.7308713,162.12551 50.1626659,157.256415 46.6113102,153.141189 C46.1319352,152.621707 45.622776,152.130506 45.086406,151.67007 C42.6313102,149.429091 39.8254864,149.223287 36.8290497,150.320909 C35.159647,150.904787 34.0469743,152.485993 34.0613485,154.254056 C33.8707355,156.944755 34.2977087,159.368671 36.3029577,161.487692 C38.96368,164.315017 41.0139878,167.659452 42.3263293,171.312937 C43.2641454,173.896923 42.9591646,176.282727 40.9234175,178.211189 C39.3527661,179.697552 38.4301991,181.656503 36.9815401,183.219091 C34.8344392,185.385349 32.5417396,187.402358 30.1194711,189.256014 C25.6533351,187.090264 22.4832473,182.930693 21.5800075,178.051119 C21.1683497,176.111214 21.1683497,174.106549 21.5800075,172.166643 C21.6761229,171.93158 21.6604962,171.665634 21.5375128,171.443437 C21.4145294,171.22124 21.1974422,171.066738 20.9471723,171.023287 C16.8884555,169.495231 13.6234036,166.386534 11.8988646,162.408279 C10.1743257,158.430024 10.1378377,153.92256 11.797747,149.916923 C11.973111,149.482448 12.1408504,149.20042 11.5537623,148.834545 C5.85824506,145.335874 3.16678912,140.244126 3.49464353,133.536434 C10.412045,133.733837 17.3231164,132.96416 24.0274788,131.24972 C25.8726129,130.807622 27.7101225,130.525594 29.2274021,129.252657 C31.7053715,127.164126 32.2772106,122.392517 30.2948351,119.823776 C29.0901608,118.299301 27.382268,117.933427 25.552383,117.979161 C24.3995504,118.027423 23.2652236,118.285739 22.2052182,118.741399 C20.9546977,119.143739 19.6528716,119.3645 18.3395861,119.396923 C13.4675171,119.892378 8.59544812,120.433566 3.69288107,120.593636 C3.41839831,120.593636 3.14391556,120.593636 2.8694328,120.593636 C0.327925773,114.109534 1.3877342,108.280956 6.04885808,103.107902 C6.2805191,102.928935 6.42350487,102.658606 6.44103951,102.366445 C6.45857415,102.074283 6.34894635,101.788801 6.14035234,101.583427 C3.37681751,97.5495462 2.66554012,92.4534912 4.21897303,87.8174126 C8.27521824,88.9912587 12.2780918,90.47 16.4182067,91.1483916 C20.7108121,91.8496503 23.3641454,94.4946154 25.7582451,97.6883916 C25.9793562,97.9856643 26.1775937,98.2905594 26.3834558,98.5954545 C28.7089347,102.033147 30.8895477,102.90972 34.961042,102.116993 C36.5602615,101.854632 37.8913076,100.745739 38.4378236,99.2204895 C39.0757298,97.3457204 39.4228523,95.3843868 39.4671339,93.4046154 C39.4475385,92.8833916 39.2633745,92.3817525 38.941042,91.9716084 C37.7298348,89.9620996 36.3768649,88.0414734 34.8924213,86.2243357 C34.7183283,86.0667644 34.6140679,85.8464435 34.6026258,85.6119458 C34.5911837,85.3774481 34.6734993,85.1480285 34.8314251,84.9742657 C35.9369807,83.3659441 36.951042,81.7042657 38.0565975,80.0959441 C39.5815018,77.8625874 39.7797393,75.3624476 39.4061378,72.8241958 C39.0325362,70.2859441 37.4466359,69.013007 34.9839156,68.6395105 C33.6048253,68.3987126 32.2001012,68.3397718 30.805678,68.4641958 C29.5845054,68.5180276 28.50111,69.2637623 28.0151033,70.385035 C27.4966359,71.5817483 27.0391646,72.808951 26.5435707,74.0132867 C26.21265,74.8325419 25.8095039,75.6207517 25.3388964,76.3686014 C24.0274788,78.48 22.1747202,79.1279021 19.7196244,78.823007 C15.1899188,78.213529 10.7771483,76.9288668 6.62832169,75.0118182 C6.2699692,74.8517483 5.91924123,74.6611888 5.56851326,74.4934965 C5.40077379,67.2065035 8.57257456,61.9318182 15.1220382,58.738042 C15.792996,58.4102797 15.5566359,58.113007 15.3736474,57.6785315 C11.8278339,49.5972431 15.4717669,40.1699403 23.5318849,36.5721678 C25.4776942,35.6884552 27.5859704,35.2186391 29.722996,35.1925175 C30.439701,35.1925175 30.5540688,34.940979 30.5845669,34.3083217 C30.9352949,28.1570629 33.8326129,23.5988811 39.1926512,20.588042 C39.3009629,20.5320059 39.4130628,20.4836127 39.5281301,20.4432168 C41.7544003,22.8233643 43.8564738,25.3166487 45.8259845,27.9131469 C46.8552949,29.1937063 47.80836,30.5428671 48.875793,31.8005594 C49.3833304,32.3189503 49.4917079,33.1083362 49.1426512,33.7442657 C47.617747,37.3344056 45.8564826,40.8102098 44.7814251,44.568042 C43.7978619,48.0057343 43.111655,51.4815385 43.5538772,55.1021678 C43.7206094,57.2053437 44.8186943,59.1240103 46.547849,60.3334884 C48.2770038,61.5429664 50.4563108,61.9167109 52.4898159,61.3525175 C54.1134435,60.9359397 55.4330226,59.7560446 56.0275937,58.1892308 C56.845047,56.2645838 57.2152257,54.1796562 57.1102757,52.0913287 C56.9654098,47.7694406 58.6351799,44.0268531 60.7242987,40.4062238 C61.4942727,38.954852 62.0563614,37.4024865 62.3940688,35.7946853 C62.6151799,34.940979 62.9811569,34.7046853 63.8351033,34.8037762 C65.6497393,35.0172028 67.4796244,35.1467832 69.3018849,35.2687413 C70.6918365,35.3804904 72.0606991,34.8760209 73.0455248,33.8890909 C74.1654847,32.8011652 75.0074954,31.4600782 75.5006205,29.9788112 C76.3985384,27.7890788 75.5260204,25.2735359 73.4648734,24.1095804 C71.3467941,22.8839638 68.9699873,22.1737333 66.5265592,22.0362937 C64.0387117,21.7543571 61.5207856,21.906525 59.0850267,22.486014 C58.5055631,22.6232168 58.3225746,22.3106993 58.0633408,21.9829371 C56.1038389,19.5285315 54.1138389,17.1046154 51.963724,14.8331469 C51.1479002,13.9794406 50.2787048,13.1714685 49.4247585,12.3482517 C51.666579,9.91962923 54.5898921,8.22458429 57.8117316,7.48517483 C58.7874467,7.24876254 59.7890498,7.13608186 60.7929194,7.14979021 C61.339074,7.18080791 61.8677478,6.95187453 62.2187048,6.53237762 C65.3114613,3.24478635 69.6612169,1.43382213 74.1739539,1.55496503 C81.7527278,1.59307692 88.6605439,7.74433566 89.6746052,15.2752448 C89.8357212,16.9419138 89.886662,18.6173944 89.8270956,20.2907692 C89.8270956,35.9623776 89.8270956,51.6289044 89.8270956,67.2903497 C86.6351011,67.0783377 83.6342849,65.693735 81.4019998,63.4029371 C79.8075445,61.7372688 77.694561,60.6622614 75.4091263,60.353986 C74.8808059,60.2744568 74.3413057,60.3823265 73.8842221,60.6588811 C69.8203523,62.9913287 68.7224213,67.9611189 71.3833792,72.0543357 C73.010746,74.3516634 75.1859325,76.2066021 77.7117316,77.450979 C81.444345,79.5954558 85.5994832,80.9012122 89.8880918,81.2774126 Z M108.865525,108.336853 L108.865525,81.2774126 C114.606414,80.7715593 120.072726,78.5930702 124.587287,75.0118182 C126.833181,73.4239799 128.325279,70.9810456 128.712153,68.2583916 C129.101923,65.0144222 127.403079,61.8773322 124.472919,60.4302098 C123.892187,60.2315915 123.261889,60.2315915 122.681157,60.4302098 C120.629138,60.8061334 118.74808,61.8197518 117.30587,63.3267133 C115.085367,65.6330114 112.077207,67.0182809 108.880774,67.2065035 C108.880774,51.4891608 108.880774,35.7667366 108.880774,20.0392308 C108.880774,17.0817483 108.94177,14.1623776 110.123571,11.3497203 C112.202844,6.37667078 116.646029,2.78369242 121.945171,1.79019059 C127.244314,0.796688771 132.687792,2.53608081 136.428168,6.41804196 C136.82925,6.86643781 137.404798,7.1193853 138.006444,7.11167832 C142.327697,7.22015252 146.415121,9.09658793 149.313609,12.3025175 C147.097348,14.3882281 145.016696,16.6134165 143.084375,18.9644755 C142.276176,19.963007 141.445103,20.9386713 140.667402,21.9524476 C140.42204,22.3673861 139.918353,22.5522317 139.462728,22.3945455 C135.457737,21.4883464 131.278787,21.7233793 127.400735,23.0729371 C126.416735,23.3987565 125.499756,23.8997255 124.69403,24.5516783 C123.047211,25.8404084 122.453151,28.0636201 123.237747,30.0016783 C123.688603,31.3330399 124.416162,32.5539551 125.372613,33.5841958 C126.52315,34.892696 128.26449,35.5199778 129.985448,35.2458741 C131.739088,35.0476923 133.507977,34.9562238 135.269241,34.8113986 C135.486256,34.7493061 135.719637,34.7865379 135.906543,34.9130687 C136.093449,35.0395996 136.214667,35.2424219 136.237555,35.4669231 C136.821159,37.6693537 137.679286,39.7897403 138.79177,41.7782517 C140.266012,44.2097864 141.214047,46.9232611 141.57472,49.7436364 C141.734835,51.4662937 141.57472,53.2118182 141.826329,54.9344755 C141.996028,56.3899243 142.460391,57.7955879 143.191119,59.0658042 C144.433916,61.0628671 146.545908,61.8860839 149.161119,61.4287413 C153.217364,60.7198601 155.298858,58.0444056 155.336981,53.4557343 C155.318467,49.3051275 154.478907,45.1991738 152.866636,41.3742657 C151.783954,38.6988112 150.617402,36.0386014 149.481349,33.3936364 C149.328858,33.0277622 149.161119,32.7304895 149.481349,32.3112587 C152.56928,28.3476224 155.580965,24.3458741 158.981502,20.6032867 C159.045799,20.5391671 159.117459,20.4828784 159.194988,20.4355944 C164.048474,22.76239 167.37389,27.4097619 168.008935,32.7533566 C168.130927,33.5155944 167.93269,34.5522378 168.359663,35.0400699 C168.786636,35.5279021 169.785448,35.2611189 170.540276,35.3297203 C177.31085,35.9318881 183.463839,41.763007 184.4779,48.4935664 C185.015789,51.6347936 184.612576,54.8648915 183.318973,57.7776224 C183.067364,58.3264336 183.151234,58.5398601 183.692575,58.7837762 C188.618739,60.9557649 192.108771,65.4748891 192.963992,70.789021 C193.221878,72.013889 193.286196,73.2715893 193.154605,74.5163636 C189.464337,76.1704196 185.781693,77.8397203 181.717824,78.3275524 C180.787632,78.4418881 179.85744,78.6248252 178.934873,78.8001399 C176.784489,79.3303144 174.544587,78.3603791 173.460467,76.4295804 C172.441257,74.6298579 171.598633,72.7357638 170.944375,70.7737762 C170.617278,69.6418709 169.694717,68.7810566 168.542651,68.5327972 C166.384538,68.0908672 164.144679,68.2814398 162.092306,69.0816084 C160.401237,69.7721888 159.283208,71.402313 159.24836,73.2281818 C158.869159,75.788112 159.485836,78.3959783 160.971502,80.5151748 C162.016061,81.9329371 162.900506,83.465035 163.906942,84.9209091 C164.063928,85.0956512 164.144919,85.3256557 164.132045,85.5601761 C164.119172,85.7946966 164.013492,86.0144599 163.838322,86.170979 C162.577619,87.7391096 161.396859,89.3698305 160.300544,91.0569231 C159.521867,92.0753701 159.179111,93.3610315 159.347479,94.6318182 C159.488831,96.2986973 159.860899,97.9378999 160.453034,99.5025175 C160.994263,100.826484 162.183073,101.775534 163.594337,102.01028 C164.594848,102.237814 165.618084,102.350339 166.644145,102.345664 C169.152613,102.238951 170.78426,100.76021 172.103303,98.8393706 C173.265326,97.0870203 174.618041,95.4688204 176.136674,94.0144056 C177.394551,92.7655041 178.980759,91.8986208 180.711387,91.5142657 C185.385218,90.5386014 189.944682,89.1055944 194.527019,87.7564336 C196.089804,92.4206541 195.366786,97.5481185 192.575142,101.598671 C192.232038,102.132238 192.140544,102.421888 192.643762,102.947832 C195.671344,106.021205 197.322143,110.191051 197.218475,114.503357 C197.157192,116.574339 196.712546,118.616036 195.907057,120.525035 C193.471196,120.58502 191.034327,120.457605 188.618015,120.143916 C185.186981,119.86951 181.755946,119.602727 178.340161,119.09965 C177.528547,118.990158 176.732656,118.785485 175.968935,118.48986 C174.32416,117.80303 172.492382,117.70608 170.78426,118.215455 C168.649394,118.825245 167.406598,120.654615 167.276981,123.246224 C167.05587,127.491888 169.495716,130.373147 173.712076,131.028671 C176.388283,131.447902 179.003494,132.194895 181.679701,132.636993 C186.159224,133.391892 190.704074,133.688156 195.243724,133.521189 C195.62495,140.228881 192.872498,145.313007 187.19223,148.819301 C186.612766,149.177552 186.765257,149.451958 186.940621,149.901678 C188.60053,153.907315 188.564042,158.41478 186.839503,162.393035 C185.114964,166.371289 181.849912,169.479986 177.791195,171.008042 C177.542906,171.052039 177.327594,171.205382 177.204883,171.425607 C177.082173,171.645833 177.065088,171.909567 177.15836,172.143776 C178.371015,178.830108 175.228633,185.55316 169.320352,188.913007 C169.083992,189.042587 168.824758,189.149301 168.5579,189.263636 C166.19218,187.440384 163.945953,185.467214 161.833073,183.356294 C161.158105,182.695031 160.5851,181.937233 160.132804,181.107692 C159.475638,180.043054 158.66943,179.07793 157.738705,178.241678 C155.889303,176.44301 155.340503,173.690686 156.358667,171.320559 C157.743469,167.564065 159.869638,164.124269 162.610774,161.205664 C164.860008,158.796993 164.974375,156.007203 164.394912,153.103077 C163.960314,150.938322 162.107555,150.25993 160.193801,149.855944 C157.668315,149.284822 155.029432,150.097451 153.263111,151.99021 C149.259805,156.030946 146.370501,161.038541 144.876138,166.526084 C144.76177,166.907203 144.876138,167.448392 144.113686,167.212098 C135.726712,164.689091 128.20131,166.724266 121.35449,171.892238 C120.096444,172.845035 118.8079,173.736853 118.403801,175.451888 C117.844179,177.424583 117.857401,179.515724 118.441923,181.481189 C119.372115,184.354825 121.621349,185.368601 124.419548,184.194755 C127.591349,182.860839 130.694529,181.374476 133.973073,180.307343 C135.381776,179.818853 136.847603,179.513985 138.334299,179.40028 C139.729543,179.283674 141.094439,179.852221 141.994069,180.924755 C144.4085,183.66373 146.83564,186.395082 149.275486,189.118811 C152.386291,192.594615 155.558092,195.978951 159.438973,198.662028 C156.030812,204.516014 150.945257,207.359161 144.189931,207.107622 C142.907982,207.045972 141.642973,206.788929 140.438667,206.345385 C139.927824,206.162448 139.676214,206.261538 139.470352,206.756993 C137.302511,211.503878 132.942843,214.885231 127.804835,215.804755 C119.12813,217.596014 110.100697,211.056014 109.056138,202.244545 C108.948347,201.336466 108.897417,200.422541 108.903647,199.508112 L108.903647,126.333287 C108.903647,125.936923 108.903647,125.571049 108.903647,125.144196 C111.495985,125.906434 114.027326,126.988811 116.741655,127.156503 C118.068322,127.24035 118.358053,127.834895 118.640161,128.886783 C119.402613,131.653706 120.027824,134.435874 120.614912,137.233287 C121.011767,139.3698 121.948795,141.369283 123.336866,143.041538 C124.782832,144.985913 127.431555,145.584783 129.573724,144.451678 C132.021195,143.293077 133.927326,141.646643 134.270429,138.727273 C134.40767,137.538182 133.904452,136.440559 133.767211,135.304825 C133.545278,132.972681 133.181166,130.656253 132.676904,128.368462 C132.47933,127.351621 132.124336,126.371806 131.62472,125.464336 C131.319739,124.968881 131.441732,124.770699 131.906827,124.496294 C134.268212,123.092422 136.427904,121.374385 138.326674,119.389301 C139.72675,118.124529 140.52937,116.328825 140.537785,114.442378 C140.527371,114.078493 140.471012,113.717382 140.370046,113.367622 C139.355985,109.701259 134.430544,107.071538 131.220621,108.504545 C129.870564,109.154028 128.690569,110.109242 127.774337,111.294336 C126.520504,112.893647 124.735432,113.991428 122.742153,114.389021 C122.449197,114.461348 122.14304,114.461348 121.850084,114.389021 C117.243609,113.031871 112.866752,110.991796 108.865525,108.336853 Z" id="Combined-Shape" fill="#FEFEFE"></path>
            <path d="M37.9193562,199.317552 C37.0959079,199.752028 36.5240688,199.523357 35.8759845,198.844965 C33.5886282,196.459161 31.2326512,194.126713 28.8614251,191.824755 C28.2819615,191.260699 28.1447202,190.871958 28.8614251,190.376503 C29.0825362,189.69049 29.7687431,189.454196 30.2033408,188.973986 C32.4585181,187.20708 34.6049145,185.305648 36.6308121,183.28007 C37.2886188,182.610407 37.8551798,181.856914 38.3158313,181.039091 C38.8110291,180.234124 39.4109886,179.498483 40.0999692,178.851469 C42.8447968,176.069301 43.27177,173.874056 41.7011186,170.314406 C40.2729898,167.004231 38.3044556,163.954376 35.8759845,161.28951 C33.527632,158.758881 33.4361378,155.831888 34.1604673,152.744825 C34.5355064,151.415846 35.5851089,150.38393 36.9205439,150.031259 C39.9429036,148.775003 43.4274459,149.518446 45.6734941,151.898741 C49.7678619,155.908112 52.3220765,160.801678 54.0147202,166.198322 C54.1519615,166.64042 54.144337,167.082517 54.876291,166.876713 C63.6292412,164.399441 71.2613868,166.792867 78.2378236,172.212378 C79.9776406,173.551148 80.9791281,175.63558 80.9369041,177.83007 C81.0804269,179.325468 80.8444145,180.832901 80.2506972,182.212937 C79.0231493,184.720699 77.0331493,185.528671 74.4408121,184.49965 C71.8484749,183.470629 69.2408887,182.212937 66.5951799,181.222028 C65.1728724,180.671331 63.709563,180.232972 62.2187048,179.910979 C61.2581721,179.737223 60.2791766,179.688543 59.3061378,179.766154 C58.1395861,179.81951 57.3771339,180.581748 56.6146818,181.343986 C53.6182451,184.545385 50.8429194,187.944965 47.8617316,191.161608 C45.3649879,193.999379 42.5509453,196.541536 39.4747585,198.738252 C38.9867891,198.966923 38.5521914,199.431888 37.9193562,199.317552 Z M169.92269,190.399371 C170.540276,190.803357 170.578398,191.161608 169.998935,191.71042 C167.597211,194.05049 165.21836,196.413427 162.892881,198.822098 C162.252421,199.477622 161.688207,199.782517 160.857134,199.317552 C160.239548,199.447133 159.80495,199.02028 159.33223,198.806853 C156.399511,196.728089 153.711311,194.324476 151.318858,191.641818 C148.444414,188.592867 145.783456,185.307622 142.931885,182.251049 C142.550659,181.847063 142.230429,181.404965 141.856827,181.000979 C140.469165,179.476503 138.7079,179.56035 136.931387,179.842378 C134.327325,180.363778 131.797314,181.203465 129.39836,182.342517 C127.873456,182.998042 126.302804,183.638322 124.7779,184.33958 C124.168413,184.623101 123.516946,184.805872 122.848896,184.880769 C121.42317,185.104221 119.996786,184.483324 119.189126,183.287692 C117.427862,180.879021 117.359241,176.09979 119.059509,173.645385 C119.644551,172.941911 120.336682,172.334859 121.110506,171.846503 C124.476214,169.142914 128.421785,167.254164 132.638781,166.327902 C136.245407,165.63741 139.962423,165.783442 143.503724,166.754755 C144.540659,167.013916 144.510161,167.006294 144.84564,165.992517 C146.58403,160.656853 149.107747,155.83951 153.163992,151.891119 C155.702958,149.413846 158.638398,148.887902 161.924567,150.069371 C163.695048,150.660623 164.911273,152.289907 164.974375,154.154965 C165.046819,155.098753 165.046819,156.046702 164.974375,156.99049 C164.850297,158.555436 164.178019,160.026474 163.07587,161.144685 C160.702273,163.771895 158.747795,166.749066 157.281234,169.971399 C156.46541,171.77028 155.863073,173.607273 156.518781,175.627203 C157.021503,176.879687 157.803869,178.000763 158.806138,178.904825 C159.558577,179.701169 160.227908,180.572075 160.803762,181.504056 C161.847422,183.008368 163.106159,184.351499 164.539778,185.490559 C165.874069,186.702517 167.29223,187.777273 168.657019,188.973986 C168.969624,189.461818 169.701578,189.682867 169.92269,190.399371 Z M149.313609,12.3101399 C149.731775,12.0089786 150.099743,11.6436866 150.403916,11.2277622 C151.295985,10.4197902 151.280735,10.4655245 152.264299,11.2887413 C155.059356,13.8669605 158.021566,16.2579603 161.131617,18.4461538 C161.024873,18.812028 160.552153,18.8958741 160.369165,19.2083916 C160.048935,19.7648252 159.545716,20.1916783 159.194988,20.7328671 C156.251923,23.9113986 153.735831,27.4481818 150.937632,30.741049 C149.671962,32.2655245 149.641463,33.4012587 150.434414,35.1086713 C152.033416,38.2646481 153.345042,41.5580974 154.353417,44.9491608 C155.167496,47.6991306 155.590986,50.5498243 155.611463,53.4176224 C155.588947,54.7631173 155.330898,56.0942745 154.849011,57.3507692 C153.75108,60.1634266 151.539969,61.4592308 148.635027,61.7031469 C144.716023,62.0232867 142.92426,60.0262238 141.97882,56.7943357 C141.534307,55.3620055 141.338323,53.8641758 141.399356,52.3657343 C141.650965,48.0972028 140.026942,44.3698601 137.975946,40.794965 C137.204403,39.2755891 136.588759,37.682004 136.138437,36.0386014 C135.802958,35.0400699 135.787709,35.0476923 134.712651,35.1162937 C132.920889,35.2382517 131.129126,35.3830769 129.375486,35.5355245 C128.453349,35.6221077 127.527931,35.4081986 126.737402,34.9257343 C124.57585,33.5862713 123.129135,31.3482701 122.795525,28.8278322 C122.406674,26.3048252 123.740965,24.605035 125.845333,23.4921678 C127.876736,22.4983375 130.073469,21.8860088 132.326176,21.6856643 C134.724974,21.45076 137.14576,21.5922114 139.50085,22.1048951 C139.893821,22.2052003 140.307684,22.0500455 140.537785,21.7161538 C142.245678,19.5361538 144.05269,17.4323776 145.87495,15.3590909 C146.868532,14.1827358 148.026682,13.155841 149.313609,12.3101399 Z M48.3420765,11.2277622 C48.6462494,11.6436866 49.0142174,12.0089786 49.432383,12.3101399 C50.681101,13.1285013 51.8057651,14.121932 52.7719232,15.26 C54.6323064,17.292634 56.4113613,19.411655 58.109088,21.6170629 C58.4420725,22.066864 59.0250877,22.25399 59.557747,22.082028 C63.6050255,21.20844 67.8181248,21.5153383 71.6959845,22.9662238 C72.7253051,23.3513485 73.6722277,23.9281364 74.4865592,24.666014 C76.0953332,26.1295105 76.2935707,27.9283916 75.7522297,29.8644755 C75.2918089,31.4882932 74.4014604,32.9577452 73.1751416,34.1177622 C72.171253,35.1237634 70.7810714,35.6463247 69.3628811,35.5507692 C67.5406205,35.4288112 65.71836,35.2916084 63.903724,35.1162937 C63.1946435,35.0476923 62.836291,35.223007 62.6380535,35.9242657 C62.1188288,37.9301264 61.3287859,39.8559557 60.289701,41.6486713 C59.1971007,43.5239085 58.365963,45.5396202 57.8193562,47.6398601 C57.4331566,49.2380289 57.284155,50.8842899 57.3771339,52.5258042 C57.3907141,54.0746277 57.1696389,55.6165792 56.7214251,57.0992308 C55.6768657,60.6512587 53.1150267,62.2367133 49.4705056,61.6269231 C45.9403523,61.04 43.8969807,58.86 43.3708887,55.1936364 C42.8447968,51.5272727 43.5691263,48.1505594 44.5069424,44.7281119 C45.5667508,40.9169231 47.4195094,37.3648951 48.9215401,33.7061538 C49.2318413,33.1041426 49.1377762,32.3730676 48.6851799,31.8691608 C46.0928428,28.561049 43.5233792,25.2300699 40.7938006,22.0286713 C40.3973255,21.5637063 39.9398543,21.1520979 39.5510037,20.6795105 C39.2765209,20.1230769 38.6970573,19.8029371 38.4530726,19.2236364 L37.6219998,18.4613986 C40.9485685,16.1298215 44.1030919,13.5620787 47.0611569,10.778042 C47.8312336,10.0691608 47.8998543,11.1058042 48.3420765,11.2277622 Z M107.409241,124.648741 C105.67085,123.962727 105.67085,123.962727 105.67085,122.041888 C105.67085,117.158485 105.67085,112.27 105.67085,107.376434 C105.608803,107.032093 105.648548,106.677137 105.785218,106.355035 L107.386368,107.376434 C108.034452,107.452657 108.453801,107.993846 109.033264,108.222517 C112.706428,110.51542 116.621088,112.396791 120.706406,113.832587 C121.8551,114.263061 123.127879,114.219184 124.244184,113.710629 C125.541681,113.163767 126.689383,112.314341 127.591349,111.233357 C128.389882,110.230661 129.354359,109.372157 130.442919,108.695105 C132.186972,107.594288 134.39451,107.538676 136.191808,108.55028 C137.661197,109.312829 138.924578,110.418957 139.874452,111.774545 C141.445103,113.954545 140.949509,116.995874 138.738398,119.351189 C136.899106,121.308879 134.809794,123.015738 132.524414,124.427692 C131.86108,124.839301 131.761962,125.18993 132.09744,125.906434 C133.172498,128.368462 133.454605,131.013427 133.828207,133.635524 C133.900206,134.578951 134.037779,135.516226 134.239931,136.440559 C135.185371,139.756294 133.706214,141.959161 131.556099,143.613217 C130.760855,144.233526 129.859116,144.703642 128.895142,145.00049 C126.836715,145.639433 124.5959,144.977902 123.214873,143.323566 C121.873521,141.729906 120.941754,139.83288 120.500544,137.797343 C119.791463,134.801748 119.196751,131.783287 118.350429,128.818182 C118.244512,128.091643 117.635617,127.54379 116.90177,127.514755 C114.1606,127.08668 111.47212,126.371316 108.880774,125.38049 C108.377555,125.159441 107.782843,125.128951 107.409241,124.648741 Z M91.4663677,107.330699 L92.8997776,106.377902 C93.1818849,106.522727 93.0751416,106.759021 93.0751416,106.94958 C93.0751416,112.369091 93.0751416,117.796224 93.0751416,123.215734 C93.0751416,123.77979 92.9455248,124.138042 92.3508121,124.267622 C92.0304507,124.365666 91.7171237,124.485359 91.412996,124.625874 C91.0088964,125.144196 90.3531876,125.128951 89.8270956,125.388112 C87.0890597,126.42547 84.2461351,127.16156 81.3486282,127.583357 C80.7081684,127.65958 80.5861761,128.116923 80.4565592,128.58951 C79.633111,131.425035 79.0002757,134.313916 78.390314,137.202797 C77.9934718,139.27871 77.1276835,141.236614 75.858973,142.927203 C74.0214634,145.313007 71.6044903,145.884685 68.8977853,144.596503 C66.5494328,143.476014 64.8034175,141.875315 64.3230726,139.19986 C64.2017907,138.755368 64.1783791,138.289867 64.254452,137.835455 C64.9406589,135.083776 65.0169041,132.225385 65.6192412,129.450839 C65.8379225,128.187567 66.2118119,126.956127 66.7324213,125.784476 C67.0450267,125.144196 66.8620382,124.816434 66.2901991,124.458182 C64.042178,123.046807 61.9779627,121.362102 60.1448351,119.442657 C59.118444,118.431167 58.4062221,117.144763 58.0938389,115.738182 C57.7859434,114.441846 58.0288431,113.075919 58.7647968,111.965105 C59.7804018,110.430297 61.1961661,109.202064 62.8591646,108.413077 C65.6802374,107.079161 68.1200841,108.123427 70.1634558,110.082378 C70.9549451,111.005798 71.8110458,111.871847 72.7252949,112.673986 C73.1953478,113.014098 73.6926227,113.314929 74.2120765,113.573427 C75.4455667,114.194503 76.8819077,114.274584 78.1768274,113.794476 C82.1966034,112.357869 86.0531749,110.500387 89.6822297,108.253007 C90.2998159,108.024336 90.7420382,107.406923 91.4663677,107.330699 Z M2.7626895,87.2914685 C1.90111862,87.0323077 1.71050559,86.4911189 1.82487341,85.5993007 C2.32046728,81.5746853 2.77031402,77.5500699 2.96855157,73.4492308 L4.02836,73.8227273 C4.69931785,73.7465035 5.1872872,74.2724476 5.79724889,74.3791608 C8.28678057,75.4873234 10.8316452,76.4668209 13.42177,77.3137762 C15.8407999,77.9404888 18.306419,78.3712773 20.7946818,78.601958 C22.3832983,78.8114571 23.9505264,78.0874113 24.820429,76.7420979 C25.7420533,75.3770347 26.4779213,73.8954593 27.0086665,72.3363636 C27.1611569,71.94 27.2755248,71.5283916 27.4508887,71.132028 C28.5564443,68.6318881 30.1042221,67.7934266 32.8338006,68.1364336 C34.2020591,68.1812787 35.5550358,68.4384262 36.8442987,68.8986713 C38.466738,69.6276443 39.5749527,71.168822 39.7492412,72.9385315 C39.9015577,74.2056216 39.8836079,75.4873896 39.6958696,76.7497203 C39.4290113,78.9602098 37.9803523,80.5609091 36.9129194,82.3445455 C36.4020765,83.2058741 35.8302374,84.0367133 35.2431493,84.8523077 C34.8795454,85.2545646 34.9102423,85.8751491 35.31177,86.2395804 C36.4020765,87.5506294 37.2941454,89.0217483 38.3615784,90.348042 C39.6013467,91.8874134 40.0575176,93.9142696 39.5967508,95.8361538 C39.4290113,96.7051049 39.2612719,97.5664336 39.0249117,98.4201399 C38.3310803,100.996503 36.5926895,102.13986 34.0308504,102.520979 C30.4092029,103.062168 28.0227278,101.415734 26.1547202,98.5802098 C24.7036253,96.279313 22.8152269,94.2852692 20.5964443,92.710979 C20.0942023,92.3664896 19.5296369,92.1231217 18.9342987,91.9944755 C13.993609,90.9044755 9.13678912,89.4790909 4.30284276,88.0003497 C3.75387724,87.7869231 3.15154008,87.7564336 2.7626895,87.2914685 Z M194.725257,73.8227273 L195.800314,73.4568531 C195.952804,76.9707692 196.341655,80.4160839 196.715257,83.8613986 C196.746987,84.4390499 196.813184,85.0142922 196.913494,85.5840559 C197.063968,85.9314219 197.046756,86.3285951 196.866797,86.6616498 C196.686837,86.9947046 196.364014,87.2268394 195.990927,87.2914685 C195.609701,87.7640559 194.999739,87.7716783 194.466023,88.0155944 C189.57108,89.5400699 184.660889,90.9730769 179.651578,92.0630769 C178.302038,92.3603497 177.364222,93.2979021 176.380659,94.1592308 C175.000135,95.4056587 173.78322,96.8220056 172.759011,98.3744056 L172.187172,99.2052448 C169.60246,102.803007 166.705142,103.237483 162.770889,102.056014 C161.777333,101.730396 160.954297,101.022784 160.483532,100.089441 C159.614337,98.564965 159.423724,96.8118182 159.111119,95.0967832 C158.768015,93.2369231 159.48472,91.781049 160.460659,90.348042 C161.436598,88.915035 162.374414,87.5887413 163.434222,86.2929371 C163.8455,85.8969978 163.8691,85.2465032 163.487594,84.8218182 C162.374414,83.2211189 161.299356,81.5899301 160.300544,79.9206294 C158.796737,77.4284458 158.464943,74.4013356 159.393226,71.6427273 C159.930635,69.9990726 161.338694,68.7912448 163.045371,68.5099301 C164.643153,68.100903 166.303467,67.9949003 167.940314,68.1974126 C169.405647,68.3234433 170.661408,69.2955641 171.150237,70.6823077 C171.737326,72.2067832 172.248168,73.7312587 172.980122,75.1718881 C173.213014,75.6336082 173.480641,76.0769808 173.780697,76.4981818 C175.046368,78.2818182 176.716138,78.7848951 178.881502,78.5486014 C183.756418,77.9211758 188.498529,76.5133552 192.92587,74.3791608 C193.558705,74.2724476 194.046674,73.7388811 194.725257,73.8227273 Z M2.00023739,133.406853 C1.01667418,133.406853 0.749815939,132.919021 0.726942376,131.928112 C0.677221135,128.376263 0.440533582,124.829492 0.0178619159,121.302517 C-0.134628506,120.113427 0.726942376,120.70035 1.1691646,120.54028 C1.71813012,120.166783 2.33571632,120.364965 2.92280444,120.311608 C6.21659755,120.357343 9.48751709,119.892378 12.7584366,119.640839 C15.3126512,119.442657 17.8592412,119.198741 20.3829577,118.878601 C21.1656648,118.764657 21.9329853,118.562653 22.670314,118.276434 C24.6415123,117.466592 26.8575863,117.494113 28.8080535,118.352657 C30.0261563,118.898845 30.9392951,119.956895 31.3012719,121.241538 C32.5211952,125.052727 31.3698926,129.992028 25.6743753,131.219231 C21.2950015,132.255759 16.8606616,133.044656 12.3924596,133.582168 C9.44857746,133.874244 6.48648975,133.937954 3.53276613,133.772727 C3.02192322,133.62028 2.48058222,133.74986 2.00023739,133.406853 Z M197.592076,120.547902 C198.834873,120.547902 198.796751,120.547902 198.659509,121.767483 C198.293532,125.113706 198.118168,128.482797 198.026674,131.851888 C198.026674,132.804685 197.828437,133.414476 196.761004,133.376364 C196.311157,133.742238 195.731693,133.566923 195.236099,133.734615 C191.768185,133.916399 188.291029,133.79653 184.843877,133.376364 C180.841004,132.880909 176.922,131.989091 172.987747,131.143007 C168.039433,130.083497 166.438283,125.921678 167.170237,122.171469 C167.587896,119.334325 170.174076,117.334639 173.02587,117.643776 C174.244766,117.695484 175.446097,117.953208 176.578896,118.406014 C178.060723,118.872378 179.600586,119.12895 181.153609,119.168252 C185.148858,119.617972 189.159356,119.86951 193.154605,120.258252 C194.100046,120.34972 195.045486,120.258252 195.990927,120.296364 C196.532268,120.364965 197.096483,120.197273 197.592076,120.547902 Z M107.386368,67.3132168 C107.89535,67.4013081 108.417979,67.3673467 108.911272,67.2141259 C109.101885,66.9092308 109.437364,66.954965 109.727096,66.9092308 C112.653949,66.4921998 115.35689,65.1075671 117.404988,62.9760839 C119.055285,61.3234421 121.226385,60.2920556 123.550352,60.0567133 C124.164491,60.0107904 124.772905,60.2017189 125.250621,60.5902797 C129.390735,63.2581119 130.282804,68.326993 127.354988,72.4964336 C125.717918,74.674724 123.595529,76.4415795 121.156253,77.6567832 C117.651244,79.6672967 113.782092,80.9626965 109.772843,81.467972 C109.444988,81.5060839 109.109509,81.5137063 108.77403,81.5213287 C108.310248,81.5924494 107.835785,81.5262022 107.409241,81.3307692 C105.686099,81.2316783 105.686099,81.2316783 105.686099,79.4785315 C105.686099,75.7359441 105.686099,71.9933566 105.686099,68.2507692 C105.686099,67.4885315 105.724222,66.9778322 106.692536,67.3132168 C106.922468,67.348488 107.156436,67.348488 107.386368,67.3132168 Z M89.8728428,67.236993 C90.3889078,67.3651939 90.9250955,67.3910894 91.4511186,67.3132168 C91.9619615,67.3132168 92.671042,67.0616783 92.9302757,67.3132168 C93.3191263,67.6790909 93.0675171,68.4032168 93.0675171,68.9748951 C93.0675171,72.6565035 93.0675171,76.3381119 93.0675171,80.0197203 C93.0675171,81.2621678 93.0675171,81.2621678 91.8018466,81.2926573 L91.4358696,81.2926573 C90.9690733,81.4982301 90.453454,81.56696 89.949088,81.4908392 C87.0246472,81.2926682 84.1538817,80.6073819 81.4553715,79.4632867 C78.1615784,78.1065035 75.0507738,76.4600699 72.5346818,73.8684615 C70.9238836,72.2934659 69.9265309,70.1966417 69.7212336,67.9534965 C69.4358409,64.7006525 71.2020569,61.6129227 74.1510803,60.2091608 C74.5082067,60.0261328 74.9176776,59.9722702 75.3100075,60.0567133 C77.5990952,60.33715 79.7293466,61.3724723 81.3638772,62.998951 C83.4152329,65.1233988 86.1174062,66.5022733 89.04177,66.9168531 C89.3543753,66.9625874 89.6974788,66.9092308 89.8728428,67.236993 Z" id="Combined-Shape" fill="#F48620"></path>
        </g>
    </g>
</svg>