<?xml version="1.0" encoding="UTF-8"?>
<svg width="350px" height="350px" viewBox="0 0 350 350" version="1.1" xmlns="http://www.w3.org/2000/svg" xmlns:xlink="http://www.w3.org/1999/xlink">
    <!-- Generator: Sketch 55.2 (78181) - https://sketchapp.com -->
    <title>JJMDC-Company-BWI-Icon2</title>
    <desc>Created with Sketch.</desc>
    <g id="JJMDC-Company-BWI-Icon2" stroke="none" stroke-width="1" fill="none" fill-rule="evenodd">
        <g id="Group-of-people" transform="translate(33.000000, 58.000000)" fill-rule="nonzero">
            <path d="M283.71,194.93 C274.71,194.93 265.64,194.93 256.61,194.93 C255.61,194.93 255.36,194.67 255.37,193.68 C255.37,177.253333 255.37,160.826667 255.37,144.4 C255.410914,136.142874 253.205557,128.030062 248.99,120.93 C248.27,119.69 248.29,119.71 249.66,119.3 C264.23,114.84 279.1,123.6 283.35,137.35 C283.43,137.6 283.4,137.93 283.71,138.07 L283.71,194.93 Z" id="Path" fill="#767884"></path>
            <path d="M0.03,137.78 C0.43,137.55 0.41,137.11 0.54,136.78 C4.52119745,124.959312 15.9763645,117.312947 28.42,118.17 C30.5252942,118.386568 32.6048726,118.805163 34.63,119.42 C35.63,119.68 35.2,120.11 34.91,120.58 C33.0363731,123.697878 31.5328776,127.023691 30.43,130.49 C29.0710304,134.714345 28.3695047,139.122489 28.35,143.56 C28.35,160.226667 28.35,176.893333 28.35,193.56 C28.35,194.63 28.11,194.94 27,194.94 C18,194.89 9,194.94 0,194.94 L0.03,137.78 Z" id="Path" fill="#767884"></path>
            <path d="M141.87,234.7 C123.87,234.7 105.87,234.7 87.87,234.7 C86.71,234.7 86.42,234.43 86.42,233.26 C86.42,200.75 86.42,168.26 86.48,135.72 C86.748785,108.933757 106.167533,86.1872845 132.58,81.72 C149.88,78.95 165.32,83.37 178.58,94.91 C187.778765,102.898385 194.011859,113.75785 196.27,125.73 C196.93311,129.022077 197.268083,132.371804 197.27,135.73 C197.27,168.236667 197.27,200.746667 197.27,233.26 C197.27,234.42 197,234.71 195.83,234.71 C177.856667,234.683333 159.87,234.68 141.87,234.7 Z" id="Path" fill="#F08B20"></path>
            <path d="M106.55,36.19 C106.610735,16.6870112 122.463429,0.922309623 141.966453,0.970020147 C161.469478,1.01794767 177.244675,16.860197 177.20983,36.3632491 C177.174869,55.8663012 161.343071,71.6519865 141.84,71.6301752 C132.44541,71.6596318 123.42923,67.9304649 116.800322,61.2733802 C110.171413,54.6162954 106.480522,45.5843801 106.55,36.19 Z" id="Path" fill="#F08B20"></path>
            <path d="M35.1,176.93 C35.1,165.41 34.91,153.93 35.1,142.38 C35.60208,126.716959 45.4584731,112.886468 60.1,107.3 C68.1317913,104.156792 76.993934,103.839405 85.23,106.4 C86.23,106.7 86.23,106.98 85.81,107.84 C81.9517808,115.182277 79.5734211,123.21094 78.81,131.47 C78.65,133.47 78.6,135.47 78.6,137.47 C78.6,162.35 78.6,187.226667 78.6,212.1 C78.6,213.35 78.25,213.61 77.06,213.61 C63.4733333,213.57 49.8766667,213.57 36.27,213.61 C35.17,213.61 34.89,213.32 34.89,212.22 C34.94,200.47 34.89,188.71 34.89,176.95 L35.1,176.93 Z" id="Path" fill="#767884"></path>
            <path d="M204.99,172.93 C204.99,161.25 204.89,149.57 204.99,137.93 C205.107126,127.541919 202.668925,117.284306 197.89,108.06 C197.34,106.97 197.48,106.72 198.63,106.37 C221.17,99.47 244.85,114.79 248.2,138.25 C248.466476,140.027715 248.603503,141.822435 248.61,143.62 C248.61,166.46 248.61,189.3 248.61,212.14 C248.61,213.26 248.36,213.62 247.18,213.62 C233.54,213.58 219.9,213.58 206.26,213.62 C205.1,213.62 204.92,213.24 204.92,212.21 C204.986667,199.09 205.01,185.996667 204.99,172.93 Z" id="Path" fill="#767884"></path>
            <path d="M99.12,72.55 C99.1118963,82.622923 93.0357427,91.6987439 83.7257033,95.5441322 C74.4156639,99.3895204 63.7058847,97.2469065 56.5918403,90.1156922 C49.4777959,82.984478 47.3610052,72.2695648 51.2288251,62.9688222 C55.096645,53.6680796 64.1870867,47.6138219 74.26,47.6299677 C87.9812683,47.7067707 99.076306,58.8285865 99.12,72.55 Z" id="Path" fill="#767884"></path>
            <path d="M184.589973,72.5 C184.595939,62.3784352 190.723323,53.2658972 200.09466,49.4417419 C209.465996,45.6175866 220.219465,47.8415655 227.305111,55.0692718 C234.390756,62.296978 236.40086,73.0924708 232.391455,82.3860586 C228.382049,91.6796464 219.149689,97.6249562 209.03,97.43 C195.7,97.4 184.57,86.04 184.589973,72.5 Z" id="Path" fill="#767884"></path>
            <path d="M43.5100187,93.85 C43.5238068,103.260932 35.9059319,110.901192 26.495,110.915018 C17.0840681,110.928806 9.44380746,103.310932 9.42998126,93.9 C9.41619288,84.4890679 17.0340679,76.8488071 26.445,76.8349813 C35.8559321,76.8211929 43.4961929,84.4390679 43.5100187,93.85 L43.5100187,93.85 Z" id="Path" fill="#767884"></path>
            <path d="M257.14,110.930144 C247.731829,110.89134 240.13634,103.233171 240.174853,93.825 C240.21366,84.4168293 247.871829,76.8213401 257.28,76.8598531 C263.36602,76.8850082 268.976392,80.1549697 271.997744,85.4381215 C275.019095,90.7212733 274.992412,97.2149789 271.927744,102.473122 C268.863076,107.731265 263.22602,110.955009 257.14,110.930144 L257.14,110.930144 Z" id="Path" fill="#767884"></path>
            <path d="M257.31,166.22 C257.31,158.22 257.39,150.22 257.31,142.22 C257.146622,135.116219 255.273754,128.15642 251.85,121.93 C251.32,120.93 251.6,120.72 252.54,120.54 C260.112936,118.952116 267.988994,121.07345 273.74,126.25 C279.565352,131.135237 282.830424,138.420844 282.6,146.02 C282.6,161.246667 282.6,176.48 282.6,191.72 C282.6,192.63 282.39,192.95 281.41,192.95 C273.77,192.91 266.133333,192.91 258.5,192.95 C257.5,192.95 257.3,192.69 257.3,191.75 C257.3,183.23 257.3,174.75 257.3,166.2 L257.31,166.22 Z" id="Path" fill="#FEFEFE"></path>
            <path d="M1.2,167.44 C1.2,159.52 1.02,151.6 1.2,143.69 C1.51,132.61 10.84,122.29 21.82,120.48 C24.9721713,119.906268 28.2060626,119.953826 31.34,120.62 C32.14,120.8 32.34,121 31.9,121.77 C29.2854677,126.629568 27.5552402,131.915058 26.79,137.38 C26.5184689,139.281305 26.3814619,141.199404 26.38,143.12 C26.38,159.27 26.38,175.43 26.38,191.58 C26.38,192.68 26.11,192.98 25,192.97024 C17.5266667,192.943333 10.0233333,192.93 2.49,192.93 C1.33,192.93 1.11,192.57 1.12,191.52 C1.12,183.52 1.12,175.44 1.12,167.4 L1.2,167.44 Z" id="Path" fill="#FEFEFE"></path>
            <path d="M76.68,173.18 C76.68,185.5 76.68,197.82 76.68,210.18 C76.68,211.28 76.4,211.57 75.3,211.57 C62.98,211.53 50.6633333,211.53 38.35,211.57 C37.23,211.57 36.9799784,211.25 36.9799784,210.17 C36.9799784,188.1 36.9799784,166.03 36.9799784,143.96 C36.9604879,125.701388 50.1815224,110.121571 68.2,107.17 C72.9826838,106.356471 77.8833936,106.564359 82.58,107.78 C83.39,107.99 83.39,108.22 83.08,108.88 C80.0367898,115.188144 78.0117111,121.938406 77.08,128.88 C76.756839,131.45744 76.5931941,134.052381 76.59,136.65 C76.66,148.79 76.68,160.99 76.68,173.18 Z" id="Path" fill="#FEFEFE"></path>
            <path d="M206.91,171.27 C206.91,158.72 207.04,146.16 206.91,133.61 C206.79,125.15 204.44,117.15 200.91,109.48 C200.2,107.92 200.19,107.93 201.8,107.57 C221.745307,103.235875 241.433082,115.871847 245.8,135.81 C246.344351,138.350494 246.61589,140.941848 246.610094,143.54 C246.610094,165.686667 246.610094,187.84 246.610094,210 C246.610094,211.18 246.37,211.53 245.12,211.53 C232.853333,211.47 220.576667,211.47 208.29,211.53 C207.2,211.53 206.91,211.26 206.91,210.15 C206.95,197.19 206.95,184.233333 206.91,171.28 L206.91,171.27 Z" id="Path" fill="#FEFEFE"></path>
            <path d="M74.27,95.3900549 C65.0140162,95.4102132 56.6593139,89.8468899 53.1087957,81.298939 C49.5582775,72.750988 51.5127427,62.9055992 58.059162,56.3620498 C64.6055814,49.8185004 74.4518263,47.8683527 82.9982195,51.4226188 C91.5446128,54.976885 97.1042719,63.3340259 97.0800792,72.59 C97.0744789,85.1837097 86.8637109,95.3900549 74.27,95.3900549 Z" id="Path" fill="#FEFEFE"></path>
            <path d="M209.44,95.3904375 C201.265763,95.339983 193.739141,90.9328619 189.695338,83.8287566 C185.651536,76.7246513 185.704904,68.0028444 189.835338,60.9487563 C193.965773,53.8946682 201.545763,49.5799826 209.72,49.6295698 C222.356275,49.7073201 232.537319,60.0137251 232.460437,72.65 C232.38268,85.2862749 222.076275,95.4673196 209.44,95.3904375 Z" id="Path" fill="#FEFEFE"></path>
            <path d="M11.4597296,93.85 C11.5096351,85.5776262 18.2471834,78.9070791 26.5196402,78.9399974 C34.792097,78.9731602 41.4761462,85.6973138 41.4597296,93.9698202 C41.4432545,102.242327 34.7325227,108.939997 26.46,108.939997 C22.4661099,108.939997 18.6370984,107.347371 15.8214512,104.51483 C13.0058041,101.682289 11.4360367,97.8438182 11.4597296,93.85 L11.4597296,93.85 Z" id="Path" fill="#FEFEFE"></path>
            <path d="M272.220214,93.93 C272.175848,102.195891 265.45286,108.868216 257.186871,108.849879 C248.920883,108.831468 242.227624,102.129321 242.220214,93.8633148 C242.212816,85.5973091 248.894058,78.883182 257.16,78.849879 C261.162535,78.8339326 265.005488,80.4181978 267.833852,83.250318 C270.662216,86.0824382 272.241379,89.9274894 272.220214,93.93 L272.220214,93.93 Z" id="Path" fill="#FEFEFE"></path>
        </g>
    </g>
</svg>