<?xml version="1.0" encoding="UTF-8"?>
<svg width="1000px" height="313px" viewBox="0 0 1000 313" version="1.1" xmlns="http://www.w3.org/2000/svg" xmlns:xlink="http://www.w3.org/1999/xlink">
    <!-- Generator: Sketch 54.1 (76490) - https://sketchapp.com -->
    <title>JJMDC-Company-BWI-Logo-White</title>
    <desc>Created with Sketch.</desc>
    <g id="JJMDC-Company-BWI-Logo-White" stroke="none" stroke-width="1" fill="none" fill-rule="evenodd">
        <g id="bwi-logo" transform="translate(50.000000, 48.000000)" fill="#FFFFFF">
            <path d="M433.938512,171.194448 C434.538598,171.194448 435.446727,171.868179 435.9548,173.21037 C435.772774,173.21037 435.497734,173.270468 435.313708,173.270468 C434.221552,173.270468 433.303421,172.720096 433.303421,171.868179 C433.303421,171.431678 433.584461,171.194448 433.938512,171.194448 Z M367.866086,171.194448 C368.449169,171.194448 369.319294,171.868179 369.825366,173.21037 C368.138125,173.21037 367.225995,172.824477 367.225995,171.868179 C367.225995,171.431678 367.495033,171.194448 367.866086,171.194448 Z M379.970813,164.929488 C379.970813,157.746186 381.297002,156.643334 381.710061,156.643334 C382.443166,156.643334 382.529178,157.124118 382.529178,159.878086 C382.529178,162.709022 381.387015,166.412961 379.970813,168.446806 L379.970813,164.929488 Z M424.941228,176.919581 C424.941228,180.967239 427.129541,184.829331 431.383147,184.829331 C435.497734,184.829331 438.376145,181.401632 438.376145,176.628579 C438.376145,175.239998 438.331139,175.047051 438.244126,174.474538 C439.197262,174.034873 440.02638,173.361142 440.665472,172.824477 C441.21355,172.391138 441.619608,172.147583 441.947655,172.147583 C442.355713,172.147583 442.536739,172.487084 442.536739,173.113369 L442.536739,182.564582 C442.536739,184.104991 442.998804,184.829331 444.135967,184.829331 C445.184116,184.829331 445.922222,184.055436 446.33028,183.141313 C447.843496,179.81694 450.029807,175.383389 450.986944,173.698535 C451.215977,173.313696 451.404004,173.018478 451.537022,173.018478 C451.720049,173.018478 451.815062,173.166087 451.815062,173.786046 L451.815062,181.315175 C451.815062,183.429151 452.728192,184.829331 454.734479,184.829331 C456.839779,184.829331 457.883928,182.702702 459.725191,179.429993 C459.813203,179.231775 459.854209,179.0926 459.854209,178.951317 C459.854209,178.516924 459.497158,178.272314 459.129106,178.272314 C458.713046,178.272314 458.483013,178.708816 457.116818,180.293508 C456.839779,180.595052 456.570741,181.012576 456.064668,181.012576 C455.882642,181.012576 455.743623,180.781673 455.743623,180.490671 L455.743623,172.050582 C455.743623,169.784779 454.783486,168.87171 453.547309,168.87171 C452.546166,168.87171 451.720049,169.303995 450.850925,170.656729 C449.297703,173.070141 447.700475,176.493622 446.830351,178.218543 C446.735338,178.422032 446.601318,178.708816 446.516306,178.708816 C446.419292,178.708816 446.378287,178.562261 446.378287,178.218543 L446.378287,172.050582 C446.378287,170.272944 445.922222,168.87171 444.135967,168.87171 C442.260699,168.87171 441.302562,170.221281 439.931367,171.232405 C439.066243,171.913516 438.287132,172.391138 437.699048,172.678976 C436.778917,170.221281 435.088676,168.979254 433.674474,169.017211 C432.250271,169.068874 431.248128,169.987215 431.248128,171.529732 C431.248128,173.113369 432.163259,174.216222 433.395434,174.706495 C434.075532,174.994334 434.717623,175.047051 435.637754,175.047051 C435.911793,175.047051 436.184832,175.047051 436.360858,174.994334 C436.457871,175.471955 436.414865,176.157284 436.414865,176.685514 C436.414865,179.049372 435.088676,181.401632 432.622324,181.401632 C430.056958,181.401632 428.554744,178.802654 428.554744,175.816728 C428.554744,173.547762 429.191835,171.671015 430.238984,170.376271 C430.657044,169.890215 430.973089,169.598159 430.973089,169.156385 C430.973089,168.9297 430.657044,168.87171 430.381004,168.87171 C428.640756,168.87171 426.726483,169.695159 425.404294,170.412119 C423.657045,171.376851 421.606753,172.975249 419.912511,174.563103 C419.092394,172.63153 418.086251,170.944567 417.580178,169.642442 C417.403153,169.109994 417.267134,168.492144 416.899081,168.492144 C416.574035,168.492144 416.434015,168.831645 416.209983,169.494833 C415.390866,172.050582 411.00124,179.525939 410.042103,180.538117 C409.95209,180.677292 409.819071,180.828064 409.774065,180.828064 C409.676051,180.828064 409.623043,180.781673 409.623043,180.490671 L409.623043,172.050582 C409.623043,169.784779 408.75692,168.87171 407.578752,168.87171 C406.567607,168.87171 405.701484,169.303995 404.881367,170.656729 C403.372151,173.070141 401.53789,176.586405 400.671766,178.317652 C400.532746,178.616033 400.396727,178.708816 400.34772,178.708816 C400.302714,178.708816 400.264708,178.516924 400.264708,178.218543 L400.264708,172.050582 C400.264708,169.784779 399.394584,168.87171 398.201414,168.87171 C397.19527,168.87171 396.241134,169.266038 395.462023,170.656729 C393.54775,174.08021 390.348294,179.332993 389.753209,180.196507 C389.660195,180.345171 389.569182,180.443226 389.47917,180.490671 C389.388157,180.490671 389.335149,180.391562 389.335149,180.150116 L389.335149,172.050582 C389.335149,169.784779 388.469025,168.87171 387.284857,168.87171 C385.639622,168.87171 384.729492,170.470108 384.128406,171.478069 C383.304289,172.875086 382.211133,174.757104 381.345009,176.493622 C380.744924,177.65341 380.244852,178.708816 380.059826,178.708816 C379.970813,178.708816 379.970813,178.272314 379.970813,177.452028 L379.970813,170.998339 C382.848224,167.61914 384.630478,163.482916 384.630478,158.951311 C384.630478,156.344952 383.534321,154.905761 381.849081,154.905761 C378.68863,154.905761 376.274286,160.108989 376.274286,166.271678 L376.274286,171.284068 C374.809077,172.2488 373.436881,172.720096 371.741639,173.070141 C370.874515,170.376271 369.045255,168.979254 367.590047,169.017211 C366.174845,169.068874 365.164701,169.987215 365.164701,171.529732 C365.164701,174.08021 367.54404,175.140888 369.64134,175.140888 L370.234424,175.140888 C370.324437,175.629054 370.324437,176.157284 370.324437,176.685514 C370.324437,179.049372 368.999248,181.401632 366.537897,181.401632 C363.981532,181.401632 362.467316,178.802654 362.467316,175.816728 C362.467316,173.547762 363.103407,171.671015 364.154557,170.376271 C364.568616,169.890215 364.893662,169.45793 364.893662,169.156385 C364.893662,168.9297 364.568616,168.87171 364.293577,168.87171 C362.556329,168.87171 358.722782,171.339949 354.148129,176.157284 C353.745072,172.302572 353.285006,168.537481 353.285006,164.875716 C353.285006,160.781666 354.054116,157.304413 354.234142,156.303832 C354.326155,155.68071 354.382163,155.2906 354.382163,155.006979 C354.382163,154.617923 354.190135,154.420759 353.696065,154.420759 C349.992537,154.420759 341.855376,160.643546 341.855376,169.940824 C341.855376,176.532633 344.146703,179.717831 348.113268,183.810827 C345.704925,187.909093 343.773649,192.769657 343.773649,197.112534 C343.773649,200.238688 344.466748,202.606763 346.65206,202.606763 C351.223712,202.606763 354.650201,192.588308 354.650201,185.162506 C354.650201,182.951529 354.564189,180.731064 354.382163,178.516924 C356.067403,176.628579 358.673775,174.08021 359.310866,173.840872 C359.037827,174.855159 358.857801,175.917946 358.857801,176.919581 C358.857801,180.967239 361.054115,184.829331 365.29972,184.829331 C369.279288,184.829331 372.291718,181.401632 372.291718,176.628579 C372.291718,176.012838 372.246711,175.471955 372.201705,174.896279 C373.659913,174.611604 374.998104,174.216222 376.274286,173.409642 L376.274286,183.091758 C376.274286,184.339057 377.091402,184.829331 377.867513,184.829331 C378.925664,184.829331 379.473742,184.055436 380.244852,182.280961 C380.888944,180.828064 382.621191,177.506855 383.670341,175.524673 C384.497459,173.981101 384.956524,172.975249 385.323577,172.975249 C385.409589,172.975249 385.507603,173.21037 385.507603,173.786046 L385.507603,182.030026 C385.507603,184.249437 386.604759,184.829331 387.552895,184.829331 C388.469025,184.829331 389.06511,184.298992 389.660195,183.429151 C392.039535,179.861223 394.556894,175.629054 395.553036,173.786046 C395.742063,173.461305 395.966095,173.21037 396.151121,173.21037 C396.329147,173.21037 396.42116,173.313696 396.42116,173.931547 L396.42116,182.564582 C396.42116,184.104991 396.878225,184.829331 398.027389,184.829331 C399.072538,184.829331 399.753635,184.055436 400.163694,183.141313 C401.68191,179.81694 403.916229,175.427672 404.881367,173.698535 C405.106399,173.313696 405.336432,172.975249 405.471451,172.975249 C405.659478,172.975249 405.701484,173.21037 405.701484,173.840872 L405.701484,182.030026 C405.701484,184.249437 406.79764,184.829331 407.764778,184.829331 C409.034959,184.829331 409.865078,183.86249 410.687195,182.758583 C412.185409,180.677292 414.381722,176.981787 415.707911,174.611604 C416.169977,175.383389 416.668048,176.300676 417.086108,177.308637 C415.985951,178.708816 414.886794,180.293508 414.886794,181.980471 C414.886794,183.765489 416.076964,184.829331 417.31014,184.829331 C419.408439,184.829331 421.329713,182.702702 421.329713,179.767386 C421.329713,178.616033 421.011668,177.406691 420.60261,176.255339 C422.465875,174.322711 424.710195,172.443856 426.365432,172.009463 C425.576319,173.166087 424.941228,174.805605 424.941228,176.919581 Z M351.774791,189.548611 C351.774791,194.167728 350.312582,199.567066 347.799224,199.523837 C346.828085,199.523837 346.013969,198.497952 345.969963,196.727695 C345.87895,190.9509 348.482321,186.033401 351.082692,182.513973 C351.451745,185.065506 351.774791,187.575918 351.774791,189.548611 Z M418.227271,181.401632 C418.227271,182.175526 417.949231,182.951529 417.446159,182.951529 C417.086108,182.951529 416.717055,182.513973 416.717055,181.839188 C416.717055,181.113794 417.31014,179.956115 417.809211,179.231775 C418.086251,180.060496 418.227271,180.731064 418.227271,181.401632 Z M351.271719,160.30299 C350.402595,162.804968 349.574477,166.365515 349.574477,170.656729 C349.574477,173.21037 350.174562,176.586405 350.682635,180.007778 L349.215426,182.086961 C346.885093,179.0926 345.421884,175.723945 345.421884,169.940824 C345.421884,161.750616 350.131556,156.069766 352.547901,156.069766 C352.691922,156.069766 352.733928,156.112995 352.733928,156.251115 C352.733928,156.545279 352.090836,157.891687 351.271719,160.30299 Z" id="Fill-1"></path>
            <path d="M187.195671,174.997918 L189.41411,174.997918 C190.137517,174.997918 190.724272,174.781455 191.174393,174.348525 C191.624513,173.915594 191.84957,173.336889 191.84957,172.612393 C191.84957,171.870226 191.628532,171.282686 191.186449,170.849756 C190.744367,170.416825 190.153593,170.200363 189.41411,170.200363 L187.195671,170.200363 L187.195671,174.997918 Z M189.799925,178.60271 L187.171557,178.60271 L187.171557,185.361696 L183.36163,185.361696 L183.36163,166.569064 L189.799925,166.569064 C191.536103,166.569064 192.946727,167.134516 194.031838,168.265437 C195.11695,169.396358 195.659497,170.836494 195.659497,172.585887 C195.659497,174.370622 195.11695,175.819593 194.031838,176.932843 C192.946727,178.046093 191.536103,178.60271 189.799925,178.60271 Z M207.523322,185.361696 L206.293535,181.544857 L199.686446,181.544857 L198.456659,185.361696 L194.453824,185.361696 L200.892119,166.569064 L205.304883,166.569064 L211.670838,185.361696 L207.523322,185.361696 Z M203.038218,171.23409 L200.940346,177.728018 L205.087862,177.728018 L203.038218,171.23409 Z M221.267997,185.361696 L218.205587,178.364158 L216.855233,178.364158 L216.855233,185.361696 L213.045306,185.361696 L213.045306,166.569064 L219.82119,166.569064 C221.476989,166.569064 222.815273,167.125681 223.836081,168.238932 C224.85689,169.352182 225.367287,170.756977 225.367287,172.453358 C225.367287,173.725644 225.06989,174.825625 224.475088,175.753334 C223.880287,176.681042 223.052399,177.348099 221.991401,177.754524 L225.46374,185.361696 L221.267997,185.361696 Z M216.855233,174.759365 L219.097786,174.759365 C219.86942,174.759365 220.464213,174.551738 220.882182,174.136478 C221.300151,173.721218 221.509132,173.169019 221.509132,172.479864 C221.509132,171.773038 221.300151,171.216422 220.882182,170.809997 C220.464213,170.403572 219.86942,170.200363 219.097786,170.200363 L216.855233,170.200363 L216.855233,174.759365 Z M240.414089,170.571444 L235.13324,170.571444 L235.13324,185.361696 L231.323312,185.361696 L231.323312,170.571444 L226.066577,170.571444 L226.066577,166.569064 L240.414089,166.569064 L240.414089,170.571444 Z M250.180042,175.952127 C250.180042,177.789874 250.674363,179.194669 251.66302,180.166554 C252.651678,181.138439 253.805093,181.624374 255.123303,181.624374 C256.441512,181.624374 257.590909,181.138439 258.571528,180.166554 C259.552147,179.194669 260.04245,177.789874 260.04245,175.952127 C260.04245,174.114381 259.552147,172.705168 258.571528,171.724448 C257.590909,170.743727 256.441512,170.253374 255.123303,170.253374 C253.805093,170.253374 252.651678,170.743727 251.66302,171.724448 C250.674363,172.705168 250.180042,174.114381 250.180042,175.952127 Z M246.225434,175.978633 C246.225434,173.062978 247.089491,170.699565 248.817632,168.888324 C250.545772,167.077084 252.647641,166.171477 255.123303,166.171477 C257.598964,166.171477 259.696815,167.081501 261.416917,168.901577 C263.13702,170.721653 263.997058,173.080648 263.997058,175.978633 C263.997058,178.876618 263.13702,181.231196 261.416917,183.042436 C259.696815,184.853677 257.598964,185.759283 255.123303,185.759283 C252.647641,185.759283 250.545772,184.853677 248.817632,183.042436 C247.089491,181.231196 246.225434,178.876618 246.225434,175.978633 Z M269.832517,185.361696 L265.998476,185.361696 L265.998476,166.569064 L277.018329,166.569064 L277.018329,170.544939 L269.808403,170.544939 L269.808403,174.520813 L276.150245,174.520813 L276.150245,178.337652 L269.832517,178.337652 L269.832517,185.361696 Z M297.128959,170.571444 L291.84811,170.571444 L291.84811,185.361696 L288.038183,185.361696 L288.038183,170.571444 L282.781447,170.571444 L282.781447,166.569064 L297.128959,166.569064 L297.128959,170.571444 Z M313.188527,185.361696 L309.354486,185.361696 L309.354486,177.887053 L302.530376,177.887053 L302.530376,185.361696 L298.720448,185.361696 L298.720448,166.569064 L302.530376,166.569064 L302.530376,173.937684 L309.354486,173.937684 L309.354486,166.569064 L313.188527,166.569064 L313.188527,185.361696 Z M327.005543,185.361696 L316.154484,185.361696 L316.154484,166.569064 L326.98143,166.569064 L326.98143,170.518433 L319.964411,170.518433 L319.964411,174.096719 L326.330366,174.096719 L326.330366,177.781029 L319.964411,177.781029 L319.964411,181.385822 L327.005543,181.385822 L327.005543,185.361696 Z" id="Part-of-the"></path>
            <path d="M608.268551,185.361696 L604.520374,185.361696 L604.520374,166.569064 L615.293437,166.569064 L615.293437,170.544939 L608.244978,170.544939 L608.244978,174.520813 L614.444793,174.520813 L614.444793,178.337652 L608.268551,178.337652 L608.268551,185.361696 Z M627.480907,185.361696 L626.278661,181.544857 L619.819538,181.544857 L618.617292,185.361696 L614.704101,185.361696 L620.99821,166.569064 L625.31215,166.569064 L631.535539,185.361696 L627.480907,185.361696 Z M623.096247,171.23409 L621.045357,177.728018 L625.099989,177.728018 L623.096247,171.23409 Z M652.280169,185.361696 L648.626286,185.361696 L648.626286,172.903957 L644.265199,185.361696 L641.247798,185.361696 L636.886711,173.062992 L636.886711,185.361696 L633.350694,185.361696 L633.350694,166.569064 L638.206824,166.569064 L642.803645,179.265356 L647.164732,166.569064 L652.280169,166.569064 L652.280169,185.361696 Z M659.446496,185.361696 L655.674745,185.361696 L655.674745,166.569064 L659.446496,166.569064 L659.446496,185.361696 Z M673.755576,185.361696 L662.817498,185.361696 L662.817498,166.569064 L666.542102,166.569064 L666.542102,181.359316 L673.755576,181.359316 L673.755576,185.361696 Z M678.399544,177.515971 L672.600477,166.569064 L676.961564,166.569064 L680.379713,173.540097 L683.84501,166.569064 L687.993936,166.569064 L682.124148,177.515971 L682.124148,185.361696 L678.399544,185.361696 L678.399544,177.515971 Z M698.271957,175.952127 C698.271957,177.789874 698.755207,179.194669 699.721723,180.166554 C700.688239,181.138439 701.815825,181.624374 703.104513,181.624374 C704.393201,181.624374 705.516857,181.138439 706.475515,180.166554 C707.434173,179.194669 707.913495,177.789874 707.913495,175.952127 C707.913495,174.114381 707.434173,172.705168 706.475515,171.724448 C705.516857,170.743727 704.393201,170.253374 703.104513,170.253374 C701.815825,170.253374 700.688239,170.743727 699.721723,171.724448 C698.755207,172.705168 698.271957,174.114381 698.271957,175.952127 Z M694.405912,175.978633 C694.405912,173.062978 695.250619,170.699565 696.940057,168.888324 C698.629496,167.077084 700.684294,166.171477 703.104513,166.171477 C705.524731,166.171477 707.575601,167.081501 709.257181,168.901577 C710.938762,170.721653 711.77954,173.080648 711.77954,175.978633 C711.77954,178.876618 710.938762,181.231196 709.257181,183.042436 C707.575601,184.853677 705.524731,185.759283 703.104513,185.759283 C700.684294,185.759283 698.629496,184.853677 696.940057,183.042436 C695.250619,181.231196 694.405912,178.876618 694.405912,175.978633 Z M717.955782,185.361696 L714.207604,185.361696 L714.207604,166.569064 L724.980668,166.569064 L724.980668,170.544939 L717.932208,170.544939 L717.932208,174.520813 L724.132024,174.520813 L724.132024,178.337652 L717.955782,178.337652 L717.955782,185.361696 Z M740.633434,185.759283 C738.181784,185.759283 736.123057,184.853677 734.457192,183.042436 C732.791327,181.231196 731.958407,178.885453 731.958407,176.005139 C731.958407,173.142495 732.799185,170.787918 734.480765,168.941336 C736.162346,167.094754 738.1975,166.171477 740.586287,166.171477 C741.780681,166.171477 742.86112,166.370269 743.827636,166.767858 C744.794152,167.165448 745.575996,167.691141 746.173193,168.344955 C746.77039,168.998769 747.249712,169.670243 747.611173,170.359398 C747.972634,171.048553 748.224082,171.764203 748.365523,172.50637 L744.85308,173.752144 C744.774502,173.38106 744.648778,173.0144 744.475905,172.652152 C744.303032,172.289904 744.059443,171.918826 743.745128,171.538907 C743.430814,171.158988 742.998639,170.849757 742.448589,170.611203 C741.898539,170.37265 741.277778,170.253374 740.586287,170.253374 C739.329031,170.253374 738.22109,170.752563 737.262432,171.750954 C736.303773,172.749345 735.824452,174.167392 735.824452,176.005139 C735.824452,177.70152 736.295916,179.053304 737.238858,180.060531 C738.181801,181.067757 739.313315,181.571363 740.633434,181.571363 C741.922122,181.571363 742.920054,181.20912 743.627261,180.484624 C744.334468,179.760128 744.798074,178.94729 745.018094,178.046088 L748.577684,179.185838 C748.420527,179.910334 748.165151,180.625985 747.811547,181.33281 C747.457944,182.039636 746.978622,182.737616 746.373567,183.426771 C745.768513,184.115926 744.967024,184.67696 743.969076,185.109891 C742.971129,185.542821 741.859259,185.759283 740.633434,185.759283 Z M753.645975,175.952127 C753.645975,177.789874 754.129225,179.194669 755.095741,180.166554 C756.062257,181.138439 757.189842,181.624374 758.47853,181.624374 C759.767218,181.624374 760.890875,181.138439 761.849533,180.166554 C762.808191,179.194669 763.287513,177.789874 763.287513,175.952127 C763.287513,174.114381 762.808191,172.705168 761.849533,171.724448 C760.890875,170.743727 759.767218,170.253374 758.47853,170.253374 C757.189842,170.253374 756.062257,170.743727 755.095741,171.724448 C754.129225,172.705168 753.645975,174.114381 753.645975,175.952127 Z M749.77993,175.978633 C749.77993,173.062978 750.624637,170.699565 752.314075,168.888324 C754.003514,167.077084 756.058311,166.171477 758.47853,166.171477 C760.898749,166.171477 762.949618,167.081501 764.631199,168.901577 C766.31278,170.721653 767.153557,173.080648 767.153557,175.978633 C767.153557,178.876618 766.31278,181.231196 764.631199,183.042436 C762.949618,184.853677 760.898749,185.759283 758.47853,185.759283 C756.058311,185.759283 754.003514,184.853677 752.314075,183.042436 C750.624637,181.231196 749.77993,178.876618 749.77993,175.978633 Z M788.511097,185.361696 L784.857213,185.361696 L784.857213,172.903957 L780.496126,185.361696 L777.478726,185.361696 L773.117639,173.062992 L773.117639,185.361696 L769.581622,185.361696 L769.581622,166.569064 L774.437751,166.569064 L779.034573,179.265356 L783.39566,166.569064 L788.511097,166.569064 L788.511097,185.361696 Z M795.65385,174.997918 L797.822607,174.997918 C798.529814,174.997918 799.103428,174.781455 799.543468,174.348525 C799.983508,173.915594 800.203525,173.336889 800.203525,172.612393 C800.203525,171.870226 799.987437,171.282686 799.555255,170.849756 C799.123073,170.416825 798.545529,170.200363 797.822607,170.200363 L795.65385,170.200363 L795.65385,174.997918 Z M798.199782,178.60271 L795.630277,178.60271 L795.630277,185.361696 L791.905673,185.361696 L791.905673,166.569064 L798.199782,166.569064 C799.897078,166.569064 801.276111,167.134516 802.336921,168.265437 C803.397732,169.396358 803.928129,170.836494 803.928129,172.585887 C803.928129,174.370622 803.397732,175.819593 802.336921,176.932843 C801.276111,178.046093 799.897078,178.60271 798.199782,178.60271 Z M815.997732,185.361696 L814.795486,181.544857 L808.336363,181.544857 L807.134117,185.361696 L803.220925,185.361696 L809.515035,166.569064 L813.828975,166.569064 L820.052364,185.361696 L815.997732,185.361696 Z M811.613071,171.23409 L809.562182,177.728018 L813.616814,177.728018 L811.613071,171.23409 Z M836.38876,185.361696 L832.451995,185.361696 L825.568549,173.009981 L825.568549,185.361696 L821.867519,185.361696 L821.867519,166.569064 L826.39362,166.569064 L832.664156,177.993076 L832.664156,166.569064 L836.38876,166.569064 L836.38876,185.361696 Z M843.531513,185.361696 L839.759762,185.361696 L839.759762,166.569064 L843.531513,166.569064 L843.531513,185.361696 Z M857.510565,185.361696 L846.902515,185.361696 L846.902515,166.569064 L857.486991,166.569064 L857.486991,170.518433 L850.627119,170.518433 L850.627119,174.096719 L856.850508,174.096719 L856.850508,177.781029 L850.627119,177.781029 L850.627119,181.385822 L857.510565,181.385822 L857.510565,185.361696 Z M871.913939,171.181078 L868.56651,172.241312 C868.487931,171.65818 868.228626,171.119234 867.788586,170.624456 C867.348546,170.129678 866.680639,169.882293 865.784843,169.882293 C865.109068,169.882293 864.559026,170.081085 864.134702,170.478674 C863.710378,170.876263 863.498219,171.348946 863.498219,171.896736 C863.498219,172.868621 864.048261,173.469414 865.14836,173.699132 L867.387838,174.176237 C868.927977,174.494308 870.118424,175.1702 870.959214,176.203933 C871.800005,177.237665 872.220393,178.443668 872.220393,179.821978 C872.220393,181.394665 871.662494,182.777372 870.546679,183.97014 C869.430864,185.162908 867.930036,185.759283 866.044151,185.759283 C863.938246,185.759283 862.307766,185.145238 861.152662,183.917128 C859.997557,182.689019 859.349294,181.297477 859.207853,179.742461 L862.626002,178.814757 C862.704581,179.751301 863.030677,180.524379 863.6043,181.134017 C864.177923,181.743654 865.006914,182.048468 866.091298,182.048468 C866.814221,182.048468 867.387835,181.867346 867.81216,181.505098 C868.236484,181.14285 868.448642,180.670167 868.448642,180.087036 C868.448642,179.609929 868.291488,179.207928 867.977174,178.881021 C867.662859,178.554114 867.222826,178.328817 866.657061,178.205123 L864.370437,177.728018 C862.956023,177.427617 861.844154,176.782648 861.034795,175.793092 C860.225436,174.803537 859.820762,173.610786 859.820762,172.214806 C859.820762,170.483083 860.410092,169.042947 861.588771,167.894356 C862.767449,166.745764 864.173983,166.171477 865.808417,166.171477 C866.798506,166.171477 867.682502,166.326093 868.460429,166.635329 C869.238357,166.944565 869.855189,167.355401 870.310944,167.86785 C870.7667,168.380299 871.124227,168.91041 871.383536,169.4582 C871.642845,170.005989 871.819644,170.580277 871.913939,171.181078 Z" id="Family-of-Companies"></path>
            <path d="M570.290857,170.471794 C570.885081,170.471794 571.816978,171.145525 572.323995,172.487716 C572.143497,172.487716 571.866665,172.547814 571.671971,172.547814 C570.569717,172.547814 569.644918,171.997442 569.644918,171.145525 C569.644918,170.709023 569.914651,170.471794 570.290857,170.471794 Z M503.283521,170.471794 C503.887885,170.471794 504.777192,171.145525 505.280153,172.487716 C503.563394,172.487716 502.634539,172.101823 502.634539,171.145525 C502.634539,170.709023 502.919483,170.471794 503.283521,170.471794 Z M515.567523,164.206833 C515.567523,157.023532 516.901991,155.92068 517.325857,155.92068 C518.064074,155.92068 518.159393,156.401464 518.159393,159.155432 C518.159393,161.986368 516.995282,165.690307 515.567523,167.724152 L515.567523,164.206833 Z M486.981918,188.825957 C486.981918,193.445074 485.502443,198.844411 482.947078,198.801183 C481.973606,198.801183 481.141085,197.775298 481.093425,196.005041 C480.99912,190.228245 483.642705,185.310747 486.285277,181.791319 C486.644245,184.342852 486.981918,186.853264 486.981918,188.825957 Z M554.35025,180.678978 C554.35025,181.452872 554.073419,182.228875 553.562346,182.228875 C553.197294,182.228875 552.813989,181.791319 552.813989,181.116534 C552.813989,180.39114 553.426466,179.233461 553.938552,178.509121 C554.21944,179.337842 554.35025,180.00841 554.35025,180.678978 Z M486.464761,159.580336 C485.587622,162.082314 484.75003,165.642861 484.75003,169.934075 C484.75003,172.487716 485.365548,175.863751 485.870537,179.285124 L484.384978,181.364307 C482.026336,178.369946 480.535706,175.001291 480.535706,169.218169 C480.535706,161.027962 485.316875,155.347112 487.770836,155.347112 C487.905702,155.347112 487.944236,155.39034 487.944236,155.528461 C487.944236,155.822625 487.301338,157.169033 486.464761,159.580336 Z M483.275625,183.088172 C480.81558,187.186439 478.870663,192.047003 478.870663,196.38988 C478.870663,199.516034 479.572375,201.884109 481.797164,201.884109 C486.422171,201.884109 489.897264,191.865654 489.897264,184.439852 C489.897264,182.228875 489.809043,180.00841 489.620433,177.79427 C491.335164,175.905925 493.971651,173.357556 494.624689,173.118218 C494.347857,174.132505 494.158233,175.195292 494.158233,176.196927 C494.158233,180.244585 496.384037,184.106677 500.695707,184.106677 C504.723449,184.106677 507.783802,180.678978 507.783802,175.905925 C507.783802,175.290184 507.73817,174.749301 507.687469,174.173625 C509.17607,173.88895 510.524734,173.493568 511.813571,172.686988 L511.813571,182.369104 C511.813571,183.616403 512.646093,184.106677 513.427912,184.106677 C514.503802,184.106677 515.062535,183.332782 515.846382,181.558307 C516.491308,180.10541 518.25674,176.784201 519.326546,174.802019 C520.156025,173.258447 520.61741,172.252595 521.001729,172.252595 C521.086908,172.252595 521.176143,172.487716 521.176143,173.063392 L521.176143,181.307372 C521.176143,183.526783 522.281439,184.106677 523.25694,184.106677 C524.188836,184.106677 524.784074,183.576337 525.39655,182.706497 C527.802852,179.138569 530.35416,174.906399 531.36718,173.063392 C531.551734,172.738651 531.79206,172.487716 531.967488,172.487716 C532.147986,172.487716 532.251417,172.591042 532.251417,173.208892 L532.251417,181.841928 C532.251417,183.382337 532.710774,184.106677 533.864744,184.106677 C534.93455,184.106677 535.626121,183.332782 536.045931,182.418659 C537.578135,179.094286 539.846528,174.705018 540.818986,172.975881 C541.052214,172.591042 541.286456,172.252595 541.427407,172.252595 C541.609933,172.252595 541.660634,172.487716 541.660634,173.118218 L541.660634,181.307372 C541.660634,183.526783 542.759847,184.106677 543.735347,184.106677 C545.041422,184.106677 545.876986,183.139836 546.702409,182.035929 C548.2336,179.954638 550.462445,176.259133 551.804012,173.88895 C552.264383,174.660735 552.779512,175.578022 553.197294,176.585982 C552.074759,177.986162 550.973518,179.570854 550.973518,181.257817 C550.973518,183.042835 552.163994,184.106677 553.426466,184.106677 C555.553908,184.106677 557.499838,181.980048 557.499838,179.044732 C557.499838,177.893379 557.172305,176.684037 556.760608,175.532685 C558.655836,173.600057 560.927272,171.721201 562.596371,171.286808 C561.806439,172.443433 561.159485,174.08295 561.159485,176.196927 C561.159485,180.244585 563.387317,184.106677 567.694931,184.106677 C571.866665,184.106677 574.776942,180.678978 574.776942,175.905925 C574.776942,174.517343 574.735366,174.324397 574.647145,173.751884 C575.609463,173.312219 576.452125,172.638488 577.107191,172.101823 C577.648685,171.668484 578.073565,171.424929 578.395013,171.424929 C578.811781,171.424929 579.011546,171.76443 579.011546,172.390715 L579.011546,181.841928 C579.011546,183.382337 579.468875,184.106677 580.621831,184.106677 C581.68758,184.106677 582.431881,183.332782 582.849663,182.418659 C584.371727,179.094286 586.597531,174.660735 587.567961,172.975881 C587.79916,172.591042 587.989799,172.295823 588.127707,172.295823 C588.315304,172.295823 588.409609,172.443433 588.409609,173.063392 L588.409609,180.592521 C588.409609,182.706497 589.328323,184.106677 591.367544,184.106677 C593.509183,184.106677 594.569862,181.980048 596.426558,178.707339 C596.515793,178.509121 596.561424,178.369946 596.561424,178.228663 C596.561424,177.79427 596.18826,177.54966 595.819152,177.54966 C595.403398,177.54966 595.168142,177.986162 593.780944,179.570854 C593.509183,179.872398 593.227282,180.289922 592.718237,180.289922 C592.526585,180.289922 592.39476,180.059019 592.39476,179.768017 L592.39476,171.327928 C592.39476,169.062125 591.412162,168.149056 590.159831,168.149056 C589.150867,168.149056 588.315304,168.581341 587.43208,169.934075 C585.854244,172.347487 584.239903,175.770968 583.359722,177.495888 C583.263388,177.699378 583.127508,177.986162 583.028133,177.986162 C582.927743,177.986162 582.895294,177.839607 582.895294,177.495888 L582.895294,171.327928 C582.895294,169.55029 582.431881,168.149056 580.621831,168.149056 C578.720518,168.149056 577.751102,169.498627 576.363904,170.509751 C575.471555,171.190862 574.690749,171.668484 574.085371,171.956322 C573.165642,169.498627 571.444828,168.2566 570.01504,168.294557 C568.570042,168.34622 567.562093,169.264561 567.562093,170.807078 C567.562093,172.390715 568.484864,173.493568 569.730097,173.983841 C570.423696,174.271679 571.075719,174.324397 572.011672,174.324397 C572.282419,174.324397 572.552152,174.324397 572.747861,174.271679 C572.842166,174.749301 572.794506,175.43463 572.794506,175.96286 C572.794506,178.326718 571.444828,180.678978 568.940165,180.678978 C566.347281,180.678978 564.825217,178.08 564.825217,175.094074 C564.825217,172.825108 565.469128,170.948361 566.529807,169.653617 C566.951645,169.16756 567.279178,168.875505 567.279178,168.433731 C567.279178,168.207046 566.951645,168.149056 566.674814,168.149056 C564.92155,168.149056 562.971563,168.972505 561.625941,169.689465 C559.86355,170.654197 557.779712,172.252595 556.067009,173.840449 C555.235501,171.908876 554.21944,170.221913 553.699241,168.919788 C553.511644,168.38734 553.386918,167.76949 553.001585,167.76949 C552.680137,167.76949 552.539186,168.108991 552.310015,168.772178 C551.474451,171.327928 547.030956,178.803285 546.057484,179.815463 C545.965207,179.954638 545.823242,180.10541 545.776596,180.10541 C545.690404,180.10541 545.637674,180.059019 545.637674,179.768017 L545.637674,171.327928 C545.637674,169.062125 544.764591,168.149056 543.547751,168.149056 C542.528647,168.149056 541.660634,168.581341 540.818986,169.934075 C539.287796,172.347487 537.434143,175.863751 536.552947,177.594998 C536.418081,177.893379 536.285243,177.986162 536.239611,177.986162 C536.186881,177.986162 536.14125,177.79427 536.14125,177.495888 L536.14125,171.327928 C536.14125,169.062125 535.265125,168.149056 534.059439,168.149056 C533.035265,168.149056 532.056723,168.543384 531.278959,169.934075 C529.32593,173.357556 526.088121,178.610339 525.479701,179.473853 C525.39655,179.622517 525.297175,179.720572 525.198814,179.768017 C525.118705,179.768017 525.063947,179.668908 525.063947,179.427462 L525.063947,171.327928 C525.063947,169.062125 524.188836,168.149056 522.97808,168.149056 C521.304925,168.149056 520.384183,169.747454 519.776776,170.755415 C518.945269,172.152432 517.840986,174.03445 516.953707,175.770968 C516.355427,176.930756 515.846382,177.986162 515.6598,177.986162 C515.567523,177.986162 515.567523,177.54966 515.567523,176.729374 L515.567523,170.275685 C518.489968,166.896486 520.289877,162.760262 520.289877,158.228657 C520.289877,155.622298 519.180525,154.183107 517.462752,154.183107 C514.265504,154.183107 511.813571,159.386335 511.813571,165.549024 L511.813571,170.561414 C510.326998,171.526146 508.935744,171.997442 507.223041,172.347487 C506.34793,169.653617 504.490221,168.2566 503.01683,168.294557 C501.572846,168.34622 500.552729,169.264561 500.552729,170.807078 C500.552729,173.357556 502.95903,174.418234 505.093571,174.418234 L505.699963,174.418234 C505.785142,174.906399 505.785142,175.43463 505.785142,175.96286 C505.785142,178.326718 504.448645,180.678978 501.942969,180.678978 C499.346029,180.678978 497.824978,178.08 497.824978,175.094074 C497.824978,172.825108 498.472946,170.948361 499.530583,169.653617 C499.946337,169.16756 500.273869,168.735276 500.273869,168.433731 C500.273869,168.207046 499.946337,168.149056 499.673562,168.149056 C497.909143,168.149056 494.01931,170.617295 489.382135,175.43463 C488.974494,171.579918 488.501954,167.814827 488.501954,164.153062 C488.501954,160.059012 489.291886,156.581758 489.479482,155.581178 C489.569731,154.958056 489.620433,154.567946 489.620433,154.284325 C489.620433,153.895269 489.429795,153.698105 488.932918,153.698105 C485.178966,153.698105 476.924733,159.920892 476.924733,169.218169 C476.924733,173.015946 477.715679,175.724577 479.105919,178.08 C478.58572,177.986162 478.180107,177.986162 477.79883,177.986162 C476.320369,177.986162 474.928101,178.369946 474.061102,178.563947 L474.061102,177.594998 C474.061102,175.532685 473.591605,172.686988 472.756041,171.721201 C472.656666,171.622092 472.518757,171.579918 472.386933,171.579918 C472.008698,171.579918 471.550355,171.76443 471.04131,172.05754 C470.483592,172.347487 469.925874,172.638488 469.925874,172.825108 C469.925874,172.921054 469.925874,173.015946 470.064796,173.258447 C470.393343,173.751884 471.273524,174.705018 471.591931,176.973984 C470.015109,175.336575 468.217227,174.609072 465.861627,174.609072 C463.077091,174.609072 462.238485,175.905925 462.238485,177.214376 C462.238485,179.720572 465.435733,180.971033 469.472601,180.971033 C470.209803,180.971033 471.04131,180.826587 471.873832,180.629423 C471.873832,181.400155 471.969151,182.085483 471.969151,182.660105 C471.969151,183.479337 472.10199,184.106677 472.618133,184.106677 C473.401981,184.106677 473.868436,182.46505 473.958685,180.10541 C475.394556,179.720572 476.879102,179.386342 478.135489,179.386342 C478.732755,179.386342 479.482126,179.473853 480.219328,179.622517 C481.045765,180.779141 482.065883,181.885157 483.275625,183.088172 Z M469.009187,179.233461 C467.198123,179.233461 465.861627,178.509121 465.861627,177.457932 C465.861627,176.784201 466.182062,176.391982 467.107874,176.391982 C468.593433,176.391982 469.793035,177.457932 471.089984,179.138569 C470.31222,179.233461 469.834611,179.233461 469.009187,179.233461 Z" id="Fill-2"></path>
            <g id="BWI-PMS320-Logo-(1)" transform="translate(0.000000, 2.865025)">
                <path d="M198.446098,57.1415409 C198.446098,51.1730972 198.446098,50.196885 204.848609,50.196885 C214.938357,50.196885 220.299725,52.9136038 220.299725,65.3125418 C220.299725,75.8563291 215.955288,82.054061 202.064156,82.054061 C199.376555,82.054061 198.446098,82.054061 198.446098,77.725376 L198.446098,57.1415409 Z M183.36163,128.926146 L209.085819,128.926146 C219.843144,128.926146 232.067063,123.728945 232.067063,104.260285 C232.067063,94.5884876 229.476312,89.3773901 223.281337,86.5217086 C218.079081,84.2878848 215.682031,84.7950983 215.682031,83.0545918 C215.682031,81.8074024 217.999525,81.4356775 219.75667,79.8376076 C223.163733,76.7213713 228.819112,74.6126138 228.819112,62.5923489 C228.819112,46.4657392 218.83659,45.8404075 209.756855,45.8404075 L183.36163,45.8404075 L183.36163,48.327838 L187.792541,50.196885 C190.760318,51.4197559 190.760318,53.5250393 190.760318,61.9670172 L190.760318,112.80301 C190.760318,122.606822 190.670385,123.232153 187.792541,124.475869 L183.36163,126.449138 L183.36163,128.926146 Z M198.446098,92.476256 C198.446098,87.2616845 198.446098,86.7683672 205.872457,86.7683672 C215.221991,86.7683672 223.360893,91.2325408 223.360893,106.483686 C223.360893,120.258354 219.009538,124.215314 209.552777,124.215314 C199.002988,124.215314 198.446098,120.133287 198.446098,112.076931 L198.446098,92.476256 L198.446098,92.476256 Z" id="Fill-1"></path>
                <path d="M240.842846,126.466369 L244.785542,124.755219 C247.414005,123.516706 247.414005,122.909524 247.414005,116.482363 L247.414005,80.900113 C247.414005,75.6079692 247.348294,75.3733761 244.433985,74.3694557 L240.662139,73.0205455 L240.662139,71.0575534 L253.590895,68.3493833 L254.119874,69.2049581 L254.119874,116.482363 C254.119874,122.771528 254.119874,123.516706 256.856761,124.755219 L260.717317,126.466369 L260.717317,128.926146 L240.842846,128.926146 L240.842846,126.466369 Z M246.277195,49.381843 C246.277195,45.4455091 248.143404,42.975382 250.870435,42.975382 C253.498899,42.975382 255.440677,45.4455091 255.440677,49.381843 C255.440677,53.4423732 253.498899,55.7848541 250.870435,55.7848541 C248.143404,55.7848541 246.277195,53.4423732 246.277195,49.381843 L246.277195,49.381843 Z" id="Fill-2"></path>
                <path d="M273.925917,97.6849542 C273.925917,82.492405 277.283771,73.7209491 285.600081,73.7209491 C294.992538,73.7209491 299.089393,84.3408491 299.089393,99.907241 C299.089393,115.349019 296.824714,126.834295 287.146192,126.834295 C278.659606,126.834295 273.925917,118.076685 273.925917,97.6849542 Z M284.878108,131.791171 C299.011066,131.791171 306.557725,120.053205 306.557725,96.705348 C306.557725,77.2966847 299.35843,68.7606112 287.697888,68.7606112 C277.205444,68.7606112 266.447368,77.0509177 266.447368,99.6614741 C266.447368,118.924754 271.657832,131.791171 284.878108,131.791171 L284.878108,131.791171 Z" id="Fill-3"></path>
                <path d="M343.542687,87.6742792 C342.592727,82.8558631 340.228461,73.7209491 332.625235,73.7209491 C328.371683,73.7209491 325.036189,77.0509177 325.036189,82.6239422 C325.036189,99.1595557 349.533107,89.4084937 349.533107,110.783292 C349.533107,125.480846 340.132756,131.791171 330.92027,131.791171 C325.805373,131.791171 318.017827,127.851978 318.017827,122.780872 C318.017827,121.777035 318.397102,121.039734 318.684217,119.925129 L321.048483,111.648669 L322.466334,111.648669 C323.228429,116.705929 325.897533,126.834295 334.801636,126.834295 C339.742847,126.834295 343.071252,122.780872 343.071252,115.840552 C343.071252,97.4391873 319.141474,109.554458 319.141474,85.6977594 C319.141474,74.0809457 327.97114,68.7606112 336.042256,68.7606112 C340.132756,68.7606112 347.530393,71.2390494 347.530393,75.5590087 C347.530393,76.8051508 347.338983,78.1585996 347.165296,78.8924389 L345.063332,87.6742792 L343.542687,87.6742792" id="Fill-4"></path>
                <path d="M369.523032,94.2338329 C366.912362,94.2338329 365.901333,94.2338329 365.901333,90.1457944 C365.901333,83.3473969 368.671275,73.7209491 376.28169,73.7209491 C383.611649,73.7209491 388.053943,82.6239422 388.053943,91.0250169 C388.053943,93.8565287 387.219498,94.2338329 384.896209,94.2338329 L369.523032,94.2338329 Z M393.704624,123.130484 L392.873642,121.039734 C390.086388,123.268944 386.288105,125.12085 381.561892,125.12085 C368.110361,125.12085 365.703974,109.554458 365.703974,102.87029 C365.703974,99.1595557 367.196281,99.1595557 369.886587,99.1595557 L391.848763,99.1595557 C393.34107,99.1595557 393.420705,99.1595557 394.362486,98.2976407 C395.193468,97.56034 395.373514,97.4391873 395.373514,94.7184437 C395.373514,71.619815 385.093568,68.7606112 379.14858,68.7606112 C367.473275,68.7606112 358.128183,79.6470471 358.128183,99.1595557 C358.128183,120.174358 364.966477,131.791171 377.292719,131.791171 C381.75925,131.791171 386.75207,130.174648 389.075359,127.851978 L393.704624,123.130484 L393.704624,123.130484 Z" id="Fill-5"></path>
                <path d="M403.968591,129.258154 L408.057699,127.496056 C410.93047,126.220665 410.93047,125.4533 410.93047,118.976876 L410.93047,82.3351671 C410.93047,77.016897 410.93047,76.7611084 408.057699,75.61006 L404.335917,74.2209861 L404.335917,72.1995461 L416.859677,69.4107404 C417.514627,71.5600747 417.878488,74.7325632 419.087894,74.7325632 C420.945319,74.7325632 424.556209,68.7606112 432.73096,68.7606112 C438.660166,68.7606112 445.736402,71.9473101 445.736402,89.0496164 L445.736402,118.976876 C445.736402,125.328958 445.736402,126.220665 448.598777,127.496056 L452.674024,129.258154 L452.674024,131.791171 L431.722544,131.791171 L431.722544,129.258154 L435.877493,127.496056 C438.660166,126.220665 438.660166,125.595405 438.660166,118.976876 L438.660166,93.3731533 C438.660166,82.2179307 436.917097,74.7325632 427.903733,74.7325632 C424.376011,74.7325632 417.972053,76.2495313 417.972053,87.2768597 L417.972053,118.976876 C417.972053,125.328958 417.972053,126.220665 420.75819,127.496056 L424.923536,129.258154 L424.923536,131.791171 L403.968591,131.791171 L403.968591,129.258154" id="Fill-6"></path>
                <path d="M481.081818,87.6742792 C480.120684,82.8558631 477.744447,73.7209491 470.133397,73.7209491 C465.866812,73.7209491 462.54008,77.0509177 462.54008,82.6239422 C462.54008,99.1595557 487.054329,89.4084937 487.054329,110.783292 C487.054329,125.480846 477.655782,131.791171 468.445205,131.791171 C463.320337,131.791171 455.539049,127.851978 455.539049,122.780872 C455.539049,121.777035 455.929178,121.039734 456.205814,119.925129 L458.560771,111.648669 L459.982966,111.648669 C460.749036,116.705929 463.409003,126.834295 472.321663,126.834295 C477.272747,126.834295 480.603025,122.780872 480.603025,115.840552 C480.603025,97.4391873 456.656235,109.554458 456.656235,85.6977594 C456.656235,74.0809457 465.49087,68.7606112 473.587807,68.7606112 C477.655782,68.7606112 485.057581,71.2390494 485.057581,75.5590087 C485.057581,76.8051508 484.876704,78.1585996 484.66036,78.8924389 L482.606866,87.6742792 L481.081818,87.6742792" id="Fill-7"></path>
                <path d="M509.932961,94.2338329 C507.334691,94.2338329 506.309241,94.2338329 506.309241,90.1457944 C506.309241,83.3473969 509.091121,73.7209491 516.674605,73.7209491 C523.994797,73.7209491 528.43957,82.6239422 528.43957,91.0250169 C528.43957,93.8565287 527.60466,94.2338329 525.293932,94.2338329 L509.932961,94.2338329 Z M534.100334,123.130484 L533.261959,121.039734 C530.476614,123.268944 526.665818,125.12085 521.957753,125.12085 C508.543753,125.12085 506.136023,109.554458 506.136023,102.87029 C506.136023,99.1595557 507.61184,99.1595557 510.310576,99.1595557 L532.246902,99.1595557 C533.733112,99.1595557 533.82665,99.1595557 534.755098,98.2976407 C535.58308,97.56034 535.759762,97.4391873 535.759762,94.7184437 C535.759762,71.619815 525.477543,68.7606112 519.543095,68.7606112 C507.90631,68.7606112 498.514431,79.6470471 498.514431,99.1595557 C498.514431,120.174358 505.387721,131.791171 517.696591,131.791171 C522.134436,131.791171 527.136971,130.174648 529.458092,127.851978 L534.100334,123.130484 L534.100334,123.130484 Z" id="Fill-8"></path>
                <path d="M574.336388,127.942986 C573.854258,126.073939 572.773997,120.859367 571.911238,116.655748 L563.464902,77.3432289 C559.582487,59.5004311 559.288859,53.0421442 554.260932,50.4226992 L550.08489,48.327838 L550.08489,45.8404075 L573.067625,45.8404075 L573.067625,48.327838 L569.283086,50.196885 C567.543069,51.1730972 566.19818,51.6664145 566.19818,53.1672106 C566.19818,55.5226266 569.283086,69.8983076 571.708236,80.5636871 L578.508806,111.319585 C578.994561,113.800067 579.197563,114.925664 579.973321,114.925664 C580.263324,114.925664 580.444576,114.540043 580.839705,113.553408 L587.933903,89.749115 C590.754182,80.1989103 594.625721,69.2903462 594.625721,65.9378735 C594.625721,64.3154851 594.219717,62.8390075 593.853588,61.2166192 L592.5957,56.2730247 C591.60244,52.5418789 591.029684,51.9234953 588.992414,50.67978 L585.019373,48.327838 L585.019373,45.8404075 L606.733345,45.8404075 L606.733345,48.327838 L603.039433,50.196885 C601.603918,50.9264386 600.335155,51.4197559 600.335155,53.0421442 C600.335155,54.52557 602.869056,64.4370774 605.109329,73.6259793 L614.142921,110.958282 C614.712052,113.678475 615.002055,114.925664 615.781438,114.925664 C616.249068,114.925664 616.45207,114.17874 616.742073,112.80301 L621.965752,88.998717 C624.111774,79.32692 629.056324,56.505787 629.056324,53.6640019 C629.056324,52.2917462 628.18994,51.6664145 626.558674,50.8083204 L621.193619,48.327838 L621.193619,45.8404075 L641.765705,45.8404075 L641.765705,48.327838 L638.477796,50.3011069 C636.632652,51.2981636 634.294503,59.604653 632.463859,66.927982 L621.298745,111.319585 C619.660228,118.017582 617.811459,125.469451 617.140827,127.942986 L616.368694,128.926146 L611.406018,128.926146 L610.532384,127.942986 C610.046629,126.073939 608.777866,120.99833 607.733856,116.655748 L598.413885,79.0733133 C597.826629,77.1035184 597.630877,76.7213713 597.137872,76.7213713 C596.46724,76.7213713 596.166362,77.2077404 595.778483,78.8266546 L586.18301,111.083348 C583.946362,118.514373 581.727839,125.469451 581.039082,127.942986 L580.444576,128.926146 L575.02152,128.926146 L574.336388,127.942986" id="Fill-9"></path>
                <path d="M647.414826,94.2338329 C644.833055,94.2338329 643.808652,94.2338329 643.808652,90.1457944 C643.808652,83.3473969 646.591151,73.7209491 654.19803,73.7209491 C661.528044,73.7209491 665.950971,82.6239422 665.950971,91.0250169 C665.950971,93.8565287 665.113453,94.2338329 662.812008,94.2338329 L647.414826,94.2338329 Z M671.616331,123.130484 L670.771891,121.039734 C667.999775,123.268944 664.206718,125.12085 659.4827,125.12085 C646.051263,125.12085 643.621768,109.554458 643.621768,102.87029 C643.621768,99.1595557 645.120303,99.1595557 647.809359,99.1595557 L669.757871,99.1595557 C671.235641,99.1595557 671.332544,99.1595557 672.266965,98.2976407 C673.104483,97.56034 673.280985,97.4391873 673.280985,94.7184437 C673.280985,71.619815 662.998892,68.7606112 657.084353,68.7606112 C645.407551,68.7606112 636.035654,79.6470471 636.035654,99.1595557 C636.035654,120.174358 642.881153,131.791171 655.21205,131.791171 C659.655741,131.791171 664.667007,130.174648 666.978834,127.851978 L671.616331,123.130484 L671.616331,123.130484 Z" id="Fill-10"></path>
                <path d="M690.149721,89.0250089 C690.149721,84.2673741 690.430419,81.5066846 691.168551,79.6323587 C692.651745,75.8872101 696.834492,73.8867613 701.013773,73.8867613 C710.467404,73.8867613 714.365987,84.7648587 714.365987,102.152297 C714.365987,118.523746 711.108504,126.774284 701.932106,126.774284 C700.261779,126.774284 693.573543,126.294316 691.639846,122.671787 C690.52745,120.527699 690.149721,118.408134 690.149721,113.787132 L690.149721,89.0250089 Z M684.213478,131.791171 L686.070937,130.540453 C686.646194,130.155078 687.190263,129.790723 687.831364,129.790723 C688.475929,129.790723 693.965134,131.791171 698.404321,131.791171 C704.347495,131.791171 710.845133,129.415857 715.017484,124.157235 C719.387362,118.768985 721.986418,111.156069 721.986418,96.8936745 C721.986418,77.6424201 715.942747,67.9975241 704.253929,67.9975241 C696.276561,67.9975241 693.764141,73.638019 691.265582,73.638019 C690.316061,73.638019 690.149721,72.6500565 690.149721,70.1311026 L690.149721,40.877604 L689.411589,40.1103565 L676.14601,42.871046 L676.14601,45.1132303 L680.120832,46.4970784 C683.000586,47.4920477 683.104548,48.7357594 683.104548,53.6300273 L683.104548,130.288207 L684.213478,131.791171 L684.213478,131.791171 Z" id="Fill-11"></path>
                <path d="M756.128482,87.6742792 C755.149724,82.8558631 752.791486,73.7209491 745.188385,73.7209491 C740.925825,73.7209491 737.603015,77.0509177 737.603015,82.6239422 C737.603015,99.1595557 762.096774,89.4084937 762.096774,110.783292 C762.096774,125.480846 752.685099,131.791171 743.49329,131.791171 C738.354814,131.791171 730.581494,127.851978 730.581494,122.780872 C730.581494,121.777035 730.939663,121.039734 731.241091,119.925129 L733.613514,111.648669 L735.042642,111.648669 C735.80508,116.705929 738.44347,126.834295 747.390589,126.834295 C752.316292,126.834295 755.63201,122.780872 755.63201,115.840552 C755.63201,97.4391873 731.705647,109.554458 731.705647,85.6977594 C731.705647,74.0809457 740.542833,68.7606112 748.617582,68.7606112 C752.685099,68.7606112 760.089612,71.2390494 760.089612,75.5590087 C760.089612,76.8051508 759.92294,78.1585996 759.73499,78.8924389 L757.621441,87.6742792 L756.128482,87.6742792" id="Fill-12"></path>
                <path d="M792.743818,132.993093 C790.136792,134.389103 789.584102,134.656197 787.554097,134.656197 C779.733018,134.656197 777.397123,131.219591 777.397123,119.777295 L777.397123,80.6142312 C777.397123,77.8293338 777.028663,76.9354601 774.97085,76.3051189 L770.691851,75.0266302 L770.691851,72.4838979 L775.433163,71.2303379 C778.040189,70.5928742 778.040189,69.6990005 778.700636,66.127067 L781.022627,54.4354839 L783.066536,54.4354839 L784.748937,67.4019944 C785.030496,70.461108 785.308579,70.461108 788.857611,71.2303379 L794.69735,72.4838979 L794.69735,75.0266302 L788.857611,76.3051189 C784.467378,77.3165139 784.467378,77.7118126 784.467378,82.6726336 L784.467378,112.537274 C784.467378,123.844243 786.038546,129.068596 792.945428,129.068596 C793.769248,129.068596 795.173567,128.79438 796.004339,128.687542 L796.47708,130.95962 L792.743818,132.993093" id="Fill-13"></path>
                <path d="M810.743102,94.2338329 C808.161091,94.2338329 807.143516,94.2338329 807.143516,90.1457944 C807.143516,83.3473969 809.926272,73.7209491 817.499247,73.7209491 C824.829943,73.7209491 829.294814,82.6239422 829.294814,91.0250169 C829.294814,93.8565287 828.457218,94.2338329 826.124409,94.2338329 L810.743102,94.2338329 Z M834.946856,123.130484 L834.105799,121.039734 C831.329964,123.268944 827.501943,125.12085 822.791331,125.12085 C809.351723,125.12085 806.963536,109.554458 806.963536,102.87029 C806.963536,99.1595557 808.424137,99.1595557 811.099599,99.1595557 L833.084762,99.1595557 C834.559208,99.1595557 834.663042,99.1595557 835.5664,98.2976407 C836.41784,97.56034 836.587436,97.4391873 836.587436,94.7184437 C836.587436,71.619815 826.318233,68.7606112 820.385838,68.7606112 C808.70449,68.7606112 799.342105,79.6470471 799.342105,99.1595557 C799.342105,120.174358 806.21593,131.791171 818.523745,131.791171 C822.97131,131.791171 827.983041,130.174648 830.31585,127.851978 L834.946856,123.130484 L834.946856,123.130484 Z" id="Fill-14"></path>
                <path d="M842.317487,129.258154 L846.477815,127.496056 C849.397468,126.220665 849.397468,125.4533 849.397468,118.976876 L849.397468,82.2179307 C849.397468,77.016897 849.309101,76.7611084 846.477815,75.61006 L842.603797,74.2209861 L842.603797,72.1995461 L855.569033,69.4107404 C856.131049,72.1995461 856.417359,75.2405876 857.544924,75.2405876 C858.131682,75.2405876 860.757956,72.8319122 863.511478,70.4196841 C864.73448,69.4107404 866.530102,68.7606112 867.96872,68.7606112 C870.789401,68.7606112 873.832767,70.2917898 873.832767,73.215595 C873.832767,73.9651975 873.539388,74.7325632 873.451021,75.3684819 L871.25598,82.9888489 L869.842104,82.9888489 C868.997314,79.681361 868.424694,76.7611084 863.797788,76.7611084 C857.912532,76.7611084 856.587024,80.9425406 856.587024,86.5272571 L856.587024,118.976876 C856.587024,125.968429 856.587024,126.476454 859.633925,127.496056 L864.465844,129.258154 L864.465844,131.791171 L842.317487,131.791171 L842.317487,129.258154" id="Fill-15"></path>
                <path d="M117.39313,154.711375 C99.4634742,153.179468 75.1137041,145.297043 52.3534683,129.408367 C14.9738915,103.312871 -8.42799116,68.804266 2.84457797,52.5264219 C11.7693028,39.6484927 28.0438011,42.1391691 46.1083483,46.4801634 L46.0062681,46.7207401 C34.5951616,46.4094056 18.8091899,46.4872392 12.093772,55.590237 C1.12379769,70.4670755 28.8203396,106.783544 63.1302193,130.738615 C81.8509963,143.804052 100.655625,151.71478 117.466044,154.477874 L117.39313,154.711375" id="Fill-16"></path>
                <path d="M122.517386,151.84635 C133.519935,134.940367 142.321974,106.920947 143.192627,75.5091494 C143.931028,48.6251789 137.619716,26.8315196 128.608279,13.2759893 C121.106708,1.99485338 111.621372,-1.92856429 100.820873,0.866390415 C87.2394291,4.37755226 74.6939515,19.250205 65.8955857,39.8839581 L66.1306986,40.0202121 C74.1539265,27.6804871 83.6539573,18.94276 93.9879042,16.2770719 C105.460679,13.3109262 114.953363,17.1714574 123.373344,28.5748726 C142.795874,54.8893711 140.459439,114.17036 122.278599,151.72407 L122.517386,151.84635" id="Fill-17"></path>
                <path d="M23.562188,42.975382 C23.4631585,37.0171321 24.9110379,31.9992626 28.3258477,28.4408633 C29.2410168,27.4854369 30.4771779,26.533772 31.5152801,26.0410127 L31.3547841,25.7852292 C29.0190541,26.3306498 26.9701682,27.7449819 25.2525189,29.5053739 C21.9777162,32.8343203 20.3590963,37.4609916 20.0551783,42.9227207 C21.2059692,42.888867 22.3704193,42.9076746 23.562188,42.975382" id="Fill-18"></path>
                <path d="M51.5704584,97.7824025 C39.8190325,82.8035562 30.1286051,65.6321593 26.8350821,51.5704584 C25.4667421,51.8427359 24.1561237,52.1830828 22.9202037,52.6058295 C25.7315821,67.4986934 35.4050327,85.673218 46.789757,100.275891 C48.3923785,99.4626414 49.9916046,98.6278958 51.5704584,97.7824025" id="Fill-19"></path>
                <path d="M56.1875026,103.140917 C54.6576555,104.028309 53.1174948,104.904924 51.5704584,105.767167 C65.7000575,121.49952 85.1377104,136.685786 97.3455466,140.386248 L97.4108659,140.141946 C85.3027276,133.200884 71.4722222,121.04325 56.1875026,103.140917" id="Fill-20"></path>
                <path d="M119.590528,48.8308915 C117.085944,57.2784379 99.3694184,72.8631852 73.3350159,87.9739777 C68.8496329,90.5737589 63.2761019,93.5464309 57.3005093,96.4772834 C57.4628094,96.6585014 57.6251094,96.8327495 57.7874095,97.0104825 C58.7907188,98.1221852 59.7940282,99.2060082 60.7973376,100.275891 C64.0876021,98.5403806 67.1786802,96.8501743 69.9525355,95.2889116 C102.051058,77.2437816 124.035336,55.825209 119.811847,48.7054329 L119.590528,48.8308915" id="Fill-21"></path>
                <path d="M38.453441,108.870968 C41.8869074,107.374017 45.3445776,105.751494 48.7054329,104.092621 C47.9896952,103.335884 47.2912459,102.582452 46.6066272,101.838933 C46.146757,101.326731 45.6799716,100.804616 45.2166438,100.275891 C41.5757171,101.93146 37.9175021,103.494501 34.3803056,104.882403 C35.7011356,106.217432 37.0565423,107.549157 38.453441,108.870968" id="Fill-22"></path>
                <path d="M23.8530426,109.357006 C16.1075816,111.541856 10.5066292,111.789587 8.54953973,109.219378 C6.31852977,106.284453 10.6147557,99.970753 12.7808898,97.6448341 L12.6150958,97.4108659 C4.63896492,104.127129 1.20054246,111.197785 3.63338854,114.387322 C7.29887664,119.207755 17.1528043,117.848675 28.6502547,113.878097 C26.9959193,112.377948 25.392043,110.867477 23.8530426,109.357006" id="Fill-23"></path>
            </g>
        </g>
    </g>
</svg>