<?xml version="1.0" encoding="UTF-8"?>
<svg width="1000px" height="313px" viewBox="0 0 1000 313" version="1.1" xmlns="http://www.w3.org/2000/svg" xmlns:xlink="http://www.w3.org/1999/xlink">
    <!-- Generator: Sketch 53.2 (72643) - https://sketchapp.com -->
    <title>JJMDC-Company-Mentor-Logo</title>
    <desc>Created with Sketch.</desc>
    <g id="JJMDC-Company-Mentor-Logo" stroke="none" stroke-width="1" fill="none" fill-rule="evenodd">
        <g id="mentor-logo" transform="translate(50.000000, 77.000000)" fill="#004277">
            <path d="M115.9352,54.5463259 L115.942299,54.5427765 L113.679569,52.5053865 L103.622398,62.5521329 L105.237366,64.1866592 L105.258663,64.1902087 C108.729957,67.1699803 112.430187,69.9066139 116.313209,72.3521918 L86.8267281,72.3521918 L86.8267281,42.8668279 C89.2917731,46.7659097 92.0336698,50.4662217 95.0293472,53.9624398 L95.0399953,53.9517914 C95.4446247,54.4416169 96.7454728,55.7247466 96.7454728,55.7247466 L106.838137,45.7702862 L104.990684,43.6903027 C104.990684,43.6903027 104.983586,43.700951 104.972938,43.700951 C94.8891466,31.6026168 88.289073,16.5067635 86.8018825,0 L72.2866896,0 C70.794175,16.5724286 64.1550582,31.6895785 54.0162519,43.7808139 L52.2877034,45.5484449 L62.5383152,55.7975106 C62.5383152,55.7975106 69.7932496,47.6213296 72.3505785,42.8668279 L72.3505785,72.3521918 L42.8747455,72.3521918 C46.7453453,69.9066139 51.9451882,65.6330641 55.4022851,62.6568419 L45.2634788,52.482315 C33.5558462,63.3525361 16.5347905,70.65555 0.00354938081,72.2315102 L0,86.7559003 C16.5915806,88.1561623 31.7651836,94.8043008 43.9129394,105.023196 L43.8880937,105.03207 L45.6201916,106.73581 L55.6400936,96.6109759 L53.923968,95.0296915 L53.947039,95.0101695 C50.4579976,92.0250737 46.7595428,89.2831158 42.8747455,86.8286643 L72.3505785,86.8286643 L72.3505785,116.310479 C69.8979563,112.413172 67.1631584,108.718184 64.1728051,105.234389 L64.190552,105.188246 L62.6039788,103.41884 L52.6373174,113.596917 L54.1333815,115.272262 L54.1262827,115.290009 C64.2295952,127.464657 70.8438663,142.642147 72.3310569,159.175532 L86.8018825,159.175532 C88.289073,142.633274 95.3842853,125.918867 106.616301,113.328932 L96.7188524,103.335428 C93.3504901,106.851168 89.2740262,112.434468 86.8267281,116.310479 L86.8267281,86.8286643 L116.313209,86.8286643 C116.313209,86.8286643 113.076174,88.8642796 110.052101,91.1572307 C107.02093,93.455506 103.592228,96.6872893 103.592228,96.6872893 L113.640525,106.744684 L115.255494,105.111933 C116.295462,104.245864 117.424165,103.239592 118.501402,102.43209 C130.281797,93.7944794 144.012577,88.1668107 159.175532,86.8055928 L159.175532,72.2829774 C142.898072,70.8152757 127.976475,64.3889784 115.9352,54.5463259" id="Fill-1"></path>
            <path d="M278.253995,37.5954171 L278.253995,37.1010638 L317.055447,37.1010638 L317.055447,37.5954171 C313.163386,41.255429 310.722304,42.9254443 311.375947,48.9134107 L319.000602,120.957761 C319.971427,130.27677 320.784537,139.595779 327.925532,146.085289 L327.925532,146.583238 L285.076055,146.583238 L285.076055,146.085289 C287.834319,143.252195 290.755556,138.765265 290.270143,134.272942 L284.429422,75.8691468 L283.938753,75.8691468 L262.811921,148.404255 C257.281373,147.084781 252.078523,143.915528 247.362837,140.753464 C239.727667,135.601404 237.773751,128.612148 234.686037,120.121855 L218.751541,75.8691468 L218.260871,75.8691468 L212.740838,133.268057 C212.251921,138.934244 215.173158,143.588356 219.888843,146.085289 L219.888843,146.583238 L187.898936,146.583238 L187.898936,146.085289 C195.029417,140.095525 195.360619,131.768818 196.327939,122.791362 L204.115567,52.9023923 C204.769209,46.5854562 202.328128,41.5915893 197.952406,37.5954171 L197.952406,37.1010638 L235.327412,37.1010638 L235.327412,37.5954171 L259.400014,101.338228 L278.253995,37.5954171" id="Fill-4"></path>
            <path d="M380.645419,124.396024 C385.884008,126.52272 391.764792,126.84436 397.332184,126.84436 C406.216722,126.84436 414.467628,125.38028 420.487125,117.852478 L421.276596,117.852478 L414.938571,142.420213 L344.680851,142.420213 L344.680851,141.933358 C352.45054,136.882015 351.342542,127.781161 351.342542,119.309529 L351.342542,58.5405045 C351.342542,50.1092967 352.45054,40.8695928 344.680851,36.0063133 L344.680851,35.5177005 L400.192087,35.5177005 C402.572486,35.5177005 405.108723,35.5177005 406.846928,34.7074468 L407.328145,34.7074468 L407.328145,58.2118333 L406.846928,58.2118333 C402.572486,50.5979095 393.514984,51.4081632 385.731594,51.4081632 L380.645419,51.4081632 L380.645419,77.6737394 L395.426153,77.6737394 C397.652425,77.6737394 399.873559,77.508525 401.305223,76.8652434 L402.096406,76.8652434 L402.096406,99.634953 L401.305223,99.634953 C399.084089,93.1230445 391.764792,93.780387 385.884008,93.780387 L380.645419,93.780387 L380.645419,124.396024" id="Fill-5"></path>
            <path d="M533.811111,148.404255 C528.126685,148.404255 519.181479,144.302773 514.314881,141.842945 C502.289661,135.78281 499.202626,130.200826 491.238463,119.711585 L460.052216,77.7510791 L459.564328,77.7510791 L459.564328,121.025618 C459.564328,130.53022 459.720523,137.737921 466.707154,144.465698 L466.707154,144.956247 L435.350674,144.956247 L435.350674,144.465698 C442.50754,137.737921 442.668999,130.53022 442.668999,121.025618 L442.668999,64.4726172 C442.668999,51.8511717 442.017897,47.42915 433.244681,37.5880706 L433.244681,37.1010638 L467.033583,37.1010638 L467.033583,37.5880706 L516.910517,103.477435 L516.910517,61.0316927 C516.910517,51.5288618 516.747303,44.3069936 509.760671,37.5880706 L509.760671,37.1010638 L540.957447,37.1010638 L540.957447,37.5880706 C533.967305,44.3069936 533.811111,51.5288618 533.811111,61.0316927 L533.811111,148.404255" id="Fill-6"></path>
            <path d="M609.07965,118.785992 C609.07965,128.080922 609.248892,135.402814 616.04763,141.930913 L616.04763,142.420213 L573.171307,142.420213 L573.171307,141.930913 C580.932501,136.872472 579.823026,127.591623 579.823026,119.122166 L579.823026,53.6281997 C577.13567,52.9787338 574.759446,52.9787338 571.914814,52.9787338 C564.637413,52.9787338 560.043949,54.7687251 554.035007,59.0087338 L552.925532,59.818366 L559.096878,34.7074468 L562.105623,35.189706 L635.505319,35.189706 L630.135735,59.818366 C627.757801,54.2776655 622.846367,52.6496007 617.157105,52.6496007 C614.309054,52.6496007 611.770426,52.8185675 609.07965,53.6281997 L609.07965,118.785992" id="Fill-7"></path>
            <path d="M675.259431,84.7045672 C675.259431,68.0290717 683.680445,49.7338813 702.749664,49.7338813 C724.888699,49.7338813 732.169896,76.1240405 732.169896,94.5875109 C732.169896,102.5142 731.042315,110.775696 726.185853,117.242205 C721.011221,124.208295 713.259762,128.578316 704.688403,128.578316 C695.477208,128.578316 687.402335,122.425579 682.869287,114.653147 C678.341484,106.572202 675.259431,94.1002001 675.259431,84.7045672 M643.882979,89.0745882 C643.882979,123.240685 669.604047,144.81383 702.749664,144.81383 C735.56837,144.81383 763.56383,124.208295 763.56383,88.9168257 C763.56383,53.2958078 738.639934,33.5106383 704.688403,33.5106383 C671.867949,33.5106383 643.882979,54.5894602 643.882979,89.0745882" id="Fill-8"></path>
            <path d="M816.213138,50.4932114 C819.448588,50.4932114 822.844675,50.8202674 825.592973,52.7738112 C829.963362,55.8667758 832.065618,61.3968346 832.065618,66.6033542 C832.065618,76.8651741 824.622164,85.4864391 814.601525,87.2746966 L814.601525,50.4932114 L816.213138,50.4932114 M814.601525,95.9012367 L833.352464,131.385048 C838.999223,141.471032 844.160577,142.937508 854.961704,142.288671 L877.260638,140.818678 C870.789739,135.455664 866.10506,128.612106 861.741656,121.288515 L842.552455,88.9064596 C853.187707,84.3487768 861.741656,75.3934223 861.741656,63.1903672 C861.741656,52.2797106 856.898085,43.6584455 847.383804,38.4501676 C840.128924,34.548355 833.673739,34.7083662 825.755357,34.7083662 L777.925532,34.7074468 L777.925532,35.1919167 C785.847407,40.2384251 784.712468,49.5155603 784.712468,57.9820892 L784.712468,118.526123 C784.712468,126.987377 785.847407,136.257479 777.925532,141.31102 L777.925532,141.799846 L821.383222,141.799846 L821.383222,141.31102 C813.466586,136.257479 814.601525,126.987377 814.601525,118.526123 L814.601525,95.9012367" id="Fill-9"></path>
            <path d="M883.84825,49.3728815 C886.452525,49.3728815 889.412525,49.0694042 889.412525,45.7367047 C889.412525,42.7555948 886.555498,42.4521175 884.202102,42.4521175 L878.478687,42.4521175 L878.478687,49.3728815 L883.84825,49.3728815 Z M891.975611,60.9956941 L888.551298,60.9956941 L882.977662,51.6452608 L878.478687,51.6452608 L878.478687,60.9956941 L875.563621,60.9956941 L875.563621,40.2796637 L884.870489,40.2796637 C888.858344,40.2796637 892.333208,41.1900958 892.333208,45.9384061 C892.333208,49.8280976 889.725188,51.5471858 886.044379,51.6452608 L891.975611,60.9956941 Z M897.697154,50.7385296 C897.697154,42.4521175 890.846655,35.8348307 882.567643,35.8348307 C874.440281,35.8348307 867.692755,42.6038561 867.692755,50.6867164 C867.692755,58.9213154 874.18753,65.8439299 882.518965,65.8439299 C890.9515,65.8439299 897.697154,59.17483 897.697154,50.7385296 Z M865.292553,50.7385296 C865.292553,41.0883198 873.163419,33.5106383 882.773588,33.5106383 C892.333208,33.5106383 900,41.2881708 900,50.8384551 C900,60.4886649 892.177812,68.2180851 882.567643,68.2180851 C872.908795,68.2180851 865.292553,60.2869635 865.292553,50.7385296 L865.292553,50.7385296 Z" id="Fill-10"></path>
        </g>
    </g>
</svg>