<svg width="720" height="405" xmlns="http://www.w3.org/2000/svg"><g fill="none" fill-rule="evenodd"><path fill="#FFF" fill-rule="nonzero" d="M0 0H720V405H0z"/><g transform="translate(40 168.667)" fill="#004277" fill-rule="nonzero"><path d="M47.034 22.455l.003-.001-.918-.827-4.08 4.076.655.663.009.002a37.92 37.92 0 0 0 4.485 3.311H35.225V17.717a38.7 38.7 0 0 0 3.328 4.501l.004-.004c.164.199.692.72.692.72l4.095-4.039-.75-.844s-.003.004-.007.004c-4.09-4.908-6.769-11.032-7.372-17.729h-5.889c-.605 6.724-3.299 12.856-7.412 17.762l-.701.717 4.159 4.158s2.943-3.317 3.98-5.246v11.962H17.394c1.57-.992 3.68-2.726 5.082-3.933l-4.113-4.128c-4.75 4.41-11.655 7.373-18.362 8.012L0 35.523c6.731.568 12.887 3.265 17.815 7.41l-.01.004.703.691 4.065-4.107-.696-.642.01-.008a38.77 38.77 0 0 0-4.493-3.319h11.958v11.96a37.848 37.848 0 0 0-3.317-4.493l.007-.018-.644-.718-4.043 4.129.607.68-.003.007c4.099 4.939 6.782 11.096 7.385 17.804h5.871c.603-6.711 3.482-13.492 8.039-18.6l-4.016-4.054c-1.366 1.426-3.02 3.691-4.013 5.264v-11.96h11.963s-1.313.825-2.54 1.755c-1.23.933-2.621 2.244-2.621 2.244l4.076 4.08.656-.662c.422-.352.88-.76 1.317-1.088 4.779-3.504 10.35-5.787 16.5-6.34v-5.891c-6.603-.595-12.657-3.203-17.542-7.196m64.924-7.252v-.2h15.726v.2c-1.578 1.48-2.567 2.155-2.302 4.576l3.09 29.133c.393 3.769.723 7.537 3.617 10.161v.201h-17.366v-.2c1.118-1.147 2.302-2.961 2.105-4.778l-2.367-23.617h-.199L105.7 60.011c-2.241-.534-4.35-1.815-6.261-3.094-3.094-2.083-3.886-4.91-5.138-8.343L87.843 30.68h-.198L85.407 53.89c-.198 2.291.986 4.173 2.897 5.183v.201H75.34v-.2c2.89-2.423 3.024-5.79 3.416-9.42l3.156-28.262c.265-2.554-.725-4.573-2.498-6.19v-.2h15.147v.2l9.756 25.777 7.641-25.776M153.64 50.85c2.142.85 4.545.978 6.821.978 3.632 0 7.005-.585 9.465-3.593h.323l-2.59 9.819h-28.72v-.195c3.176-2.019 2.723-5.656 2.723-9.042V24.528c0-3.37.453-7.062-2.723-9.006v-.195h22.691c.973 0 2.01 0 2.72-.324h.197v9.394h-.196c-1.748-3.043-5.45-2.72-8.632-2.72h-2.079v10.499h6.042c.91 0 1.818-.066 2.403-.323h.324v9.1h-.324c-.908-2.602-3.9-2.34-6.303-2.34h-2.142V50.85m60.718 9.16c-2.272 0-5.848-1.658-7.793-2.652-4.806-2.451-6.04-4.708-9.223-8.95L184.876 31.44h-.195v17.5c0 3.843.063 6.758 2.855 9.478v.198h-12.533v-.198c2.861-2.72 2.925-5.635 2.925-9.478V26.07c0-5.104-.26-6.892-3.766-10.871v-.197h13.505v.197l19.935 26.644V24.68c0-3.843-.066-6.763-2.858-9.48v-.197h12.469v.197c-2.794 2.717-2.856 5.637-2.856 9.48v35.33m31.348-11.402c0 3.715.068 6.641 2.807 9.25v.196h-17.273v-.196c3.127-2.021 2.68-5.73 2.68-9.116V22.565c-1.083-.26-2.04-.26-3.186-.26-2.931 0-4.782.716-7.202 2.41l-.447.324 2.486-10.036 1.212.192h29.568l-2.163 9.844c-.958-2.214-2.936-2.865-5.228-2.865-1.147 0-2.17.067-3.254.391v26.043m26.15-13.882c0-6.743 3.373-14.141 11.012-14.141 8.87 0 11.786 10.671 11.786 18.137 0 3.205-.452 6.546-2.397 9.161-2.073 2.817-5.178 4.584-8.612 4.584-3.69 0-6.925-2.488-8.74-5.63-1.814-3.269-3.05-8.312-3.05-12.111m-12.568 1.767c0 13.816 10.303 22.54 23.581 22.54 13.147 0 24.362-8.333 24.362-22.604 0-14.404-9.984-22.405-23.585-22.405-13.148 0-24.358 8.524-24.358 22.469m70.254-15.181c1.307 0 2.679.13 3.788.912 1.765 1.236 2.614 3.446 2.614 5.527 0 4.102-3.006 7.547-7.052 8.262V21.312h.65m-.65 18.149l7.572 14.182c2.28 4.032 4.365 4.618 8.727 4.358l9.005-.587c-2.613-2.144-4.505-4.879-6.267-7.806l-7.75-12.943c4.295-1.821 7.75-5.4 7.75-10.278 0-4.36-1.956-7.807-5.799-9.888-2.93-1.56-5.536-1.496-8.734-1.496h-19.316v.193c3.2 2.017 2.741 5.725 2.741 9.11v24.198c0 3.382.458 7.087-2.74 9.107v.195h17.55v-.195c-3.198-2.02-2.74-5.725-2.74-9.107V39.46m27.736-19.176c1.028 0 2.196-.12 2.196-1.435 0-1.177-1.127-1.297-2.056-1.297h-2.259v2.732h2.12zm3.208 4.587h-1.352l-2.2-3.69h-1.775v3.69h-1.15v-8.176h3.673c1.574 0 2.945.36 2.945 2.233 0 1.535-1.03 2.214-2.482 2.253l2.341 3.69zm2.258-4.048c0-3.27-2.704-5.882-5.971-5.882-3.208 0-5.87 2.671-5.87 5.861 0 3.25 2.562 5.982 5.85 5.982 3.329 0 5.991-2.632 5.991-5.961zm-12.79 0c0-3.809 3.107-6.8 6.9-6.8 3.773 0 6.799 3.07 6.799 6.84 0 3.808-3.087 6.858-6.88 6.858-3.812 0-6.818-3.13-6.818-6.898z"/></g><path d="M425.5 183.67v43.05" stroke="#004277" stroke-width="2" stroke-linecap="square"/><path d="M450.78 183.16h18.24c1.2 0 2.53.14 3.99.42 1.46.28 2.82.85 4.08 1.71 1.26.86 2.31 2.08 3.15 3.66.84 1.58 1.26 3.65 1.26 6.21 0 3.76-1.16 6.66-3.48 8.7-2.32 2.04-5.64 3.06-9.96 3.06h-14.64V226h-2.64v-42.84zm2.64 21.48h15.06c1.92 0 3.55-.29 4.89-.87 1.34-.58 2.41-1.33 3.21-2.25a8.67 8.67 0 0 0 1.74-3.06c.36-1.12.54-2.24.54-3.36 0-.8-.12-1.75-.36-2.85s-.72-2.16-1.44-3.18-1.73-1.88-3.03-2.58c-1.3-.7-3.03-1.05-5.19-1.05h-15.42v19.2zM486.9 202h.18c.28-1 .79-1.94 1.53-2.82.74-.88 1.64-1.64 2.7-2.28 1.06-.64 2.24-1.13 3.54-1.47 1.3-.34 2.65-.49 4.05-.45v2.28c-1.2-.16-2.57-.04-4.11.36-1.54.4-3.01 1.28-4.41 2.64-.56.6-1.05 1.18-1.47 1.74-.42.56-.77 1.18-1.05 1.86-.28.68-.5 1.44-.66 2.28-.16.84-.26 1.84-.3 3V226h-2.28v-30.84h2.28V202zm12.24 8.58c0-2.2.31-4.27.93-6.21.62-1.94 1.53-3.65 2.73-5.13s2.68-2.65 4.44-3.51c1.76-.86 3.78-1.29 6.06-1.29s4.3.43 6.06 1.29c1.76.86 3.24 2.03 4.44 3.51 1.2 1.48 2.11 3.19 2.73 5.13.62 1.94.93 4.01.93 6.21s-.31 4.28-.93 6.24c-.62 1.96-1.53 3.67-2.73 5.13s-2.68 2.62-4.44 3.48c-1.76.86-3.78 1.29-6.06 1.29s-4.3-.43-6.06-1.29c-1.76-.86-3.24-2.02-4.44-3.48-1.2-1.46-2.11-3.17-2.73-5.13-.62-1.96-.93-4.04-.93-6.24zm2.28 0c0 1.84.26 3.61.78 5.31.52 1.7 1.28 3.21 2.28 4.53a11.1 11.1 0 0 0 3.72 3.15c1.48.78 3.18 1.17 5.1 1.17 1.92 0 3.62-.39 5.1-1.17a11.1 11.1 0 0 0 3.72-3.15c1-1.32 1.76-2.83 2.28-4.53.52-1.7.78-3.47.78-5.31 0-1.84-.26-3.61-.78-5.31-.52-1.7-1.28-3.21-2.28-4.53a11.1 11.1 0 0 0-3.72-3.15c-1.48-.78-3.18-1.17-5.1-1.17-1.92 0-3.62.39-5.1 1.17a11.1 11.1 0 0 0-3.72 3.15c-1 1.32-1.76 2.83-2.28 4.53-.52 1.7-.78 3.47-.78 5.31zm31.44-15.42h2.28v6.3h.12c.24-.96.66-1.87 1.26-2.73.6-.86 1.33-1.61 2.19-2.25.86-.64 1.82-1.14 2.88-1.5 1.06-.36 2.17-.54 3.33-.54 1.48 0 2.76.19 3.84.57 1.08.38 2 .88 2.76 1.5.76.62 1.36 1.32 1.8 2.1.44.78.74 1.57.9 2.37h.12c.92-2.16 2.15-3.79 3.69-4.89 1.54-1.1 3.57-1.65 6.09-1.65 1.4 0 2.69.21 3.87.63 1.18.42 2.2 1.06 3.06 1.92.86.86 1.53 1.95 2.01 3.27.48 1.32.72 2.88.72 4.68V226h-2.28v-21.12c0-1.96-.3-3.5-.9-4.62-.6-1.12-1.31-1.97-2.13-2.55-.82-.58-1.64-.94-2.46-1.08-.82-.14-1.45-.21-1.89-.21-1.4 0-2.69.24-3.87.72-1.18.48-2.2 1.2-3.06 2.16-.86.96-1.53 2.15-2.01 3.57-.48 1.42-.72 3.05-.72 4.89V226h-2.28v-21.12c0-1.92-.29-3.45-.87-4.59-.58-1.14-1.26-1.99-2.04-2.55-.78-.56-1.58-.92-2.4-1.08-.82-.16-1.47-.24-1.95-.24-1.08 0-2.2.22-3.36.66-1.16.44-2.22 1.12-3.18 2.04-.96.92-1.74 2.1-2.34 3.54-.6 1.44-.9 3.14-.9 5.1V226h-2.28v-30.84zm48.24-5.82v-6.18h2.28v6.18h-2.28zm0 36.66v-30.84h2.28V226h-2.28zm10.62-10.26c.08 1.44.4 2.71.96 3.81.56 1.1 1.29 2.04 2.19 2.82.9.78 1.95 1.37 3.15 1.77 1.2.4 2.5.6 3.9.6 1 0 2.07-.09 3.21-.27 1.14-.18 2.2-.51 3.18-.99s1.79-1.15 2.43-2.01c.64-.86.96-1.95.96-3.27 0-1.72-.52-3.02-1.56-3.9-1.04-.88-2.35-1.56-3.93-2.04s-3.28-.87-5.1-1.17c-1.82-.3-3.52-.75-5.1-1.35-1.58-.6-2.89-1.45-3.93-2.55-1.04-1.1-1.56-2.71-1.56-4.83 0-1.52.34-2.79 1.02-3.81a7.591 7.591 0 0 1 2.61-2.43c1.06-.6 2.25-1.03 3.57-1.29 1.32-.26 2.64-.39 3.96-.39 1.6 0 3.1.18 4.5.54 1.4.36 2.61.94 3.63 1.74s1.82 1.82 2.4 3.06c.58 1.24.87 2.74.87 4.5h-2.28c0-1.4-.23-2.6-.69-3.6-.46-1-1.1-1.81-1.92-2.43-.82-.62-1.79-1.08-2.91-1.38-1.12-.3-2.32-.45-3.6-.45-1.04 0-2.09.1-3.15.3-1.06.2-2.01.54-2.85 1.02-.84.48-1.53 1.1-2.07 1.86-.54.76-.81 1.68-.81 2.76 0 1.24.3 2.24.9 3 .6.76 1.39 1.37 2.37 1.83.98.46 2.08.83 3.3 1.11 1.22.28 2.45.56 3.69.84 1.52.28 2.95.61 4.29.99 1.34.38 2.5.9 3.48 1.56s1.75 1.51 2.31 2.55c.56 1.04.84 2.36.84 3.96 0 1.68-.38 3.06-1.14 4.14a8.793 8.793 0 0 1-2.88 2.61c-1.16.66-2.45 1.12-3.87 1.38-1.42.26-2.81.39-4.17.39-1.76 0-3.39-.23-4.89-.69-1.5-.46-2.81-1.16-3.93-2.1-1.12-.94-2-2.09-2.64-3.45-.64-1.36-.98-2.94-1.02-4.74h2.28zm28.48-4.86v.36c0 1.8.24 3.52.72 5.16.48 1.64 1.19 3.08 2.13 4.32a10.12 10.12 0 0 0 3.54 2.94c1.42.72 3.07 1.08 4.95 1.08 3.08 0 5.52-.81 7.32-2.43 1.8-1.62 3.04-3.87 3.72-6.75h2.28c-.68 3.6-2.15 6.36-4.41 8.28-2.26 1.92-5.25 2.88-8.97 2.88-2.28 0-4.27-.41-5.97-1.23-1.7-.82-3.12-1.94-4.26-3.36-1.14-1.42-1.99-3.1-2.55-5.04-.56-1.94-.84-4.03-.84-6.27 0-2.16.29-4.23.87-6.21.58-1.98 1.45-3.72 2.61-5.22 1.16-1.5 2.61-2.7 4.35-3.6 1.74-.9 3.79-1.35 6.15-1.35 2.16 0 4.07.4 5.73 1.2 1.66.8 3.05 1.89 4.17 3.27 1.12 1.38 1.97 2.98 2.55 4.8.58 1.82.87 3.77.87 5.85 0 .2-.01.43-.03.69-.02.26-.03.47-.03.63h-24.9zm22.62-1.98c-.08-1.68-.36-3.27-.84-4.77-.48-1.5-1.19-2.82-2.13-3.96-.94-1.14-2.08-2.05-3.42-2.73-1.34-.68-2.87-1.02-4.59-1.02-1.84 0-3.46.35-4.86 1.05-1.4.7-2.58 1.62-3.54 2.76-.96 1.14-1.7 2.47-2.22 3.99-.52 1.52-.84 3.08-.96 4.68h22.56z" fill="#AD608A" fill-rule="nonzero"/></g></svg>