<?xml version="1.0" encoding="UTF-8"?>
<svg width="720px" height="720px" viewBox="0 0 720 720" version="1.1" xmlns="http://www.w3.org/2000/svg" xmlns:xlink="http://www.w3.org/1999/xlink">
    <!-- Generator: Sketch 55.2 (78181) - https://sketchapp.com -->
    <title>JJMDC-Company-BWI-Icon6</title>
    <desc>Created with Sketch.</desc>
    <defs>
        <rect id="path-1" x="200" y="201" width="321" height="321"></rect>
        <filter x="-5.3%" y="-5.3%" width="111.8%" height="111.8%" filterUnits="objectBoundingBox" id="filter-2">
            <feOffset dx="2" dy="2" in="SourceAlpha" result="shadowOffsetOuter1"></feOffset>
            <feGaussianBlur stdDeviation="6" in="shadowOffsetOuter1" result="shadowBlurOuter1"></feGaussianBlur>
            <feColorMatrix values="0 0 0 0 0   0 0 0 0 0   0 0 0 0 0  0 0 0 0.12 0" type="matrix" in="shadowBlurOuter1"></feColorMatrix>
        </filter>
    </defs>
    <g id="JJMDC-Company-BWI-Icon6" stroke="none" stroke-width="1" fill="none" fill-rule="evenodd">
        <rect id="bg" fill="#F4F4F4" fill-rule="nonzero" x="0" y="0" width="720" height="720"></rect>
        <g id="card">
            <use fill="black" fill-opacity="1" filter="url(#filter-2)" xlink:href="#path-1"></use>
            <use fill="#FFFFFF" fill-rule="evenodd" xlink:href="#path-1"></use>
        </g>
        <g id="Achieve-Excellent-Outcomes" transform="translate(246.000000, 252.000000)" fill-rule="nonzero">
            <path d="M1.01598592,94.4693382 C1.40122375,93.1636141 1.64508323,91.8200812 1.74334507,90.4619853 C4.20056316,74.3381586 10.6595328,59.0920985 20.5267958,46.1246324 C29.5268662,34.2708824 40.7090141,24.8776471 53.21,16.9591176 C62.9396523,10.722806 73.6324617,6.14588839 84.8541197,3.41426471 C91.6563875,1.78691307 98.5897015,0.770371464 105.571866,0.376691176 C109.432465,0.160294118 113.293063,0.0160294118 117.161655,0.0961764706 C143.922077,0.657205882 167.932923,8.87227941 188.658662,26.1038971 C197.860363,33.5854365 205.854321,42.447324 212.357782,52.3761029 C219.282604,63.2131608 224.058959,75.2872227 226.425387,87.9373529 C226.88365,90.2936765 227.261984,92.6606863 227.560387,95.0383824 C227.560387,95.1986765 227.560387,95.3669853 227.760211,95.4311029 C228.184802,101.960857 228.397097,106.843255 228.397097,110.078296 C228.397097,112.875657 228.184802,117.041862 227.760211,122.576912 C227.377189,123.817177 227.135855,125.097042 227.040845,126.391912 C224.747834,140.366642 219.575685,153.708881 211.854225,165.567794 C198.194261,186.590368 179.442782,201.257279 156.079366,210.057426 C147.576906,213.23085 138.740662,215.419704 129.74257,216.581397 C124.236568,217.358374 118.675385,217.672042 113.117218,217.519118 C97.8186972,216.966103 82.9358099,214.313235 68.6843662,208.558676 C56.3728609,203.621733 45.082102,196.436425 35.3857042,187.367794 C24.9418867,177.79074 16.3283124,166.383367 9.96809859,153.706029 C5.60422292,144.884031 2.69696681,135.410417 1.3596831,125.654559 C1.25133949,125.248771 1.16669632,124.942279 1.06957324,124.31553 C0.632260165,117.009266 0.41360363,111.570756 0.41360363,108 C0.41360363,104.938142 0.614397725,100.427921 1.01598592,94.4693382 Z" id="Path" fill="#767883"></path>
            <path d="M1.91119718,110.795294 C1.91119718,95.5192647 4.03732394,82.1908088 9.10485915,69.4233824 C14.3275776,56.4835635 22.2593986,44.8185728 32.3643662,35.2166176 C42.1459854,25.768742 53.3509211,17.9250425 65.5671127,11.9739706 C74.8518779,7.51901412 84.7642709,4.52125659 94.9572183,3.08566176 C103.338374,1.85658342 111.817141,1.42988135 120.278908,1.81132353 C137.919366,2.55669118 154.648627,6.80448529 170.186937,15.3802206 C180.637886,21.2352311 190.147423,28.6387529 198.394085,37.3405147 C205.639502,44.7807297 211.690161,53.3028194 216.330282,62.6028676 C220.850677,71.8677236 223.944453,81.7661023 225.506197,91.9607353 C226.671308,99.1647808 227.094497,106.469872 226.769085,113.760735 C226.065135,130.016941 221.470403,145.864614 213.372887,159.965515 C208.989713,167.652615 203.659156,174.756027 197.506866,181.108309 C182.584014,196.528603 164.647817,206.755368 143.954049,212.125221 C129.345987,216.030732 114.099327,216.922336 99.1375352,214.746029 C88.8958815,213.48436 78.8592267,210.903719 69.2758451,207.067941 C57.2356501,202.231846 46.1863644,195.2142 36.6805634,186.365956 C26.5745725,177.122679 18.185053,166.154064 11.9023944,153.970515 C7.51443189,145.344401 4.54541438,136.063981 3.11014085,126.488088 C2.34726408,121.291453 1.94664485,116.047808 1.91119718,110.795294 Z" id="Path" fill="#FEFEFE"></path>
            <path d="M37.2960211,127.594118 C40.4932042,128.195221 43.6184507,128.75625 46.7197183,129.349338 L75.7821127,134.8875 C78.8833803,135.480588 81.9926408,136.057647 85.0859155,136.714853 C86.4964399,137.098994 88.0032069,136.670401 89.0024648,135.600809 C96.34,128.408946 103.69885,121.243799 111.079014,114.105368 L143.418521,82.6396324 L162.681549,63.90125 L180.098204,46.9741912 C180.548963,46.4157936 181.268767,46.1501735 181.972984,46.2823643 C182.677201,46.4145552 183.252439,46.9232715 183.471232,47.6073529 C183.65507,48.0241176 183.287394,48.1844118 183.119542,48.4088235 C178.739401,54.4412255 174.353932,60.4736275 169.963134,66.5060294 C155.485223,86.3718137 141.012641,106.237598 126.545387,126.103382 C115.595035,141.138971 104.652676,156.174559 93.7183099,171.210147 C93.2147535,171.907426 92.9190141,172.011618 92.2156338,171.434559 C74.1462207,157.264559 56.0608216,143.105245 37.9594366,128.956618 L37.0562324,128.235294 C36.8833581,128.131078 36.820487,127.910431 36.9123592,127.730368 C37.0162676,127.513971 37.2240845,127.602132 37.2960211,127.594118 Z" id="Path" fill="#F58720"></path>
        </g>
    </g>
</svg>