<?xml version="1.0" encoding="UTF-8"?>
<svg width="1000px" height="313px" viewBox="0 0 1000 313" version="1.1" xmlns="http://www.w3.org/2000/svg" xmlns:xlink="http://www.w3.org/1999/xlink">
    <!-- Generator: Sketch 55.1 (78136) - https://sketchapp.com -->
    <title>JJMDC-Company-Acclarent-Logo-White</title>
    <desc>Created with Sketch.</desc>
    <defs>
        <polygon id="path-1" points="0 0.80313351 845.842669 0.80313351 845.842669 185.709788 0 185.709788"></polygon>
    </defs>
    <g id="JJMDC-Company-Acclarent-Logo-White" stroke="none" stroke-width="1" fill="none" fill-rule="evenodd">
        <g id="acclarent-logo" transform="translate(83.000000, 27.000000)">
            <g id="Group-10">
                <mask id="mask-2" fill="white">
                    <use xlink:href="#path-1"></use>
                </mask>
                <g id="Clip-2"></g>
                <path d="M499.757706,95.9922579 L498.606173,95.8537866 C483.553703,95.2009934 472.568938,104.043375 465.636155,116.992419 L467.978524,97.4956606 L448.280619,97.4956606 L437.881445,183.992744 L457.56756,183.992744 L461.544871,151.052401 C463.600338,133.941305 471.594261,123.286928 482.700861,118.994318 C486.568127,111.374441 491.92099,102.903954 499.757706,95.9922579" id="Fill-1" fill="#FFFFFF" mask="url(#mask-2)"></path>
                <path d="M653.414729,7.78604309 C592.222314,20.6994804 541.405492,48.9832315 514.739433,81.2312179 C542.266194,58.6564405 582.212226,39.8836892 628.293219,30.170917 C721.256956,10.567338 803.83724,35.3062239 812.746887,85.3893131 C818.052588,115.231855 796.020174,148.864555 757.681574,174.101937 C815.564804,146.534281 851.812565,103.307499 845.033058,65.1408534 C835.777558,13.1231224 749.998133,-12.5811062 653.414729,7.78604309 Z" id="Fill-3" fill="#FFFFFF" mask="url(#mask-2)"></path>
                <path d="M70.0470399,92.5700388 L45.0041326,138.447557 L84.2270164,138.447557 L70.0470399,92.5700388 Z M118.784814,183.992744 L97.6366837,183.992744 L89.4108825,156.31431 L35.5403345,156.31431 L20.5075158,183.992744 L0,183.992744 L64.0024713,68.4997714 L82.5449128,68.4997714 L118.784814,183.992744 L118.784814,183.992744 Z" id="Fill-4" fill="#FFFFFF" mask="url(#mask-2)"></path>
                <path d="M164.909039,185.947167 C139.370933,185.947167 122.92326,165.809485 125.902313,141.078512 C128.865645,116.327757 150.226003,95.7034464 175.933106,95.7034464 C192.199991,95.7034464 201.557675,101.748707 208.486527,110.614827 L194.664194,123.856639 C189.429236,117.494872 183.616546,113.051921 173.685061,113.051921 C159.367529,113.051921 147.455248,125.498513 145.627729,140.734311 C143.749118,156.31431 152.827762,168.745076 167.966694,168.745076 C177.230055,168.745076 184.599084,164.317951 191.555447,157.936403 L202.009642,169.734157 C192.416149,179.233288 181.675053,185.947167 164.909039,185.947167" id="Fill-5" fill="#FFFFFF" mask="url(#mask-2)"></path>
                <path d="M252.158339,185.947167 C226.612373,185.947167 210.160771,165.809485 213.139823,141.078512 C216.095295,116.327757 237.463513,95.7034464 263.170616,95.7034464 C279.437501,95.7034464 288.795185,101.748707 295.704387,110.614827 L281.901705,123.856639 C276.658886,117.494872 270.857987,113.051921 260.922571,113.051921 C246.608969,113.051921 234.692759,125.498513 232.861309,140.734311 C230.986628,156.31431 240.061342,168.745076 255.204205,168.745076 C264.475425,168.745076 271.840524,164.317951 278.792957,157.936403 L289.247153,169.734157 C279.65366,179.233288 268.912563,185.947167 252.158339,185.947167" id="Fill-6" fill="#FFFFFF" mask="url(#mask-2)"></path>
                <path d="M303.493941,183.992744 L317.74073,62.7868414 C332.863943,61.4614733 337.116363,62.4426413 337.116363,62.4426413 L323.168266,183.992744 L303.493941,183.992744" id="Fill-7" fill="#FFFFFF" mask="url(#mask-2)"></path>
                <path d="M403.083909,147.285982 C398.269477,145.315733 391.454599,143.840025 383.8026,143.840025 C371.442282,143.840025 363.499452,148.923899 362.438311,157.766281 L362.40687,158.098612 C361.416473,166.280287 368.188119,170.901272 377.46327,170.901272 C390.479922,170.901272 401.134555,163.506905 402.439365,152.694275 L403.083909,147.285982 Z M398.179084,183.992744 L399.468172,173.322542 C392.759408,180.376665 383.165916,185.784958 370.137473,185.784958 C353.874517,185.784958 340.661358,176.44408 342.763987,159.071867 L342.795428,158.755361 C345.051334,140.081518 360.940925,130.922631 380.961102,130.922631 C391.383856,130.922631 397.880392,132.378558 404.298325,134.50706 L404.541994,132.378558 C405.976498,120.418594 399.283455,113.874837 385.630119,113.874837 C376.024835,113.874837 368.604715,115.995426 360.406425,119.287086 L356.943964,103.390581 C366.88331,99.1414908 376.516104,96.1900741 390.519224,96.1900741 C415.896194,96.1900741 426.649081,109.617833 423.878326,132.722758 L417.700132,183.992744 L398.179084,183.992744 L398.179084,183.992744 Z" id="Fill-8" fill="#FFFFFF" mask="url(#mask-2)"></path>
                <path d="M563.720876,134.673225 C563.968475,121.910128 557.680238,111.912501 544.651795,111.912501 C532.617679,111.912501 523.035977,121.257335 519.644259,134.673225 L563.720876,134.673225 Z M540.30898,169.734157 C549.902473,169.734157 557.181109,166.118078 564.825248,159.412111 L575.126168,169.734157 C565.815645,179.549794 553.820832,185.947167 538.045215,185.947167 C513.151653,185.947167 496.126249,167.755996 499.348971,140.900477 C502.351604,115.995426 522.210646,95.7034464 546.774075,95.7034464 C574.116119,95.7034464 585.344554,117.32475 582.3262,142.368273 C582.113972,144.184225 581.760259,145.830055 581.359383,147.780522 L518.217615,147.780522 C518.799277,161.8769 527.6146,169.734157 540.30898,169.734157 L540.30898,169.734157 Z" id="Fill-9" fill="#FFFFFF" mask="url(#mask-2)"></path>
            </g>
            <path d="M619.900297,184 L600,184 L610.524004,100.725444 L630.412387,100.725444 L628.784145,113.65294 C635.360655,105.772271 644.280245,99 657.770828,99 C677.313705,99 687.079187,111.588502 684.628881,131.002599 L677.945146,184 L658.040877,184 L664.005804,136.67409 C665.649931,123.742785 659.855772,116.330615 648.013288,116.330615 C636.508367,116.330615 627.465666,124.055117 625.845366,137.005467 L619.900297,184" id="Fill-11" fill="#FFFFFF"></path>
            <path d="M720.692568,157.4327 C719.782541,165.140833 723.213228,168.262964 729.674799,168.262964 C733.935552,168.262964 737.830771,167.279116 741.847835,165.335222 L739.959244,181.568716 C734.895078,184.357608 729.354957,186 722.261317,186 C708.218728,186 699.034692,179.60102 701.25074,160.546897 L706.554788,114.889204 L696,114.889204 L697.979975,97.8107112 L708.546185,97.8107112 L711.306727,74 L730.386828,74 L727.622479,97.8107112 L750,97.8107112 L748.01241,114.889204 L725.627274,114.889204 L720.692568,157.4327" id="Fill-12" fill="#FFFFFF"></path>
            <polyline id="Fill-13" fill="#FFFFFF" points="756.913514 85 756.913514 75.3074733 754 75.3074733 754 74 761 74 761 75.3074733 758.086486 75.3074733 758.086486 85 756.913514 85"></polyline>
            <path d="M765,85 L765,74 L767.297468,74 L770.033135,81.7822064 C770.270663,82.5103203 770.467238,83.058363 770.577811,83.402847 C770.717051,83.0035587 770.913626,82.4241993 771.196203,81.6530249 L773.944155,74 L776,74 L776,85 L774.537975,85 L774.537975,75.8007117 L771.179821,85 L769.807893,85 L766.478407,75.6362989 L766.478407,85 L765,85" id="Fill-14" fill="#FFFFFF"></path>
        </g>
        <path d="M390.643902,248.733413 C391.387796,248.733413 392.513556,249.555504 393.143386,251.193255 C392.917738,251.193255 392.576787,251.266587 392.348659,251.266587 C390.994772,251.266587 389.856614,250.59502 389.856614,249.555504 C389.856614,249.022881 390.205004,248.733413 390.643902,248.733413 Z M309.679552,247.765047 C310.404831,247.765047 311.48715,248.590502 312.116637,250.234953 C310.017933,250.234953 308.883363,249.762157 308.883363,248.590502 C308.883363,248.0557 309.218012,247.765047 309.679552,247.765047 Z M323.904583,240.828138 C323.904583,232.308084 325.558628,231 326.073801,231 C326.988141,231 327.095417,231.570255 327.095417,234.836713 C327.095417,238.194462 325.670893,242.587673 323.904583,245 L323.904583,240.828138 Z M379.098032,255.54805 C379.098032,260.504092 381.787086,265.232922 387.014028,265.232922 C392.070138,265.232922 395.607203,261.035972 395.607203,255.191742 C395.607203,253.491532 395.551898,253.255284 395.444975,252.554286 C396.616213,252.015951 397.635054,251.19102 398.420386,250.533915 C399.093879,250.003326 399.592853,249.705111 399.995965,249.705111 C400.497398,249.705111 400.719847,250.120804 400.719847,250.887642 L400.719847,262.459914 C400.719847,264.346024 401.287646,265.232922 402.68502,265.232922 C403.973013,265.232922 404.880016,264.285349 405.381448,263.166076 C407.240927,259.095641 409.927523,253.667104 411.103677,251.604131 C411.385118,251.132926 411.61617,250.771454 411.779627,250.771454 C412.004535,250.771454 412.12129,250.95219 412.12129,251.711282 L412.12129,260.930112 C412.12129,263.518511 413.243368,265.232922 415.708744,265.232922 C418.295791,265.232922 419.578868,262.629032 421.841459,258.621855 C421.949611,258.379152 422,258.208744 422,258.035753 C422,257.503873 421.561247,257.204367 421.108974,257.204367 C420.59771,257.204367 420.31504,257.73883 418.636224,259.679161 C418.295791,260.048379 417.96519,260.559604 417.343315,260.559604 C417.119637,260.559604 416.948806,260.276881 416.948806,259.920572 L416.948806,249.586342 C416.948806,246.812043 415.768965,245.694062 414.249919,245.694062 C413.019689,245.694062 412.004535,246.22336 410.936533,247.879677 C409.027894,250.834712 407.065179,255.026498 405.995949,257.138528 C405.879193,257.387685 405.714507,257.73883 405.610042,257.73883 C405.490829,257.73883 405.44044,257.559385 405.44044,257.138528 L405.44044,249.586342 C405.44044,247.409763 404.880016,245.694062 402.68502,245.694062 C400.380643,245.694062 399.20326,247.346506 397.518299,248.584548 C396.455214,249.418516 395.497822,250.003326 394.775169,250.355761 C393.644488,247.346506 391.567476,245.825741 389.829669,245.872216 C388.079571,245.935473 386.848112,247.05991 386.848112,248.948602 C386.848112,250.887642 387.972648,252.237998 389.486778,252.8383 C390.322498,253.190736 391.111517,253.255284 392.242198,253.255284 C392.578944,253.255284 392.914462,253.255284 393.130766,253.190736 C393.249979,253.775546 393.197132,254.614678 393.197132,255.261455 C393.197132,258.155814 391.567476,261.035972 388.53676,261.035972 C385.384372,261.035972 383.538413,257.853726 383.538413,254.197694 C383.538413,251.419522 384.321286,249.121592 385.60805,247.536278 C386.121773,246.94114 386.510137,246.583541 386.510137,246.042624 C386.510137,245.765065 386.121773,245.694062 385.782569,245.694062 C383.644107,245.694062 381.291799,246.702311 379.667059,247.580172 C377.519995,248.761411 375.000542,250.718524 372.918615,252.662728 C371.910834,250.297667 370.674459,248.232112 370.052584,246.637762 C369.835051,245.985821 369.667907,245.229312 369.215635,245.229312 C368.816209,245.229312 368.644149,245.645005 368.368853,246.457026 C367.362301,249.586342 361.968215,258.739333 360.789603,259.978666 C360.678993,260.149074 360.515536,260.333683 360.460231,260.333683 C360.339789,260.333683 360.274652,260.276881 360.274652,259.920572 L360.274652,249.586342 C360.274652,246.812043 359.210337,245.694062 357.762574,245.694062 C356.520054,245.694062 355.455739,246.22336 354.447958,247.879677 C352.593396,250.834712 350.339408,255.140103 349.275093,257.259879 C349.104262,257.625224 348.937118,257.73883 348.876896,257.73883 C348.821591,257.73883 348.774889,257.503873 348.774889,257.138528 L348.774889,249.586342 C348.774889,246.812043 347.705658,245.694062 346.23946,245.694062 C345.003085,245.694062 343.830618,246.176885 342.873226,247.879677 C340.520918,252.071463 336.589344,258.503085 335.858089,259.560391 C335.743791,259.742418 335.631952,259.862479 335.521342,259.920572 C335.409503,259.920572 335.344366,259.799221 335.344366,259.503588 L335.344366,249.586342 C335.344366,246.812043 334.280051,245.694062 332.824914,245.694062 C330.803207,245.694062 329.684816,247.651175 328.946187,248.885344 C327.93349,250.595882 326.590192,252.900267 325.525877,255.026498 C324.788476,256.446567 324.173976,257.73883 323.94661,257.73883 C323.837229,257.73883 323.837229,257.204367 323.837229,256.199991 L323.837229,248.297952 C327.373065,244.160387 329.563145,239.095904 329.563145,233.547306 C329.563145,230.356024 328.21616,228.593847 326.145293,228.593847 C322.26165,228.593847 319.294842,234.964794 319.294842,242.510525 L319.294842,248.647805 C317.494355,249.829045 315.808166,250.406109 313.725009,250.834712 C312.659465,247.536278 310.411622,245.825741 308.623426,245.872216 C306.884389,245.935473 305.643098,247.05991 305.643098,248.948602 C305.643098,252.071463 308.566892,253.370181 311.144107,253.370181 L311.872904,253.370181 C311.983514,253.967901 311.983514,254.614678 311.983514,255.261455 C311.983514,258.155814 310.355088,261.035972 307.330517,261.035972 C304.18919,261.035972 302.328482,257.853726 302.328482,254.197694 C302.328482,251.419522 303.110127,249.121592 304.401807,247.536278 C304.910613,246.94114 305.310039,246.411842 305.310039,246.042624 C305.310039,245.765065 304.910613,245.694062 304.572638,245.694062 C302.437863,245.694062 297.727102,248.716227 292.105652,254.614678 C291.610364,249.894884 291.045024,245.284823 291.045024,240.801278 C291.045024,235.788434 291.990126,231.530808 292.211346,230.305676 C292.324414,229.542711 292.393238,229.065052 292.393238,228.71778 C292.393238,228.241412 292.15727,228 291.550143,228 C286.999152,228 277,235.619316 277,247.003107 C277,255.074264 279.815641,258.97429 284.689859,263.985843 C281.730425,269.003851 279.357224,274.955232 279.357224,280.272745 C279.357224,284.100477 280.208922,287 282.894289,287 C288.512053,287 292.72261,274.733185 292.72261,265.640869 C292.72261,262.933701 292.616916,260.214914 292.393238,257.503873 C294.464105,255.191742 297.666881,252.071463 298.449755,251.778412 C298.114238,253.020327 297.893018,254.321627 297.893018,255.54805 C297.893018,260.504092 300.591904,265.232922 305.809013,265.232922 C310.699208,265.232922 314.400959,261.035972 314.400959,255.191742 C314.400959,254.437815 314.345654,253.775546 314.290349,253.070675 C316.082233,252.722113 317.726636,252.237998 319.294842,251.250405 L319.294842,263.1054 C319.294842,264.63262 320.298935,265.232922 321.25264,265.232922 C322.552923,265.232922 323.226416,264.285349 324.173976,262.112643 C324.965452,260.333683 327.094082,256.267122 328.383304,253.840095 C329.399688,251.950112 329.9638,250.718524 330.414843,250.718524 C330.520537,250.718524 330.640979,251.006411 330.640979,251.711282 L330.640979,261.805391 C330.640979,264.522887 331.989193,265.232922 333.154286,265.232922 C334.280051,265.232922 335.012536,264.583563 335.743791,263.518511 C338.667585,259.149862 341.76098,253.967901 342.985066,251.711282 C343.217347,251.313662 343.492643,251.006411 343.720008,251.006411 C343.93877,251.006411 344.051838,251.132926 344.051838,251.889436 L344.051838,262.459914 C344.051838,264.346024 344.613492,265.232922 346.025614,265.232922 C347.30992,265.232922 348.14687,264.285349 348.65076,263.166076 C350.516384,259.095641 353.261972,253.721325 354.447958,251.604131 C354.724483,251.132926 355.007154,250.718524 355.173069,250.718524 C355.404121,250.718524 355.455739,251.006411 355.455739,251.778412 L355.455739,261.805391 C355.455739,264.522887 356.802724,265.232922 357.991168,265.232922 C359.551999,265.232922 360.57207,264.049101 361.582309,262.697453 C363.423353,260.149074 366.122239,255.624218 367.751894,252.722113 C368.319693,253.667104 368.931735,254.79025 369.445458,256.024419 C368.093557,257.73883 366.742885,259.679161 366.742885,261.744716 C366.742885,263.930331 368.205396,265.232922 369.720754,265.232922 C372.299198,265.232922 374.660109,262.629032 374.660109,259.034966 C374.660109,257.625224 374.269287,256.144479 373.766625,254.734738 C376.056254,252.368387 378.814133,250.067874 380.848129,249.535994 C379.878448,250.95219 379.098032,252.959652 379.098032,255.54805 Z M289.113224,270.684676 C289.113224,276.387249 287.293643,283.05305 284.166005,282.999682 C282.957514,282.999682 281.944423,281.733166 281.889661,279.547679 C281.776404,272.415884 285.016055,266.344941 288.251972,262 C288.711224,265.150017 289.113224,268.24927 289.113224,270.684676 Z M371.404908,260.378132 C371.404908,261.322175 371.07171,262.26879 370.468838,262.26879 C370.037358,262.26879 369.595092,261.735033 369.595092,260.911889 C369.595092,260.027009 370.305834,258.614803 370.903913,257.73121 C371.235912,258.742133 371.404908,259.560133 371.404908,260.378132 Z M289.200246,235.206679 C288.130488,238.284001 287.111202,242.663317 287.111202,247.94132 C287.111202,251.082185 287.849815,255.23456 288.475174,259.442697 L286.669265,262 C283.800985,258.317069 282,254.173772 282,247.060788 C282,236.987194 287.796881,230 290.77103,230 C290.948297,230 291,230.053169 291,230.223051 C291,230.58486 290.208453,232.240882 289.200246,235.206679 Z" id="Fill-1" fill="#FFFFFF"></path>
        <path d="M88,253 L90.8601036,253 C91.7927508,253 92.5492199,252.729284 93.1295337,252.187845 C93.7098475,251.646406 94,250.922656 94,250.016575 C94,249.088393 93.7150288,248.353594 93.1450777,247.812155 C92.5751267,247.270716 91.8134763,247 90.8601036,247 L88,247 L88,253 Z M90.8529412,256.727786 L87.6470588,256.727786 L87.6470588,265 L83,265 L83,242 L90.8529412,242 C92.9705988,242 94.6911699,242.692048 96.0147059,244.076164 C97.3382419,245.46028 98,247.222838 98,249.363893 C98,251.548201 97.3382419,253.321573 96.0147059,254.684062 C94.6911699,256.046551 92.9705988,256.727786 90.8529412,256.727786 Z M112.941176,265 L111.441176,260.328632 L103.382353,260.328632 L101.882353,265 L97,265 L104.852941,242 L110.235294,242 L118,265 L112.941176,265 Z M107.52907,248 L105,256 L110,256 L107.52907,248 Z M129.932039,265 L126.23301,256.435825 L124.601942,256.435825 L124.601942,265 L120,265 L120,242 L128.184466,242 C130.184476,242 131.800965,242.681234 133.033981,244.043724 C134.266996,245.406213 134.883495,247.125519 134.883495,249.201693 C134.883495,250.758823 134.524275,252.105072 133.805825,253.24048 C133.087375,254.375887 132.087385,255.192287 130.805825,255.689704 L135,265 L129.932039,265 Z M124,252 L126.891192,252 C127.886015,252 128.652847,251.726747 129.19171,251.180233 C129.730573,250.633718 130,249.906981 130,249 C130,248.069763 129.730573,247.337212 129.19171,246.802326 C128.652847,246.267439 127.886015,246 126.891192,246 L124,246 L124,252 Z M153,246.898449 L146.37479,246.898449 L146.37479,265 L141.594958,265 L141.594958,246.898449 L135,246.898449 L135,242 L153,242 L153,246.898449 Z M165,254.016317 C165,256.278955 165.601461,258.008541 166.804401,259.205128 C168.007341,260.401715 169.41075,261 171.01467,261 C172.61859,261 174.017109,260.401715 175.210269,259.205128 C176.403429,258.008541 177,256.278955 177,254.016317 C177,251.753679 176.403429,250.018654 175.210269,248.811189 C174.017109,247.603724 172.61859,247 171.01467,247 C169.41075,247 168.007341,247.603724 166.804401,248.811189 C165.601461,250.018654 165,251.753679 165,254.016317 Z M160,254.016238 C160,250.443825 161.069641,247.548049 163.208955,245.328823 C165.348269,243.109596 167.950233,242 171.014925,242 C174.079617,242 176.676606,243.115009 178.80597,245.345061 C180.935334,247.575113 182,250.465476 182,254.016238 C182,257.567 180.935334,260.451951 178.80597,262.671177 C176.676606,264.890404 174.079617,266 171.014925,266 C167.950233,266 165.348269,264.890404 163.208955,262.671177 C161.069641,260.451951 160,257.567 160,254.016238 Z M188.870897,265 L184,265 L184,242 L198,242 L198,246.866008 L188.840263,246.866008 L188.840263,251.732017 L196.897155,251.732017 L196.897155,256.403385 L188.870897,256.403385 L188.870897,265 Z M223,246.898449 L216.37479,246.898449 L216.37479,265 L211.594958,265 L211.594958,246.898449 L205,246.898449 L205,242 L223,242 L223,246.898449 Z M243,265 L238.23,265 L238.23,255.851904 L229.74,255.851904 L229.74,265 L225,265 L225,242 L229.74,242 L229.74,251.018336 L238.23,251.018336 L238.23,242 L243,242 L243,265 Z M259,265 L246,265 L246,242 L258.971111,242 L258.971111,246.833568 L250.564444,246.833568 L250.564444,251.212976 L258.191111,251.212976 L258.191111,255.722144 L250.564444,255.722144 L250.564444,260.133992 L259,260.133992 L259,265 Z" id="Part-of-the" fill="#FFFFFF"></path>
        <path d="M604.522976,265 L600,265 L600,242 L613,242 L613,246.866008 L604.49453,246.866008 L604.49453,251.732017 L611.97593,251.732017 L611.97593,256.403385 L604.522976,256.403385 L604.522976,265 Z M628.941176,265 L627.441176,260.328632 L619.382353,260.328632 L617.882353,265 L613,265 L620.852941,242 L626.235294,242 L634,265 L628.941176,265 Z M623.52907,248 L621,256 L626,256 L623.52907,248 Z M659,265 L654.560399,265 L654.560399,249.753173 L649.261519,265 L645.595268,265 L640.296389,249.947814 L640.296389,265 L636,265 L636,242 L641.900374,242 L647.485679,257.538787 L652.784558,242 L659,242 L659,265 Z M667.8,265 L663,265 L663,242 L667.8,242 L667.8,265 Z M685,265 L672,265 L672,242 L676.426724,242 L676.426724,260.101551 L685,260.101551 L685,265 Z M691.157734,255.397743 L684,242 L689.382848,242 L693.601838,250.531735 L697.87902,242 L703,242 L695.754977,255.397743 L695.754977,265 L691.157734,265 L691.157734,255.397743 Z M715,254.016317 C715,256.278955 715.601461,258.008541 716.804401,259.205128 C718.007341,260.401715 719.41075,261 721.01467,261 C722.61859,261 724.017109,260.401715 725.210269,259.205128 C726.403429,258.008541 727,256.278955 727,254.016317 C727,251.753679 726.403429,250.018654 725.210269,248.811189 C724.017109,247.603724 722.61859,247 721.01467,247 C719.41075,247 718.007341,247.603724 716.804401,248.811189 C715.601461,250.018654 715,251.753679 715,254.016317 Z M711,254.016238 C711,250.443825 712.021021,247.548049 714.063094,245.328823 C716.105166,243.109596 718.588859,242 721.514247,242 C724.439635,242 726.918579,243.115009 728.951153,245.345061 C730.983728,247.575113 732,250.465476 732,254.016238 C732,257.567 730.983728,260.451951 728.951153,262.671177 C726.918579,264.890404 724.439635,266 721.514247,266 C718.588859,266 716.105166,264.890404 714.063094,262.671177 C712.021021,260.451951 711,257.567 711,254.016238 Z M739.522976,265 L735,265 L735,242 L748,242 L748,246.866008 L739.49453,246.866008 L739.49453,251.732017 L746.97593,251.732017 L746.97593,256.403385 L739.522976,256.403385 L739.522976,265 Z M767.439716,266 C764.489347,266 762.01183,264.890404 760.007092,262.671177 C758.002354,260.451951 757,257.577825 757,254.048714 C757,250.541254 758.01181,247.656304 760.035461,245.393775 C762.059112,243.131247 764.50826,242 767.382979,242 C768.820338,242 770.120562,242.24357 771.283688,242.730717 C772.446814,243.217864 773.387703,243.861972 774.106383,244.663058 C774.825063,245.464145 775.401889,246.28687 775.836879,247.131258 C776.27187,247.975647 776.574467,248.852499 776.744681,249.76184 L772.51773,251.288227 C772.423167,250.833557 772.271869,250.384305 772.06383,249.94046 C771.855791,249.496615 771.56265,249.041951 771.184397,248.576455 C770.806145,248.110958 770.286055,247.732072 769.624113,247.439783 C768.962172,247.147495 768.215134,247.001353 767.382979,247.001353 C765.869969,247.001353 764.536649,247.612984 763.382979,248.836265 C762.229309,250.059546 761.652482,251.797012 761.652482,254.048714 C761.652482,256.127209 762.219852,257.783485 763.35461,259.017591 C764.489367,260.251698 765.851056,260.868742 767.439716,260.868742 C768.990551,260.868742 770.191485,260.424903 771.042553,259.537212 C771.893621,258.649522 772.451535,257.653591 772.716312,256.549391 L777,257.945873 C776.810874,258.833563 776.503548,259.710415 776.078014,260.576455 C775.65248,261.442494 775.075654,262.297695 774.347518,263.142084 C773.619382,263.986472 772.654852,264.673881 771.453901,265.20433 C770.252949,265.734779 768.914901,266 767.439716,266 Z M783,254.016317 C783,256.278955 783.601461,258.008541 784.804401,259.205128 C786.007341,260.401715 787.41075,261 789.01467,261 C790.61859,261 792.017109,260.401715 793.210269,259.205128 C794.403429,258.008541 795,256.278955 795,254.016317 C795,251.753679 794.403429,250.018654 793.210269,248.811189 C792.017109,247.603724 790.61859,247 789.01467,247 C787.41075,247 786.007341,247.603724 784.804401,248.811189 C783.601461,250.018654 783,251.753679 783,254.016317 Z M778,254.016238 C778,250.443825 779.021021,247.548049 781.063094,245.328823 C783.105166,243.109596 785.588859,242 788.514247,242 C791.439635,242 793.918579,243.115009 795.951153,245.345061 C797.983728,247.575113 799,250.465476 799,254.016238 C799,257.567 797.983728,260.451951 795.951153,262.671177 C793.918579,264.890404 791.439635,266 788.514247,266 C785.588859,266 783.105166,264.890404 781.063094,262.671177 C779.021021,260.451951 778,257.567 778,254.016238 Z M826,265 L821.560399,265 L821.560399,249.753173 L816.261519,265 L812.595268,265 L807.296389,249.947814 L807.296389,265 L803,265 L803,242 L808.900374,242 L814.485679,257.538787 L819.784558,242 L826,242 L826,265 Z M834,253 L836.860104,253 C837.792751,253 838.54922,252.729284 839.129534,252.187845 C839.709847,251.646406 840,250.922656 840,250.016575 C840,249.088393 839.715029,248.353594 839.145078,247.812155 C838.575127,247.270716 837.813476,247 836.860104,247 L834,247 L834,253 Z M837.852941,256.727786 L834.647059,256.727786 L834.647059,265 L830,265 L830,242 L837.852941,242 C839.970599,242 841.69117,242.692048 843.014706,244.076164 C844.338242,245.46028 845,247.222838 845,249.363893 C845,251.548201 844.338242,253.321573 843.014706,254.684062 C841.69117,256.046551 839.970599,256.727786 837.852941,256.727786 Z M859.941176,265 L858.441176,260.328632 L850.382353,260.328632 L848.882353,265 L844,265 L851.852941,242 L857.235294,242 L865,265 L859.941176,265 Z M854.52907,248 L852,256 L857,256 L854.52907,248 Z M885,265 L880.12013,265 L871.587662,249.882934 L871.587662,265 L867,265 L867,242 L872.61039,242 L880.383117,255.981664 L880.383117,242 L885,242 L885,265 Z M892.8,265 L888,265 L888,242 L892.8,242 L892.8,265 Z M910,265 L897,265 L897,242 L909.971111,242 L909.971111,246.833568 L901.564444,246.833568 L901.564444,251.212976 L909.191111,251.212976 L909.191111,255.722144 L901.564444,255.722144 L901.564444,260.133992 L910,260.133992 L910,265 Z M927.623188,248.138024 L923.507246,249.437077 C923.410628,248.722595 923.09179,248.062249 922.550725,247.456022 C922.009659,246.849794 921.188411,246.546685 920.086957,246.546685 C919.256034,246.546685 918.579713,246.790255 918.057971,247.277402 C917.536229,247.764549 917.275362,248.343704 917.275362,249.014885 C917.275362,250.205689 917.951684,250.941812 919.304348,251.223275 L922.057971,251.807848 C923.9517,252.197566 925.415454,253.025704 926.449275,254.292287 C927.483097,255.55887 928,257.036527 928,258.725304 C928,260.652242 927.314017,262.346407 925.942029,263.807848 C924.570041,265.26929 922.724649,266 920.405797,266 C917.816412,266 915.811601,265.247639 914.391304,263.742896 C912.971007,262.238152 912.173914,260.533162 912,258.627876 L916.202899,257.491204 C916.299517,258.638707 916.70048,259.585923 917.405797,260.332882 C918.111115,261.079841 919.130428,261.453315 920.463768,261.453315 C921.352661,261.453315 922.057968,261.231396 922.57971,260.787551 C923.101452,260.343705 923.362319,259.76455 923.362319,259.050068 C923.362319,258.465491 923.169084,257.972938 922.782609,257.572395 C922.396133,257.171852 921.855076,256.895806 921.15942,256.744249 L918.347826,256.159675 C916.608687,255.791608 915.241551,255.001359 914.246377,253.788904 C913.251203,252.576449 912.753623,251.115029 912.753623,249.404601 C912.753623,247.282804 913.478254,245.518275 914.927536,244.110961 C916.376819,242.703647 918.10627,242 920.115942,242 C921.333339,242 922.420285,242.189443 923.376812,242.568336 C924.333338,242.947228 925.091785,243.450606 925.652174,244.078484 C926.212563,244.706363 926.652172,245.355883 926.971014,246.027064 C927.289857,246.698244 927.507246,247.401891 927.623188,248.138024 Z" id="Family-of-Companies" fill="#FFFFFF"></path>
        <path d="M557.641733,247.733413 C558.377032,247.733413 559.530171,248.555504 560.157559,250.193255 C559.934209,250.193255 559.591655,250.266587 559.350738,250.266587 C557.986797,250.266587 556.842441,249.59502 556.842441,248.555504 C556.842441,248.022881 557.176211,247.733413 557.641733,247.733413 Z M475.66438,246.765047 C476.41386,246.765047 477.516702,247.590502 478.14043,249.234953 C476.011455,249.234953 474.85957,248.762157 474.85957,247.590502 C474.85957,247.0557 475.212932,246.765047 475.66438,246.765047 Z M490.887237,239.828138 C490.887237,231.308084 492.547954,230 493.075446,230 C493.994141,230 494.112763,230.570255 494.112763,233.836713 C494.112763,237.194462 492.664053,241.587673 490.887237,244 L490.887237,239.828138 Z M456.14882,269.684676 C456.14882,275.387249 454.316061,282.05305 451.150502,281.999682 C449.944575,281.999682 448.913256,280.733166 448.854216,278.547679 C448.737392,271.415884 452.012238,265.344941 455.285828,261 C455.730514,264.150017 456.14882,267.24927 456.14882,269.684676 Z M538.418827,259.378132 C538.418827,260.322175 538.087686,261.26879 537.476347,261.26879 C537.039677,261.26879 536.581173,260.735033 536.581173,259.911889 C536.581173,259.027009 537.313809,257.614803 537.92636,256.73121 C538.262354,257.742133 538.418827,258.560133 538.418827,259.378132 Z M455.20271,234.206679 C454.137148,237.284001 453.119628,241.663317 453.119628,246.94132 C453.119628,250.082185 453.867369,254.23456 454.480838,258.442697 L452.676157,261 C449.81084,257.317069 448,253.173772 448,246.060788 C448,235.987194 453.80824,229 456.789351,229 C456.953189,229 457,229.053169 457,229.223051 C457,229.58486 456.218998,231.240882 455.20271,234.206679 Z M450.841663,262.985843 C447.819785,268.003851 445.430683,273.955232 445.430683,279.272745 C445.430683,283.100477 446.292653,286 449.025547,286 C454.706826,286 458.975571,273.733185 458.975571,264.640869 C458.975571,261.933701 458.867202,259.214914 458.635516,256.503873 C460.741862,254.191742 463.980478,251.071463 464.782658,250.778412 C464.442603,252.020327 464.209672,253.321627 464.209672,254.54805 C464.209672,259.504092 466.943811,264.232922 472.240194,264.232922 C477.187802,264.232922 480.947088,260.035972 480.947088,254.191742 C480.947088,253.437815 480.891035,252.775546 480.828753,252.070675 C482.657326,251.722113 484.314002,251.237998 485.897187,250.250405 L485.897187,262.1054 C485.897187,263.63262 486.919842,264.232922 487.880217,264.232922 C489.201821,264.232922 489.888158,263.285349 490.851024,261.112643 C491.643239,259.333683 493.811866,255.267122 495.125996,252.840095 C496.144915,250.950112 496.711673,249.718524 497.183763,249.718524 C497.288395,249.718524 497.39801,250.006411 497.39801,250.711282 L497.39801,260.805391 C497.39801,263.522887 498.755737,264.232922 499.954025,264.232922 C501.098751,264.232922 501.829931,263.583563 502.582287,262.518511 C505.538146,258.149862 508.67213,252.967901 509.916506,250.711282 C510.143209,250.313662 510.438421,250.006411 510.653914,250.006411 C510.875634,250.006411 511.002688,250.132926 511.002688,250.889436 L511.002688,261.459914 C511.002688,263.346024 511.566954,264.232922 512.984471,264.232922 C514.298602,264.232922 515.148116,263.285349 515.663803,262.166076 C517.545937,258.095641 520.332392,252.721325 521.526943,250.604131 C521.813436,250.132926 522.101175,249.718524 522.274316,249.718524 C522.498528,249.718524 522.560809,250.006411 522.560809,250.778412 L522.560809,260.805391 C522.560809,263.522887 523.911063,264.232922 525.10935,264.232922 C526.713711,264.232922 527.740103,263.049101 528.754039,261.697453 C530.634927,259.149074 533.372803,254.624218 535.02076,251.722113 C535.586272,252.667104 536.219048,253.79025 536.732244,255.024419 C535.353341,256.73883 534.000596,258.679161 534.000596,260.744716 C534.000596,262.930331 535.462956,264.232922 537.013755,264.232922 C539.627068,264.232922 542.017416,261.629032 542.017416,258.034966 C542.017416,256.625224 541.61508,255.144479 541.109358,253.734738 C543.437425,251.368387 546.227617,249.067874 548.277909,248.535994 C547.30757,249.95219 546.512864,251.959652 546.512864,254.54805 C546.512864,259.504092 549.249494,264.232922 554.540894,264.232922 C559.665381,264.232922 563.240314,260.035972 563.240314,254.191742 C563.240314,252.491532 563.189244,252.255284 563.080875,251.554286 C564.26297,251.015951 565.298081,250.19102 566.102752,249.533915 C566.767914,249.003326 567.28983,248.705111 567.684692,248.705111 C568.196642,248.705111 568.44203,249.120804 568.44203,249.887642 L568.44203,261.459914 C568.44203,263.346024 569.003805,264.232922 570.420076,264.232922 C571.729225,264.232922 572.643511,263.285349 573.156707,262.166076 C575.026385,258.095641 577.760524,252.667104 578.952583,250.604131 C579.236585,250.132926 579.470762,249.771454 579.640166,249.771454 C579.870606,249.771454 579.986449,249.95219 579.986449,250.711282 L579.986449,259.930112 C579.986449,262.518511 581.114982,264.232922 583.619927,264.232922 C586.250679,264.232922 587.553599,261.629032 589.834332,257.621855 C589.943947,257.379152 590,257.208744 590,257.035753 C590,256.503873 589.541611,256.204367 589.088205,256.204367 C588.5775,256.204367 588.288516,256.73883 586.584506,258.679161 C586.250679,259.048379 585.904397,259.559604 585.279095,259.559604 C585.043672,259.559604 584.881741,259.276881 584.881741,258.920572 L584.881741,248.586342 C584.881741,245.812043 583.674734,244.694062 582.136392,244.694062 C580.896998,244.694062 579.870606,245.22336 578.78567,246.879677 C576.847483,249.834712 574.864454,254.026498 573.783254,256.138528 C573.66492,256.387685 573.498007,256.73883 573.375936,256.73883 C573.25262,256.73883 573.21276,256.559385 573.21276,256.138528 L573.21276,248.586342 C573.21276,246.409763 572.643511,244.694062 570.420076,244.694062 C568.084536,244.694062 566.893722,246.346506 565.189712,247.584548 C564.093565,248.418516 563.134437,249.003326 562.390801,249.355761 C561.261022,246.346506 559.147202,244.825741 557.390876,244.872216 C555.615865,244.935473 554.377718,246.05991 554.377718,247.948602 C554.377718,249.887642 555.511233,251.237998 557.040856,251.8383 C557.892861,252.190736 558.693796,252.255284 559.843505,252.255284 C560.176086,252.255284 560.507421,252.255284 560.747826,252.190736 C560.863669,252.775546 560.805124,253.614678 560.805124,254.261455 C560.805124,257.155814 559.147202,260.035972 556.070517,260.035972 C552.885463,260.035972 551.015785,256.853726 551.015785,253.197694 C551.015785,250.419522 551.806755,248.121592 553.109675,246.536278 C553.627854,245.94114 554.030189,245.583541 554.030189,245.042624 C554.030189,244.765065 553.627854,244.694062 553.287799,244.694062 C551.134119,244.694062 548.738789,245.702311 547.08585,246.580172 C544.92096,247.761411 542.361208,249.718524 540.257353,251.662728 C539.235943,249.297667 537.987831,247.232112 537.348827,245.637762 C537.118387,244.985821 536.965175,244.229312 536.491839,244.229312 C536.096977,244.229312 535.923836,244.645005 535.642325,245.457026 C534.615933,248.586342 529.15762,257.739333 527.961824,258.978666 C527.848472,259.149074 527.674085,259.333683 527.616786,259.333683 C527.510909,259.333683 527.446136,259.276881 527.446136,258.920572 L527.446136,248.586342 C527.446136,245.812043 526.373656,244.694062 524.87891,244.694062 C523.627061,244.694062 522.560809,245.22336 521.526943,246.879677 C519.646055,249.834712 517.369059,254.140103 516.286614,256.259879 C516.120946,256.625224 515.95777,256.73883 515.901717,256.73883 C515.836944,256.73883 515.780891,256.503873 515.780891,256.138528 L515.780891,248.586342 C515.780891,245.812043 514.704674,244.694062 513.223631,244.694062 C511.965553,244.694062 510.763528,245.176885 509.808137,246.879677 C507.40907,251.071463 503.4318,257.503085 502.684427,258.560391 C502.582287,258.742418 502.460216,258.862479 502.33939,258.920572 C502.240986,258.920572 502.173723,258.799221 502.173723,258.503588 L502.173723,248.586342 C502.173723,245.812043 501.098751,244.694062 499.611479,244.694062 C497.556204,244.694062 496.42518,246.651175 495.679052,247.885344 C494.657643,249.595882 493.301161,251.900267 492.211242,254.026498 C491.476326,255.446567 490.851024,256.73883 490.621829,256.73883 C490.508478,256.73883 490.508478,256.204367 490.508478,255.199991 L490.508478,247.297952 C494.098359,243.160387 496.309337,238.095904 496.309337,232.547306 C496.309337,229.356024 494.946627,227.593847 492.836544,227.593847 C488.9091,227.593847 485.897187,233.964794 485.897187,241.510525 L485.897187,247.647805 C484.071106,248.829045 482.362113,249.406109 480.258259,249.834712 C479.183288,246.536278 476.901309,244.825741 475.091421,244.872216 C473.317656,244.935473 472.064561,246.05991 472.064561,247.948602 C472.064561,251.071463 475.020421,252.370181 477.642454,252.370181 L478.387335,252.370181 C478.491968,252.967901 478.491968,253.614678 478.491968,254.261455 C478.491968,257.155814 476.850239,260.035972 473.772308,260.035972 C470.582271,260.035972 468.713839,256.853726 468.713839,253.197694 C468.713839,250.419522 469.509791,248.121592 470.808975,246.536278 C471.319679,245.94114 471.722015,245.411842 471.722015,245.042624 C471.722015,244.765065 471.319679,244.694062 470.984607,244.694062 C468.817226,244.694062 464.039022,247.716227 458.342795,253.614678 C457.842055,248.894884 457.261596,244.284823 457.261596,239.801278 C457.261596,234.788434 458.231935,230.530808 458.462375,229.305676 C458.573235,228.542711 458.635516,228.065052 458.635516,227.71778 C458.635516,227.241412 458.401339,227 457.790985,227 C453.179694,227 443.040335,234.619316 443.040335,246.003107 C443.040335,250.653188 444.01192,253.969695 445.719667,256.853726 C445.080663,256.73883 444.582415,256.73883 444.114061,256.73883 C442.297945,256.73883 440.587707,257.208744 439.522701,257.446282 L439.522701,256.259879 C439.522701,253.734738 438.945978,250.250405 437.919586,249.067874 C437.797515,248.946523 437.62811,248.894884 437.466179,248.894884 C437.001563,248.894884 436.438542,249.120804 435.81324,249.479695 C435.128148,249.834712 434.443056,250.19102 434.443056,250.419522 C434.443056,250.537001 434.443056,250.653188 434.613706,250.950112 C435.017288,251.554286 436.098487,252.721325 436.489612,255.499497 C434.552671,253.494617 432.344184,252.603847 429.450605,252.603847 C426.030129,252.603847 425,254.191742 425,255.793838 C425,258.862479 428.927444,260.393571 433.886263,260.393571 C434.79183,260.393571 435.81324,260.216708 436.835895,259.975296 C436.835895,260.918997 436.952983,261.758129 436.952983,262.461708 C436.952983,263.464794 437.11616,264.232922 437.750181,264.232922 C438.713047,264.232922 439.286032,262.222879 439.396893,259.333683 C441.160693,258.862479 442.984283,258.453241 444.527608,258.453241 C445.261279,258.453241 446.181793,258.560391 447.08736,258.742418 C448.102541,260.158615 449.355636,261.512844 450.841663,262.985843 Z M433.655409,258.239639 C431.430008,258.239639 429.787747,257.352713 429.787747,256.065574 C429.787747,255.240618 430.181491,254.760361 431.319112,254.760361 C433.144539,254.760361 434.618587,256.065574 436.212253,258.123447 C435.256551,258.239639 434.669674,258.239639 433.655409,258.239639 Z" id="Fill-2" fill="#FFFFFF"></path>
    </g>
</svg>