<?xml version="1.0" encoding="UTF-8"?>
<svg width="350px" height="350px" viewBox="0 0 350 350" version="1.1" xmlns="http://www.w3.org/2000/svg" xmlns:xlink="http://www.w3.org/1999/xlink">
    <!-- Generator: Sketch 55.2 (78181) - https://sketchapp.com -->
    <title>JJMDC-Company-BWI-Icon1</title>
    <desc>Created with Sketch.</desc>
    <defs>
        <ellipse id="path-1" cx="111.5" cy="111.5" rx="111.5" ry="111.096014"></ellipse>
    </defs>
    <g id="JJMDC-Company-BWI-Icon1" stroke="none" stroke-width="1" fill="none" fill-rule="evenodd">
        <g id="globe" transform="translate(64.000000, 64.000000)">
            <mask id="mask-2" fill="white">
                <use xlink:href="#path-1"></use>
            </mask>
            <ellipse stroke="#767883" stroke-width="1.782" cx="111.5" cy="111.5" rx="112.391" ry="111.987014"></ellipse>
            <g id="inner" mask="url(#mask-2)" fill-rule="nonzero">
                <g transform="translate(-2.432727, -2.423913)" id="Path">
                    <path d="M1.89750914,113.568817 C1.93263871,50.8766414 52.2395391,0.0821024472 114.264024,0.113123234 C176.288509,0.144172449 226.54563,50.9890303 226.519327,113.681211 C226.493004,176.373391 176.193219,227.175129 114.16873,227.152978 C84.3759554,227.14872 55.8061328,215.177154 34.7491448,193.873913 C13.6921568,172.570672 1.87436113,143.682303 1.89750914,113.568817 L1.89750914,113.568817 Z" fill="#F58720"></path>
                    <path d="M153.083418,44.5515217 C149.896545,40.1642391 145.963636,36.6414855 142.192909,32.9652174 C140.960327,31.7613406 139.760182,30.5413043 138.478945,29.3939855 C138.240243,29.1731746 138.122579,28.8515228 138.162691,28.5294565 C138.243782,26.8246377 138.324873,25.1198188 138.381636,23.4069203 C138.381636,22.9625362 138.560036,22.8817391 138.989818,22.9625362 C142.574036,23.6735507 146.166364,24.3603261 149.750582,25.0632609 C150.131155,25.1526001 150.479299,25.3456234 150.756109,25.6207609 C153.375345,27.9800362 155.986473,30.355471 158.646255,32.6662681 C159.362106,33.3659239 159.891643,34.2323285 160.186982,35.1871377 C161.727709,39.0169203 163.079224,42.9140338 164.241527,46.8784783 C164.383753,47.2728029 164.640655,47.6159718 164.979455,47.8642029 C168.8556,51.346558 172.747964,54.8127536 176.591673,58.3274275 C177.684689,59.4275893 179.045346,60.2265496 180.5408,60.6463043 C181.124655,60.7917391 181.449018,60.7513406 181.781491,60.1938406 C183.095164,58.0123188 184.481818,55.8631159 185.836036,53.6815942 C186.083614,53.1886303 186.588362,52.8762581 187.1416,52.8736232 C192.396291,52.4534783 197.683418,51.9606159 202.905673,51.540471 C204.545835,51.3507076 206.154174,50.9487218 207.690036,50.3446739 C207.910217,50.2160984 208.174531,50.1857584 208.418287,50.2610798 C208.662043,50.3364011 208.862746,50.5104326 208.971273,50.7405797 C215.605219,60.5995717 220.632771,71.4417714 223.867673,82.8655072 C225.584264,88.915046 226.796637,95.0954722 227.492436,101.343804 C228.139409,107.088776 228.329213,112.875742 228.060073,118.650543 C227.009648,143.265757 217.895202,166.860428 202.110982,185.825254 C191.402112,198.749162 177.95075,209.146751 162.725127,216.269601 C155.732265,219.537382 148.42698,222.095389 140.919782,223.904928 C140.700836,223.961486 140.465673,223.969565 140.254836,224.034203 C139.808836,224.179638 139.727745,224.034203 139.833164,223.614058 C140.595418,220.920821 141.349564,218.227585 142.0956,215.534348 C142.233455,215.033406 142.638909,214.847572 143.011927,214.597101 C148.958594,210.648816 154.889042,206.703225 160.803273,202.760326 C161.351946,202.421642 161.767085,201.905312 161.979091,201.297899 C163.446836,197.258043 164.963236,193.218188 166.439091,189.113696 C166.612493,188.593088 167.00251,188.172101 167.509491,187.958297 C171.564036,186.108043 175.553709,184.225471 179.583927,182.375217 C180.001956,182.203547 180.344339,181.888205 180.548909,181.486449 C184.365588,174.193164 188.195782,166.899879 192.039491,159.606594 C192.371964,158.984457 192.201673,158.725906 191.658364,158.410797 C185.811709,155.001159 179.981273,151.559203 174.142727,148.149565 C172.715527,147.341594 171.872182,145.959964 170.809891,144.796486 C168.377164,142.146341 166.033636,139.439638 163.682,136.716775 C163.411032,136.391517 163.011442,136.199819 162.587273,136.191594 C157.324473,135.924964 152.386036,134.155507 147.350291,132.862754 C143.587673,131.901268 139.711527,131.545761 135.884036,130.907464 C134.700109,130.705471 133.613491,131.327609 132.494436,131.618478 C130.613127,132.114034 128.745333,132.639215 126.891055,133.194022 C126.35189,133.427783 125.722086,133.252346 125.382764,132.773877 C124.044764,131.198333 122.625673,129.687428 121.279564,128.119964 C120.666045,127.352244 119.807762,126.816335 118.846836,126.600978 C117.516945,126.302029 116.235709,125.833406 114.922036,125.485978 C114.362509,125.340543 114.224655,125.049674 114.2652,124.516413 C114.411164,122.326812 114.500364,120.13721 114.686873,117.955688 C114.743636,117.317391 114.5328,117.268913 114.013818,117.285072 C112.7488,117.322778 111.483782,117.338937 110.218764,117.333551 C109.662046,117.309131 109.126623,117.548899 108.775345,117.979928 C107.688727,119.256522 106.569673,120.516957 105.458727,121.777391 C105.231673,122.044022 105.069491,122.37529 104.647818,122.512645 C104.023418,119.910978 103.415236,117.317391 102.798945,114.731884 C102.571891,113.786558 102.377273,112.841232 102.109673,111.912065 C102.039672,111.755487 102.041498,111.576312 102.114674,111.421181 C102.18785,111.266051 102.325138,111.150313 102.4908,111.104094 C105.404667,109.714384 108.321236,108.324674 111.240509,106.934964 C111.638437,106.782772 112.086531,106.840479 112.432545,107.088478 C114.995018,108.268116 117.541273,109.463913 120.111855,110.611232 C121.571491,111.265688 123.120327,110.813225 124.620509,110.885942 C125.017855,110.885942 124.985418,110.473877 125.050291,110.223406 C125.319816,109.328643 125.539102,108.419614 125.707127,107.500543 C126.08897,105.344715 127.082275,103.342873 128.569636,101.73163 C132.267382,97.4897826 135.867818,93.1348188 139.435818,88.8040942 C139.972716,88.1589226 140.641789,87.63552 141.398218,87.2689493 C146.669127,84.6349638 151.940036,82.0413768 157.162291,79.2781159 C158.698117,78.4564694 160.475876,78.2017889 162.181818,78.5590217 C164.379382,78.9387681 166.609382,79.1569203 168.815055,79.4801087 C169.471891,79.5770652 169.780036,79.3427536 169.853018,78.7125362 C169.845205,78.6481329 169.845205,78.5830265 169.853018,78.5186232 C170.777455,76.2643841 169.853018,74.7292391 168.174436,73.1294565 C164.541564,69.7278986 161.143855,66.0677899 157.632618,62.5288768 C157.324609,62.1971878 157.072656,61.8178992 156.886582,61.4057971 C155.491818,58.6344565 154.080836,55.8792754 152.718509,53.0917754 C152.520005,52.5375509 151.956917,52.1995703 151.3724,52.2838043 C150.277673,52.3403623 149.166727,52.2191667 148.063891,52.2838043 C146.218897,52.5409873 144.347785,52.0457741 142.874073,50.9102536 C140.814364,49.2458333 138.26,49.2054348 135.819164,48.8256884 C134.635236,48.6398551 133.4432,48.5267391 132.267382,48.3005072 C131.683527,48.195471 131.456473,48.3489855 131.334836,48.9226449 C130.759091,52.3161232 130.134691,55.7096014 129.591382,59.1111594 C129.469745,59.8544928 129.210255,59.9918478 128.520982,59.8625725 C124.558339,59.0707609 120.590291,58.3031884 116.616836,57.5598551 C116.154618,57.4709783 115.96,57.3013043 115.903236,56.8326812 C115.611309,54.3683696 115.295055,51.904058 114.970691,49.4478261 C114.8896,48.8741667 115.100436,48.6398551 115.659964,48.5509783 C118.2792,47.9934783 120.898436,47.3713406 123.517673,46.8057609 C124.069227,46.7502065 124.504174,46.3134499 124.555636,45.7634783 C125.423309,41.8286594 126.372073,37.91 127.247855,33.9832609 C127.426255,33.1752899 127.701964,33.0298551 128.472327,33.3530435 C131.3916,34.5919324 134.327091,35.7931159 137.2788,36.9565942 C137.562354,37.013912 137.809801,37.1848319 137.963146,37.4292951 C138.116492,37.6737583 138.162254,37.9702741 138.089709,38.2493478 C137.895091,39.5663406 137.968073,40.891413 137.895091,42.2084058 C137.817815,42.6664649 138.107569,43.1065631 138.560036,43.2183696 C141.536966,44.5675116 144.607419,45.7015961 147.747636,46.6118478 C148.265264,46.7892819 148.834164,46.7393531 149.312691,46.4744928 C150.561491,45.8281159 151.802182,45.1898188 153.083418,44.5515217 Z" fill="#767883"></path>
                    <path d="M105.507382,119.199964 C104.964073,116.945725 104.469418,114.845 103.958545,112.736196 C103.893959,112.586899 103.896975,112.41713 103.966824,112.270204 C104.036674,112.123279 104.166601,112.013407 104.323455,111.968623 C106.642655,110.894022 108.953745,109.81942 111.256727,108.696341 C111.619976,108.551284 112.0323,108.599975 112.351455,108.825616 C114.646327,109.875978 116.9412,110.918261 119.219855,112.000942 C120.025277,112.416823 120.924302,112.619901 121.830982,112.590761 C122.932611,112.518042 124.037862,112.518042 125.139491,112.590761 C125.9504,112.655399 126.258545,112.307971 126.420727,111.564638 C126.850509,109.641667 127.369491,107.742935 127.807382,105.828043 C127.939037,105.265369 128.203087,104.741951 128.577745,104.300978 C132.616073,99.4908575 136.648994,94.6807367 140.676509,89.8706159 C141.087907,89.3714541 141.602321,88.966374 142.1848,88.6828986 C147.593564,85.9761957 153.010436,83.2694928 158.402982,80.4900725 C159.322753,80.0308555 160.369475,79.888767 161.379018,80.086087 C164.387491,80.4981522 167.412183,80.894058 170.428764,81.2899638 C170.9072,81.3546014 171.036945,81.2414855 171.118036,80.7971014 C171.447806,78.9549275 171.7992,77.1181401 172.172218,75.2867391 C172.261418,74.8342754 171.953273,74.6403623 171.718109,74.397971 C167.560848,70.1803623 163.400885,65.9627536 159.238218,61.7451449 C158.826902,61.3367238 158.484603,60.8646973 158.224582,60.3473551 C156.740618,57.365942 155.224218,54.4087681 153.772691,51.4192754 C153.573012,50.8348941 152.968996,50.4890161 152.361709,50.6113043 C151.850836,50.6678623 151.323745,50.6113043 150.804764,50.6113043 C147.407055,50.9668116 144.276945,50.4093116 141.503636,48.2358696 C140.692727,47.581413 139.516909,47.7672464 138.503273,47.6056522 C135.981345,47.2178261 133.4432,46.8946377 130.913164,46.4825725 C130.280655,46.3775362 130.102255,46.6280072 130.045491,47.137029 C129.461636,50.5062681 128.845345,53.8674275 128.302036,57.2447464 C128.196618,57.9072826 128.026327,58.1092754 127.345164,57.9719203 C124.263709,57.3578623 121.182255,56.7761232 118.092691,56.2024638 C117.723851,56.1784372 117.431275,55.883451 117.411527,55.5156884 C117.200691,53.8512681 117.006073,52.1868478 116.779018,50.5305072 C116.681709,49.8518116 117.216909,49.9083696 117.589927,49.8275725 C119.949673,49.2862319 122.317527,48.7448913 124.693491,48.252029 C125.375251,48.210603 125.930673,47.6911453 126.015273,47.0158333 C126.826182,43.1133333 127.807382,39.2350725 128.731818,35.2517754 L136.127309,38.2655072 C136.540873,38.4351812 136.451673,38.774529 136.435455,39.0734783 C136.378691,40.4955072 136.330036,41.9094565 136.240836,43.3314855 C136.164437,43.7528479 136.431216,44.1604272 136.849018,44.2606522 C140.554873,45.7957971 144.212073,47.4521377 148.136873,48.4136232 C148.527194,48.554807 148.958789,48.5284786 149.328909,48.3409058 C151.266982,47.3067029 153.221273,46.2886594 155.191782,45.3029348 C155.735091,45.0363043 155.597236,44.8343116 155.305309,44.4949638 C151.064255,39.0653986 146.052836,34.371087 141.073855,29.6606159 C140.106195,28.8853536 139.637295,27.6477346 139.849382,26.4287319 C140.068327,24.8774275 139.962909,24.8774275 141.4712,25.1763768 C143.903927,25.6530797 146.336655,26.1217029 148.720727,26.5580072 C149.168015,26.6296279 149.584882,26.8288865 149.920873,27.1316667 C152.445503,29.4047585 154.978242,31.6697705 157.519091,33.9267029 C157.925907,34.292753 158.239921,34.7496074 158.435418,35.2598551 C160.057236,39.2997101 161.508764,43.3395652 162.717018,47.4925362 C162.868474,48.017097 163.166603,48.487891 163.576582,48.8499275 C167.850073,52.6635507 172.147891,56.4610145 176.356509,60.3473551 C177.353389,61.2081938 178.553084,61.8030882 179.843418,62.076413 C180.589455,62.2784058 181.465236,62.8843841 182.032873,62.6258333 C182.600509,62.3672826 182.932982,61.4381159 183.346545,60.7836594 C184.481818,58.9818841 185.617091,57.1801087 186.719927,55.3540942 C187.000282,54.7789577 187.586513,54.4146762 188.228218,54.4168478 C193.491018,54.0128623 198.770036,53.5280797 204.008509,53.0756159 C205.039029,52.9474876 206.046325,52.6754968 207.000764,52.2676449 C207.237269,52.1340001 207.520244,52.1088572 207.776752,52.1986968 C208.033259,52.2885364 208.238205,52.4845692 208.338764,52.7362681 C212.61914,59.2883596 216.203733,66.2663952 219.034655,73.5576812 C222.03473,81.298142 224.151005,89.3504196 225.343527,97.5625 C225.946721,101.7808 226.314897,106.029158 226.446364,110.288043 C227.022502,128.00435 223.32979,145.600316 215.677491,161.602283 C201.467447,191.254444 174.911405,213.197962 143.036255,221.626449 C142.0064,221.901159 142.0064,221.89308 142.298327,220.818478 C142.590255,219.743877 142.971382,218.725833 143.166,217.651232 C143.368137,216.573638 144.047458,215.644441 145.014873,215.122283 C150.748,211.349058 156.440582,207.519275 162.157491,203.729891 C162.702246,203.388835 163.114113,202.873017 163.3252,202.267464 C164.784836,198.227609 166.293127,194.187754 167.768982,190.147899 C167.921618,189.660739 168.28432,189.266767 168.758291,189.073297 C172.731745,187.255362 176.680873,185.388949 180.654327,183.571014 C181.158504,183.356028 181.569523,182.969409 181.813927,182.480254 C185.906315,174.702186 190.004109,166.913345 194.107309,159.113732 C194.456,158.459275 194.431673,158.176486 193.750509,157.78058 C187.538945,154.168949 181.351709,150.508841 175.148255,146.881051 C174.644437,146.590745 174.190078,146.222575 173.802145,145.79029 C170.742315,142.316014 167.687891,138.841739 164.638873,135.367464 C164.35725,134.969913 163.916513,134.713502 163.430618,134.664529 C158.0624,134.422138 153.018545,132.717319 147.8936,131.359928 C144.163418,130.366123 140.303491,130.075254 136.540873,129.34808 C135.586476,129.19615 134.609259,129.27937 133.694582,129.590471 C131.545673,130.204529 129.388655,130.778188 127.247855,131.408406 C126.788999,131.593459 126.262724,131.435476 125.982836,131.028659 C124.563745,129.412717 123.087891,127.796775 121.660691,126.180833 C121.32879,125.780939 120.876848,125.497729 120.371345,125.372862 C119.252291,125.073913 118.149455,124.678007 117.014182,124.427536 C116.203273,124.241703 115.927564,123.918514 116.008655,123.053986 C116.211382,120.775507 116.284364,118.48087 116.454655,116.194312 C116.4952,115.69337 116.381673,115.564094 115.911345,115.588333 C113.584036,115.66913 111.248618,115.741848 108.921309,115.798406 C108.523964,115.798406 108.353673,116.048877 108.1104,116.283188 C107.291382,117.196196 106.456145,118.133442 105.507382,119.199964 Z" fill="#FEFEFE"></path>
                    <path d="M27.9520364,53.8027899 L22.1540364,58.3678261 C21.0593091,59.2242754 19.9889091,60.1211232 18.8617455,60.9371739 C18.2130182,61.4057971 18.3833091,61.632029 18.9509455,61.9875362 C20.2970545,62.7955072 21.6107273,63.7165942 22.9244,64.5972826 C23.2707907,64.8387648 23.6857014,64.9633534 24.1083273,64.9527899 C27.8709455,64.9527899 31.6335636,65.0659058 35.3880727,64.8962319 C37.4816889,64.6989829 39.5596084,64.3615659 41.6077455,63.8862681 C45.938,63.1267754 50.2682545,62.3672826 54.5822909,61.5673913 C54.9145242,61.4722998 55.2650365,61.6434285 55.3932,61.9632971 C59.3017818,68.2924034 63.2130667,74.61343 67.1270545,80.9263768 C67.3726188,81.3815537 67.4797011,81.8981789 67.4352,82.4130435 C67.4352,87.7133333 67.4352,93.0136232 67.4352,98.313913 C67.4182726,99.0183004 67.6476007,99.7066484 68.0839273,100.261123 C72.9493818,106.821848 77.8148364,113.390652 82.6802909,119.967536 C82.8668,120.218007 82.9803273,120.525036 83.3614545,120.605833 C84.3183273,120.823986 84.6426909,120.605833 84.6426909,119.58779 L84.6426909,110.360761 C85.0296938,110.815527 85.326847,111.339144 85.5184727,111.903986 C87.680897,116.385531 89.8298061,120.869771 91.9652,125.356703 C92.1740407,125.831386 92.6170811,126.162462 93.1329091,126.229312 C98.8092727,127.489746 104.485636,128.77442 110.162,130.026775 C110.66594,130.124954 111.125778,130.379494 111.475673,130.753949 C113.9084,133.23442 116.422218,135.698732 118.887382,138.179203 C119.220799,138.52496 119.640654,138.77596 120.103745,138.906377 C122.374291,139.560833 124.620509,140.279928 126.891055,140.942464 C127.499236,141.112138 127.653309,141.306051 127.353273,141.928188 C125.0584,146.63058 122.812182,151.36529 120.5092,156.059601 C120.034426,156.821675 120.034426,157.786078 120.5092,158.548152 C122.941927,162.903116 125.269236,167.290399 127.612764,171.677681 C128.322615,173.299471 128.865987,174.98865 129.234582,176.71942 C130.434727,180.759275 131.497018,184.79913 132.778255,188.790507 C133.345891,190.559964 132.932327,192.159746 132.518764,193.799928 C131.107782,199.455725 129.6968,205.111522 128.220945,210.767319 C128.023081,211.834478 128.009369,212.927449 128.1804,213.999203 C128.472327,217.828986 128.837236,221.642609 129.210255,225.464312 C129.258909,225.997572 129.048073,226.046051 128.642618,226.094529 C126.420727,226.320761 124.206945,226.61163 121.985055,226.805543 C117.846136,227.115135 113.692555,227.182582 109.545709,227.007536 C102.557051,226.764741 95.608017,225.852924 88.7945455,224.284674 C79.3442506,222.142588 70.2109506,218.794167 61.6209818,214.322391 C42.930849,204.5757 27.3037398,189.877538 16.4614545,171.847355 C7.16090334,156.3614 1.72695911,138.877288 0.616290909,120.864384 C0.352849342,116.608539 0.320365639,112.34162 0.518981818,108.082283 C1.06638897,96.8234565 3.33042219,85.7132203 7.23330909,75.1332246 C9.46965751,69.0697822 12.2035586,63.2002201 15.4072727,57.5840942 C15.8359206,56.6922548 16.6743768,56.0649371 17.6534909,55.9035145 C20.8241455,55.2732971 23.9623636,54.4895652 27.1086909,53.7623913 C27.3778692,53.629481 27.6968963,53.6447633 27.9520364,53.8027899 Z" fill="#767883"></path>
                    <path d="M164.8416,12.3942754 C162.748005,12.8050089 160.633946,13.1043819 158.5084,13.2911232 C156.895137,13.2306631 155.290882,13.0224057 153.715927,12.6689855 C151.826509,12.3942754 149.937091,12.1034058 148.039564,11.8206159 C147.621972,11.7604318 147.197279,11.8647712 146.855636,12.1114855 C144.693212,13.5712198 142.506461,15.0201812 140.295382,16.4583696 C139.804543,16.8290141 139.360699,17.257684 138.9736,17.7349638 C137.611273,19.2458696 136.184073,20.7082971 134.919055,22.3080797 C134.173018,23.2453261 133.183709,23.1160507 132.2836,23.1968478 C126.290982,23.778587 120.298364,24.2956884 114.297636,24.8127899 C112.505527,24.9663043 110.7864,24.336087 109.026727,24.1340942 C108.102291,24.029058 107.177855,23.8593841 106.261527,23.665471 C105.693891,23.5442754 105.531709,23.9078623 105.304655,24.2714493 C103.7396,26.6953623 102.158327,29.1677536 100.625709,31.6401449 C100.332765,32.183687 99.760902,32.5199569 99.1417455,32.5127536 C95.1682909,32.7174396 91.1921333,32.9275121 87.2132727,33.142971 C86.5999194,33.1640174 85.9881487,33.2179602 85.3806182,33.3045652 C82.6559636,33.7166304 80.2313455,32.5369928 77.7094182,31.8986957 C76.3065455,31.5351087 74.9036727,31.1311232 73.5251273,30.6786594 C72.9848604,30.4865672 72.3857093,30.5552199 71.9033091,30.8644928 C69.7868364,32.0602899 67.6054909,33.1510507 65.5457818,34.4195652 C64.1044271,35.2161805 62.5094775,35.6981647 60.8668364,35.8335145 C55.1337091,36.6414855 49.3762545,37.2797826 43.6755636,38.2574275 C40.9885775,38.8385518 38.3378261,39.5750515 35.7367636,40.4631884 C33.1256364,41.2146014 30.5064,41.9579348 27.9033818,42.733587 C27.1013905,42.8802417 26.2841397,42.9263848 25.4706545,42.870942 C39.9129455,25.2652536 57.6475273,12.7174638 79.2258182,5.86586957 C108.596945,-3.45003623 137.173382,-1.01804348 164.890255,12.1599638 L164.8416,12.3942754 Z" fill="#767883"></path>
                    <path d="M15.5045818,61.6481884 C17.7994545,63.1590942 20.1024364,64.67 22.3892,66.1970652 C22.7380102,66.4326631 23.151836,66.5541017 23.5731273,66.5444928 C27.5546909,66.5444928 31.5524727,66.6333696 35.5340364,66.5040942 C38.1857091,66.4152174 40.7725091,65.6961232 43.3836364,65.2194203 C46.7651273,64.6376812 50.1385091,64.0236232 53.5118909,63.4014855 C54.0157832,63.2540665 54.5517285,63.4986745 54.7688,63.9751449 C58.3151758,69.7656039 61.8939879,75.5399034 65.5052364,81.2980435 C65.7476762,81.7137115 65.8605825,82.1918246 65.8296,82.6715942 C65.8296,88.1011594 65.8296,93.5307246 65.8296,98.9602899 C65.8081815,99.5440663 65.994913,100.116543 66.3566909,100.576232 C71.5519152,107.578647 76.7417333,114.599915 81.9261455,121.640036 C82.2074399,122.113593 82.7389266,122.381526 83.2884727,122.326812 C84.0987684,122.282368 84.9109043,122.282368 85.7212,122.326812 C86.2726182,122.326812 86.4510182,122.132899 86.4429091,121.591558 C86.3899246,120.331034 86.4496267,119.068312 86.6213091,117.818333 C87.6106182,119.8625 88.5918182,121.906667 89.5811273,123.958913 C89.900705,124.485696 90.1721006,125.040041 90.3920364,125.615254 C90.8137091,127.166558 91.8922182,127.683659 93.3680727,127.990688 C98.7281818,129.097609 104.047745,130.333804 109.391636,131.505362 C109.989798,131.627233 110.53605,131.92898 110.956691,132.369891 C113.332655,134.793804 115.749164,137.217717 118.133236,139.64163 C118.485833,140.025141 118.937487,140.304656 119.4388,140.449601 C121.141709,140.950543 122.8284,141.516123 124.547527,141.968587 C125.358436,142.178659 125.520618,142.372572 125.131382,143.172464 C122.909491,147.689022 120.760582,152.245978 118.554909,156.770616 C118.287221,157.204198 118.287221,157.750983 118.554909,158.184565 C120.760582,162.22442 122.909491,166.264275 125.139491,170.263732 C126.192644,172.218224 127.009265,174.290349 127.572218,176.43663 C128.766958,180.745809 130.002242,185.022669 131.278073,189.26721 C131.596825,190.319197 131.61088,191.439497 131.318618,192.499094 C129.810327,198.429601 128.383127,204.392428 126.809964,210.274457 C126.347745,212.011594 126.688327,213.667935 126.809964,215.356594 C127.004582,218.25721 127.2884,221.141667 127.556,224.034203 C127.604655,224.527065 127.507345,224.720978 126.988364,224.777536 C72.8909148,230.930075 22.1731409,197.480381 6.72243636,145.459022 C4.46353032,137.908895 3.03603475,130.136236 2.46516364,122.278333 C0.819242123,101.429676 5.14992392,80.5439992 14.9531636,62.0521739 C15.0261455,61.9148188 15.1234545,61.7855435 15.2126545,61.6481884 C15.3018545,61.5108333 15.4072727,61.5269928 15.5045818,61.6481884 Z" fill="#FEFEFE"></path>
                    <path d="M15.5045818,61.6481884 L15.2288727,61.6481884 C15.8776,60.460471 16.5101091,59.2727536 17.1669455,58.0931159 C17.2561455,57.9315217 17.4021091,57.7214493 17.5561818,57.6891304 C18.7372322,57.3495704 19.9440667,57.1063758 21.1647273,56.9619565 C19.2834182,58.7637319 17.1669455,59.9676087 15.5045818,61.6481884 Z" fill="#FDFDFD"></path>
                    <path d="M29.7522545,40.3419928 C66.1053091,-0.985724638 121.020073,-6.05978261 159.278764,11.5378261 C158.199829,11.7319765 157.090734,11.6794853 156.035127,11.3843116 C153.2456,10.9964855 150.464182,10.5763406 147.682764,10.1238768 C147.298932,10.0585309 146.904806,10.1487059 146.588036,10.3743478 C144.155309,12.0306884 141.600945,13.6062319 139.160109,15.3352899 C137.9924,16.1432609 137.222036,17.4036957 136.216509,18.4217391 C135.738159,18.8556075 135.306083,19.3375629 134.927164,19.8599275 C134.059491,21.2334783 132.802582,21.5970652 131.261855,21.7182609 C125.585491,22.1707246 119.974,22.7524638 114.330073,23.2372464 C112.765018,23.3665217 111.256727,22.8171014 109.716,22.6231884 C108.402327,22.4615942 107.096764,22.2111232 105.799309,21.9444928 C105.255899,21.7955302 104.686103,22.0724725 104.469418,22.5908696 C102.888145,25.144058 101.225782,27.6568478 99.6526182,30.2100362 C99.4274665,30.6361717 98.9844551,30.9035023 98.5011273,30.9048913 C94.4465818,31.1149638 90.4650182,31.2038406 86.4753455,31.6563043 C83.3046909,32.0198913 80.4908364,30.9776087 77.5553455,30.1777174 C76.1524727,29.7898913 74.7496,29.3697464 73.3710545,28.9415217 C72.8298417,28.7579261 72.2344936,28.826143 71.7492364,29.1273551 C70.0382182,30.1130797 68.2217818,30.9291304 66.5837455,32.0198913 C64.1510182,33.6358333 61.4020364,34.1933333 58.5476364,34.5407609 C53.5362182,35.1548188 48.5166909,35.7688768 43.5539273,36.6414855 C39.7994182,37.3121014 36.2070909,38.6937319 32.5255636,39.7117754 C31.6358021,40.0518323 30.7020095,40.2640309 29.7522545,40.3419928 Z" fill="#FEFEFE"></path>
                    <path d="M110.916145,16.417971 C115.546436,13.4042391 120.192945,10.6571377 124.961091,8.12818841 C126.647782,7.23134058 128.318255,6.31025362 129.988727,5.38108696 C130.286695,5.13424434 130.707551,5.09876248 131.042909,5.29221014 C133.718909,6.86775362 136.419236,8.41097826 139.103345,9.96228261 C139.198817,10.0479634 139.285721,10.1426702 139.362836,10.2450725 L134.432509,13.994058 C132.502545,15.4564855 130.540145,16.8865942 128.642618,18.3975 C127.932333,18.9520116 127.069944,19.2788138 126.169345,19.3347464 C123.233855,19.6094565 120.30377,19.8976329 117.379091,20.1992754 C117.065201,20.2674467 116.737018,20.2124653 116.462764,20.0457609 L110.916145,16.417971 Z" fill="#767884"></path>
                    <path d="M101.363636,19.8276087 C101.306873,20.2881522 100.8852,20.2154348 100.625709,20.2881522 C98.1929818,20.9426087 95.7602545,21.5728261 93.3275273,22.2030435 C90.7001818,22.8898188 88.0728364,23.5523551 85.4536,24.2633696 C85.0303386,24.4055737 84.5652122,24.349129 84.1885818,24.1098551 C81.6585455,22.607029 79.1204,21.1122826 76.5660364,19.6579348 C75.9497455,19.3024275 76.0146182,19.1569928 76.5660364,18.8499638 C78.8426284,17.4750794 81.0112735,15.9301162 83.0533091,14.2283696 C83.5560727,13.7920652 84.1156,13.4203986 84.1804727,12.6124275 C84.2291273,12.0064493 84.6508,12.2730797 84.9913818,12.4023551 C86.4185818,13.0002536 87.8538909,13.5900725 89.2729818,14.2122101 C89.7641265,14.4510784 90.3310492,14.4831071 90.8461455,14.301087 C92.6788,13.6708696 94.5357818,13.1133696 96.3765455,12.515471 C96.8063273,12.3700362 97.1225818,12.2811594 97.4064,12.7982609 C98.6633091,15.0525 99.9607636,17.2825 101.242,19.5205797 C101.242,19.6013768 101.306873,19.7144928 101.363636,19.8276087 Z" fill="#767884"></path>
                    <path d="M114.005709,16.4502899 C117.379091,14.2364493 120.728145,12.2892391 124.150182,10.4551449 C126.088255,9.41286232 128.018218,8.34634058 129.940073,7.27981884 C130.267681,7.01183654 130.729494,6.9794323 131.091564,7.19902174 C132.713382,8.16858696 134.3352,9.10852657 135.957018,10.0188406 C136.435455,10.285471 136.394909,10.4632246 136.005673,10.7540942 C133.0864,12.9517754 130.172533,15.154843 127.264073,17.3632971 C126.661552,17.6809834 125.981623,17.8237551 125.301673,17.7753623 C122.804073,18.090471 120.290255,18.3086232 117.776436,18.5833333 C117.494467,18.6252114 117.206771,18.5650141 116.965527,18.4136594 L114.005709,16.4502899 Z" fill="#F58720"></path>
                    <path d="M85.1130182,22.663587 C84.9177813,22.5975852 84.7279961,22.5165434 84.5453818,22.4211957 C82.9235636,21.4758696 81.3017455,20.5143841 79.6799273,19.5771377 C79.1690545,19.2862681 79.1122909,19.1085145 79.6799273,18.7691667 C81.5771145,17.5459274 83.3481239,16.1385835 84.9670545,14.5677174 C85.098116,14.3703226 85.3597134,14.3069213 85.5671273,14.4222826 C85.6823227,14.4816807 85.801547,14.5329774 85.9239273,14.5757971 C87.3105818,15.0928986 88.6161455,16.1432609 90.0595636,16.0947826 C91.5029818,16.0463043 92.8409818,15.2868116 94.2276364,14.858587 C96.2305818,14.2122101 96.2305818,14.2122101 97.2442182,15.9897464 C97.7064364,16.7977174 98.1686545,17.6056884 98.6470909,18.4136594 C98.8579273,18.7772464 98.9309091,19.0357971 98.3794909,19.1731522 C94.0249091,20.2962319 89.6784364,21.4435507 85.3319636,22.5827899 L85.1130182,22.663587 Z" fill="#F58720"></path>
                </g>
            </g>
        </g>
    </g>
</svg>