<?xml version="1.0" encoding="UTF-8"?>
<svg width="720px" height="720px" viewBox="0 0 720 720" version="1.1" xmlns="http://www.w3.org/2000/svg" xmlns:xlink="http://www.w3.org/1999/xlink">
    <!-- Generator: Sketch 55.2 (78181) - https://sketchapp.com -->
    <title>JJMDC-Company-BWI-Icon4</title>
    <desc>Created with Sketch.</desc>
    <defs>
        <rect id="path-1" x="200" y="201" width="321" height="321"></rect>
        <filter x="-5.3%" y="-5.3%" width="111.8%" height="111.8%" filterUnits="objectBoundingBox" id="filter-2">
            <feOffset dx="2" dy="2" in="SourceAlpha" result="shadowOffsetOuter1"></feOffset>
            <feGaussianBlur stdDeviation="6" in="shadowOffsetOuter1" result="shadowBlurOuter1"></feGaussianBlur>
            <feColorMatrix values="0 0 0 0 0   0 0 0 0 0   0 0 0 0 0  0 0 0 0.12 0" type="matrix" in="shadowBlurOuter1"></feColorMatrix>
        </filter>
    </defs>
    <g id="JJMDC-Company-BWI-Icon4" stroke="none" stroke-width="1" fill="none" fill-rule="evenodd">
        <rect id="bg" fill="#F4F4F4" fill-rule="nonzero" x="0" y="0" width="720" height="720"></rect>
        <g id="card">
            <use fill="black" fill-opacity="1" filter="url(#filter-2)" xlink:href="#path-1"></use>
            <use fill="#FFFFFF" fill-rule="evenodd" xlink:href="#path-1"></use>
        </g>
        <g id="Reduce-Procedure-Time" transform="translate(247.000000, 246.000000)" fill-rule="nonzero">
            <path d="M131.22838,1.61741259 C162.784577,1.61741259 194.340775,1.61741259 225.896972,1.61741259 C226.616338,1.61741259 226.776197,1.77755245 226.776197,2.49818182 C226.776197,77.6998601 226.776197,152.901538 226.776197,228.103217 C226.776197,228.823846 226.616338,228.983986 225.896972,228.983986 C150.60331,228.983986 75.3096479,228.983986 0.0159859155,228.983986 C0.0159859155,153.494056 0.0159859155,78.0041259 0.0159859155,2.5141958 C0.0159859155,1.79356643 0.17584507,1.63342657 0.895211268,1.63342657 C30.9807042,1.63342657 61.0661972,1.63342657 91.1516901,1.63342657 C91.1516901,2.04178322 90.8479577,2.1779021 90.5921831,2.33003497 C87.2830986,4.33178322 86.5957042,7.51055944 86.9154225,10.9855944 C87.387007,15.7897902 90.5122535,18.1358392 95.0762324,18.4080769 C98.0344985,18.6602195 101.004865,18.7404238 103.972394,18.6482867 C111.030176,18.2559441 118.087958,18.5602098 125.137746,18.4641259 C126.568486,18.4641259 127.975246,18.7924126 129.421972,18.4641259 C131.595572,18.064759 133.288125,16.3468402 133.658239,14.1643706 C134.193366,11.5549406 134.225921,8.86712314 133.754155,6.24545455 C133.558064,4.76826574 132.827018,3.41473742 131.699965,2.44213287 C131.452183,2.19391608 131.148451,2.00975524 131.22838,1.61741259 Z" id="Path" fill="#FEFEFE"></path>
            <path d="M200.279542,54.0071678 C200.279542,58.338951 200.431408,64.8646503 200.215599,71.3983566 C200.208785,71.8776447 200.238177,72.3567624 200.303521,72.8316084 C200.342861,74.7301205 201.90918,76.2382902 203.804437,76.2025524 C204.216784,76.2346621 204.630998,76.2346621 205.043345,76.2025524 C206.695227,76.014342 208.363083,76.014342 210.014965,76.2025524 C211.221901,76.3867133 212.412852,76.0183916 213.635775,76.0023776 C214.706926,75.939616 215.738081,76.4192894 216.381355,77.2795685 C217.024629,78.1398475 217.194237,79.2660079 216.832958,80.2781119 C216.354239,81.6068273 215.542223,82.7897655 214.475035,83.7131119 C208.800035,89.5021678 203.756479,95.8356993 198.48912,101.993077 C195.184015,105.982896 191.678576,109.801822 187.986373,113.43507 C184.917077,116.381643 182.974789,116.357622 180.177254,113.202867 C172.109695,104.128275 164.066115,95.021655 156.046514,85.883007 L153.025176,82.415979 C151.770282,80.9667133 151.706338,79.2772378 152.121972,77.5237063 C152.353768,76.5148252 153.169049,76.2265734 154.096232,76.1945455 C156.55374,76.0702829 159.017419,76.1667522 161.457746,76.4827972 C162.37726,76.6053701 163.307602,76.6241708 164.231303,76.5388462 C166.900951,76.3066434 168.595458,74.481049 168.835246,71.6465734 C168.94723,69.9843314 168.882927,68.3148795 168.643415,66.6662238 C168.211796,63.1591608 168.435599,59.6360839 168.46757,56.113007 C168.523521,49.0748601 168.555493,42.0287063 168.403627,34.9905594 C168.295727,33.717068 168.295727,32.4367083 168.403627,31.1632168 C168.883204,28.0084615 170.497782,26.359021 173.670986,25.8225524 C176.170333,25.4983492 178.688135,25.3378684 181.208345,25.3421329 C185.556514,25.19 189.89669,25.3981818 194.228873,25.6383916 C198.225352,25.8545804 200.423415,28.1445804 200.335493,32.1240559 C200.167641,38.6817832 200.263556,45.2475175 200.279542,54.0071678 Z" id="Path" fill="#F28F1F"></path>
            <path d="M157.477254,47.5695455 C157.637135,50.7752866 157.535553,53.9887522 157.173521,57.1779371 C157.069613,58.0266783 156.885775,58.0266783 156.222359,57.6263287 C148.292138,52.8089471 139.631632,49.3175673 130.580951,47.2893007 C124.80357,46.009837 118.912484,45.3150777 112.996444,45.2154895 C106.193291,45.0284514 99.3902622,45.5923382 92.7103169,46.896958 C84.0539437,48.6745105 76.0609859,52.1655594 68.4357042,56.5613986 C61.9024381,60.2940657 55.9308175,64.9363314 50.699331,70.3494406 C42.9214344,78.5198047 36.7762291,88.1057641 32.5952817,98.5901049 C29.5857421,105.841475 27.8288986,113.552669 27.3998592,121.394021 C26.3288028,141.587657 31.2604577,160.13986 42.9861268,176.706329 C50.6273944,187.483741 60.6585563,195.530769 72.2723239,201.68014 C80.6628435,206.160894 89.8292415,208.997983 99.2805282,210.039441 C115.937852,211.881049 132.107606,210.111502 147.47007,203.001294 C155.629901,199.197373 163.075947,194.016074 169.482676,187.683916 C176.039607,181.408647 181.626728,174.189846 186.06007,166.26521 C189.257254,160.500175 191.015704,154.25472 192.454437,147.849126 C193.381136,143.173888 194.021767,138.446289 194.372746,133.692762 C194.579982,131.015727 194.972582,128.356344 195.547711,125.733811 C196.34892,122.88314 197.887493,120.295015 200.007782,118.231259 C202.701408,115.356748 205.834648,112.95465 208.552254,110.104161 C208.871972,109.75986 209.079789,109.847937 209.27162,110.216259 C209.528111,110.802934 209.669234,111.433662 209.687254,112.073881 C210.267853,119.061224 210.457317,126.07566 210.254754,133.084231 C210.009994,142.397588 208.501476,151.634289 205.770704,160.54021 C202.045986,172.246434 195.915387,182.647517 188.210176,192.111783 C179.46588,202.865175 168.5475,210.848147 156.318275,217.181678 C147.698492,221.682376 138.420625,224.784933 128.830493,226.373706 C124.448069,227.090285 120.024147,227.523558 115.586162,227.670839 C107.956967,228.054257 100.309177,227.543688 92.7982394,226.14951 C85.3427005,224.523924 78.051846,222.216237 71.0174296,219.25549 C61.0443446,215.204485 51.8940326,209.362207 44.0172183,202.016434 C38.3040379,196.881979 33.1125805,191.193265 28.5188732,185.033601 C23.7230986,178.483881 20.422007,171.133462 17.2727817,163.702972 C13.897998,155.640358 11.8077023,147.096976 11.0782394,138.38486 C10.5323361,132.069662 10.3775091,125.726651 10.6146479,119.392273 C10.8909869,114.66296 11.772081,109.988729 13.236338,105.484126 C14.8748944,99.9993357 16.2416901,94.4424825 18.2798944,89.0858042 C21.2053169,81.4231119 25.5854577,74.6251748 30.4931338,68.0994755 C43.1459859,51.2847902 59.6834155,39.8508042 79.3780634,32.8687063 C85.8162708,30.6626243 92.5003666,29.2562305 99.2805282,28.681049 C104.560066,28.158326 109.868931,27.9951422 115.170528,28.1926224 C122.44412,28.4568531 129.709718,28.8171678 136.751514,30.8349301 C143.293415,32.8052222 149.674578,35.2759742 155.838697,38.2253846 C157.229472,38.8659441 157.437289,40.050979 157.437289,41.3320979 C157.501232,43.4059091 157.477254,45.4877273 157.477254,47.5695455 Z" id="Path" fill="#FEFEFE"></path>
            <path d="M101.910211,109.119301 C101.910211,102.14521 101.846268,95.1631119 101.910211,88.181014 C101.958169,84.4817832 103.021232,81.1028322 106.018592,78.6366783 C109.279718,75.9463287 115.346373,76.4587762 117.656338,79.5895105 C118.935211,81.327028 119.151021,83.3608042 119.190986,85.4266084 C119.398803,96.6363986 119.382817,107.902238 119.262923,119.136049 C119.111028,121.369312 119.151141,123.611525 119.382817,125.837902 C119.957652,129.240812 121.614544,132.366631 124.106655,134.749685 C132.898908,143.509336 141.195599,152.653322 149.596197,161.733252 C151.026937,163.278601 152.30581,164.936049 152.481655,167.137972 C152.870733,170.554246 151.145962,173.864013 148.125493,175.497273 C145.06419,177.306853 141.970915,176.882483 139.11743,174.880734 C137.223099,173.551573 135.776373,171.677937 134.177782,170.076538 C130.106702,165.875536 126.067594,161.642506 122.060458,157.377448 C116.513345,151.484301 111.006197,145.567133 105.674894,139.481818 C103.167562,136.687609 101.795921,133.053948 101.830282,129.296923 C101.830282,122.571049 101.830282,115.847844 101.830282,109.127308 L101.910211,109.119301 Z" id="Path" fill="#FEFEFE"></path>
        </g>
        <path d="M335.151255,262 L379.697901,262 C385.496891,262 390.197901,257.29899 390.197901,251.5 C390.197901,245.70101 385.496891,241 379.697901,241 L335.151255,241 C329.352265,241 324.651255,245.70101 324.651255,251.5 C324.651255,257.29899 329.352265,262 335.151255,262 Z" id="Line" stroke="#767884" stroke-width="1.75" fill-rule="nonzero"></path>
        <path d="M367.499558,331.276527 C367.446334,325.477782 362.702375,320.820116 356.90363,320.872444 C351.104884,320.926564 346.447218,325.670522 346.500442,331.469268 L346.92502,377.727116 C346.948419,380.27645 347.898545,382.730191 349.59811,384.630488 L382.281901,421.174498 C386.147752,425.496937 392.785672,425.867075 397.108111,422.001224 C401.43055,418.135373 401.800688,411.497452 397.934837,407.175013 L367.887833,373.579216 L367.499558,331.276527 Z" id="Path-2" stroke="#767884" stroke-width="1.75" fill-rule="nonzero"></path>
        <path d="M403.877768,283.952434 C389.522865,276.46557 373.536143,272.5 357,272.5 C300.943098,272.5 255.5,317.943098 255.5,374 C255.5,430.056902 300.943098,475.5 357,475.5 C413.056902,475.5 458.5,430.056902 458.5,374 L439.5,374 C439.5,419.563492 402.563492,456.5 357,456.5 C311.436508,456.5 274.5,419.563492 274.5,374 C274.5,328.436508 311.436508,291.5 357,291.5 C370.458406,291.5 383.433364,294.71849 395.091459,300.798821 L403.877768,283.952434 Z" id="Path" stroke="#767884" stroke-width="1.75" stroke-linejoin="round" fill-rule="nonzero"></path>
    </g>
</svg>