<?xml version="1.0" encoding="UTF-8"?>
<svg width="350px" height="350px" viewBox="0 0 350 350" version="1.1" xmlns="http://www.w3.org/2000/svg" xmlns:xlink="http://www.w3.org/1999/xlink">
    <!-- Generator: Sketch 55.2 (78181) - https://sketchapp.com -->
    <title>JJMDC-Company-BWI-Icon3</title>
    <desc>Created with Sketch.</desc>
    <g id="JJMDC-Company-BWI-Icon3" stroke="none" stroke-width="1" fill="none" fill-rule="evenodd">
        <g id="Stroke" transform="translate(55.000000, 40.000000)" fill-rule="nonzero">
            <path d="M133.318577,0.969894737 C135.190993,1.51673169 137.090862,1.96426473 139.010277,2.31063158 C160.980169,7.83303478 177.957531,25.3145754 182.874308,47.4772982 C183.932645,52.1964219 184.01658,57.0826956 183.120949,61.8355439 C182.767255,63.7825492 182.639923,65.7640909 182.741502,67.7404912 C182.921699,69.642294 183.606237,71.4611356 184.724111,73.0083509 C187.284826,76.857023 190.25915,80.4123965 193.593676,83.6106316 C195.164694,84.9518345 195.813008,87.087084 195.253755,89.0781754 C194.70542,91.1133284 192.985824,92.615459 190.899605,92.8816842 C189.125692,93.2525263 187.361265,93.7089474 185.577866,94.0417544 C184.743083,94.1938947 184.496443,94.5267018 184.486957,95.3824912 C184.486957,100.935614 184.417391,106.485567 184.278261,112.032351 C184.173913,117.433333 181.318577,120.704351 175.996838,121.683754 C173.03502,122.129228 170.020975,122.093911 167.070356,121.579158 C164.148617,121.179789 161.226877,121.122737 158.532806,122.587088 C156.113182,123.894073 154.507083,126.328596 154.254545,129.07207 C153.790912,131.813944 153.94979,134.625308 154.719368,137.297158 C155.447816,140.101028 157.404814,142.422852 160.041107,143.610982 C165.269816,145.848435 170.633769,147.753953 176.101186,149.316246 C189.514625,153.471579 203.032411,157.313123 216.332016,161.839298 C221.976285,163.741053 227.335968,166.184807 231.813439,170.235544 C236.374952,174.118899 239.238575,179.63794 239.791304,185.611228 C239.924111,187.104105 239.639526,188.568456 239.639526,190.051825 C239.639526,216.524246 239.639526,242.993497 239.639526,269.459579 C239.639526,270.591123 239.440316,270.971474 238.197628,270.971474 C159.576285,270.946117 80.9296443,270.933439 2.25770751,270.933439 C1.11936759,270.933439 0.749015194,270.714737 0.749015194,269.478596 C0.796837945,246.048982 0.844268775,222.619368 0.749015194,199.189754 C0.701976285,188.625509 4.96126482,180.172211 12.6545455,173.249825 C19.9873518,166.660246 28.6956522,162.533439 37.887747,159.328982 C45.6614462,156.780623 53.6226353,154.84758 61.6980237,153.547649 C69.7616479,152.253609 77.6410112,149.993349 85.1667984,146.815439 C85.4418972,146.691825 85.7075099,146.549193 85.9920949,146.435088 C88.515415,145.370105 89.7391304,143.734596 89.5114625,140.729825 C88.8189723,131.706 89.1794466,122.663158 88.9233202,113.629825 C88.8322218,108.900608 87.9603452,104.219169 86.343083,99.7755439 C85.1478261,96.5425614 82.7857708,94.1653684 80.6513834,91.598 C73.8118577,83.3253684 68.5660079,74.1779298 66.2893281,63.5946667 C62.6940711,46.8782456 66.4885375,31.9019298 77.6727273,18.9890175 C85.8213439,9.56582456 96.4268775,4.27894737 108.436364,1.61649123 C109.415504,1.54945754 110.376966,1.32136927 111.282213,0.941368421 L133.318577,0.969894737 Z M120.265613,269.801895 C158.988142,269.782877 197.73913,269.798725 236.518577,269.849439 C237.618972,269.849439 237.884585,269.583193 237.884585,268.480175 C237.884585,242.280339 237.884585,216.077333 237.884585,189.871158 C237.884585,189.338667 237.884585,188.882246 237.884585,188.387789 C238.301976,182.397263 236.13913,177.367123 232.088538,173.107193 C227.791304,168.581018 222.365217,165.937579 216.56917,163.931228 C203.791304,159.509649 190.785771,155.801228 177.865613,151.83607 C171.630487,150.079843 165.504386,147.955682 159.519368,145.474702 C156.463531,144.193735 154.132077,141.61989 153.15415,138.447719 C152.142374,135.332217 151.898264,132.01746 152.442688,128.786807 C152.870197,124.573295 155.872972,121.073729 159.965217,120.019719 C161.974059,119.42717 164.085995,119.271558 166.159684,119.563298 C169.242688,119.953158 172.183399,120.514175 175.437154,119.896105 C178.690909,119.278035 181.356522,117.889754 182.191304,114.352491 C182.427153,113.236909 182.535361,112.098012 182.513834,110.95786 C182.618182,105.404737 182.618182,99.851614 182.618182,94.308 C182.547584,93.8778844 182.662087,93.4379235 182.933301,93.0971909 C183.204516,92.7564583 183.60705,92.5468571 184.041107,92.5203509 C186.18498,92.0258947 188.319368,91.5314386 190.463241,91.0750175 C191.898919,90.9282826 193.102872,89.9244773 193.5083,88.5361754 C193.944664,87.0147719 193.271146,85.9212632 192.24664,84.8943158 C189.751779,82.3935088 187.427668,79.7405614 185.188933,77.0020351 C181.698024,72.7040702 180,68.0067368 181.13834,62.4060702 C182.172432,57.7530885 182.172432,52.9290168 181.13834,48.2760351 C176.7083,29.1538947 165.581028,15.4707719 147.832411,7.38831579 C135.747036,1.89224561 122.997628,0.808245614 110.011067,3.29954386 C97.5462451,5.69575439 86.6561265,11.1918246 78.4316206,21.0904561 C68.5280632,32.9859298 64.9897233,46.7641404 67.9494071,61.9781754 C69.9035573,72.086 74.7035573,80.8530877 80.9644269,88.8975088 C82.8711462,91.3507719 85.2237154,93.4522105 86.7604743,96.2002456 C89.5209486,101.135298 90.3747036,106.564807 90.7541502,112.079895 C91.3897233,120.799439 90.63083,129.538 91.3897233,138.257544 C91.4466403,139.427123 91.2474308,140.625228 91.3897233,141.785298 C91.6932806,144.400211 90.4031621,146.035719 88.3162055,147.252842 C87.7849802,147.557123 87.2632411,147.870912 86.7225296,148.127649 C78.6213439,151.940667 69.998419,154.032596 61.2711462,155.573018 C52.3684403,156.993584 43.6229249,159.270353 35.1557312,162.371789 C26.9217391,165.538211 19.1810277,169.56993 12.7588933,175.779158 C6.18498024,182.150035 2.63715415,189.823614 2.63715415,199.123193 C2.67509881,222.204152 2.67509881,245.288281 2.63715415,268.375579 C2.63715415,269.507123 2.88379447,269.801895 4.05059289,269.801895 C42.7857708,269.801895 81.5241107,269.801895 120.265613,269.801895 Z" id="Combined-Shape" fill="#767883"></path>
            <path d="M130.16917,210.020246 C130.31877,203.344881 134.298398,197.355658 140.385771,194.644561 C141.116206,194.283228 141.334387,194.007474 141.135178,193.132667 C139.281919,186.753961 136.9218,180.534344 134.07747,174.533509 C130.434783,166.355965 126.488538,158.302035 123.130435,150.000877 C122.72253,148.992947 122.912253,148.593579 123.898814,148.317825 C124.885375,148.04207 125.796047,147.224316 126.516996,147.462035 C127.237945,147.699754 127.332806,149.059509 127.693281,149.924807 C131.402372,158.901088 135.737549,167.601614 139.579447,176.549368 C141.903776,181.662506 143.807345,186.957497 145.271146,192.381474 C145.422925,192.971018 145.612648,193.189719 146.219763,193.142175 C152.148617,192.676246 157.005534,194.910807 161.04664,199.151719 C162.128063,200.283263 163.304348,201.300702 164.395257,202.413228 C164.888538,202.917193 165.182609,202.86014 165.637945,202.356175 C167.041897,200.815754 168.483794,199.284842 169.944664,197.810982 C174.972332,192.790351 180.977075,191.040737 187.76917,193.113649 C194.561265,195.186561 198.668775,200.007509 199.89249,206.996456 C200.945129,212.415125 199.233911,218.00321 195.329644,221.896702 C186.172332,231.532257 177.002372,241.139287 167.819763,250.717789 C166.055336,252.552982 166.074308,252.543474 164.281423,250.812877 C154.98498,241.836596 145.716996,232.898351 136.392095,223.979123 C132.428635,220.427277 130.164883,215.34937 130.16917,210.020246 Z" id="Path" fill="#F48620"></path>
            <path d="M113.340711,100.564772 C113.435573,97.9498596 113.577866,94.3460351 113.701186,90.7422105 C113.786561,88.0892632 112.818972,85.6169825 112.373123,83.049614 C112.259289,82.4030175 111.709091,82.6787719 111.358103,82.6787719 C107.966236,82.7386061 104.581531,82.3452876 101.293281,81.509193 C99.0071146,80.8721053 96.7209486,80.0353333 95.4972332,77.838807 C94.8047431,76.6026667 94.2071146,76.4695439 92.8600791,76.6597193 C86.9027668,77.4774737 82.8332016,73.3506667 83.3075099,67.1509474 C83.3075099,66.6945263 83.4213439,66.3522105 82.8996047,66.0289123 C79.3517787,63.8038596 77.9478261,60.3236491 77.5968379,56.3489825 C77.1277059,51.3745652 78.6304652,46.4149137 81.7802372,42.5422456 C82.3020193,41.946724 82.4143536,41.094702 82.0648221,40.3837544 C80.7962086,36.6449487 82.3983497,32.5336936 85.8592885,30.6467719 C86.3866333,30.4495091 86.7376638,29.9463015 86.741502,29.3821053 C87.2063241,21.2140702 96.3225296,17.0872632 102.573913,19.0270526 C102.972332,19.1506667 103.304348,19.3503509 103.579447,18.760807 C104.964427,15.8225965 108.474308,14.4438246 112.268775,15.4042105 C112.800857,15.5726837 113.381783,15.4619375 113.81502,15.1094386 C117.573262,12.4454995 122.592529,12.4226994 126.374704,15.052386 C126.775955,15.3822413 127.33291,15.4455133 127.797628,15.2140351 C132.018972,13.6260702 136.268775,14.2631579 138.915415,18.3138947 C139.2,18.7417895 139.494071,18.7322807 139.968379,18.6657193 C143.459289,18.1617544 146.836364,18.3899649 149.843478,20.5199298 C150.918274,21.1769775 151.819538,22.0836504 152.471146,23.1633684 C152.863568,23.9402789 153.642835,24.4452847 154.510672,24.4850877 C156.293992,24.7640225 157.88326,25.7687139 158.902767,27.2616491 C159.391778,27.7502724 159.679601,28.4053571 159.709091,29.0968421 C159.519368,30.3424912 160.287747,30.7989123 161.094071,31.3884561 C164.866233,34.0201591 167.138055,38.3160954 167.193676,42.9225965 C167.298024,45.9178596 166.368379,49.5121754 162.346245,50.824386 C161.985771,50.948 161.81502,51.1001404 161.852964,51.5470526 C162.071146,54.5708421 160.335178,56.3014386 157.849802,57.5470877 C156.947185,57.9884967 155.990262,58.3082312 155.003953,58.4979649 C150.846075,59.3728858 147.10721,61.6356299 144.398419,64.916386 C141.200309,68.8247857 136.659182,71.3924647 131.667984,72.1145263 C131.22319,72.195475 130.783035,72.3002212 130.349407,72.4283158 C127.446259,73.0351581 125.065244,75.1086623 124.060079,77.9053684 C122.441191,82.0239058 121.054032,86.2302194 119.905138,90.5044912 C119.298024,92.8151228 119.601581,95.2588772 119.573123,97.6550877 C119.390956,104.989029 119.650717,112.327304 120.350988,119.62986 C120.853756,125.532977 121.953472,131.369629 123.633202,137.04993 C123.870356,137.801123 123.822925,138.181474 122.959684,138.390667 C121.603162,138.723474 120.275099,139.189404 118.947036,139.645825 C118.339921,139.855018 117.998419,139.816982 117.818182,139.103825 C116.153177,133.380634 115.007023,127.518455 114.393676,121.588667 C113.625296,114.923018 113.464032,108.24786 113.340711,100.564772 Z M115.304348,101.563193 C115.252327,108.1094 115.581742,114.653066 116.290909,121.160772 C116.811378,126.37516 117.763271,131.537171 119.136759,136.593509 C119.241107,137.087965 119.298024,137.772596 120.085375,137.287649 C120.607115,136.954842 121.764427,137.401754 121.38498,136.003965 C118.766798,126.495193 118.026877,116.739193 117.72332,106.935649 C117.562055,102.000596 117.618972,97.0655439 117.865613,92.1304912 C117.865613,91.4078246 117.808696,90.9418947 116.916996,91.0464912 C116.262451,91.0940351 115.494071,90.7707368 115.494071,91.9973684 C115.361265,95.182807 115.304348,98.3777544 115.304348,101.563193 Z M99.3960474,20.5674737 C93.3438735,20.5674737 89.198419,24.3139298 88.686166,30.1903509 C88.697063,31.1215168 88.1006014,31.9508384 87.2158103,32.2347368 C84.2585331,33.472399 82.8143992,36.8388533 83.9525692,39.8417544 C84.5818073,41.079376 84.3652153,42.5800888 83.4118577,43.5882105 C81.0627608,46.4082933 79.6852843,49.9135538 79.484585,53.5819298 C79.3612648,58.1651579 80.1391304,62.3965614 84.7209486,64.8212982 C85.3503845,65.0886221 85.6593853,65.8043661 85.4229249,66.4472982 C85.1947043,67.4099598 85.1560374,68.4080052 85.3090909,69.3855088 C85.5586078,72.1269647 87.6263869,74.3521913 90.3367589,74.796 C91.6906193,74.9505154 93.061761,74.7844138 94.3399209,74.3110526 C95.5256917,73.9782456 96.113834,74.2730175 96.4743083,75.4711228 C96.8429377,76.7203904 97.6929787,77.7709304 98.8363636,78.3903158 C100.16419,79.1173495 101.593649,79.6398487 103.07668,79.9402456 C106.235573,80.7009474 109.470356,80.5868421 112.67668,80.758 C113.458926,80.7473888 114.103002,81.3717626 114.118577,82.1557895 C114.460079,84.1241053 114.924901,86.0258596 115.332806,87.927614 C115.484585,88.5456842 115.437154,89.2588421 116.433202,89.1067018 C117.249012,88.9830877 118.112253,89.43 118.4917,88.0322105 C119.559219,84.0852886 120.893528,80.2157832 122.485375,76.4505263 C123.604785,73.7031566 125.9251,71.6263845 128.774704,70.8213333 C129.633208,70.525836 130.511228,70.2907158 131.402372,70.1176842 C135.701478,69.4628985 139.61609,67.2626527 142.41581,63.9274737 C145.487127,60.151176 149.761124,57.5491062 154.520158,56.5581754 C155.595182,56.3325631 156.628805,55.9412239 157.58419,55.3981053 C158.997628,54.6088772 160.316206,52.7546667 159.690119,50.9194737 C159.527976,50.5414383 159.554996,50.1086188 159.762889,49.7537943 C159.970783,49.3989697 160.334731,49.1645002 160.743083,49.1223158 C163.674308,48.3330877 165.078261,46.6405263 165.078261,43.5787018 C165.246575,38.9050522 162.783166,34.5323693 158.703557,32.2632632 C158.058498,31.8829123 157.517787,31.5786316 157.565217,30.6277544 C157.669565,28.5928772 156.720949,26.976386 154.823715,26.6911228 C152.641897,26.4058596 151.427668,25.2267719 150.080632,23.5532281 C147.424506,20.2727018 143.63004,19.8828421 139.702767,20.7005965 C138.776544,21.0248882 137.756438,20.5878363 137.350198,19.6926667 C136.426892,17.9505788 134.733767,16.7509237 132.787352,16.4596842 C131.204755,16.228205 129.589259,16.476571 128.148617,17.1728421 C127.218791,17.6818963 126.06705,17.5279649 125.302767,16.7924912 C122.23174,14.4898871 118.020939,14.4667381 114.924901,16.7354386 C114.014093,17.5293395 112.739694,17.7526164 111.614229,17.3154737 C108.616601,16.4026316 106.330435,17.5436842 104.973913,20.3963158 C104.861156,20.8083153 104.568952,21.1473161 104.17865,21.3189418 C103.788347,21.4905675 103.341624,21.4764911 102.962846,21.2806316 C101.846393,20.7650979 100.624383,20.520765 99.3960474,20.5674737 Z" id="Combined-Shape" fill="#767883"></path>
            <path d="M122.760474,146.121298 C121.142975,145.984831 119.929984,144.578967 120.028458,142.954877 C119.981588,142.267588 120.209181,141.589808 120.661112,141.070811 C121.113043,140.551814 121.752246,140.234166 122.437945,140.187825 C124.064336,140.308646 125.313422,141.681742 125.283794,143.316211 C125.344295,144.029379 125.10726,144.735793 124.629095,145.267352 C124.150931,145.798911 123.474393,146.108084 122.760474,146.121298 Z" id="Path" fill="#767884"></path>
            <path d="M119.316996,30.1808421 C120.834783,30.1808421 122.352569,30.1808421 123.870356,30.1808421 C124.619763,30.1808421 124.932806,30.2854386 124.866403,31.1317193 C124.43004,36.7704211 124.050593,42.4091228 123.642688,48.0573333 C123.471937,50.4345263 123.244269,52.8117193 123.111462,55.2079298 C123.111462,55.9210877 122.902767,56.158807 122.162846,56.158807 C120.265613,56.1017544 118.368379,56.158807 116.471146,56.158807 C115.845059,56.158807 115.626877,55.9591228 115.579447,55.3220351 C115.133597,48.8085263 114.63083,42.2950175 114.194466,35.7910175 C114.080632,34.2030526 113.976285,32.6055789 113.805534,31.0366316 C113.73913,30.3805263 113.881423,30.1523158 114.564427,30.1713333 C116.148617,30.2093684 117.742292,30.1808421 119.316996,30.1808421 Z" id="Path" fill="#F48620"></path>
            <path d="M119.316996,67.1509474 C118.064822,67.1509474 116.812648,67.1509474 115.52253,67.1509474 C114.924901,67.1509474 114.735178,66.9702807 114.744664,66.3807368 C114.744664,64.3268421 114.744664,62.2824561 114.744664,60.2380702 C114.744664,59.5724561 114.972332,59.4012982 115.598419,59.4012982 C118.093281,59.4012982 120.597628,59.4012982 123.09249,59.4012982 C123.756522,59.4012982 123.917787,59.62 123.9083,60.2570877 C123.9083,62.3014737 123.9083,64.3553684 123.9083,66.3997544 C123.9083,67.0178246 123.699605,67.1699649 123.120949,67.1509474 C121.925692,67.1224211 120.635573,67.1509474 119.316996,67.1509474 Z" id="Path" fill="#F48720"></path>
        </g>
    </g>
</svg>