<?xml version="1.0" encoding="UTF-8"?>
<svg width="780px" height="780px" viewBox="0 0 780 780" version="1.1" xmlns="http://www.w3.org/2000/svg" xmlns:xlink="http://www.w3.org/1999/xlink">
    <!-- Generator: Sketch 54.1 (76490) - https://sketchapp.com -->
    <title>Artboard</title>
    <desc>Created with Sketch.</desc>
    <g id="Artboard" stroke="none" stroke-width="1" fill="none" fill-rule="evenodd">
        <rect fill="#FFFFFF" x="0" y="0" width="780" height="780"></rect>
        <g id="JJMDC-Company-Mentor-Logo" transform="translate(70.000000, 356.666667)" fill="#004277" fill-rule="nonzero">
            <path d="M47.0344052,22.4553522 L47.0372853,22.4539122 L46.1193056,21.627352 L42.0391551,25.7032732 L42.6943406,26.3663934 L42.7029807,26.3678334 C44.1112695,27.5767137 45.6124367,28.6869541 47.1877618,29.6791143 L35.2252251,29.6791143 L35.2252251,17.7170308 C36.2252831,19.2988712 37.3376586,20.8000717 38.5529919,22.2184721 L38.5573118,22.2141521 C38.7214682,22.4128722 39.2492166,22.9334323 39.2492166,22.9334323 L43.3437664,18.8949511 L42.5942628,18.0511109 C42.5942628,18.0511109 42.5913832,18.0554309 42.5870633,18.0554309 C38.4961131,13.1471894 35.818492,7.02286754 35.2151453,0.326145553 L29.3263948,0.326145553 C28.7208882,7.04950759 26.0274274,13.1824694 21.9141579,18.0878309 L21.2128933,18.8049511 L25.3715218,22.9629524 C25.3715218,22.9629524 28.3148171,19.6459114 29.3523143,17.7170308 L29.3523143,29.6791143 L17.3940973,29.6791143 C18.9643828,28.6869541 21.0739364,26.9531935 22.4764655,25.7457532 L18.363196,21.617992 C13.6134605,26.0279933 6.70809242,28.9907942 0.00143996832,29.6301543 L0,35.5226361 C6.73113192,36.0907163 12.8869965,38.7878371 17.8152881,42.9335983 L17.8052083,42.9371985 L18.5079129,43.6283984 L22.5729434,39.5207973 L21.8767187,38.8792771 L21.8860785,38.8713571 C20.4705897,37.6603168 18.9701427,36.5479164 17.3940973,35.5521561 L29.3523143,35.5521561 L29.3523143,47.5127998 C28.3572962,45.9316794 27.2478006,44.4326388 26.0346273,43.0192784 L26.0418271,43.0005584 L25.3981613,42.2827181 L21.3547302,46.4119196 L21.9616769,47.0915997 L21.9587969,47.0987996 C26.0576668,52.0380012 28.7410477,58.1954427 29.3443945,64.902965 L35.2151453,64.902965 C35.818492,58.191843 38.6969887,51.410881 43.2537685,46.3031992 L39.2384168,42.2488782 C37.8718869,43.6751986 36.2180832,45.9403191 35.2252251,47.5127998 L35.2252251,35.5521561 L47.1877618,35.5521561 C47.1877618,35.5521561 45.8745108,36.3779964 44.6476576,37.3082366 C43.4179247,38.2406369 42.0269153,39.5517573 42.0269153,39.5517573 L46.1034656,43.6319985 L46.7586515,42.9695985 C47.1805619,42.6182381 47.6384718,42.209998 48.0755022,41.8823979 C52.8547571,38.3781569 58.4252747,36.0950363 64.5768194,35.5427961 L64.5768194,29.6510344 C57.9731248,29.0555942 51.919498,26.4484734 47.0344052,22.4553522" id="Fill-1"></path>
            <path d="M111.9583,15.2025989 L111.9583,15.0026954 L127.683571,15.0026954 L127.683571,15.2025989 C126.106215,16.6826116 125.116905,17.3579219 125.38181,19.7792982 L128.471895,48.9121406 C128.865346,52.680503 129.19488,56.4488654 132.088949,59.0730527 L132.088949,59.2744102 L114.723112,59.2744102 L114.723112,59.0730527 C115.840969,57.927424 117.024874,56.1130274 116.828148,54.29645 L114.461048,30.6794896 L114.262192,30.6794896 L105.700008,60.0107817 C103.458613,59.4772211 101.350027,58.1956584 99.4388753,56.9170028 C96.3445292,54.8336451 95.5526552,52.0073736 94.3012809,48.5741222 L87.8434226,30.6794896 L87.6445661,30.6794896 L85.4074329,53.8901009 C85.2092869,56.181358 86.3931922,58.0633586 88.304343,59.0730527 L88.304343,59.2744102 L75.3396226,59.2744102 L75.3396226,59.0730527 C78.2294307,56.6509496 78.3636587,53.283848 78.7556897,49.6536007 L81.9118233,21.3923375 C82.1767282,18.8379345 81.1874183,16.818546 79.4140461,15.2025989 L79.4140461,15.0026954 L94.5612143,15.0026954 L94.5612143,15.2025989 L104.317246,40.9785169 L111.9583,15.2025989" id="Fill-4"></path>
            <path d="M153.639209,50.8499044 C155.780582,51.6999136 158.184465,51.8284683 160.460243,51.8284683 C164.091967,51.8284683 167.464683,51.243297 169.925267,48.234545 L170.247978,48.234545 L167.65719,58.0539084 L138.938005,58.0539084 L138.938005,57.8593196 C142.114014,55.8403718 141.661099,52.202894 141.661099,48.8169069 L141.661099,24.528419 C141.661099,21.1585889 142.114014,17.4656148 138.938005,15.5218333 L138.938005,15.3265419 L161.629283,15.3265419 C162.602316,15.3265419 163.639052,15.3265419 164.349576,15.0026954 L164.546283,15.0026954 L164.546283,24.397054 L164.349576,24.397054 C162.602316,21.3538803 158.89989,21.6777268 155.71828,21.6777268 L153.639209,21.6777268 L153.639209,32.1756924 L159.681116,32.1756924 C160.591148,32.1756924 161.499078,32.1096587 162.084298,31.8525484 L162.40771,31.8525484 L162.40771,40.9532674 L162.084298,40.9532674 C161.176368,38.3505531 158.184465,38.6132833 155.780582,38.6132833 L153.639209,38.6132833 L153.639209,50.8499044" id="Fill-5"></path>
            <path d="M214.356652,60.0107817 C212.084671,60.0107817 208.509403,58.3522501 206.564295,57.3575603 C201.757991,54.9070009 200.524148,52.6497932 197.340989,48.4082198 L184.876304,31.4404936 L184.681302,31.4404936 L184.681302,48.9395802 C184.681302,52.7829915 184.743731,55.6975964 187.536185,58.4181327 L187.536185,58.6164978 L175.00346,58.6164978 L175.00346,58.4181327 C177.863954,55.6975964 177.928487,52.7829915 177.928487,48.9395802 L177.928487,26.0710325 C177.928487,20.9672515 177.668251,19.1791021 174.161725,15.1996282 L174.161725,15.0026954 L187.666654,15.0026954 L187.666654,15.1996282 L207.601733,41.843556 L207.601733,24.679613 C207.601733,20.8369179 207.536498,17.9165841 204.744044,15.1996282 L204.744044,15.0026954 L217.212938,15.0026954 L217.212938,15.1996282 C214.419081,17.9165841 214.356652,20.8369179 214.356652,24.679613 L214.356652,60.0107817" id="Fill-6"></path>
            <path d="M245.704958,48.6076568 C245.704958,52.322704 245.773137,55.2491569 248.511973,57.8583423 L248.511973,58.0539084 L231.239465,58.0539084 L231.239465,57.8583423 C234.366023,55.8365576 233.919076,52.1271384 233.919076,48.7420207 L233.919076,22.5650429 C232.836489,22.3054609 231.879239,22.3054609 230.733293,22.3054609 C227.80163,22.3054609 225.951176,23.0208941 223.530504,24.7155634 L223.083558,25.0391615 L225.569653,15.0026954 L226.781711,15.1954473 L256.350404,15.1954473 L254.187295,25.0391615 C253.229356,22.8246248 251.25081,22.1739112 248.95892,22.1739112 C247.811597,22.1739112 246.788924,22.2414447 245.704958,22.5650429 L245.704958,48.6076568" id="Fill-7"></path>
            <path d="M271.854924,34.7257385 C271.854924,27.9826063 275.228329,20.584512 282.867338,20.584512 C291.736096,20.584512 294.652898,31.255999 294.652898,38.7221413 C294.652898,41.9274861 294.201196,45.268218 292.255728,47.8831043 C290.182803,50.7000081 287.077617,52.4671297 283.643985,52.4671297 C279.954038,52.4671297 276.719295,49.9791246 274.903384,46.8361573 C273.089575,43.5684354 271.854924,38.5250856 271.854924,34.7257385 M259.285714,36.4928602 C259.285714,50.308732 269.589412,59.032345 282.867338,59.032345 C296.014305,59.032345 307.229111,50.7000081 307.229111,36.4290652 C307.229111,22.0248615 297.244755,14.0242588 283.643985,14.0242588 C270.496317,14.0242588 259.285714,22.5479805 259.285714,36.4928602" id="Fill-8"></path>
            <path d="M329.540393,21.3120341 C330.847011,21.3120341 332.218501,21.4427535 333.328385,22.2235564 C335.093341,23.4597689 335.942325,25.6700524 335.942325,27.7510219 C335.942325,31.8525208 332.936329,35.298314 328.889553,36.0130543 L328.889553,21.3120341 L329.540393,21.3120341 M328.889553,39.4609559 L336.46201,53.643315 C338.742421,57.6745349 340.826804,58.2606638 345.188776,58.0013332 L354.19407,57.4137985 C351.580835,55.2702805 349.688955,52.5350107 347.92682,49.6078788 L340.177373,36.6652461 C344.472357,34.8436071 347.92682,31.2642832 347.92682,26.386901 C347.92682,22.0260716 345.970772,18.5802783 342.128485,16.498606 C339.198644,14.9391088 336.591755,15.0030629 333.393963,15.0030629 L314.078167,15.0026954 L314.078167,15.1963309 C317.27737,17.2133463 316.819032,20.9212812 316.819032,24.3052287 L316.819032,48.5037912 C316.819032,51.8856303 317.27737,55.5907542 314.078167,57.6105804 L314.078167,57.805957 L331.628302,57.805957 L331.628302,57.6105804 C328.431214,55.5907542 328.889553,51.8856303 328.889553,48.5037912 L328.889553,39.4609559" id="Fill-9"></path>
            <path d="M356.625331,20.2846675 C357.653169,20.2846675 358.821403,20.164893 358.821403,18.8495645 C358.821403,17.6729991 357.69381,17.5532246 356.764987,17.5532246 L354.506106,17.5532246 L354.506106,20.2846675 L356.625331,20.2846675 Z M359.832985,24.8718849 L358.4815,24.8718849 L356.281733,21.1815156 L354.506106,21.1815156 L354.506106,24.8718849 L353.355606,24.8718849 L353.355606,16.6958144 L357.028781,16.6958144 C358.602682,16.6958144 359.97412,17.0551379 359.97412,18.9291707 C359.97412,20.4643293 358.944803,21.142808 357.492085,21.1815156 L359.832985,24.8718849 Z M362.091127,20.8236528 C362.091127,17.5532246 359.387416,14.9415562 356.119909,14.9415562 C352.912254,14.9415562 350.249183,17.6131118 350.249183,20.8032035 C350.249183,24.0531823 352.812499,26.7853556 356.100697,26.7853556 C359.428796,26.7853556 362.091127,24.1532379 362.091127,20.8236528 Z M349.301887,20.8236528 C349.301887,17.0149696 352.40831,14.0242588 356.20119,14.0242588 C359.97412,14.0242588 363,17.0938456 363,20.8630907 C363,24.6717738 359.912789,27.722372 356.119909,27.722372 C352.307816,27.722372 349.301887,24.5921676 349.301887,20.8236528 L349.301887,20.8236528 Z" id="Fill-10"></path>
        </g>
        <path d="M455.5,371.669362 L455.5,414.720575" id="Line" stroke="#004277" stroke-width="2" stroke-linecap="square"></path>
        <text id="Promise" font-family="HelveticaNeue-Thin, Helvetica Neue" font-size="60" font-weight="300" letter-spacing="5.30000019" fill="#AD608A">
            <tspan x="477" y="414">Promis</tspan>
            <tspan x="677.940001" y="414">e</tspan>
        </text>
    </g>
</svg>